<svg width="150" height="106" viewBox="0 0 150 106" fill="none" xmlns="http://www.w3.org/2000/svg">
<path fill-rule="evenodd" clip-rule="evenodd" d="M0.775812 48.5978C33.8178 88.1204 66.8598 101.186 99.9018 87.7993L98.877 86.7709C97.6791 85.5693 97.0692 83.9997 97.0404 82.4228L95.3083 80.6908C79.8536 90.0148 59.7152 87.756 46.6745 74.6756C31.1296 59.0837 31.1296 33.7998 46.6745 18.2115C62.2194 2.61969 87.4276 2.61969 102.973 18.2115C116.017 31.2883 118.269 51.4881 108.97 66.9897L110.698 68.7217C112.271 68.7506 113.834 69.3677 115.032 70.5692L120.484 76.0359C129.945 69.0573 139.41 59.9173 148.871 48.5978C149.925 47.3384 149.925 45.5451 148.871 44.2857C99.5049 -14.7619 50.1422 -14.7619 0.775812 44.2857C-0.274229 45.5451 -0.274229 47.3384 0.775812 48.5978ZM50.4417 21.9895C63.9082 8.48332 85.7425 8.48332 99.2054 21.9895C111.636 34.4529 112.593 54.0681 102.078 67.632L105.632 71.1971L99.5049 77.3386L95.9543 73.7771C82.4264 84.3244 62.8689 83.3646 50.4417 70.8976C36.9752 57.3914 36.9752 35.4921 50.4417 21.9895ZM72.9219 46.624L80.4887 37.2891C81.8022 35.6689 84.2162 35.4127 85.8327 36.7334C87.4493 38.0504 87.6983 40.4717 86.3848 42.0955L75.4983 55.5331C75.3071 55.7712 75.0869 55.9841 74.8524 56.1609L74.8488 56.1646C74.8416 56.1682 74.838 56.1718 74.8344 56.1754C73.2142 57.4672 70.8218 57.211 69.5156 55.598L63.2623 47.8833C61.9488 46.2595 62.2014 43.8347 63.8143 42.5176C65.4309 41.2006 67.8485 41.4532 69.162 43.0733L72.0379 46.624C72.1497 46.7647 72.3013 46.8369 72.4817 46.8369C72.6585 46.8369 72.8101 46.7647 72.9219 46.624ZM132.399 104.189C130.028 106.567 126.149 106.567 123.779 104.189L102.644 82.9929C102.269 82.6177 102.269 82.0042 102.644 81.6253L109.904 74.3472C110.28 73.972 110.889 73.972 111.265 74.3472L132.399 95.5429C134.77 97.9208 134.77 101.811 132.399 104.189ZM57.7198 29.2857C67.1665 19.8137 82.4841 19.8137 91.9309 29.2857C101.374 38.7613 101.374 54.1258 91.9309 63.5978C82.4841 73.0735 67.1665 73.0735 57.7198 63.5978C48.273 54.1258 48.273 38.7613 57.7198 29.2857Z" fill="white"/>
</svg>
