<svg width="171" height="68" viewBox="0 0 171 68" fill="none" xmlns="http://www.w3.org/2000/svg">
<mask id="mask0_2473_2851" style="mask-type:luminance" maskUnits="userSpaceOnUse" x="0" y="0" width="163" height="68">
<path d="M0 0H162.227V68H0V0Z" fill="white"/>
</mask>
<g mask="url(#mask0_2473_2851)">
<mask id="mask1_2473_2851" style="mask-type:luminance" maskUnits="userSpaceOnUse" x="0" y="-1" width="163" height="70">
<path d="M162.227 -0.590271H0V68.4891H162.227V-0.590271Z" fill="white"/>
</mask>
<g mask="url(#mask1_2473_2851)">
<mask id="mask2_2473_2851" style="mask-type:luminance" maskUnits="userSpaceOnUse" x="0" y="0" width="163" height="68">
<path d="M0 0.193909H162.227V68H0V0.193909Z" fill="white"/>
</mask>
<g mask="url(#mask2_2473_2851)">
<path d="M162.227 68.1573H10.5812C4.73709 68.1573 0 61.3691 0 52.9928V15.3809C0 7.00737 4.73709 0.219177 10.5812 0.219177H139.167C145.011 0.219177 149.748 7.00737 149.748 15.3809V37.1846L162.227 68.1573Z" fill="#5E23DC"/>
</g>
</g>
</g>
<path d="M44.1646 35.9611C44.1646 36.271 44.1344 36.5749 44.074 36.8787C44.0136 37.1806 43.9231 37.4744 43.8044 37.7581C43.6856 38.0439 43.5407 38.3135 43.3677 38.5711C43.1966 38.8267 43.0014 39.0641 42.7821 39.2815C42.5627 39.5008 42.3233 39.694 42.0657 39.865C41.8081 40.0381 41.5365 40.181 41.2507 40.2997C40.9629 40.4184 40.6671 40.507 40.3633 40.5673C40.0594 40.6277 39.7535 40.6579 39.4436 40.6579C39.1337 40.6579 38.8258 40.6277 38.522 40.5673C38.2181 40.507 37.9223 40.4184 37.6365 40.2997C37.3508 40.181 37.0771 40.0381 36.8195 39.865C36.5619 39.694 36.3245 39.5008 36.1051 39.2815C35.8858 39.0641 35.6906 38.8267 35.5175 38.5711C35.3445 38.3135 35.1996 38.0439 35.0809 37.7581C34.9621 37.4744 34.8736 37.1806 34.8132 36.8787C34.7528 36.5749 34.7227 36.271 34.7227 35.9611C34.7227 35.6532 34.7528 35.3473 34.8132 35.0455C34.8736 34.7436 34.9621 34.4498 35.0809 34.1641C35.1996 33.8803 35.3445 33.6087 35.5175 33.3531C35.6906 33.0975 35.8858 32.8601 36.1051 32.6407C36.3245 32.4234 36.5619 32.2282 36.8195 32.0571C37.0771 31.8861 37.3508 31.7412 37.6365 31.6245C37.9223 31.5058 38.2181 31.4172 38.522 31.3569C38.8258 31.2965 39.1337 31.2663 39.4436 31.2663C39.7535 31.2663 40.0594 31.2965 40.3633 31.3569C40.6671 31.4172 40.9629 31.5058 41.2507 31.6245C41.5365 31.7412 41.8081 31.8861 42.0657 32.0571C42.3233 32.2282 42.5627 32.4234 42.7821 32.6407C43.0014 32.8601 43.1966 33.0975 43.3677 33.3531C43.5407 33.6087 43.6856 33.8803 43.8044 34.1641C43.9231 34.4498 44.0136 34.7436 44.074 35.0455C44.1344 35.3473 44.1646 35.6532 44.1646 35.9611Z" fill="white"/>
<path d="M49.3784 51.9069C49.3784 46.4514 44.9291 42.0263 39.4435 42.0263C33.9558 42.0263 29.5085 46.4494 29.5085 51.9069C29.5085 57.3644 49.3784 57.3644 49.3784 51.9069Z" fill="white"/>
<path d="M56.6811 35.0737C56.6811 35.3212 56.657 35.5667 56.6087 35.8102C56.5604 36.0537 56.4879 36.2891 56.3914 36.5185C56.2968 36.7479 56.1801 36.9653 56.0412 37.1726C55.9024 37.3778 55.7454 37.569 55.5683 37.7441C55.3912 37.9211 55.2 38.0761 54.9928 38.2149C54.7855 38.3518 54.5662 38.4685 54.3367 38.5631C54.1053 38.6597 53.8679 38.7301 53.6224 38.7784C53.3789 38.8267 53.1314 38.8508 52.8818 38.8508C52.6323 38.8508 52.3848 38.8267 52.1413 38.7784C51.8958 38.7301 51.6583 38.6597 51.4289 38.5631C51.1975 38.4685 50.9781 38.3518 50.7709 38.2149C50.5636 38.0761 50.3724 37.9211 50.1953 37.7441C50.0203 37.569 49.8613 37.3778 49.7224 37.1726C49.5856 36.9653 49.4669 36.7479 49.3723 36.5185C49.2757 36.2891 49.2053 36.0537 49.157 35.8102C49.1067 35.5667 49.0825 35.3212 49.0825 35.0737C49.0825 34.8241 49.1067 34.5786 49.157 34.3351C49.2053 34.0917 49.2757 33.8562 49.3723 33.6268C49.4669 33.3974 49.5856 33.1801 49.7224 32.9728C49.8613 32.7675 50.0203 32.5764 50.1953 32.4013C50.3724 32.2262 50.5636 32.0692 50.7709 31.9304C50.9781 31.7936 51.1975 31.6768 51.4289 31.5823C51.6583 31.4877 51.8958 31.4152 52.1413 31.3669C52.3848 31.3186 52.6323 31.2945 52.8818 31.2945C53.1314 31.2945 53.3789 31.3186 53.6224 31.3669C53.8679 31.4152 54.1053 31.4877 54.3367 31.5823C54.5662 31.6768 54.7855 31.7936 54.9928 31.9304C55.2 32.0692 55.3912 32.2262 55.5683 32.4013C55.7454 32.5764 55.9024 32.7675 56.0412 32.9728C56.1801 33.1801 56.2968 33.3974 56.3914 33.6268C56.4879 33.8562 56.5604 34.0917 56.6087 34.3351C56.657 34.5786 56.6811 34.8241 56.6811 35.0737Z" fill="white"/>
<mask id="mask3_2473_2851" style="mask-type:luminance" maskUnits="userSpaceOnUse" x="46" y="39" width="15" height="13">
<path d="M46.1506 39.7383H60.887V51.587H46.1506V39.7383Z" fill="white"/>
</mask>
<g mask="url(#mask3_2473_2851)">
<path d="M60.8771 47.9044C60.8771 50.5949 54.8702 51.6373 50.2197 51.0296C50.1171 49.7578 49.7971 48.5444 49.2578 47.3893C48.7185 46.2322 47.9961 45.2039 47.0885 44.3044C46.8108 44.0267 46.519 43.7651 46.2131 43.5195C47.6419 41.3704 50.097 39.9537 52.882 39.9537C57.2971 39.9537 60.8771 43.5135 60.8771 47.9044Z" fill="white"/>
</g>
<path d="M29.8022 35.0737C29.8022 35.3212 29.7781 35.5667 29.7298 35.8102C29.6815 36.0537 29.609 36.2891 29.5124 36.5185C29.4179 36.7479 29.3011 36.9653 29.1623 37.1726C29.0234 37.3778 28.8665 37.569 28.6894 37.7441C28.5143 37.9211 28.3211 38.0761 28.1139 38.2149C27.9066 38.3518 27.6873 38.4685 27.4578 38.5631C27.2264 38.6597 26.989 38.7301 26.7455 38.7784C26.5 38.8267 26.2524 38.8508 26.0029 38.8508C25.7534 38.8508 25.5079 38.8267 25.2624 38.7784C25.0169 38.7301 24.7794 38.6597 24.55 38.5631C24.3186 38.4685 24.0992 38.3518 23.892 38.2149C23.6847 38.0761 23.4935 37.9211 23.3164 37.7441C23.1414 37.569 22.9824 37.3778 22.8435 37.1726C22.7067 36.9653 22.588 36.7479 22.4934 36.5185C22.3988 36.2891 22.3264 36.0537 22.2781 35.8102C22.2278 35.5667 22.2036 35.3212 22.2036 35.0737C22.2036 34.8241 22.2278 34.5786 22.2781 34.3351C22.3264 34.0917 22.3988 33.8562 22.4934 33.6268C22.588 33.3974 22.7067 33.1801 22.8435 32.9728C22.9824 32.7675 23.1414 32.5764 23.3164 32.4013C23.4935 32.2262 23.6847 32.0692 23.892 31.9304C24.0992 31.7936 24.3186 31.6768 24.55 31.5823C24.7794 31.4877 25.0169 31.4152 25.2624 31.3669C25.5079 31.3186 25.7534 31.2945 26.0029 31.2945C26.2524 31.2945 26.5 31.3186 26.7455 31.3669C26.989 31.4152 27.2264 31.4877 27.4578 31.5823C27.6873 31.6768 27.9066 31.7936 28.1139 31.9304C28.3211 32.0692 28.5143 32.2262 28.6894 32.4013C28.8665 32.5764 29.0234 32.7675 29.1623 32.9728C29.3011 33.1801 29.4179 33.3974 29.5124 33.6268C29.609 33.8562 29.6815 34.0917 29.7298 34.3351C29.7781 34.5786 29.8022 34.8241 29.8022 35.0737Z" fill="white"/>
<mask id="mask4_2473_2851" style="mask-type:luminance" maskUnits="userSpaceOnUse" x="18" y="39" width="15" height="13">
<path d="M18 39.7383H32.7565V51.587H18V39.7383Z" fill="white"/>
</mask>
<g mask="url(#mask4_2473_2851)">
<path d="M32.674 43.5195C32.3681 43.7651 32.0743 44.0267 31.7966 44.3044C30.889 45.2039 30.1666 46.2322 29.6273 47.3893C29.09 48.5444 28.768 49.7598 28.6654 51.0296C24.0148 51.6373 18.01 50.5949 18.01 47.9044C18.01 43.5135 21.588 39.9537 26.003 39.9537C28.7901 39.9537 31.2432 41.3704 32.674 43.5195Z" fill="white"/>
</g>
<mask id="mask5_2473_2851" style="mask-type:luminance" maskUnits="userSpaceOnUse" x="25" y="11" width="6" height="6">
<path d="M25.0291 11H30.1807V16.0409H25.0291V11Z" fill="white"/>
</mask>
<g mask="url(#mask5_2473_2851)">
<path d="M30.0135 13.2599L29.1864 13.8575C29.12 13.9058 29.0738 13.9682 29.0476 14.0467C29.0234 14.1232 29.0234 14.2016 29.0476 14.2801L29.3635 15.246C29.4782 15.5942 29.0778 15.884 28.7799 15.6686L27.9529 15.071C27.8865 15.0227 27.812 14.9985 27.7295 14.9985C27.647 14.9985 27.5725 15.0227 27.5061 15.071L26.6771 15.6686C26.3812 15.884 25.9808 15.5942 26.0935 15.246L26.4094 14.2801C26.4356 14.2016 26.4356 14.1232 26.4114 14.0467C26.3853 13.9682 26.339 13.9058 26.2746 13.8575L25.4455 13.2599C25.1477 13.0445 25.3006 12.5757 25.6689 12.5757H26.6911C26.7736 12.5757 26.8481 12.5535 26.9145 12.5052C26.9809 12.4569 27.0272 12.3925 27.0534 12.3161L27.3693 11.3481C27.482 11 27.977 11 28.0917 11.3481L28.4077 12.3161C28.4338 12.3925 28.4781 12.4549 28.5465 12.5032C28.6129 12.5515 28.6874 12.5757 28.7679 12.5757H29.7922C30.1584 12.5757 30.3113 13.0445 30.0135 13.2599Z" fill="white"/>
</g>
<mask id="mask6_2473_2851" style="mask-type:luminance" maskUnits="userSpaceOnUse" x="30" y="11" width="7" height="6">
<path d="M30.6958 11H36.3626V16.0409H30.6958V11Z" fill="white"/>
</mask>
<g mask="url(#mask6_2473_2851)">
<path d="M35.8696 13.2599L35.0425 13.8575C34.9761 13.9058 34.9298 13.9682 34.9036 14.0467C34.8795 14.1232 34.8795 14.2016 34.9036 14.2801L35.2196 15.246C35.3343 15.5942 34.9338 15.884 34.636 15.6686L33.8089 15.071C33.7425 15.0227 33.6681 14.9985 33.5856 14.9985C33.5031 14.9985 33.4286 15.0227 33.3622 15.071L32.5351 15.6686C32.2373 15.884 31.8368 15.5942 31.9495 15.246L32.2655 14.2801C32.2916 14.2016 32.2916 14.1232 32.2655 14.0467C32.2413 13.9682 32.195 13.9058 32.1286 13.8575L31.3016 13.2599C31.0037 13.0445 31.1567 12.5757 31.5229 12.5757H32.5492C32.6317 12.5757 32.7062 12.5515 32.7726 12.5052C32.839 12.4569 32.8853 12.3925 32.9094 12.3161L33.2254 11.3481C33.3401 11 33.8351 11 33.9478 11.3481L34.2657 12.3161C34.2899 12.3925 34.3362 12.4549 34.4026 12.5032C34.469 12.5515 34.5434 12.5757 34.6259 12.5757H35.6482C36.0145 12.5757 36.1674 13.0445 35.8696 13.2599Z" fill="white"/>
</g>
<mask id="mask7_2473_2851" style="mask-type:luminance" maskUnits="userSpaceOnUse" x="36" y="11" width="7" height="6">
<path d="M36.8777 11H42.0293V16.0409H36.8777V11Z" fill="white"/>
</mask>
<g mask="url(#mask7_2473_2851)">
<path d="M41.7277 13.2599L40.8986 13.8575C40.8322 13.9058 40.7859 13.9682 40.7618 14.0467C40.7356 14.1232 40.7356 14.2016 40.7618 14.2801L41.0777 15.246C41.1904 15.5942 40.7919 15.884 40.4941 15.6686L39.665 15.071C39.5986 15.0227 39.5242 14.9985 39.4417 14.9985C39.3592 14.9985 39.2867 15.0227 39.2183 15.071L38.3912 15.6686C38.0934 15.884 37.6929 15.5942 37.8076 15.246L38.1236 14.2801C38.1497 14.2016 38.1497 14.1232 38.1236 14.0467C38.0974 13.9682 38.0511 13.9058 37.9847 13.8575L37.1577 13.2599C36.8598 13.0445 37.0128 12.5757 37.381 12.5757H38.4033C38.4858 12.5777 38.5603 12.5535 38.6267 12.5052C38.6951 12.4569 38.7394 12.3925 38.7655 12.3161L39.0815 11.3481C39.1962 11 39.6892 11 39.8039 11.3481L40.1198 12.3161C40.146 12.3925 40.1923 12.4549 40.2587 12.5032C40.3251 12.5515 40.3995 12.5757 40.482 12.5757H41.5043C41.8706 12.5757 42.0235 13.0445 41.7277 13.2599Z" fill="white"/>
</g>
<mask id="mask8_2473_2851" style="mask-type:luminance" maskUnits="userSpaceOnUse" x="42" y="11" width="7" height="6">
<path d="M42.5444 11H48.2112V16.0409H42.5444V11Z" fill="white"/>
</mask>
<g mask="url(#mask8_2473_2851)">
<path d="M47.5834 13.2599L46.7543 13.8575C46.6879 13.9058 46.6436 13.9682 46.6175 14.0467C46.5913 14.1232 46.5913 14.2016 46.6175 14.2801L46.9334 15.246C47.0461 15.5942 46.6477 15.884 46.3498 15.6686L45.5207 15.071C45.4543 15.0227 45.3799 14.9985 45.2974 14.9985C45.2169 14.9985 45.1424 15.0227 45.076 15.071L44.2469 15.6686C43.9491 15.884 43.5507 15.5942 43.6634 15.246L43.9793 14.2801C44.0055 14.2016 44.0055 14.1232 43.9793 14.0467C43.9531 13.9682 43.9089 13.9058 43.8404 13.8575L43.0134 13.2599C42.7155 13.0445 42.8685 12.5757 43.2367 12.5757H44.259C44.3415 12.5757 44.416 12.5535 44.4824 12.5052C44.5488 12.4569 44.5951 12.3925 44.6212 12.3161L44.9372 11.3481C45.0499 11 45.5449 11 45.6596 11.3481L45.9755 12.3161C46.0017 12.3925 46.048 12.4549 46.1144 12.5032C46.1808 12.5515 46.2553 12.5757 46.3378 12.5757H47.36C47.7283 12.5757 47.8812 13.0445 47.5834 13.2599Z" fill="white"/>
</g>
<mask id="mask9_2473_2851" style="mask-type:luminance" maskUnits="userSpaceOnUse" x="48" y="11" width="6" height="6">
<path d="M48.2112 11H53.8779V16.0409H48.2112V11Z" fill="white"/>
</mask>
<g mask="url(#mask9_2473_2851)">
<path d="M53.4392 13.2599L52.6121 13.8575C52.5457 13.9058 52.4994 13.9682 52.4733 14.0467C52.4491 14.1232 52.4491 14.2016 52.4733 14.2801L52.7892 15.246C52.9039 15.5942 52.5034 15.884 52.2056 15.6686L51.3785 15.071C51.3121 15.0227 51.2377 14.9985 51.1552 14.9985C51.0727 14.9985 50.9982 15.0227 50.9318 15.071L50.1047 15.6686C49.8069 15.884 49.4064 15.5942 49.5191 15.246L49.8351 14.2801C49.8612 14.2016 49.8612 14.1232 49.8351 14.0467C49.8109 13.9682 49.7646 13.9058 49.6982 13.8575L48.8691 13.2599C48.5733 13.0445 48.7263 12.5757 49.0925 12.5757H50.1148C50.1973 12.5757 50.2717 12.5535 50.3382 12.5052C50.4046 12.4569 50.4508 12.3946 50.477 12.3161L50.7929 11.3481C50.9077 11 51.4007 11 51.5154 11.3481L51.8313 12.3161C51.8575 12.3925 51.9038 12.4569 51.9702 12.5052C52.0366 12.5535 52.111 12.5757 52.1935 12.5757H53.2158C53.5841 12.5757 53.737 13.0445 53.4392 13.2599Z" fill="white"/>
</g>
<path d="M53.9445 17.7776H24.9406C24.675 17.7776 24.4214 17.8279 24.1759 17.9285C23.9324 18.0311 23.7151 18.174 23.5279 18.3592C23.3408 18.5463 23.1979 18.7616 23.0953 19.0051C22.9946 19.2466 22.9443 19.5002 22.9443 19.7638V24.5874C22.9443 24.851 22.9946 25.1045 23.0953 25.348C23.1979 25.5915 23.3408 25.8048 23.5279 25.992C23.7151 26.1791 23.9324 26.322 24.1759 26.4226C24.4214 26.5232 24.675 26.5735 24.9406 26.5735H29.1987L28.9653 29.9321C28.9431 30.2823 29.3818 30.4574 29.6072 30.1877L32.6197 26.5735H37.7512L39.1075 29.8577C39.2302 30.1555 39.6548 30.1555 39.7776 29.8577L41.1359 26.5735H46.2674L49.2799 30.1877C49.5033 30.4574 49.944 30.2803 49.9198 29.9321L49.6864 26.5735H53.9445C54.2101 26.5735 54.4657 26.5232 54.7092 26.4226C54.9547 26.322 55.17 26.1791 55.3572 25.992C55.5443 25.8048 55.6892 25.5915 55.7898 25.348C55.8924 25.1045 55.9427 24.851 55.9427 24.5874V19.7638C55.9427 19.5002 55.8924 19.2486 55.7898 19.0051C55.6892 18.7616 55.5443 18.5463 55.3572 18.3592C55.17 18.174 54.9547 18.0311 54.7092 17.9285C54.4657 17.8279 54.2101 17.7776 53.9445 17.7776ZM52.558 24.3137H26.3271C26.2446 24.3157 26.1721 24.2895 26.1138 24.2312C26.0534 24.1728 26.0252 24.1024 26.0252 24.0199C26.0252 23.9374 26.0534 23.8669 26.1138 23.8086C26.1721 23.7502 26.2446 23.7241 26.3271 23.7241H52.558C52.6385 23.7261 52.7069 23.7563 52.7632 23.8146C52.8196 23.871 52.8478 23.9394 52.8478 24.0199C52.8478 24.1004 52.8196 24.1688 52.7632 24.2251C52.7069 24.2835 52.6385 24.3137 52.558 24.3137ZM52.558 22.2651H26.3271C26.2446 22.2671 26.1721 22.239 26.1138 22.1806C26.0534 22.1222 26.0252 22.0518 26.0252 21.9693C26.0252 21.8868 26.0534 21.8164 26.1138 21.76C26.1721 21.7017 26.2446 21.6735 26.3271 21.6755H52.558C52.6385 21.6775 52.7069 21.7057 52.7632 21.764C52.8196 21.8204 52.8478 21.8908 52.8478 21.9693C52.8478 22.0498 52.8196 22.1182 52.7632 22.1766C52.7069 22.2329 52.6385 22.2631 52.558 22.2651ZM52.558 20.2145H26.3271C26.2446 20.2165 26.1721 20.1884 26.1138 20.132C26.0534 20.0737 26.0252 20.0032 26.0252 19.9207C26.0252 19.8382 26.0534 19.7678 26.1138 19.7094C26.1721 19.6511 26.2446 19.6229 26.3271 19.6249H52.558C52.6385 19.6269 52.7069 19.6571 52.7632 19.7135C52.8196 19.7718 52.8478 19.8402 52.8478 19.9207C52.8478 20.0012 52.8196 20.0696 52.7632 20.126C52.7069 20.1844 52.6385 20.2125 52.558 20.2145Z" fill="white"/>
<path d="M77.7227 27.4492V24.2266C78.8477 25.0469 80.1602 25.457 81.6602 25.457C82.6055 25.457 83.3398 25.2539 83.8633 24.8477C84.3945 24.4414 84.6602 23.875 84.6602 23.1484C84.6602 22.3984 84.332 21.8203 83.6758 21.4141C83.0273 21.0078 82.1328 20.8047 80.9922 20.8047H79.4805V17.9688H80.875C83.0625 17.9688 84.1562 17.2422 84.1562 15.7891C84.1562 14.4219 83.3164 13.7383 81.6367 13.7383C80.5117 13.7383 79.418 14.1016 78.3555 14.8281V11.8047C79.5352 11.2109 80.9102 10.9141 82.4805 10.9141C84.1992 10.9141 85.5352 11.3008 86.4883 12.0742C87.4492 12.8477 87.9297 13.8516 87.9297 15.0859C87.9297 17.2812 86.8164 18.6562 84.5898 19.2109V19.2695C85.7773 19.418 86.7148 19.8516 87.4023 20.5703C88.0898 21.2812 88.4336 22.1562 88.4336 23.1953C88.4336 24.7656 87.8594 26.0078 86.7109 26.9219C85.5625 27.8359 83.9766 28.293 81.9531 28.293C80.2188 28.293 78.8086 28.0117 77.7227 27.4492ZM104.008 22.3164H99.4961V26.8281H97.1289V22.3164H92.5938V19.9375H97.1289V15.4023H99.4961V19.9375H104.008V22.3164Z" fill="white"/>
<path d="M81.2949 34.5977L78.5586 40.0117V43H76.666V40.0469L74 34.5977H76.1621L77.5156 37.7324C77.5391 37.791 77.6035 38.0195 77.709 38.418H77.7324C77.7832 38.1367 77.8438 37.916 77.9141 37.7559L79.291 34.5977H81.2949ZM86.3809 40.5273H82.4668C82.5293 41.3984 83.0781 41.834 84.1133 41.834C84.7734 41.834 85.3535 41.6777 85.8535 41.3652V42.7012C85.2988 42.998 84.5781 43.1465 83.6914 43.1465C82.7227 43.1465 81.9707 42.8789 81.4355 42.3438C80.9004 41.8047 80.6328 41.0547 80.6328 40.0938C80.6328 39.0977 80.9219 38.3086 81.5 37.7266C82.0781 37.1445 82.7891 36.8535 83.6328 36.8535C84.5078 36.8535 85.1836 37.1133 85.6602 37.6328C86.1406 38.1523 86.3809 38.8574 86.3809 39.748V40.5273ZM84.6641 39.3906C84.6641 38.5312 84.3164 38.1016 83.6211 38.1016C83.3242 38.1016 83.0664 38.2246 82.8477 38.4707C82.6328 38.7168 82.502 39.0234 82.4551 39.3906H84.6641ZM92.4746 43H90.7227V42.1387H90.6992C90.2969 42.8105 89.7012 43.1465 88.9121 43.1465C88.3301 43.1465 87.8711 42.9824 87.5352 42.6543C87.2031 42.3223 87.0371 41.8809 87.0371 41.3301C87.0371 40.166 87.7266 39.4941 89.1055 39.3145L90.7344 39.0977C90.7344 38.4414 90.3789 38.1133 89.668 38.1133C88.9531 38.1133 88.2734 38.3262 87.6289 38.752V37.3574C87.8867 37.2246 88.2383 37.1074 88.6836 37.0059C89.1328 36.9043 89.541 36.8535 89.9082 36.8535C91.6191 36.8535 92.4746 37.707 92.4746 39.4141V43ZM90.7344 40.5625V40.1582L89.6445 40.2988C89.043 40.377 88.7422 40.6484 88.7422 41.1133C88.7422 41.3242 88.8145 41.498 88.959 41.6348C89.1074 41.7676 89.3066 41.834 89.5566 41.834C89.9043 41.834 90.1875 41.7148 90.4062 41.4766C90.625 41.2344 90.7344 40.9297 90.7344 40.5625ZM97.8535 38.6699C97.6309 38.5488 97.3711 38.4883 97.0742 38.4883C96.6719 38.4883 96.3574 38.6367 96.1309 38.9336C95.9043 39.2266 95.791 39.627 95.791 40.1348V43H93.9395V37H95.791V38.1133H95.8145C96.1074 37.3008 96.6348 36.8945 97.3965 36.8945C97.5918 36.8945 97.7441 36.918 97.8535 36.9648V38.6699ZM98.3984 42.8418V41.3418C98.7031 41.5254 99.0059 41.6621 99.3066 41.752C99.6113 41.8418 99.8984 41.8867 100.168 41.8867C100.496 41.8867 100.754 41.8418 100.941 41.752C101.133 41.6621 101.229 41.5254 101.229 41.3418C101.229 41.2246 101.186 41.127 101.1 41.0488C101.014 40.9707 100.902 40.9023 100.766 40.8438C100.633 40.7852 100.486 40.7324 100.326 40.6855C100.166 40.6387 100.012 40.5859 99.8633 40.5273C99.625 40.4375 99.4141 40.3418 99.2305 40.2402C99.0508 40.1348 98.8984 40.0137 98.7734 39.877C98.6523 39.7402 98.5586 39.582 98.4922 39.4023C98.4297 39.2227 98.3984 39.0098 98.3984 38.7637C98.3984 38.4277 98.4707 38.1387 98.6152 37.8965C98.7637 37.6543 98.959 37.457 99.2012 37.3047C99.4473 37.1484 99.7266 37.0352 100.039 36.9648C100.355 36.8906 100.684 36.8535 101.023 36.8535C101.289 36.8535 101.559 36.875 101.832 36.918C102.105 36.957 102.375 37.0156 102.641 37.0938V38.5234C102.406 38.3867 102.154 38.2852 101.885 38.2188C101.619 38.1484 101.357 38.1133 101.1 38.1133C100.979 38.1133 100.863 38.125 100.754 38.1484C100.648 38.168 100.555 38.1992 100.473 38.2422C100.391 38.2812 100.326 38.334 100.279 38.4004C100.232 38.4629 100.209 38.5352 100.209 38.6172C100.209 38.7266 100.244 38.8203 100.314 38.8984C100.385 38.9766 100.477 39.0449 100.59 39.1035C100.703 39.1582 100.828 39.209 100.965 39.2559C101.105 39.2988 101.244 39.3438 101.381 39.3906C101.627 39.4766 101.85 39.5703 102.049 39.6719C102.248 39.7734 102.418 39.8926 102.559 40.0293C102.703 40.166 102.812 40.3262 102.887 40.5098C102.965 40.6934 103.004 40.9121 103.004 41.166C103.004 41.5215 102.926 41.8262 102.77 42.0801C102.617 42.3301 102.412 42.5352 102.154 42.6953C101.9 42.8516 101.605 42.9648 101.27 43.0352C100.938 43.1094 100.592 43.1465 100.232 43.1465C99.5723 43.1465 98.9609 43.0449 98.3984 42.8418ZM110.252 43.1465C109.252 43.1465 108.465 42.8672 107.891 42.3086C107.32 41.7461 107.035 40.9844 107.035 40.0234C107.035 39.0312 107.332 38.2559 107.926 37.6973C108.52 37.1348 109.322 36.8535 110.334 36.8535C111.33 36.8535 112.111 37.1348 112.678 37.6973C113.244 38.2559 113.527 38.9961 113.527 39.918C113.527 40.9141 113.234 41.7012 112.648 42.2793C112.066 42.8574 111.268 43.1465 110.252 43.1465ZM110.299 38.2715C109.861 38.2715 109.521 38.4219 109.279 38.7227C109.037 39.0234 108.916 39.4492 108.916 40C108.916 41.1523 109.381 41.7285 110.311 41.7285C111.197 41.7285 111.641 41.1367 111.641 39.9531C111.641 38.832 111.193 38.2715 110.299 38.2715ZM118.455 35.5352C118.217 35.4414 117.988 35.3945 117.77 35.3945C117.176 35.3945 116.879 35.7168 116.879 36.3613V37H118.25V38.3652H116.879V43H115.033V38.3652H114.025V37H115.033V36.2559C115.033 35.5723 115.256 35.0215 115.701 34.6035C116.146 34.1855 116.752 33.9766 117.518 33.9766C117.893 33.9766 118.205 34.0156 118.455 34.0938V35.5352ZM80 59H74.9609V50.5977H79.8066V52.1387H76.8535V54.0078H79.6016V55.543H76.8535V57.4648H80V59ZM86.9609 53L84.9805 55.9062L86.9492 59H84.8164L83.9492 57.3828C83.8789 57.2539 83.7949 57.0723 83.6973 56.8379H83.6738C83.6152 57.002 83.5352 57.1777 83.4336 57.3652L82.5605 59H80.4336L82.4609 56.0117L80.5566 53H82.7012L83.5566 54.6816C83.6699 54.9043 83.75 55.0918 83.7969 55.2441H83.8203C83.8828 55.0605 83.9668 54.8691 84.0723 54.6699L84.9453 53H86.9609ZM89.6738 58.3027H89.6504V61.7598H87.7988V53H89.6504V53.9023H89.6738C90.1309 53.2031 90.7734 52.8535 91.6016 52.8535C92.3789 52.8535 92.9785 53.1211 93.4004 53.6562C93.8262 54.1875 94.0391 54.9121 94.0391 55.8301C94.0391 56.8301 93.791 57.6328 93.2949 58.2383C92.8027 58.8438 92.1465 59.1465 91.3262 59.1465C90.6035 59.1465 90.0527 58.8652 89.6738 58.3027ZM89.6211 55.8418V56.3223C89.6211 56.7363 89.7305 57.0742 89.9492 57.3359C90.168 57.5977 90.4551 57.7285 90.8105 57.7285C91.2324 57.7285 91.5586 57.5664 91.7891 57.2422C92.0234 56.9141 92.1406 56.4512 92.1406 55.8535C92.1406 54.7988 91.7305 54.2715 90.9102 54.2715C90.5312 54.2715 90.2207 54.416 89.9785 54.7051C89.7402 54.9902 89.6211 55.3691 89.6211 55.8418ZM100.631 56.5273H96.7168C96.7793 57.3984 97.3281 57.834 98.3633 57.834C99.0234 57.834 99.6035 57.6777 100.104 57.3652V58.7012C99.5488 58.998 98.8281 59.1465 97.9414 59.1465C96.9727 59.1465 96.2207 58.8789 95.6855 58.3438C95.1504 57.8047 94.8828 57.0547 94.8828 56.0938C94.8828 55.0977 95.1719 54.3086 95.75 53.7266C96.3281 53.1445 97.0391 52.8535 97.8828 52.8535C98.7578 52.8535 99.4336 53.1133 99.9102 53.6328C100.391 54.1523 100.631 54.8574 100.631 55.748V56.5273ZM98.9141 55.3906C98.9141 54.5312 98.5664 54.1016 97.8711 54.1016C97.5742 54.1016 97.3164 54.2246 97.0977 54.4707C96.8828 54.7168 96.752 55.0234 96.7051 55.3906H98.9141ZM105.646 54.6699C105.424 54.5488 105.164 54.4883 104.867 54.4883C104.465 54.4883 104.15 54.6367 103.924 54.9336C103.697 55.2266 103.584 55.627 103.584 56.1348V59H101.732V53H103.584V54.1133H103.607C103.9 53.3008 104.428 52.8945 105.189 52.8945C105.385 52.8945 105.537 52.918 105.646 52.9648V54.6699ZM107.498 52.0508C107.186 52.0508 106.93 51.959 106.73 51.7754C106.531 51.5879 106.432 51.3594 106.432 51.0898C106.432 50.8125 106.531 50.5859 106.73 50.4102C106.93 50.2344 107.186 50.1465 107.498 50.1465C107.814 50.1465 108.07 50.2344 108.266 50.4102C108.465 50.5859 108.564 50.8125 108.564 51.0898C108.564 51.3711 108.465 51.6016 108.266 51.7812C108.07 51.9609 107.814 52.0508 107.498 52.0508ZM108.412 59H106.561V53H108.412V59ZM115.361 56.5273H111.447C111.51 57.3984 112.059 57.834 113.094 57.834C113.754 57.834 114.334 57.6777 114.834 57.3652V58.7012C114.279 58.998 113.559 59.1465 112.672 59.1465C111.703 59.1465 110.951 58.8789 110.416 58.3438C109.881 57.8047 109.613 57.0547 109.613 56.0938C109.613 55.0977 109.902 54.3086 110.48 53.7266C111.059 53.1445 111.77 52.8535 112.613 52.8535C113.488 52.8535 114.164 53.1133 114.641 53.6328C115.121 54.1523 115.361 54.8574 115.361 55.748V56.5273ZM113.645 55.3906C113.645 54.5312 113.297 54.1016 112.602 54.1016C112.305 54.1016 112.047 54.2246 111.828 54.4707C111.613 54.7168 111.482 55.0234 111.436 55.3906H113.645ZM122.258 59H120.412V55.666C120.412 54.7363 120.08 54.2715 119.416 54.2715C119.096 54.2715 118.832 54.3945 118.625 54.6406C118.418 54.8867 118.314 55.1992 118.314 55.5781V59H116.463V53H118.314V53.9492H118.338C118.779 53.2188 119.422 52.8535 120.266 52.8535C121.594 52.8535 122.258 53.6777 122.258 55.3262V59ZM128.275 58.7832C127.857 59.0254 127.254 59.1465 126.465 59.1465C125.543 59.1465 124.797 58.8672 124.227 58.3086C123.656 57.75 123.371 57.0293 123.371 56.1465C123.371 55.127 123.676 54.3242 124.285 53.7383C124.898 53.1484 125.717 52.8535 126.74 52.8535C127.447 52.8535 127.959 52.9473 128.275 53.1348V54.7051C127.889 54.416 127.457 54.2715 126.98 54.2715C126.449 54.2715 126.027 54.4277 125.715 54.7402C125.406 55.0488 125.252 55.4766 125.252 56.0234C125.252 56.5547 125.4 56.9727 125.697 57.2773C125.994 57.5781 126.402 57.7285 126.922 57.7285C127.383 57.7285 127.834 57.584 128.275 57.2949V58.7832ZM134.885 56.5273H130.971C131.033 57.3984 131.582 57.834 132.617 57.834C133.277 57.834 133.857 57.6777 134.357 57.3652V58.7012C133.803 58.998 133.082 59.1465 132.195 59.1465C131.227 59.1465 130.475 58.8789 129.939 58.3438C129.404 57.8047 129.137 57.0547 129.137 56.0938C129.137 55.0977 129.426 54.3086 130.004 53.7266C130.582 53.1445 131.293 52.8535 132.137 52.8535C133.012 52.8535 133.688 53.1133 134.164 53.6328C134.645 54.1523 134.885 54.8574 134.885 55.748V56.5273ZM133.168 55.3906C133.168 54.5312 132.82 54.1016 132.125 54.1016C131.828 54.1016 131.57 54.2246 131.352 54.4707C131.137 54.7168 131.006 55.0234 130.959 55.3906H133.168Z" fill="white"/>
</svg>
