<svg width="16" height="16" viewBox="0 0 16 16" fill="none" xmlns="http://www.w3.org/2000/svg">
<path d="M1.33594 5.99992C1.33594 4.74259 1.33594 4.11459 1.7266 3.72392C2.11727 3.33325 2.74527 3.33325 4.0026 3.33325H12.0026C13.2599 3.33325 13.8879 3.33325 14.2786 3.72392C14.6693 4.11459 14.6693 4.74259 14.6693 5.99992C14.6693 6.31392 14.6693 6.47125 14.5719 6.56925C14.4739 6.66659 14.3159 6.66658 14.0026 6.66658H2.0026C1.6886 6.66658 1.53127 6.66659 1.43327 6.56925C1.33594 6.47125 1.33594 6.31325 1.33594 5.99992ZM1.33594 11.9999C1.33594 13.2573 1.33594 13.8853 1.7266 14.2759C2.11727 14.6666 2.74527 14.6666 4.0026 14.6666H12.0026C13.2599 14.6666 13.8879 14.6666 14.2786 14.2759C14.6693 13.8853 14.6693 13.2573 14.6693 11.9999V8.66658C14.6693 8.35258 14.6693 8.19525 14.5719 8.09725C14.4739 7.99992 14.3159 7.99992 14.0026 7.99992H2.0026C1.6886 7.99992 1.53127 7.99992 1.43327 8.09725C1.33594 8.19525 1.33594 8.35325 1.33594 8.66658V11.9999Z" fill="#8A38F5"/>
<path d="M4.67188 2V4M11.3385 2V4" stroke="#8A38F5" stroke-width="2" stroke-linecap="round"/>
</svg>
