<svg width="27" height="36" viewBox="0 0 27 36" fill="none" xmlns="http://www.w3.org/2000/svg">
<mask id="mask0_3950_127" style="mask-type:luminance" maskUnits="userSpaceOnUse" x="0" y="0" width="27" height="36">
<path d="M0 0H26.2642V36H0V0Z" fill="white"/>
</mask>
<g mask="url(#mask0_3950_127)">
<path d="M1.5802 36.0424C1.54836 36.0283 1.50945 36.0035 1.4953 35.9858C1.46876 35.954 1.46876 35.9328 1.47761 34.7034L1.48822 33.4528L1.37501 33.4298C1.08138 33.3697 0.844354 33.1751 0.757679 32.9222C0.716995 32.8001 0.716995 32.6108 0.757679 32.4994C0.810745 32.3526 0.961099 32.1633 1.11853 32.0466C1.19459 31.9917 1.3644 31.9015 1.44754 31.875L1.4953 31.8591L1.50414 30.0761C1.50945 29.0943 1.51475 27.7058 1.51652 26.9876L1.51829 25.684L1.47938 25.6804C1.38386 25.6698 1.21405 25.6185 1.10968 25.5672C0.961099 25.4947 0.842585 25.3833 0.782443 25.263C0.743528 25.1816 0.739991 25.1639 0.739991 25.0454C0.739991 24.9304 0.743528 24.911 0.778906 24.8384C0.870887 24.6562 1.09907 24.4917 1.35733 24.4245L1.4723 24.3927L1.47761 24.0106C1.48468 23.5118 1.52714 22.5283 1.56075 22.0861L1.56782 21.9835L1.52537 21.9746C1.50237 21.9693 1.4723 21.9481 1.45461 21.9269C1.43869 21.9057 1.41924 21.888 1.41216 21.888C1.37678 21.888 1.2052 21.7925 1.14683 21.7412C0.971712 21.5855 0.900958 21.3202 0.964637 21.0672C1.02832 20.8213 1.21759 20.5649 1.47584 20.3756L1.51299 20.3491L1.56251 17.6268L1.61027 14.9045L1.58197 14.5702C1.56605 14.3862 1.5519 14.2341 1.55013 14.2323C1.54836 14.2305 1.48999 14.2217 1.42277 14.2129C1.26534 14.1952 1.07431 14.1333 0.954024 14.0607C0.846123 13.9971 0.720533 13.8785 0.681618 13.8025C0.653316 13.7459 0.625014 13.6309 0.625014 13.5725C0.625014 13.5513 0.607325 13.523 0.580792 13.4965C0.556028 13.4717 0.533033 13.4469 0.529495 13.4381C0.525957 13.431 0.478198 13.4009 0.419825 13.3744C0.304849 13.3196 0.175722 13.2081 0.122656 13.1197C0.104967 13.0879 0.0802025 13.0295 0.0695895 12.9888C-0.0276984 12.6421 0.110274 12.3396 0.44459 12.1663C0.637396 12.0672 0.743528 12.0425 1.07254 12.0212C1.44223 11.9982 1.4723 11.9682 1.53244 11.5454C1.55367 11.3986 1.57667 10.7989 1.58374 10.1728C1.58905 9.81191 1.59082 9.78007 1.61558 9.73054C1.65096 9.66333 1.69341 9.62264 1.78716 9.56958C1.82784 9.54658 1.89683 9.50059 1.94105 9.46521C2.00473 9.41568 2.02596 9.38915 2.04718 9.33078C2.10733 9.16804 2.11971 9.06368 2.13032 8.62146C2.13563 8.38797 2.14624 8.17924 2.15332 8.15625C2.21169 7.97936 2.33728 7.86792 2.5177 7.82901C2.61322 7.80955 2.92631 7.81132 3.34023 7.83432C3.58433 7.84847 3.71876 7.85024 3.80898 7.84139C4.03893 7.81663 4.0407 7.81132 4.07254 7.33019C4.08315 7.15684 4.10615 6.87028 4.1203 6.69163C4.15391 6.28479 4.19282 5.65507 4.22289 4.99528C4.24235 4.54776 4.24412 4.43632 4.22997 4.13561C4.21935 3.94457 4.20697 3.74292 4.1999 3.68809C4.19282 3.63325 4.18398 3.54835 4.17867 3.49882L4.16983 3.41038L4.24235 3.39976C4.28126 3.39269 4.34848 3.38738 4.38916 3.38738C4.47584 3.38738 7.44046 3.35377 7.71464 3.34847L7.90214 3.34493L7.99589 3.20165C8.04895 3.12205 8.11086 3.02653 8.13386 2.98939L8.17631 2.92394L8.13032 2.63738C8.10556 2.47995 8.07902 2.33314 8.07018 2.31014C8.02065 2.18278 8.14801 2.05896 8.25945 2.12264C8.28598 2.13856 8.37266 2.1421 8.7052 2.1421C9.14388 2.1421 9.17218 2.14033 9.40391 2.07134C9.54188 2.03243 9.55426 2.02535 9.67277 1.92453C9.74176 1.86616 9.91865 1.73703 10.0672 1.63974C10.4582 1.37795 10.7359 1.22583 11.1356 1.05248L11.3444 0.962264L11.4381 0.583726C11.5301 0.215802 11.5336 0.20342 11.5796 0.160967L11.6274 0.116745L11.829 0.10967C11.9387 0.104364 12.2819 0.0778302 12.5896 0.0495283L13.1486 0L13.7111 0.0512972C14.0207 0.0778303 14.3638 0.104364 14.4735 0.10967C14.6698 0.116746 14.6716 0.116745 14.7176 0.159198C14.7636 0.198113 14.7671 0.210495 14.8467 0.535967C14.8909 0.721698 14.9334 0.893278 14.9405 0.919811C14.9511 0.964033 14.9599 0.971108 15.0837 1.01887C15.2518 1.08608 15.5737 1.24174 15.7807 1.35672C16.0761 1.52299 16.4865 1.80248 16.6616 1.95637C16.7093 2.00059 16.7571 2.0342 16.7659 2.0342C16.7748 2.0342 16.8243 2.05012 16.8791 2.06781C17.0755 2.13502 17.1427 2.1421 17.592 2.1421C17.9387 2.1421 18.0148 2.13856 18.0378 2.12264C18.0519 2.11026 18.082 2.10141 18.1067 2.10141C18.2023 2.10141 18.2659 2.21285 18.227 2.31368C18.2164 2.34198 18.1916 2.46049 18.174 2.57901C18.1191 2.93278 18.1191 2.93455 18.1457 2.96285C18.158 2.977 18.1934 3.03007 18.2235 3.08314C18.3208 3.24941 18.3862 3.33785 18.4145 3.34493C18.4605 3.35377 21.8444 3.39269 21.8673 3.38384C21.8797 3.38031 21.9452 3.38384 22.0124 3.39446L22.1344 3.41215L22.1238 3.47229C22.0655 3.87205 22.0495 4.51415 22.0832 5.16686C22.1168 5.83196 22.1415 6.25649 22.1716 6.6191C22.1875 6.79953 22.2105 7.11439 22.2247 7.31958C22.2512 7.72465 22.26 7.76356 22.3326 7.80601C22.4033 7.84847 22.5749 7.85377 22.9782 7.83255C23.4646 7.80601 23.7618 7.81309 23.8662 7.85377C24.0254 7.91392 24.1333 8.06073 24.1598 8.25177C24.1669 8.30307 24.174 8.4941 24.174 8.6763C24.174 9.02476 24.1863 9.13266 24.2412 9.30248C24.2642 9.37146 24.2836 9.39976 24.3438 9.45283C24.3827 9.48821 24.4534 9.53774 24.4977 9.5625C24.6073 9.62441 24.6356 9.65094 24.6799 9.72877C24.7135 9.79245 24.7152 9.80483 24.7135 9.95696C24.7082 10.2948 24.7382 11.319 24.7577 11.487C24.7824 11.7011 24.8143 11.8408 24.8479 11.8974C24.8638 11.9222 24.9027 11.954 24.9452 11.9752C25.0089 12.0053 25.0425 12.0106 25.237 12.023C25.4935 12.0389 25.5908 12.0566 25.7412 12.115C26.0808 12.2459 26.2577 12.4758 26.2577 12.7871C26.2577 13.0578 26.1374 13.2435 25.8844 13.3691C25.8066 13.4062 25.7642 13.4363 25.7518 13.4611C25.7412 13.4823 25.7217 13.5018 25.7076 13.5071C25.6881 13.5124 25.6793 13.5354 25.6669 13.6167C25.6492 13.7353 25.6209 13.8078 25.5554 13.8874C25.4228 14.0537 25.1256 14.1916 24.8408 14.2199C24.7913 14.2235 24.7471 14.2358 24.7453 14.2447C24.7418 14.2518 24.7276 14.4074 24.7135 14.5896C24.6869 14.8921 24.6869 14.9682 24.6993 15.5625C24.7223 16.7848 24.7789 19.9864 24.7789 20.1633V20.3402L24.8691 20.4127C25.1221 20.6144 25.2795 20.8426 25.3379 21.0902C25.3697 21.2246 25.3573 21.3962 25.3096 21.5165C25.2565 21.6456 25.1362 21.773 25.0018 21.8384C24.9487 21.865 24.8974 21.888 24.8886 21.888C24.8797 21.888 24.8638 21.9021 24.8514 21.9198C24.839 21.9375 24.809 21.9605 24.7842 21.9676C24.7294 21.987 24.7294 21.9676 24.7577 22.4469C24.7913 22.9971 24.8196 23.7417 24.8196 24.0814C24.8196 24.3892 24.8196 24.4015 24.8444 24.4015C24.8939 24.4015 25.0938 24.4705 25.1893 24.52C25.3255 24.5908 25.4528 24.7164 25.5148 24.842C25.5607 24.9357 25.5643 24.9534 25.5643 25.0525C25.5643 25.1462 25.5572 25.1745 25.5201 25.2524C25.4599 25.3815 25.352 25.4841 25.1928 25.5619C25.0708 25.6221 24.8921 25.6769 24.8178 25.6769C24.7984 25.6769 24.7789 25.684 24.7771 25.691C24.7648 25.7264 24.8001 31.8467 24.8125 31.8591C24.8196 31.8644 24.8567 31.8803 24.8921 31.8927C25.1804 31.9864 25.4847 32.2871 25.5501 32.5401C25.5908 32.694 25.5678 32.8974 25.4935 33.0354C25.4741 33.0725 25.4139 33.1468 25.3626 33.1999C25.2477 33.3149 25.0991 33.3945 24.924 33.4316L24.8125 33.4546L24.8196 34.3886C24.8302 35.9505 24.8302 35.9522 24.7984 35.9876C24.7842 36.0035 24.7471 36.0283 24.7152 36.0424C24.6604 36.0672 24.6268 36.0672 23.4664 36.0478C21.6975 36.0177 20.0295 35.9894 18.6834 35.9664C18.0254 35.9558 17.3072 35.9434 17.0861 35.9381C16.6421 35.9292 16.6209 35.9239 16.5784 35.839C16.5554 35.7948 16.5554 35.7276 16.5643 34.8219C16.5749 33.7093 16.5554 33.8367 16.727 33.7376C16.8031 33.6934 16.8561 33.6492 16.9269 33.5678C16.9817 33.5059 17.0295 33.4422 17.0366 33.4245C17.0436 33.4068 17.0383 32.4287 17.0224 30.9764C16.9888 27.9021 16.9464 23.8072 16.934 22.6645L16.9251 21.7801L16.8314 21.7252C16.704 21.6492 16.6032 21.543 16.5431 21.4192C16.4935 21.3184 16.4918 21.3149 16.4918 21.161C16.4918 21.0088 16.4935 21.0035 16.5431 20.9027C16.6333 20.7205 16.773 20.579 16.9747 20.4693L17.0666 20.418L17.0596 20.3632C17.0472 20.2783 16.9357 19.9422 16.8597 19.7671C16.3962 18.681 15.3738 17.6197 14.3373 17.1492C13.8862 16.944 13.4776 16.8591 13.0372 16.8785C12.6144 16.8962 12.2695 16.9935 11.829 17.2164C11.3691 17.4481 10.9694 17.74 10.5714 18.138C9.93987 18.7642 9.48527 19.4982 9.27478 20.2182C9.24825 20.3101 9.22702 20.3915 9.22702 20.4004C9.22702 20.4092 9.25001 20.4287 9.27832 20.441C9.37737 20.4888 9.51181 20.5896 9.60202 20.6851C9.87796 20.9752 9.88681 21.3379 9.62501 21.5996C9.58079 21.6439 9.5065 21.7022 9.46228 21.727L9.38268 21.7748L9.37207 22.2046C9.36676 22.4399 9.34907 23.8461 9.33492 25.3284C9.319 26.8107 9.29601 29.105 9.28009 30.4281C9.26593 31.7512 9.25532 32.9682 9.25355 33.1327V33.4298L9.34907 33.543C9.43928 33.6492 9.54718 33.7358 9.63917 33.7748C9.73115 33.8137 9.72584 33.7571 9.73468 34.8414L9.74176 35.8196L9.69931 35.8691C9.67631 35.8956 9.63916 35.9204 9.61971 35.9257C9.57726 35.9328 8.7052 35.9487 4.0124 36.0265C3.12973 36.0407 2.23292 36.0566 2.02242 36.0601C1.67042 36.0672 1.63504 36.0654 1.5802 36.0424ZM3.21994 35.7789C3.81428 35.7683 5.46287 35.74 6.8815 35.717C8.3019 35.694 9.46582 35.671 9.47112 35.6657C9.47643 35.6621 9.47643 35.3455 9.47289 34.9634L9.46582 34.27L8.86617 34.2612C8.53539 34.2559 7.56428 34.2435 6.70638 34.2329C5.85025 34.2223 4.38386 34.2028 3.4499 34.1922C2.51593 34.1798 1.75001 34.1728 1.74825 34.1745C1.74648 34.1763 1.74117 34.5442 1.73586 34.9882L1.72879 35.7983H1.93221C2.04542 35.7983 2.62384 35.7895 3.21994 35.7789ZM24.5613 34.9917C24.5578 34.5478 24.5507 34.1816 24.5454 34.1781C24.5419 34.1728 24.0324 34.1763 23.4116 34.1851C22.7925 34.1922 21.0607 34.2152 19.5643 34.2329C18.0678 34.2524 16.8402 34.2718 16.8349 34.2754C16.8314 34.2789 16.8261 34.5955 16.8243 34.9794L16.8208 35.6781H17.0666C17.2011 35.6798 18.7913 35.7064 20.5991 35.7364C22.4069 35.7683 24.0378 35.7966 24.227 35.7966L24.5684 35.7983L24.5613 34.9917ZM9.46759 33.9817C9.46935 33.9658 9.44636 33.9428 9.39329 33.911C9.35084 33.8827 9.25355 33.7978 9.18103 33.7217L9.04659 33.5802H8.66983C8.41157 33.5802 8.28067 33.5855 8.2506 33.5979C8.21346 33.6103 8.19754 33.6103 8.16216 33.5943C8.11263 33.5731 7.93928 33.5696 4.57666 33.5289C3.3756 33.513 2.2506 33.4971 2.07549 33.4935L1.75709 33.4864L1.75178 33.6846C1.74825 33.7942 1.75178 33.8897 1.75709 33.8968C1.76593 33.9074 3.24117 33.9287 9.03244 34.0012C9.49235 34.0065 9.46228 34.0083 9.46582 33.9817H9.46759ZM20.7406 33.957C22.6846 33.934 24.3367 33.9127 24.4128 33.9092L24.5507 33.9004L24.5436 33.4935L24.2889 33.4971C24.1474 33.4988 22.7235 33.5165 21.1227 33.5342C18.5879 33.566 18.2058 33.5731 18.1633 33.5908C18.1297 33.6049 18.0997 33.6085 18.0696 33.6014C18.0448 33.5943 17.852 33.5873 17.6398 33.5855L17.2559 33.5802L17.1675 33.6704C17.1197 33.7217 17.0649 33.7801 17.0472 33.8031C17.0277 33.8243 16.9729 33.8667 16.9234 33.8968C16.8455 33.9446 16.819 33.9764 16.842 33.9994C16.8473 34.0047 16.9304 34.0047 17.0277 34.0029C17.125 33.9994 18.7966 33.9782 20.7406 33.957ZM8.98999 33.0619C8.9953 32.9151 8.99884 32.6462 8.99884 32.464V32.1297L8.71759 32.1262C8.56192 32.1262 8.42041 32.1244 8.4045 32.1244C8.37442 32.1226 8.37442 32.1262 8.36558 32.3048C8.36204 32.4039 8.3532 32.671 8.34966 32.8992L8.34082 33.3113L8.53893 33.3149C8.6486 33.3184 8.79188 33.3202 8.85909 33.3219L8.98115 33.3255L8.98999 33.0619ZM17.829 33.3113H17.9546L17.944 32.7241C17.9387 32.4004 17.9316 32.1333 17.9263 32.1279C17.921 32.1244 17.7777 32.1244 17.6079 32.1279L17.2984 32.1368L17.3037 32.7205C17.3072 33.0424 17.3125 33.3113 17.3161 33.3166C17.3196 33.3237 17.4045 33.3255 17.5124 33.3202C17.6168 33.3166 17.7583 33.3131 17.829 33.3113ZM8.07726 33.3025C8.07902 33.2972 8.08787 33.0265 8.09317 32.7046L8.10202 32.1156H8.01888C7.96582 32.1156 7.93575 32.1209 7.93221 32.1333C7.92336 32.1562 7.90037 33.2901 7.90744 33.3025C7.90921 33.3078 7.94813 33.3113 7.99058 33.3113C8.0348 33.3113 8.07372 33.3078 8.07726 33.3025ZM18.3898 32.9399C18.3844 32.7347 18.3774 32.464 18.3721 32.3402L18.365 32.1156H18.1899L18.1987 32.4287C18.204 32.6002 18.2111 32.8691 18.2146 33.0265L18.2235 33.3113H18.3986L18.3898 32.9399ZM7.64919 32.9116C7.65273 32.6993 7.65803 32.4322 7.6598 32.3172L7.66157 32.1085L6.93457 32.1014L6.92572 32.5083C6.92042 32.7311 6.91688 33 6.91688 33.1061V33.2989H7.63858L7.64919 32.9116ZM19.3839 33.2565C19.3803 33.2335 19.3768 32.9646 19.3768 32.6586V32.1014L18.6427 32.1085L18.6462 32.5932C18.648 32.8585 18.6533 33.1274 18.6586 33.1875L18.6657 33.2989H19.3927L19.3839 33.2565ZM6.23056 32.6887V32.0908L6.13327 32.0837C6.0802 32.0802 5.592 32.0696 5.04895 32.0625C4.50414 32.0554 3.9045 32.0448 3.71346 32.0395L3.36853 32.0307V32.6374C3.36853 32.9717 3.37207 33.2459 3.37737 33.2459C3.39683 33.2494 5.6203 33.2812 5.92454 33.283L6.23056 33.2848V32.6887ZM6.66039 32.6869V32.0873L6.49235 32.0961L6.48881 32.6904L6.48704 33.2848H6.66039V32.6869ZM19.8066 32.6869V32.089H19.628L19.6368 32.5029C19.6421 32.7294 19.6457 32.9982 19.6457 33.1008V33.2848H19.8066V32.6869ZM21.671 33.2671C22.3609 33.2565 22.9287 33.2459 22.934 33.2406C22.9375 33.237 22.9375 32.9629 22.9304 32.6321L22.9216 32.0307L22.5837 32.0395C22.398 32.0448 21.8019 32.0554 21.2589 32.0625C20.7158 32.0696 20.2258 32.0802 20.1728 32.0837L20.0755 32.0908V33.2848H20.2471C20.3408 33.2848 20.9829 33.2759 21.671 33.2671ZM2.59023 33.1097C2.59553 33.0407 2.60084 32.7683 2.60261 32.5065L2.60615 32.0289L2.39919 32.02C1.99942 32.0041 1.73763 32.0077 1.70933 32.0289C1.69518 32.0395 1.64388 32.0607 1.59612 32.0766C1.37855 32.1474 1.2052 32.2695 1.09023 32.4322C1.01416 32.5366 0.989401 32.6073 0.989401 32.7081C0.989401 32.9275 1.15037 33.1026 1.41216 33.1698C1.45638 33.1822 1.52006 33.191 1.55367 33.191C1.58728 33.191 1.63504 33.1981 1.66157 33.207C1.69872 33.2211 2.34966 33.2441 2.55485 33.2388C2.57961 33.2388 2.58315 33.2264 2.59023 33.1097ZM3.1032 32.839C3.10851 32.6162 3.11204 32.3455 3.11204 32.2358V32.0377L3.01299 32.0289C2.95638 32.0236 2.90332 32.0218 2.8927 32.0254C2.87855 32.0307 2.87325 32.112 2.86617 32.4198C2.86086 32.6321 2.85733 32.9045 2.85733 33.0248V33.2441H3.09435L3.1032 32.839ZM23.4381 32.6745C23.4363 32.3632 23.431 32.089 23.4257 32.066C23.4186 32.0165 23.4045 32.013 23.2648 32.0307L23.194 32.0395V33.2459L23.4416 33.2388L23.4381 32.6745ZM24.6215 33.2105C24.6498 33.1999 24.7011 33.191 24.7365 33.191C24.9629 33.191 25.1928 33.0584 25.2742 32.8815C25.3237 32.7754 25.3237 32.6338 25.2724 32.5348C25.1663 32.3243 24.9806 32.1722 24.7188 32.082C24.6604 32.0607 24.602 32.036 24.5896 32.0271C24.5666 32.0059 24.3951 32.0041 23.9617 32.0165L23.6893 32.0254L23.6981 32.625C23.7034 32.9558 23.7087 33.2282 23.7123 33.2317C23.714 33.2353 23.9086 33.237 24.1439 33.2353C24.48 33.2317 24.5826 33.2264 24.6215 33.2105ZM9.00414 31.7512C9.00945 31.684 9.01299 31.4045 9.01299 31.1321C9.01299 30.7482 9.00945 30.635 8.99707 30.6315C8.98645 30.6279 8.84848 30.6226 8.68928 30.6173L8.39742 30.6103L8.38858 31.1179C8.38504 31.3974 8.37973 31.6769 8.37796 31.7388L8.37442 31.8538L8.60968 31.8608C8.73881 31.8644 8.87855 31.8697 8.92101 31.8715L8.9953 31.8732L9.00414 31.7512ZM17.9228 31.852C17.9298 31.8467 17.9015 30.6244 17.8945 30.6173C17.8909 30.6138 17.753 30.6156 17.5867 30.6209L17.286 30.6315L17.2913 31.2417C17.2948 31.5778 17.2984 31.8573 17.3019 31.8626C17.3054 31.8715 17.9122 31.8608 17.9228 31.852ZM8.11794 31.4186C8.12325 31.1851 8.12855 30.9057 8.13032 30.7995L8.13209 30.6032H7.97112L7.96405 30.8721C7.95874 31.0206 7.9499 31.3001 7.94636 31.4929L7.93575 31.8449L8.00827 31.8502C8.04718 31.852 8.0861 31.852 8.09494 31.8502C8.10556 31.8467 8.11263 31.7193 8.11794 31.4186ZM18.3561 31.7123C18.3508 31.3037 18.3402 30.8544 18.3332 30.7341L18.3261 30.5979H18.2518C18.1987 30.5979 18.1775 30.6032 18.1722 30.6173C18.1616 30.6439 18.1863 31.8237 18.1969 31.8414C18.2005 31.8485 18.2376 31.852 18.2819 31.8467L18.3597 31.8396L18.3561 31.7123ZM7.67042 31.8432C7.67926 31.8308 7.70579 30.6014 7.69872 30.5943C7.69341 30.5908 7.52183 30.582 7.31664 30.5766L6.94341 30.5678V30.8278C6.94341 30.9711 6.93987 31.2559 6.93457 31.4611L6.92572 31.8325L7.10615 31.8379C7.4157 31.8449 7.66865 31.8467 7.67042 31.8432ZM19.0991 31.8379L19.3644 31.829L19.3609 31.2081C19.3591 30.865 19.352 30.582 19.3467 30.5766C19.3414 30.5713 19.1734 30.5731 18.9699 30.5784L18.6038 30.5908L18.6056 30.9198C18.6073 31.1002 18.6126 31.3833 18.6179 31.5478L18.6268 31.8467H18.7311C18.7878 31.8467 18.954 31.8432 19.0991 31.8379ZM6.6657 31.8237C6.66924 31.8184 6.67454 31.5318 6.67631 31.1887L6.67985 30.5643L6.50473 30.5554L6.49589 31.1781C6.49058 31.6061 6.49235 31.8042 6.50296 31.8166C6.51711 31.8343 6.65509 31.8414 6.6657 31.8237ZM19.7854 31.8255C19.8048 31.8184 19.8066 31.7494 19.8066 31.1869V30.5572H19.6191V30.8225C19.6191 30.9676 19.6227 31.2559 19.628 31.4611L19.6368 31.8343H19.7005C19.7359 31.8343 19.773 31.8308 19.7854 31.8255ZM6.23056 31.1816V30.543H6.19341C6.17218 30.543 5.97053 30.5377 5.74589 30.5289C4.75709 30.497 3.61263 30.4634 3.50296 30.4634H3.38445L3.37914 31.1038C3.3756 31.4575 3.37914 31.7529 3.38445 31.76C3.39506 31.7706 5.1427 31.8113 5.98645 31.8184L6.23056 31.8202V31.1816ZM21.8355 31.7919C22.3874 31.7848 22.8579 31.7759 22.8809 31.7724L22.9251 31.7653V31.1197C22.9251 30.5271 22.9234 30.4741 22.9021 30.467C22.8898 30.4617 22.6368 30.4652 22.3414 30.4741C20.8166 30.52 20.0932 30.5448 20.079 30.5501C20.0596 30.5572 20.056 31.0949 20.0702 31.5584L20.079 31.8237L20.4576 31.8166C20.6645 31.8113 21.2854 31.8007 21.8355 31.7919ZM3.11558 31.148C3.11735 30.8084 3.11912 30.513 3.11912 30.4935C3.11912 30.4564 3.11735 30.4564 3.01829 30.4475C2.96346 30.4422 2.91216 30.444 2.90685 30.4493C2.89447 30.4599 2.86971 31.737 2.88032 31.7565C2.88386 31.7618 2.93692 31.7671 2.99884 31.7671H3.11381L3.11558 31.148ZM23.4151 31.1108C23.4098 30.75 23.4027 30.4528 23.3974 30.4475C23.3921 30.444 23.3426 30.4422 23.2842 30.4458L23.1799 30.4528V30.9782C23.1799 31.2683 23.1852 31.5637 23.1887 31.6344L23.1975 31.7671H23.4257L23.4151 31.1108ZM2.6203 31.3001C2.6256 31.0489 2.62914 30.7535 2.62914 30.6421V30.4387L2.50532 30.4298C2.43633 30.4263 2.24353 30.4192 2.07549 30.4139L1.76947 30.4068L1.76593 30.9658C1.76416 31.2736 1.7624 31.5708 1.7624 31.6291V31.7335L1.81546 31.7406C1.84553 31.7459 2.03657 31.7494 2.23999 31.7512L2.61145 31.7529L2.6203 31.3001ZM24.4552 31.7441L24.5383 31.7353V30.4051L24.2323 30.4139C24.0643 30.4192 23.8679 30.4263 23.7972 30.4298L23.6681 30.4387L23.6734 30.9304C23.6751 31.2011 23.6822 31.4982 23.6857 31.5884L23.6928 31.7529H24.0324C24.2199 31.7529 24.4092 31.7494 24.4552 31.7441ZM9.0236 30.1203C9.03598 29.1616 9.06782 26.0908 9.06782 25.8732V25.6044L8.50355 25.5991L8.50178 25.6486C8.50178 25.6751 8.48763 26.3986 8.46994 27.2565C8.45049 28.1144 8.42926 29.1527 8.42042 29.5649C8.41157 29.9752 8.40803 30.3219 8.41334 30.3343C8.42042 30.3502 8.45579 30.3555 8.6203 30.3591C8.72997 30.3608 8.8644 30.3626 8.91924 30.3626H9.02006L9.0236 30.1203ZM17.8874 30.3432C17.8927 30.3361 17.799 25.6114 17.7919 25.6008C17.7919 25.6008 17.6628 25.6008 17.5071 25.6008L17.2241 25.6044L17.2311 26.0802C17.2365 26.3437 17.2453 27.1592 17.2524 27.895C17.2594 28.6309 17.2701 29.4888 17.2736 29.8001L17.2824 30.3679L17.5796 30.3591C17.7441 30.3555 17.8821 30.3485 17.8874 30.3432ZM8.14447 30.1362C8.15508 29.8956 8.23468 26.0289 8.23645 25.6574C8.23822 25.5177 8.24353 25.3903 8.2506 25.3779C8.2736 25.332 8.34612 25.3125 8.43987 25.3266C8.71405 25.3691 9.03598 25.3779 9.06959 25.3443C9.07667 25.3373 9.0802 25.2718 9.07843 25.1993L9.07313 25.0666L8.89978 25.0578C8.80249 25.0525 8.66983 25.0419 8.60438 25.033C8.51063 25.0206 8.46994 25.0206 8.42572 25.033C8.35497 25.0525 8.29483 25.033 8.26652 24.9764C8.23645 24.9163 8.217 24.612 8.22584 24.3343C8.23115 24.1963 8.23999 23.7152 8.24707 23.2642C8.26122 22.4009 8.28067 21.8774 8.3019 21.8172C8.35851 21.6562 8.34966 21.658 8.74058 21.658C9.02537 21.658 9.0519 21.6562 9.07313 21.6333C9.08551 21.6191 9.14742 21.5873 9.21287 21.559C9.32431 21.513 9.41806 21.4546 9.40391 21.4387C9.3986 21.4351 9.18634 21.4404 8.92808 21.4511C8.66983 21.4617 8.44164 21.4652 8.42042 21.4617C8.39919 21.4564 8.36558 21.4351 8.34612 21.4121C8.31782 21.3768 8.31428 21.3644 8.32313 21.3237C8.33551 21.2706 8.33374 18.0071 8.32136 16.1268L8.31251 14.9275L8.39034 14.8408L8.91393 14.8426C9.20049 14.8443 10.2724 14.8355 11.2948 14.8249C12.8744 14.8107 13.4334 14.8107 15.0112 14.8249C16.0336 14.8355 17.1003 14.8443 17.3815 14.8426C17.9175 14.8408 17.9352 14.8426 17.967 14.9009C17.9847 14.9328 17.9847 15.3131 17.9652 18.9481C17.9564 20.9469 17.9564 21.2512 17.9741 21.2919C17.9918 21.3343 17.9918 21.3432 17.9688 21.3874C17.9281 21.4705 17.9104 21.4723 17.3709 21.4511C17.1109 21.4404 16.8951 21.4351 16.8915 21.4387C16.888 21.4422 16.8968 21.4528 16.911 21.4652C16.9411 21.4882 17.1498 21.5926 17.1692 21.5926C17.1745 21.5926 17.1958 21.6067 17.2135 21.6262L17.2435 21.6598H17.5619C18.0201 21.6598 17.9988 21.6333 18.0254 22.2028C18.036 22.4027 18.0501 23.0466 18.0607 23.6356C18.0767 24.7677 18.0731 24.9233 18.0236 24.9888C17.9865 25.0383 17.9334 25.0525 17.8732 25.033C17.8343 25.0206 17.7883 25.0224 17.6486 25.0383C17.5531 25.0507 17.4186 25.0596 17.3497 25.0596H17.2258V25.3514L17.2683 25.3603C17.3373 25.3744 17.4682 25.3691 17.6787 25.3461C17.967 25.3143 17.9882 25.316 18.036 25.3673C18.0731 25.4098 18.0731 25.4151 18.0661 25.5C18.059 25.5743 18.1138 28.4416 18.151 29.9452L18.1598 30.3343L18.2323 30.3396C18.273 30.3414 18.3102 30.3379 18.3155 30.3325C18.3208 30.3272 18.3208 30.1185 18.3137 29.8709C18.3066 29.6232 18.2925 29.0395 18.2819 28.5743C18.2695 28.1091 18.2482 27.2494 18.2341 26.6657C18.2005 25.309 18.1987 25.4416 18.2465 25.3939C18.2872 25.3532 18.3473 25.3426 18.3933 25.3673C18.4057 25.3744 18.6551 25.3815 18.9487 25.3833C19.4582 25.3886 19.4829 25.3903 19.5112 25.4151C19.5271 25.431 19.5466 25.4558 19.5519 25.4735C19.559 25.4894 19.5731 26.3933 19.5837 27.4829C19.6067 29.7329 19.6138 30.2706 19.6227 30.2848C19.6262 30.2901 19.6686 30.2936 19.7164 30.2901L19.8048 30.2866L19.796 27.7907L19.7889 25.2948L19.8579 25.2134L21.3951 25.2028C22.2406 25.1975 22.9587 25.1975 22.9906 25.2011C23.026 25.2064 23.0613 25.2223 23.0808 25.24C23.1533 25.3125 23.1515 25.2824 23.1586 27.0619C23.1639 27.9676 23.171 29.0395 23.1745 29.4446L23.1834 30.1804H23.3992L23.3903 29.418C23.385 28.9988 23.3727 28.0861 23.362 27.3909C23.3514 26.6975 23.3426 25.9953 23.3426 25.8308L23.3408 25.5336L23.3744 25.5C23.4204 25.4558 23.4929 25.4505 24.1527 25.4416C24.7011 25.4328 24.7948 25.4257 24.9487 25.3815C25.1592 25.3178 25.3043 25.1851 25.3043 25.0542C25.3043 25.0012 25.2919 24.9623 25.2777 24.9711C25.2724 24.9746 24.8992 24.9906 24.4499 25.0047C23.9988 25.0206 23.5849 25.0348 23.5265 25.0401C23.4629 25.0454 23.4133 25.0419 23.3957 25.033C23.3302 24.9976 23.332 25.0472 23.3249 23.4163C23.3178 22.0596 23.3143 21.8844 23.2948 21.8579C23.2683 21.819 23.2683 21.7412 23.2948 21.7022C23.3072 21.6863 23.3355 21.6686 23.3585 21.6616C23.385 21.6545 23.6291 21.6616 24.0006 21.681C24.5313 21.7093 24.6003 21.7093 24.6286 21.6916C24.6445 21.681 24.6993 21.6633 24.7488 21.6509C24.8497 21.6279 24.9186 21.5961 24.9806 21.543C25.0212 21.5094 25.0761 21.421 25.0761 21.3909C25.0761 21.3715 23.5053 21.3715 23.4558 21.3909C23.431 21.3998 23.408 21.398 23.3744 21.3838C23.286 21.3467 23.2878 21.3679 23.2878 20.4145V19.5584L22.8951 19.5672C22.6793 19.5708 21.8373 19.5831 21.0271 19.592C20.2152 19.6008 19.5466 19.6114 19.5395 19.615C19.5324 19.6203 19.5342 19.967 19.5413 20.4357C19.5572 21.3502 19.5625 21.3042 19.4599 21.3379C19.4316 21.3467 19.3927 21.3679 19.3715 21.3856C19.3432 21.4104 19.3166 21.4175 19.2583 21.4192C18.5861 21.4351 18.296 21.444 18.2447 21.4511C18.1863 21.4599 18.1775 21.4564 18.1403 21.4192L18.0997 21.3785V18.1415C18.0997 16.0224 18.105 14.8886 18.1138 14.8585C18.1386 14.7718 18.1545 14.7665 18.4269 14.7736C18.6887 14.7807 24.4446 14.7276 24.4534 14.7187C24.457 14.7152 24.4623 14.6798 24.4658 14.6392L24.4747 14.5649H1.83669V14.7205L2.47702 14.7294C3.98763 14.7488 7.75886 14.7789 7.93044 14.7718L8.11617 14.7647L8.19046 14.839L8.19577 18.0849C8.20108 19.9741 8.19754 21.3485 8.19046 21.3732C8.17454 21.4351 8.12678 21.4617 8.05603 21.4511C8.02419 21.4458 7.77124 21.4369 7.49353 21.4316C7.07608 21.421 6.98056 21.4157 6.94695 21.398C6.92395 21.3874 6.9045 21.3715 6.90096 21.3662C6.89919 21.3608 6.87266 21.3467 6.84259 21.3361C6.80367 21.3219 6.78244 21.3025 6.76652 21.2689C6.74353 21.2246 6.74353 21.1698 6.75768 20.4251C6.76652 19.9528 6.76829 19.6238 6.76122 19.6167C6.74707 19.6061 3.03067 19.5584 3.02006 19.5708C3.01475 19.5743 3.01122 19.9634 3.00945 20.434C3.00591 21.0035 3.0006 21.3007 2.98999 21.3255C2.97053 21.3768 2.89447 21.4104 2.84141 21.3909C2.79895 21.3768 1.21758 21.3697 1.21758 21.3838C1.21758 21.4121 1.28126 21.5041 1.33433 21.5501C1.39093 21.5996 1.52891 21.6598 1.58905 21.6598C1.59966 21.6598 1.6315 21.6704 1.66157 21.6863C1.71287 21.7129 1.71464 21.7129 2.22053 21.6863C2.49825 21.6704 2.77773 21.658 2.84141 21.6562C2.95461 21.6545 2.95638 21.6562 2.99353 21.6969C3.03952 21.7465 3.04306 21.796 3.00768 21.8544C2.98292 21.8933 2.98115 21.9623 2.97584 23.4304L2.97053 24.9658L2.93162 25.0065C2.89093 25.0472 2.89093 25.0472 2.77773 25.0401C2.71405 25.0348 2.29836 25.0189 1.85084 25.0047C1.40508 24.9906 1.03362 24.9764 1.02655 24.9746C1.0177 24.9729 1.00532 24.9923 0.998245 25.0153C0.969943 25.1126 1.06546 25.2506 1.21405 25.3266C1.39978 25.4204 1.4953 25.431 2.17808 25.4416C2.80426 25.4522 2.88563 25.4575 2.92808 25.5018C2.95815 25.5301 2.95815 25.5318 2.95461 25.9847C2.95108 26.556 2.9157 29.1562 2.90332 29.74L2.89447 30.1804H3.12266L3.1315 28.4505C3.14742 25.4788 3.14919 25.3797 3.17926 25.3125C3.19164 25.2807 3.21641 25.2417 3.23409 25.2276C3.2677 25.1975 3.23056 25.1975 5.34789 25.2046L6.41983 25.2081L6.5065 25.286L6.49589 30.2848L6.58079 30.2901C6.62678 30.2919 6.66924 30.2919 6.67454 30.2883C6.67985 30.2848 6.69577 29.2889 6.70638 28.0772C6.73468 25.286 6.73115 25.4912 6.75945 25.4469C6.7736 25.4275 6.80013 25.4062 6.81959 25.3992C6.84082 25.3921 7.08846 25.385 7.37325 25.3833C7.65803 25.3815 7.90037 25.3744 7.91275 25.3673C7.9552 25.3443 8.00473 25.355 8.04895 25.3939L8.09317 25.4346L8.08964 25.6468C8.08787 25.7636 8.07726 26.2217 8.06664 26.6657C8.05426 27.1097 8.0348 27.9623 8.01888 28.5601C8.00473 29.1598 7.98881 29.7966 7.98351 29.9752C7.9782 30.1521 7.9782 30.3096 7.98351 30.3202C7.98881 30.3361 8.01004 30.3414 8.06487 30.3414H8.1374L8.14447 30.1362ZM4.72525 25.0967C3.87619 25.0825 3.27301 25.0666 3.24294 25.0578C3.17926 25.0401 3.13504 24.9782 3.14565 24.9163C3.15096 24.8933 3.14742 24.8597 3.14034 24.842C3.12973 24.8208 3.1315 24.3343 3.14388 23.2288C3.16511 21.4882 3.15626 21.6315 3.24648 21.5395C3.27832 21.5094 3.30131 21.4971 3.33492 21.4971C3.35968 21.4971 3.39329 21.4917 3.41098 21.4864C3.45874 21.467 6.40214 21.4953 6.4499 21.513C6.47112 21.5218 6.49589 21.5413 6.50473 21.5572C6.51711 21.5784 6.51888 22.0065 6.51358 23.3172L6.5065 25.0489L6.46228 25.0879C6.41983 25.125 6.41452 25.1268 6.28893 25.125C6.21641 25.1232 5.5124 25.1108 4.72525 25.0967ZM6.24471 23.3137V21.7677L6.1881 21.7606C6.15626 21.7571 5.52124 21.75 4.77832 21.7465L3.4269 21.7376L3.41806 22.3267C3.41275 22.6504 3.40391 23.3402 3.40037 23.8585L3.39152 24.8013L3.53126 24.8084C3.66216 24.8172 5.50532 24.8508 6.01299 24.8561L6.24471 24.8579V23.3137ZM5.74589 23.8974C5.73527 23.8868 4.10261 23.8479 3.99117 23.855C3.9328 23.8585 3.86027 23.8656 3.82843 23.8709C3.78598 23.8779 3.76299 23.8744 3.73822 23.8585C3.67277 23.8143 3.671 23.8001 3.671 23.227V22.691L3.72938 22.638C3.76299 22.6097 3.80367 22.5831 3.82136 22.5778C3.87796 22.5637 5.89801 22.6397 5.93339 22.6574C6.0006 22.691 6.00237 22.7105 5.97053 23.2889C5.93869 23.8337 5.93692 23.8408 5.88209 23.8868C5.86263 23.9009 5.75827 23.9098 5.74589 23.8974ZM5.7052 23.3296C5.71405 23.1686 5.72112 23.0041 5.72112 22.967V22.8962H5.65744C5.62207 22.8945 5.27183 22.8838 4.88091 22.8679C4.48822 22.8538 4.11499 22.8414 4.04954 22.8414H3.9328V23.2058C3.9328 23.5047 3.93634 23.5702 3.95225 23.5755C3.97171 23.5843 5.09671 23.6162 5.45933 23.6197L5.68928 23.6215L5.7052 23.3296ZM7.26888 25.1002C6.74176 25.0737 6.72938 25.0719 6.69931 24.9941C6.69046 24.9693 6.694 24.4546 6.71169 23.3225L6.73645 21.6863L6.80367 21.6173L8.14093 21.605L8.17454 21.6386C8.21169 21.6775 8.21876 21.7482 8.18692 21.8048C8.17101 21.8331 8.15685 22.1374 8.10909 23.3844C8.06841 24.4369 8.04365 24.9322 8.0348 24.9428C8.02596 24.9499 8.01888 24.9764 8.01888 24.9976C8.01888 25.0436 7.98881 25.0879 7.94282 25.1108C7.90744 25.1303 7.88799 25.1285 7.26888 25.1002ZM7.79601 24.6863C7.79954 24.5926 7.81723 24.1946 7.83138 23.8037C7.8473 23.411 7.8703 22.8184 7.88268 22.4858C7.89683 22.1533 7.90391 21.8774 7.8986 21.8721C7.89152 21.8632 7.00886 21.8844 7.00001 21.8933C6.9894 21.9039 6.95225 24.8031 6.9611 24.8137C6.96994 24.8208 7.47053 24.8508 7.70402 24.8561L7.78716 24.8579L7.79601 24.6863ZM18.3615 25.1144C18.3137 25.0949 18.2925 25.056 18.2695 24.9517C18.2518 24.8738 18.2359 24.5537 18.1934 23.4729C18.1651 22.7158 18.1386 22.0383 18.1386 21.9676C18.135 21.8721 18.1297 21.8296 18.1103 21.7995C18.0749 21.7412 18.0802 21.6899 18.1262 21.6439L18.1651 21.605L18.8337 21.612C19.5643 21.6191 19.5395 21.6156 19.5572 21.6969C19.5625 21.727 19.5944 23.556 19.6085 24.6792C19.612 24.9729 19.6103 24.9906 19.5855 25.0189C19.5696 25.0348 19.5466 25.0542 19.5324 25.0613C19.5201 25.0702 19.2707 25.0861 18.9823 25.1002C18.388 25.1285 18.3986 25.1285 18.3615 25.1144ZM18.9699 24.8384C19.1734 24.8278 19.3414 24.8172 19.3432 24.8137C19.3485 24.8084 19.3096 21.8986 19.3043 21.8915C19.3007 21.8862 18.4021 21.8632 18.3986 21.8667C18.3915 21.8721 18.503 24.7907 18.51 24.8278C18.5171 24.8632 18.4817 24.8632 18.9699 24.8384ZM19.8367 25.0879L19.7942 25.0436L19.7872 23.3544C19.7836 22.4257 19.7801 21.6456 19.7783 21.6209C19.7765 21.5873 19.7836 21.5678 19.8119 21.5413L19.8473 21.5041L20.5018 21.4971C21.7506 21.4811 22.8756 21.4794 22.9499 21.4935C23.0277 21.5094 23.0914 21.5572 23.1197 21.6262C23.1339 21.658 23.1409 22.0012 23.1551 23.1846C23.1639 24.0195 23.1657 24.7677 23.1604 24.8473C23.1515 24.9764 23.148 24.9941 23.1179 25.0242C23.0967 25.0454 23.0631 25.0613 23.0277 25.0649C22.9977 25.0684 22.3945 25.0808 21.6887 25.0932C20.9829 25.1038 20.286 25.1162 20.1409 25.1215L19.8791 25.1303L19.8367 25.0879ZM21.5985 24.8331C22.3131 24.819 22.9004 24.8048 22.9039 24.8013C22.9128 24.7942 22.8862 21.964 22.8756 21.8367L22.8685 21.7376L21.5153 21.7465C20.7724 21.75 20.1374 21.7571 20.1056 21.7606L20.049 21.7677V24.8579H20.1728C20.2418 24.8561 20.8821 24.8455 21.5985 24.8331ZM20.4133 23.8833C20.3974 23.8709 20.378 23.8461 20.3709 23.8302C20.3497 23.7754 20.2984 22.7494 20.3143 22.714C20.3479 22.6415 20.3178 22.645 21.4287 22.6061L22.467 22.569L22.5271 22.6061C22.6315 22.6663 22.628 22.638 22.6297 23.2341C22.6315 23.7241 22.6297 23.77 22.6085 23.8072C22.5749 23.8638 22.5342 23.8815 22.4723 23.8709C22.444 23.8656 22.3679 23.8585 22.3025 23.855C22.1787 23.8479 20.6574 23.885 20.523 23.8974C20.4629 23.9045 20.4381 23.9009 20.4133 23.8833ZM21.6197 23.6002C22.023 23.5896 22.352 23.579 22.3538 23.5772C22.3556 23.5755 22.3609 23.4092 22.3662 23.2075L22.375 22.8414H22.2848C22.1557 22.8414 20.5796 22.898 20.5743 22.9033C20.5708 22.9068 20.5938 23.3561 20.6079 23.5242L20.615 23.6215H20.7512C20.8273 23.6215 21.2182 23.6126 21.6197 23.6002ZM6.41629 21.3555C6.41275 21.352 5.71759 21.3414 4.87384 21.3343C4.02832 21.3272 3.32431 21.3149 3.30662 21.3096C3.2907 21.3025 3.25355 21.2636 3.22702 21.2229L3.17749 21.1486L3.1881 20.5666C3.19518 20.2465 3.19872 19.9458 3.19695 19.898C3.19341 19.8113 3.19341 19.8096 3.26063 19.7282L3.32784 19.645L4.24589 19.6521C4.75001 19.6557 5.46994 19.6627 5.84671 19.668L6.5295 19.6769L6.60733 19.7653L6.60025 21.2989L6.5631 21.3308C6.52773 21.3608 6.43751 21.3768 6.41629 21.3555ZM6.34023 20.51C6.33846 20.1987 6.33315 19.9404 6.32961 19.9351C6.32608 19.9298 5.99884 19.9245 5.60261 19.9228C5.20461 19.9228 4.56074 19.9175 4.17159 19.9139L3.46228 19.9051V20.0466C3.46051 20.1244 3.4552 20.3809 3.4499 20.6179C3.44459 20.8532 3.44282 21.0495 3.44459 21.0548C3.45167 21.0619 4.84907 21.0743 5.71405 21.0743H6.34553L6.34023 20.51ZM19.7359 21.329L19.6987 21.2919V20.5277C19.6987 20.0289 19.704 19.7529 19.7129 19.7353C19.7465 19.6733 19.7376 19.6733 20.8149 19.6645C21.3721 19.6592 22.0849 19.6521 22.398 19.6486L22.9658 19.6415L22.9959 19.6751C23.0118 19.6946 23.0419 19.73 23.0613 19.7547L23.0985 19.7989L23.1091 20.3561C23.125 21.2052 23.1286 21.1415 23.0737 21.2246C23.0436 21.2724 23.0153 21.2989 22.987 21.3078C22.9605 21.3166 22.3432 21.3272 21.4198 21.3379C20.5796 21.3449 19.8668 21.3555 19.8332 21.3591C19.7801 21.3644 19.7677 21.3608 19.7359 21.329ZM22.8491 21.0584C22.8544 21.0548 22.8561 20.8302 22.8508 20.5578C22.8402 19.9688 22.8367 19.9051 22.8225 19.9068C22.8155 19.9086 22.1822 19.9139 21.4128 19.9175C20.6433 19.9228 20.0012 19.9298 19.9853 19.9334L19.9552 19.9387V21.0831L21.3951 21.0743C22.1893 21.069 22.842 21.0619 22.8491 21.0584ZM7.7111 30.3255C7.71464 30.3096 7.82784 25.6433 7.82431 25.6397C7.82254 25.638 7.63504 25.6397 7.41039 25.645L7.00001 25.6557L6.99294 26.1262C6.98763 26.3862 6.97702 27.2795 6.96994 28.1108C6.96287 28.9422 6.95402 29.7754 6.95049 29.9629L6.94164 30.3025H6.98056C7.05131 30.306 7.52891 30.3237 7.61912 30.3255C7.66865 30.3272 7.70933 30.3272 7.7111 30.3255ZM19.2247 30.306L19.3503 30.2989L19.3485 30.0478C19.3485 29.9098 19.3396 29.0165 19.329 28.0631C19.3184 27.1097 19.3096 26.1775 19.3096 25.9917V25.6557L18.8974 25.645C18.6728 25.6397 18.4835 25.6397 18.48 25.6433C18.4747 25.6468 18.4977 26.6904 18.5277 27.9587C18.5596 29.2288 18.5843 30.2812 18.5843 30.2989V30.329L18.8426 30.3219C18.9841 30.3166 19.1574 30.3113 19.2247 30.306ZM6.24117 27.9976L6.24825 25.7317H6.16157C6.0802 25.7317 5.0861 25.7087 3.91865 25.6787C3.64978 25.6716 3.42513 25.6698 3.41983 25.6751C3.41098 25.684 3.37737 30.1822 3.38622 30.1893C3.38976 30.1928 4.58728 30.2317 6.09612 30.2777C6.1598 30.2795 6.21641 30.2777 6.22171 30.2724C6.22879 30.2689 6.23586 29.2447 6.24117 27.9976ZM21.6197 30.2353C22.3255 30.2123 22.9057 30.191 22.9092 30.1875C22.9163 30.1804 22.8915 25.6804 22.8827 25.6733C22.8738 25.6627 20.0702 25.7335 20.0613 25.7423C20.056 25.7476 20.056 26.77 20.0596 28.0136L20.0649 30.2742H20.2011C20.2771 30.2742 20.9139 30.2565 21.6197 30.2353ZM2.64506 29.5896C2.68751 26.7983 2.69813 25.7282 2.68751 25.7176C2.67513 25.7052 1.819 25.6963 1.79777 25.7105C1.78893 25.7158 1.78362 26.0483 1.78362 26.7099C1.78362 27.2547 1.77832 28.2488 1.77301 28.921C1.7677 29.6515 1.76947 30.1415 1.77655 30.1415C1.82254 30.1486 2.31782 30.1627 2.4611 30.161H2.63622L2.64506 29.5896ZM24.487 30.1415L24.5277 30.1327L24.5242 28.7618C24.5224 28.0083 24.5171 27.0106 24.5136 26.5472L24.5047 25.7016L24.0607 25.7034C23.8166 25.7052 23.6132 25.7105 23.6079 25.7158C23.6008 25.7246 23.6362 28.638 23.6592 29.7347L23.6681 30.1698L24.0572 30.1592C24.2712 30.1539 24.464 30.1468 24.487 30.1415ZM9.08551 24.2565C9.09082 23.9399 9.09789 23.2783 9.1032 22.7866L9.11204 21.8897L8.92454 21.895C8.82195 21.8986 8.68751 21.9057 8.62737 21.9092L8.51593 21.9163V22.2541C8.51593 22.4416 8.50886 23.0766 8.50178 23.6657C8.48763 24.5837 8.48763 24.7412 8.50355 24.7553C8.52301 24.773 8.85909 24.819 9.03421 24.8296L9.07667 24.8314L9.08551 24.2565ZM17.592 24.796C17.6928 24.7836 17.783 24.7677 17.7936 24.7624C17.8149 24.7482 17.8149 24.6633 17.7954 23.0943C17.7883 22.454 17.7795 21.9251 17.7742 21.9198C17.7618 21.9092 17.2082 21.888 17.1975 21.8986C17.1905 21.9057 17.217 24.8119 17.2241 24.8296C17.2258 24.8349 17.3673 24.8225 17.592 24.796ZM2.71228 23.3526C2.71935 22.5743 2.71935 21.934 2.71582 21.9304C2.70697 21.9216 1.82077 21.9658 1.81016 21.9764C1.80662 21.98 1.79954 22.1533 1.79424 22.362C1.78893 22.5708 1.77478 22.9864 1.7624 23.2854C1.75001 23.5843 1.74294 23.9947 1.74471 24.1963L1.74825 24.5625L1.71464 24.5961C1.6881 24.6226 1.65626 24.6333 1.56251 24.6492C1.44223 24.6686 1.30603 24.7075 1.31664 24.7199C1.32372 24.7252 2.63799 24.7765 2.68398 24.773C2.70167 24.7712 2.7052 24.5979 2.71228 23.3526ZM24.2429 24.75C24.5118 24.7429 24.7931 24.7323 24.8674 24.7288L25.0018 24.7199L24.9275 24.6952C24.8868 24.681 24.8054 24.6598 24.7471 24.6509C24.6126 24.6262 24.5949 24.6191 24.5755 24.5837C24.5649 24.5643 24.5596 24.4121 24.556 24.0725C24.556 23.8054 24.5472 23.4517 24.5401 23.2854C24.5313 23.1191 24.5189 22.7565 24.51 22.4788C24.5012 22.2011 24.4941 21.9746 24.4924 21.9729C24.4888 21.9676 23.7194 21.9287 23.6468 21.9287H23.5814L23.5849 23.3367C23.5885 24.1097 23.5955 24.7518 23.6008 24.7588C23.6079 24.7695 23.6362 24.773 23.6804 24.7695C23.7194 24.7659 23.9723 24.7588 24.2429 24.75ZM9.55072 21.1486C9.55072 20.9876 9.39329 20.7966 9.17042 20.6834C9.12089 20.6568 9.09612 20.6515 9.05721 20.6604C9.02891 20.6657 8.9953 20.6675 8.97938 20.6657C8.90155 20.6551 8.77596 20.4446 8.73704 20.2606C8.72112 20.1846 8.71759 20.112 8.72289 19.9581C8.73174 19.6415 8.80603 19.3974 9.01122 18.9923C9.24294 18.536 9.57372 18.1026 10.0372 17.6462C10.7624 16.9316 11.5177 16.4682 12.3296 16.2347C12.3438 16.2311 12.3473 16.1215 12.3473 15.7465C12.3473 15.4811 12.3526 15.2494 12.3597 15.2317C12.365 15.214 12.3968 15.1787 12.4287 15.1539L12.4888 15.1061L13.1398 15.1044C13.8278 15.1026 13.8172 15.1008 13.8862 15.1645C13.9552 15.2246 13.9534 15.207 13.9605 15.7358L13.9676 16.2347L14.0808 16.2665C14.1445 16.2842 14.2807 16.332 14.3833 16.3726C15.7276 16.9051 17.1144 18.2866 17.4929 19.4682C17.615 19.8538 17.6185 20.1916 17.5018 20.4446C17.4186 20.6268 17.3408 20.694 17.2541 20.6621C17.1975 20.6427 17.1657 20.6533 17.0507 20.7294C16.8721 20.8461 16.7553 21.0018 16.7518 21.1309L16.7482 21.1946L17.6964 21.2017V20.5666C17.6964 20.2182 17.7034 18.8491 17.7105 17.5259C17.7176 16.2046 17.7211 15.1203 17.7176 15.1167C17.7158 15.115 16.7412 15.1026 15.5507 15.092C13.7376 15.0725 13.0832 15.0725 11.4929 15.0849C10.4511 15.0937 9.36853 15.1044 9.08905 15.1079L8.57961 15.1167L8.58846 17.4976C8.59376 18.8066 8.60084 20.1757 8.60615 20.5401L8.61322 21.2017L9.55072 21.1999V21.1486ZM7.93928 18.1132V15.0495L7.58551 15.0407C6.97348 15.0265 1.89152 14.9876 1.88091 14.9965C1.8756 15.0018 1.85261 16.1144 1.82784 17.4693C1.80485 18.8243 1.78185 20.0342 1.78008 20.1598C1.77478 20.3738 1.77124 20.3933 1.73763 20.4658C1.70933 20.5259 1.68633 20.5525 1.62442 20.5949C1.47407 20.6993 1.32018 20.8779 1.25827 21.0212C1.24235 21.0548 1.23174 21.0884 1.23174 21.0955C1.23174 21.1026 1.53952 21.1079 1.99058 21.1079H2.74942L2.7565 19.385L2.79542 19.3514C2.82549 19.3267 2.84848 19.3196 2.90332 19.3196C2.94046 19.3178 3.04483 19.316 3.13327 19.3107C3.22171 19.3072 4.10438 19.3143 5.09494 19.3267C6.50827 19.3443 6.90626 19.3532 6.9381 19.3673C6.96994 19.3797 6.98763 19.4009 7.00532 19.4505C7.03539 19.5265 7.03539 19.5584 7.01947 20.5065L7.00886 21.161L7.39624 21.1645C7.6085 21.168 7.819 21.1698 7.86145 21.1716L7.93751 21.1751L7.93928 18.1132ZM4.35202 18.2848C3.85143 18.1769 3.45343 17.8249 3.296 17.3526C3.17749 16.9953 3.20402 16.5778 3.36853 16.2559C3.46228 16.0702 3.68692 15.8119 3.8249 15.7323C3.85497 15.7129 3.90273 15.6828 3.93103 15.6651C4.07784 15.5696 4.33787 15.4917 4.55898 15.4811C5.24707 15.444 5.85025 15.8915 6.02006 16.5654C6.04483 16.6592 6.05013 16.7193 6.05013 16.9015C6.05013 17.1014 6.04659 17.135 6.01299 17.2535C5.87325 17.7577 5.49294 18.138 5.00119 18.2671C4.81369 18.3166 4.53244 18.3237 4.35379 18.2848H4.35202ZM4.90037 18.023C5.0348 17.9929 5.27714 17.8744 5.37442 17.7895C5.56192 17.6268 5.70343 17.4057 5.76358 17.1757C5.80249 17.0236 5.80249 16.7636 5.76181 16.6114C5.70167 16.3868 5.59553 16.2117 5.41865 16.0436C5.32667 15.9552 5.27537 15.9198 5.1657 15.8667C4.97112 15.7712 4.85261 15.7412 4.64565 15.7412C4.30957 15.7394 4.03362 15.8561 3.80367 16.0967C3.66039 16.2471 3.56841 16.4116 3.51534 16.6114C3.47466 16.7653 3.47466 17.0254 3.51534 17.1757C3.62148 17.5737 3.91157 17.8797 4.29541 18.0018C4.47761 18.0601 4.70049 18.0672 4.90037 18.023ZM19.2848 21.1504C19.2901 21.145 19.2883 20.8426 19.2813 20.4764C19.2636 19.6433 19.2671 19.5071 19.3025 19.4346C19.3166 19.4045 19.3449 19.3744 19.3626 19.3656C19.3998 19.3479 22.8791 19.2983 23.1728 19.3107C23.263 19.316 23.3656 19.3178 23.4027 19.3196C23.4576 19.3196 23.477 19.3249 23.5053 19.3532L23.5389 19.3868L23.5478 19.8803C23.5531 20.1527 23.5566 20.5401 23.5566 20.7417V21.1079H25.0743L25.0549 21.0531C25.0053 20.9098 24.855 20.7241 24.7064 20.6179C24.6003 20.5419 24.5861 20.5242 24.5525 20.4393C24.5242 20.3685 24.5224 20.3154 24.4764 17.6834C24.4499 16.2064 24.4251 14.9965 24.4216 14.9929C24.4145 14.9858 19.1875 15.0301 18.717 15.0407L18.3721 15.0495L18.365 18.1026C18.3615 19.7812 18.3597 21.1592 18.3632 21.1627C18.3685 21.1733 19.2742 21.161 19.2848 21.1504ZM21.411 18.2919C21.1297 18.2423 20.8927 18.1185 20.6751 17.9098C20.0861 17.3438 20.0985 16.4169 20.7034 15.8526C21.0661 15.513 21.6109 15.3892 22.0832 15.5395C22.1769 15.5696 22.2441 15.5996 22.4122 15.6899C22.5378 15.7571 22.7518 15.9676 22.8491 16.1179C23.1622 16.5991 23.1569 17.2093 22.8385 17.6851C22.628 18.0018 22.283 18.2264 21.9045 18.2919C21.7683 18.3166 21.5419 18.3166 21.411 18.2919ZM21.8567 18.0371C22.1698 17.9823 22.4493 17.8001 22.6244 17.5383C22.7677 17.3225 22.8261 17.1085 22.8137 16.8414C22.8031 16.5902 22.7359 16.4009 22.5873 16.2011C22.4334 15.9923 22.2388 15.8614 21.9611 15.7765C21.862 15.7465 21.8161 15.7412 21.6745 15.7412C21.5826 15.7394 21.4711 15.7482 21.4269 15.7571C21.1297 15.8208 20.8308 16.0295 20.6822 16.2736C20.5513 16.4912 20.4982 16.6963 20.5089 16.9475C20.5195 17.1421 20.5407 17.2288 20.6256 17.4057C20.8503 17.8673 21.3508 18.1238 21.8567 18.0371ZM17.3161 19.9723C17.309 19.7583 17.2771 19.6185 17.1852 19.3886C16.98 18.8703 16.6085 18.3502 16.069 17.8213C15.6569 17.418 15.2606 17.1173 14.8043 16.8626C14.4346 16.6557 14.0118 16.4929 13.8544 16.4965C13.7695 16.4982 13.7659 16.4965 13.7146 16.4416C13.6633 16.3886 13.6616 16.385 13.6704 16.3178C13.6757 16.2807 13.6828 16.0436 13.6863 15.7942L13.6916 15.3379L13.467 15.3485C13.3414 15.3555 13.1716 15.3591 13.0867 15.3555C13.0018 15.352 12.8585 15.3502 12.7701 15.3485H12.6091L12.6056 15.7783C12.602 16.1551 12.6038 16.2152 12.6232 16.2577C12.6569 16.3302 12.6409 16.3903 12.5737 16.4505C12.5224 16.4965 12.5136 16.5 12.457 16.4947C12.3455 16.4823 11.944 16.6274 11.615 16.7989C10.8668 17.1899 10.1044 17.8496 9.59141 18.5501C9.1598 19.1409 8.92808 19.7476 8.98115 20.1456C8.98645 20.1792 8.99353 20.2075 8.99884 20.2075C9.00414 20.2075 9.02537 20.1492 9.04659 20.0767C9.34907 19.056 10.2211 17.9292 11.2258 17.2642C11.7636 16.9086 12.2995 16.6928 12.8072 16.6309C12.9788 16.6114 13.4847 16.6221 13.6297 16.6504C14.1356 16.7459 14.6185 16.9546 15.1156 17.2925C16.1115 17.9682 16.9393 19.0454 17.2541 20.0767C17.2913 20.1987 17.3001 20.2164 17.3107 20.1916C17.3178 20.1739 17.3196 20.0766 17.3161 19.9723ZM5.69282 14.2978C5.69282 14.2907 5.68398 14.2571 5.67336 14.2199C5.65921 14.1792 5.64683 14.059 5.63975 13.9104C5.63091 13.714 5.62384 13.6539 5.59907 13.592C5.56016 13.4876 5.46817 13.3939 5.36381 13.3514C5.28598 13.3196 5.27006 13.3196 4.96051 13.3196C4.65626 13.3196 4.63327 13.3213 4.56075 13.3514C4.51829 13.3673 4.48468 13.385 4.48468 13.3903C4.48468 13.3956 4.49353 13.454 4.50414 13.5212C4.54836 13.7936 4.51829 14.0731 4.42985 14.2164C4.40862 14.2535 4.38916 14.2836 4.38916 14.2871C4.38916 14.2942 4.70579 14.2995 5.30013 14.3048C5.51593 14.3066 5.69282 14.3031 5.69282 14.2978ZM7.5749 14.3013C7.5749 14.2978 7.56251 14.2659 7.54659 14.2305C7.53244 14.1952 7.48645 14.0678 7.44577 13.9475C7.36617 13.7052 7.3131 13.5902 7.24412 13.5053C7.19282 13.4416 7.10438 13.3939 7.03893 13.3939C7.00178 13.3939 6.99294 13.3992 6.96994 13.4505C6.95756 13.4823 6.93634 13.5761 6.92395 13.6627C6.8815 13.9723 6.84435 14.1173 6.77714 14.2358C6.75945 14.2659 6.74884 14.296 6.75237 14.2995C6.76122 14.3084 7.5749 14.3101 7.5749 14.3013ZM8.14093 14.2588C8.20638 14.1969 8.26829 14.0554 8.31428 13.8608C8.39388 13.5265 8.4098 13.4682 8.45579 13.3691C8.48233 13.3125 8.50178 13.2665 8.49825 13.2647C8.49648 13.2612 8.24884 13.2647 7.94636 13.27L7.39801 13.2789L7.45284 13.3461C7.53067 13.4381 7.61204 13.615 7.70049 13.8803C7.78539 14.135 7.81192 14.1899 7.86853 14.2447C7.94636 14.319 8.07195 14.3243 8.14093 14.2588ZM9.59848 14.2836C9.59317 14.2712 9.5631 14.1828 9.5295 14.089C9.3473 13.5601 9.28185 13.4487 9.09612 13.362C9.0236 13.3266 8.98999 13.3196 8.91747 13.3196C8.84317 13.3196 8.82195 13.3249 8.78303 13.355C8.70167 13.4169 8.66983 13.5018 8.56546 13.9404C8.54601 14.0147 8.51063 14.1279 8.48586 14.1916L8.43987 14.3066H9.0236C9.57372 14.3066 9.60733 14.3066 9.59848 14.2836ZM11.5672 14.2182C11.4505 14.1067 11.362 13.9776 11.286 13.8025C11.1427 13.4699 11.0808 13.3868 10.9481 13.3479C10.8172 13.309 10.7447 13.3249 10.674 13.408C10.6156 13.477 10.5784 13.5637 10.4776 13.8591C10.4263 14.013 10.3626 14.1775 10.3361 14.2235L10.2901 14.3066H11.661L11.5672 14.2182ZM13.9923 14.2323C13.8756 14.1138 13.8013 13.9864 13.6651 13.6716C13.5236 13.3426 13.4829 13.27 13.4192 13.2364C13.3626 13.2064 13.0495 13.194 12.9416 13.217C12.8231 13.2453 12.8143 13.2594 12.5613 13.8414C12.4906 14.0059 12.4198 14.1138 12.3172 14.2217L12.2359 14.3066H14.0684L13.9923 14.2323ZM16 14.2978C15.9982 14.2907 15.9735 14.2394 15.9434 14.181C15.9151 14.1209 15.8567 13.9652 15.8143 13.8325C15.6657 13.385 15.5879 13.293 15.3933 13.3373C15.2359 13.3744 15.1651 13.4522 15.0572 13.7052C15.0236 13.7848 14.9794 13.8821 14.9599 13.921C14.9104 14.0183 14.7901 14.1739 14.707 14.2465L14.638 14.3066H15.3225C15.6975 14.3066 16.0036 14.3031 16 14.2978ZM17.8538 14.2907C17.7954 14.1598 17.753 14.02 17.7034 13.8131C17.6716 13.6751 17.6327 13.5336 17.6185 13.5C17.5867 13.4239 17.5301 13.3585 17.477 13.3302C17.385 13.2824 17.1975 13.3373 17.0719 13.4487C16.9994 13.5141 16.9234 13.661 16.8349 13.9104C16.8031 13.9988 16.7589 14.1244 16.7341 14.1899L16.6916 14.3066H17.2754C17.7388 14.3066 17.8591 14.3031 17.8538 14.2907ZM18.4004 14.2695C18.464 14.2323 18.51 14.1439 18.5967 13.8892C18.7082 13.5548 18.7736 13.4222 18.8762 13.309L18.9116 13.2718H18.5949C18.4216 13.2718 18.1686 13.2683 18.0324 13.263L17.7883 13.2541L17.8273 13.3337C17.875 13.4275 17.9192 13.5743 17.9776 13.8237C18.0413 14.0996 18.1138 14.25 18.2005 14.2889C18.25 14.3119 18.3438 14.3031 18.4004 14.2695ZM19.5519 14.3031C19.5519 14.2995 19.5307 14.2535 19.5059 14.1987C19.4458 14.0678 19.4228 13.9741 19.3821 13.7052C19.3449 13.454 19.3255 13.4027 19.2583 13.3956C19.1681 13.3868 19.0478 13.4858 18.9735 13.6327C18.9434 13.6946 18.7948 14.0979 18.7365 14.2836C18.7294 14.3048 18.7541 14.3066 19.1398 14.3066C19.3662 14.3066 19.5519 14.3048 19.5519 14.3031ZM21.5207 14.2978L21.9116 14.2889L21.8691 14.2182C21.7807 14.0696 21.7524 13.8591 21.7878 13.5831C21.8001 13.4841 21.809 13.3956 21.8054 13.3868C21.8019 13.3779 21.763 13.3585 21.7205 13.3443C21.6515 13.3231 21.6003 13.3196 21.3314 13.3196C21.0696 13.3196 21.013 13.3231 20.9528 13.3426C20.8715 13.3726 20.7742 13.454 20.7282 13.5318C20.6804 13.6114 20.6681 13.6893 20.6539 13.9493C20.6468 14.0943 20.6344 14.2005 20.6221 14.2358C20.6115 14.2659 20.6044 14.2942 20.6097 14.2995C20.6203 14.3101 21.0342 14.3084 21.5207 14.2978ZM2.99707 14.2429C2.93162 13.8803 2.76888 13.5884 2.57254 13.4805C2.47879 13.4275 2.35674 13.4257 2.26652 13.4717C2.09317 13.5637 1.94813 13.8308 1.89683 14.1562C1.89152 14.1881 1.87207 14.2323 1.85438 14.2535L1.82077 14.2942H3.00591L2.99707 14.2429ZM3.97525 14.2553C4.14683 14.1881 4.22466 14.1014 4.25473 13.9387C4.27419 13.8255 4.27242 13.7565 4.24235 13.5407C4.22643 13.4381 4.21582 13.3443 4.21759 13.3355C4.22112 13.3231 4.09553 13.3196 3.62325 13.3231C3.29424 13.3249 2.98115 13.3302 2.92808 13.3355L2.83079 13.3426L2.91039 13.4275C3.04659 13.5743 3.1545 13.783 3.21464 14.0236C3.23233 14.0926 3.24825 14.1509 3.25001 14.1527C3.26063 14.1616 3.46405 14.2606 3.50296 14.2748C3.57902 14.3048 3.87796 14.2925 3.97525 14.2553ZM6.37384 14.2801C6.43221 14.2571 6.51181 14.1739 6.55426 14.0908C6.60202 13.9953 6.62678 13.898 6.65509 13.6963C6.67985 13.5018 6.70815 13.3797 6.73468 13.3249L6.75591 13.286H6.51711C6.38622 13.286 6.15626 13.2895 6.00768 13.2948L5.73704 13.3037L5.78126 13.3726C5.86794 13.5071 5.90685 13.6963 5.90862 13.9705C5.90862 14.0342 5.91393 14.1067 5.92277 14.1333C5.93869 14.1952 5.99884 14.25 6.07136 14.273C6.14211 14.296 6.32254 14.2995 6.37384 14.2801ZM20.2701 14.2535C20.3744 14.2022 20.3868 14.1633 20.3992 13.8785C20.4116 13.5884 20.4399 13.4858 20.5354 13.3479C20.5495 13.3284 20.5602 13.309 20.5566 13.3054C20.5531 13.3019 20.3249 13.2948 20.049 13.2895C19.5572 13.2807 19.5466 13.2824 19.5572 13.3072C19.5944 13.3956 19.6209 13.5106 19.6457 13.6857C19.6757 13.9051 19.6987 13.9971 19.7465 14.0926C19.8278 14.2518 19.9021 14.296 20.0826 14.2907C20.1781 14.2871 20.217 14.2783 20.2701 14.2535ZM22.9198 14.2182L23.0507 14.1509L23.0808 14.036C23.148 13.7812 23.2577 13.5672 23.3957 13.4151L23.4629 13.3408L23.3656 13.3337C23.3107 13.3302 22.9994 13.3249 22.6722 13.3213L22.0778 13.316V13.3709C22.0778 13.3992 22.069 13.4805 22.0566 13.5495C22.0265 13.73 22.0354 13.9528 22.0778 14.0483C22.1521 14.2164 22.3308 14.2942 22.6244 14.2889L22.7889 14.2871L22.9198 14.2182ZM24.4534 14.2606C24.4163 14.227 24.4145 14.2217 24.3898 14.0855C24.3385 13.8096 24.2023 13.5708 24.0431 13.477C23.9228 13.4062 23.7583 13.4346 23.6291 13.5513C23.4859 13.6769 23.3408 13.9811 23.309 14.2235L23.2984 14.2942H24.4888L24.4534 14.2606ZM9.98056 14.2465C10.0672 14.2022 10.1451 14.0519 10.2423 13.7388C10.306 13.5389 10.3662 13.3939 10.4298 13.2913L10.4635 13.2382L9.94341 13.2435C9.65685 13.2453 9.42159 13.2506 9.41806 13.2524C9.41629 13.2559 9.43751 13.286 9.46759 13.3196C9.55249 13.4151 9.66747 13.6698 9.7736 13.9971C9.8302 14.1739 9.87796 14.2518 9.9381 14.2659C9.93987 14.2659 9.95933 14.2571 9.98056 14.2465ZM16.4405 14.2022C16.4564 14.181 16.5006 14.0696 16.5395 13.9564C16.6527 13.6327 16.7323 13.4522 16.8137 13.3443L16.8862 13.2488L16.3679 13.2417C16.0814 13.24 15.8461 13.2382 15.8426 13.24C15.8408 13.2417 15.8567 13.2736 15.8797 13.309C15.9399 13.4027 15.9806 13.5035 16.0584 13.7406C16.1415 13.9935 16.1981 14.1226 16.2583 14.1916C16.3343 14.2765 16.3874 14.2801 16.4405 14.2022ZM12.0678 14.0908C12.1386 14.0448 12.2199 13.944 12.273 13.8361C12.3155 13.7529 12.549 13.2134 12.5454 13.2117C12.5348 13.2064 11.286 13.2258 11.2807 13.2329C11.2771 13.2364 11.2948 13.2665 11.3214 13.3001C11.378 13.3709 11.4151 13.4416 11.5018 13.645C11.5796 13.8272 11.6415 13.9281 11.7353 14.0183C11.8626 14.1421 11.9582 14.1633 12.0678 14.0908ZM14.4717 14.0943C14.5407 14.0483 14.6398 13.9458 14.6928 13.8626C14.714 13.829 14.7653 13.7229 14.806 13.6274C14.8909 13.431 14.9369 13.3461 14.9971 13.2789L15.036 13.2347L14.9652 13.2258C14.8715 13.217 13.7589 13.2099 13.7589 13.2187C13.7589 13.2364 14.0277 13.8414 14.0613 13.898C14.1109 13.9829 14.2046 14.0837 14.2594 14.1103C14.3267 14.1439 14.4027 14.1386 14.4717 14.0943ZM1.67572 13.9404C1.73409 13.714 1.82077 13.5371 1.93751 13.4062C1.96582 13.3762 1.98527 13.3514 1.98174 13.3496C1.97997 13.3479 1.72702 13.3496 1.41924 13.3532C0.872656 13.3585 0.862043 13.3603 0.863811 13.3868C0.870887 13.4894 0.902727 13.6504 0.922184 13.6893C0.99117 13.8237 1.24589 13.9546 1.4953 13.9829C1.67042 14.0024 1.65803 14.0041 1.67572 13.9404ZM24.9416 13.9564C25.0885 13.9192 25.2477 13.8379 25.3202 13.7583C25.3856 13.6875 25.4015 13.6504 25.4228 13.4947C25.4299 13.4416 25.4369 13.3903 25.4405 13.3797C25.444 13.362 25.3732 13.3585 24.8868 13.3532C24.5808 13.3496 24.3278 13.3479 24.3243 13.3479C24.3225 13.3496 24.3544 13.3956 24.3951 13.4487C24.5065 13.5937 24.5507 13.691 24.6392 13.9811C24.6462 14.0041 24.8019 13.99 24.9416 13.9564ZM0.699307 13.1374C0.715226 13.125 0.734684 13.1108 0.743528 13.1055C0.757679 13.0967 3.20402 13.0596 5.30367 13.0366C5.65567 13.0312 7.53598 13.0065 9.48351 12.98C11.431 12.9534 13.0796 12.9322 13.1468 12.9322C13.2123 12.9304 13.9234 12.941 14.7264 12.9534C15.9611 12.9729 18.9576 13.0118 21.0501 13.0366C23.9493 13.0702 25.5342 13.0967 25.5625 13.1126C25.5802 13.1215 25.6085 13.1409 25.628 13.1533C25.6616 13.1798 25.6633 13.1798 25.7376 13.1515C25.7801 13.1356 25.8438 13.0967 25.8809 13.0631C25.9658 12.987 25.9959 12.9092 25.9959 12.7818C25.9941 12.5979 25.9057 12.4794 25.7023 12.3838C25.4705 12.2759 25.7058 12.283 22.75 12.2883C21.3048 12.2901 18.6409 12.3007 16.8296 12.3096C13.911 12.3237 12.8426 12.3219 7.42631 12.2989C0.918646 12.2706 0.92749 12.2706 0.727608 12.3325C0.540108 12.3892 0.402137 12.4864 0.341995 12.6032C0.308387 12.6722 0.294236 12.8243 0.317231 12.9057C0.341995 12.9976 0.407444 13.0702 0.518882 13.1285C0.621477 13.1816 0.649778 13.1834 0.701075 13.1374H0.699307ZM20.7653 12.0283C22.8721 12.0195 24.5967 12.0071 24.6003 12.0053C24.602 12.0018 24.5932 11.9717 24.579 11.9363L24.556 11.8709L23.8449 11.8726C23.454 11.8726 20.9564 11.8833 18.2942 11.8956C13.8066 11.9169 13.0495 11.9169 7.85792 11.8956C4.77832 11.8833 2.1427 11.8726 2.00119 11.8709L1.74294 11.8673L1.72171 11.9328C1.70933 11.9682 1.70225 12.0018 1.70579 12.0053C1.70933 12.0088 3.86558 12.023 6.49589 12.0354C11.6716 12.0619 14.2984 12.0619 20.7653 12.0283ZM18.5153 11.6321C21.6462 11.6179 24.2765 11.6055 24.3615 11.6055C24.4888 11.6055 24.5118 11.602 24.5065 11.5861C24.4906 11.5436 24.4694 11.089 24.4587 10.546C24.4517 10.2347 24.4446 9.97641 24.4411 9.97288C24.4375 9.96934 21.9116 9.97465 18.8267 9.98526C15.181 9.99764 13.2052 9.99941 13.1822 9.99057C13.161 9.98349 13.1362 9.98172 13.1115 9.99057C13.0867 9.99941 11.102 9.99764 7.4723 9.98526C4.39093 9.97465 1.86499 9.97111 1.86145 9.97641C1.85615 9.98172 1.84553 10.2877 1.83669 10.6574C1.82961 11.0271 1.81546 11.3897 1.80839 11.4623C1.80131 11.5348 1.79601 11.5967 1.79954 11.6002C1.80308 11.6038 4.17513 11.6162 7.07254 11.6303C9.96994 11.6445 12.4481 11.6568 12.5826 11.6568C12.7152 11.6586 15.3844 11.6462 18.5153 11.6321ZM14.7936 9.73762L16.3998 9.73054L16.4069 9.5908H9.89919L9.90803 9.73054L11.5089 9.73762C12.3898 9.74116 13.115 9.74823 13.1221 9.75531C13.1274 9.76061 13.1451 9.76061 13.1592 9.75531C13.1751 9.75 13.9092 9.74116 14.7936 9.73762ZM9.63209 9.65802V9.59434L7.85615 9.58549C6.87796 9.58019 5.20992 9.57665 4.14683 9.57665H2.21346L2.14624 9.63325C2.11086 9.66509 2.07902 9.69516 2.07902 9.70047C2.07902 9.70932 2.99353 9.71285 7.5519 9.71993L9.63209 9.72347V9.65802ZM21.6798 9.71462L24.2323 9.70578L24.1598 9.6421L24.0873 9.57665H22.1504C21.0855 9.57665 19.4157 9.58019 18.4375 9.58549L16.6616 9.59434V9.72347H17.8945C18.5737 9.72347 20.2771 9.71993 21.6798 9.71462ZM16.3874 9.3184C16.3945 9.30955 16.3591 7.58844 16.3503 7.5796C16.3467 7.57783 16.1327 7.57075 15.8727 7.56545L15.4004 7.5566L15.3951 7.77594C15.3933 7.9316 15.3968 8.0059 15.4074 8.03066C15.4181 8.04835 15.4251 8.07488 15.4251 8.08726C15.4251 8.12795 15.3898 8.18455 15.3561 8.20047C15.3349 8.20932 14.5761 8.21285 13.1362 8.21285L10.9464 8.21108L10.9145 8.17394C10.8809 8.13502 10.8685 8.0395 10.8951 8.02358C10.9039 8.01828 10.9092 7.92453 10.9092 7.78479V7.55483L10.4352 7.56545C10.1751 7.57075 9.95756 7.5796 9.95226 7.58491C9.94872 7.58844 9.9381 7.9263 9.92926 8.33314C9.92042 8.73998 9.9098 9.12736 9.90626 9.19634L9.89919 9.32016L10.0708 9.3237C10.4104 9.33255 16.3768 9.32724 16.3874 9.3184ZM9.64624 9.22288C9.64624 9.10436 9.66924 8.1704 9.67985 7.82901L9.68692 7.58314L9.37384 7.59021C9.01476 7.59906 8.98645 7.59375 8.95284 7.51238C8.94223 7.48585 8.93516 7.45932 8.94046 7.45224C8.944 7.44516 8.94223 7.42748 8.93516 7.41333C8.92631 7.39917 8.91393 7.27712 8.90509 7.14092C8.89801 7.00472 8.8874 6.8862 8.88386 6.87559C8.88209 6.86498 8.84494 6.9092 8.79895 6.97818C8.61145 7.26297 8.32667 7.46639 7.99589 7.55307C7.68634 7.63443 7.35556 7.59906 7.05662 7.45224C6.52242 7.18868 6.21817 6.5908 6.319 6.00708C6.40567 5.51179 6.75237 5.10318 7.21759 4.94399C7.66157 4.79186 8.16039 4.88561 8.53185 5.18809C8.58315 5.23054 8.64683 5.29245 8.67336 5.32429C8.71759 5.37736 8.72289 5.3809 8.74942 5.36321C8.76358 5.35259 8.80957 5.33314 8.84848 5.32075C8.90685 5.30307 8.93162 5.3013 8.97053 5.31191C9.00591 5.32252 9.28893 5.32252 9.98763 5.30837C10.5201 5.29776 10.957 5.29068 10.957 5.28891C10.9587 5.28891 10.9623 5.18632 10.9658 5.0625C10.9711 4.89092 10.9676 4.82724 10.9534 4.79363C10.9216 4.7158 10.9694 4.62559 11.0631 4.59021C11.0914 4.57783 11.1179 4.57783 11.1639 4.59021C11.2117 4.60259 11.4346 4.60083 12.1934 4.57783L13.161 4.54953L14.0543 4.57783C14.546 4.59198 14.9971 4.60083 15.0554 4.59552C15.2553 4.58137 15.2465 4.5796 15.3048 4.63797C15.3579 4.6875 15.3597 4.69281 15.3508 4.75118C15.3349 4.86262 15.3296 5.26415 15.3438 5.2783C15.3615 5.29776 17.2895 5.33137 17.3231 5.31368C17.3355 5.3066 17.3585 5.3013 17.3762 5.3013C17.4098 5.3013 17.5159 5.33844 17.5531 5.36321C17.5725 5.37559 17.5902 5.36498 17.6804 5.27476C17.9369 5.02005 18.2359 4.89092 18.6109 4.875C18.8054 4.86792 18.9593 4.89269 19.1433 4.96344C19.6934 5.17748 20.0613 5.77712 19.9959 6.35908C19.9605 6.6934 19.8296 6.97111 19.5997 7.19752C19.1804 7.61144 18.5631 7.71226 18.0395 7.45224C17.8078 7.33726 17.5973 7.14446 17.4806 6.94281C17.431 6.85613 17.4151 6.84375 17.4133 6.89151C17.4116 6.98349 17.3727 7.40094 17.3638 7.45224C17.3461 7.54068 17.3373 7.55483 17.2895 7.57783C17.2541 7.59552 17.1958 7.59729 16.934 7.59021L16.6209 7.58314V7.68927C16.6209 7.87854 16.6492 9.04068 16.6563 9.18396L16.6651 9.32547L20.3072 9.31663C22.3096 9.31309 23.9528 9.30601 23.9564 9.30248C23.9599 9.29717 23.9528 9.24057 23.9405 9.17689C23.921 9.08491 23.9139 8.96462 23.9069 8.64799C23.9015 8.40212 23.8927 8.22524 23.8839 8.20401C23.829 8.08019 23.7087 8.05719 23.2471 8.08373C22.5537 8.12087 22.3856 8.11733 22.2459 8.05719C22.1203 8.00236 22.0301 7.88384 22 7.73526C21.9912 7.69457 21.9753 7.51769 21.9646 7.34434C21.9523 7.17099 21.9328 6.88443 21.9169 6.70578C21.8249 5.56663 21.7842 4.53891 21.8107 4.07193C21.8196 3.90212 21.8284 3.73762 21.8284 3.70932L21.8302 3.65448L21.1103 3.64564C20.7158 3.64033 19.5024 3.62441 18.4163 3.60849C17.3284 3.59434 15.6816 3.57134 14.753 3.55896L13.0655 3.53774L9.4499 3.58726C7.46169 3.6138 5.53009 3.64033 5.15685 3.64564L4.47761 3.65448L4.47938 3.75531C4.48115 3.81191 4.48645 4.05248 4.49176 4.29304C4.49884 4.62913 4.4953 4.83255 4.47938 5.17394C4.44577 5.83019 4.41924 6.24057 4.38386 6.6987C4.3644 6.92512 4.34494 7.21875 4.3361 7.35141C4.31664 7.67689 4.30249 7.76533 4.25473 7.86439C4.16098 8.05896 3.98056 8.12264 3.5631 8.10672C3.45343 8.10318 3.21287 8.09257 3.03067 8.08196C2.569 8.05896 2.48233 8.07665 2.42218 8.1987C2.39742 8.24646 2.39388 8.29068 2.38504 8.68868C2.37973 9.01946 2.37266 9.14505 2.35497 9.20696C2.34435 9.25118 2.33374 9.29186 2.33374 9.29717C2.33374 9.30955 3.25178 9.31309 6.90626 9.31663L9.64624 9.32016V9.22288ZM15.1262 7.6592C15.1209 7.39033 15.1227 7.36733 15.1457 7.33726C15.1598 7.31958 15.1916 7.30189 15.2164 7.29658C15.2412 7.29127 15.6622 7.29835 16.1521 7.31073L17.0436 7.33196L17.1286 7.24351L17.1834 6.42453C17.2117 5.97347 17.2329 5.60024 17.2276 5.59493C17.2241 5.58962 16.7695 5.57901 16.2176 5.57016C15.6675 5.56132 15.1934 5.54894 15.1669 5.54186C15.0767 5.51887 15.0731 5.49941 15.0714 5.17571C15.0696 5.01651 15.0643 4.88208 15.059 4.87677C15.0537 4.87146 14.6221 4.85554 14.1003 4.83962C13.1521 4.81309 13.1504 4.81309 12.1987 4.83962C11.6734 4.85554 11.2418 4.86969 11.2382 4.87323C11.2347 4.87677 11.2311 5.01474 11.2294 5.17748C11.2276 5.47465 11.2276 5.47641 11.194 5.51002C11.1745 5.52948 11.1409 5.5454 11.1056 5.54894C11.0755 5.55248 10.605 5.56309 10.0619 5.57193C9.51888 5.57901 9.07136 5.58962 9.06959 5.59139C9.06605 5.59493 9.08905 5.96993 9.11912 6.42453L9.17572 7.25236L9.25355 7.33196L10.161 7.30896C10.8968 7.29127 11.0773 7.29127 11.1109 7.30542C11.1834 7.33549 11.1905 7.36203 11.1763 7.63974C11.1692 7.77771 11.1657 7.9033 11.171 7.91922L11.1781 7.94929H15.1333L15.1262 7.6592ZM7.88268 7.34965C8.4381 7.23644 8.82372 6.74469 8.79542 6.18219C8.7795 5.88856 8.68928 5.67276 8.49117 5.46049C8.3302 5.28891 8.16039 5.18809 7.94105 5.13149C7.59259 5.04304 7.19636 5.13856 6.90803 5.37913C6.76829 5.49587 6.63032 5.71344 6.56487 5.9204C6.53834 6.00707 6.5348 6.04776 6.5348 6.22818C6.5348 6.46698 6.54895 6.54481 6.63386 6.7217C6.77006 7.00825 7.01063 7.21875 7.30603 7.31604C7.48822 7.37441 7.70225 7.38679 7.88268 7.34965ZM18.8638 7.34965C19.1008 7.30189 19.3043 7.19045 19.467 7.0171C19.8986 6.5625 19.8809 5.84257 19.4281 5.4145C19.3166 5.31191 19.2282 5.25354 19.0725 5.18632C18.832 5.08373 18.5313 5.07134 18.2889 5.15271C17.9635 5.26061 17.7105 5.50118 17.5832 5.81781C17.4469 6.16274 17.4929 6.56958 17.707 6.88266C17.7671 6.97111 17.9139 7.11616 18.0059 7.17983C18.128 7.2612 18.2925 7.32842 18.4428 7.35672C18.5507 7.37618 18.7524 7.37264 18.8638 7.34965ZM10.8685 3.30601L13.1203 3.27594L15.4729 3.30778C16.7659 3.32547 17.8856 3.33785 17.9617 3.33608L18.0979 3.33255L18.0466 3.25118C18.0183 3.20696 17.9776 3.14858 17.9564 3.11851C17.8732 3.00354 17.8768 3.03184 17.9104 2.73821C17.9281 2.59139 17.944 2.45165 17.9493 2.42689L17.9564 2.38266L17.6751 2.39151C17.2365 2.40743 17.1392 2.40566 17.0047 2.37382C16.7146 2.3066 16.7217 2.30837 16.5413 2.16509C16.1681 1.86792 15.51 1.48231 15.0395 1.2842C14.9511 1.24705 14.8626 1.21521 14.8449 1.21521C14.8273 1.21521 14.7936 1.20283 14.7707 1.18868C14.7459 1.17453 14.6521 1.14092 14.5619 1.11439C14.2577 1.02771 14.0083 0.985259 13.651 0.960495C13.536 0.951651 13.3768 0.939269 13.2972 0.932193C13.1981 0.923349 13.0991 0.923349 12.9876 0.932193C12.8974 0.941038 12.7099 0.956957 12.5719 0.967571C12.1899 0.997641 11.7317 1.09316 11.546 1.1816C11.5071 1.20106 11.4664 1.21521 11.4558 1.21521C11.4063 1.21521 11.0012 1.3921 10.7872 1.50884C10.4122 1.71226 9.96994 1.99528 9.74884 2.17394C9.59317 2.3013 9.60556 2.29599 9.32254 2.36675C9.16688 2.40566 9.0749 2.4092 8.59376 2.39151L8.34082 2.3809L8.34789 2.41274C8.36027 2.46757 8.4098 2.87441 8.41157 2.95224C8.41511 3.01415 8.4098 3.03361 8.38681 3.05837C8.36027 3.08667 8.20815 3.32193 8.20815 3.33432C8.20815 3.34316 8.51593 3.33962 10.8685 3.30601ZM11.7689 0.833137C11.9104 0.794221 12.2482 0.732311 12.4074 0.71816C12.4959 0.709316 12.6056 0.696934 12.6498 0.689858C12.9186 0.647406 13.375 0.647406 13.6439 0.689858C13.6881 0.696934 13.7978 0.709316 13.8862 0.71816C14.0861 0.737618 14.2824 0.772995 14.4912 0.824292C14.5796 0.847288 14.6521 0.864976 14.6539 0.863208C14.6557 0.861439 14.6291 0.744693 14.5938 0.603184L14.5319 0.348467L14.2559 0.339623C14.1038 0.334316 13.8508 0.320165 13.6916 0.307783C13.3343 0.279481 13.0389 0.272406 12.8709 0.288325C12.6409 0.311321 12.1014 0.341392 11.9334 0.341392C11.7742 0.341392 11.7689 0.34316 11.7618 0.371462C11.7583 0.389151 11.7317 0.50059 11.7017 0.620873C11.6716 0.741156 11.6486 0.847288 11.6486 0.854363C11.6486 0.861439 11.6592 0.864976 11.6716 0.861439C11.684 0.857901 11.7282 0.845518 11.7689 0.833137Z" fill="#5E17EB"/>
</g>
</svg>
