<svg width="36" height="36" viewBox="0 0 36 36" fill="none" xmlns="http://www.w3.org/2000/svg">
<path d="M3.375 3.9375V30.375H34.3125C34.7601 30.375 35.1893 30.5528 35.5057 30.8693C35.8222 31.1857 36 31.6149 36 32.0625C36 32.5101 35.8222 32.9393 35.5057 33.2557C35.1893 33.5722 34.7601 33.75 34.3125 33.75H1.6875C1.23995 33.75 0.810725 33.5722 0.494257 33.2557C0.17779 32.9393 0 32.5101 0 32.0625L0 3.9375C0 3.48995 0.17779 3.06072 0.494257 2.74426C0.810725 2.42779 1.23995 2.25 1.6875 2.25C2.13505 2.25 2.56428 2.42779 2.88074 2.74426C3.19721 3.06072 3.375 3.48995 3.375 3.9375ZM35.505 9.63L23.6925 21.4425C23.3761 21.7585 22.9472 21.936 22.5 21.936C22.0528 21.936 21.6239 21.7585 21.3075 21.4425L15.75 15.885L9.63 22.005C9.31017 22.3034 8.88695 22.466 8.44957 22.4585C8.01219 22.4509 7.59483 22.2738 7.2855 21.9645C6.97619 21.6552 6.79908 21.2378 6.79152 20.8004C6.78397 20.3631 6.94655 19.9398 7.245 19.62L14.5575 12.3075C14.8739 11.9915 15.3028 11.814 15.75 11.814C16.1972 11.814 16.6261 11.9915 16.9425 12.3075L22.5 17.865L33.12 7.245C33.4398 6.94655 33.8631 6.78397 34.3004 6.79152C34.7378 6.79908 35.1552 6.97619 35.4645 7.2855C35.7738 7.59483 35.9509 8.01219 35.9585 8.44957C35.966 8.88695 35.8034 9.31017 35.505 9.63Z" fill="#5E23DC"/>
</svg>
