<svg width="52" height="36" viewBox="0 0 52 36" fill="none" xmlns="http://www.w3.org/2000/svg">
<mask id="mask0_3950_276" style="mask-type:luminance" maskUnits="userSpaceOnUse" x="0" y="0" width="52" height="36">
<path d="M0 0H51.0395V36H0V0Z" fill="white"/>
</mask>
<g mask="url(#mask0_3950_276)">
<path d="M14.0051 1.34857C13.9938 0.776781 13.9148 0.41001 14.4772 0.0959035C15.3518 -0.0207112 15.4195 0.652644 15.412 1.34857C17.1801 1.78305 16.9957 3.36111 16.9844 4.84888C18.3067 4.94105 17.8365 6.58493 17.8308 7.73039H33.3594C33.3706 6.71095 32.8967 4.95609 34.1531 4.84888C34.1418 3.17678 33.8898 2.03885 35.7142 1.34857C35.6935 0.268944 36.2409 -0.472122 37.0854 0.513458C37.1136 0.788067 37.0929 1.07208 37.0854 1.34857C38.8045 1.94293 38.6465 3.29904 38.6333 4.84888C40.0271 4.91659 39.5004 6.82004 39.5004 8.03321L39.4967 13.1793H44.1067L44.0992 10.8169C44.0954 10.2225 43.8471 8.968 44.7688 8.96612C45.8766 8.96236 45.4816 12.4627 45.4797 13.1793C46.2076 13.1906 47.1594 12.8953 47.654 13.5818C47.6973 14.4113 47.733 15.9367 47.639 16.7417C47.5788 17.2514 47.2929 17.321 46.817 17.3379V34.3147L48.9594 34.3128C49.3675 34.3128 49.8227 34.279 50.2252 34.3486C50.7293 34.4351 50.9061 35.0896 50.5431 35.447C50.1406 35.8439 48.6528 35.6558 48.1205 35.6558L44.3606 35.6539H2.47723C1.94682 35.6577 1.40701 35.6953 0.878482 35.6539C-0.556628 34.6175 1.39196 34.311 2.29102 34.311L4.22833 34.3147V17.3379C3.74118 17.2157 3.57378 17.1968 3.51547 16.6476C3.45529 16.0796 3.29917 13.8019 3.71108 13.3542C3.95372 13.089 5.28162 13.1774 5.66532 13.1793L5.66155 10.8037C5.66155 10.2583 5.46971 8.90782 6.32174 8.87208C7.16438 8.83634 6.96124 10.2414 6.95936 10.736L6.9556 13.1793H11.5844V8.10468C11.5844 6.93478 11.0822 4.98242 12.4402 4.84888C12.4308 3.36111 12.2559 1.83948 14.0051 1.34857ZM14.607 2.60688C14.1838 2.64825 13.9863 2.77992 13.7663 3.12788V4.84888C14.1706 4.85452 14.575 4.85829 14.9794 4.84888H15.6641C15.6697 3.91032 16.0101 2.42067 14.607 2.60688ZM36.1111 2.60688C35.165 2.91534 35.4641 4.07584 35.4622 4.84888H37.3412C37.3449 4.28838 37.3976 3.68274 37.3412 3.12788C37.0196 2.68023 36.6302 2.58431 36.1111 2.60688ZM12.9048 6.17866V7.73039H16.5161C16.5293 7.21315 16.5199 6.6959 16.5161 6.17866H12.9048ZM34.6628 6.17866C34.5782 6.32725 34.6666 7.48963 34.6628 7.73039H38.1556C38.2459 7.24888 38.1763 6.66769 38.1556 6.17866H34.6628ZM12.9048 9.06957V34.3147H15.9406V20.2758C15.9387 19.7454 15.6565 18.0508 16.5819 18.1298C16.8829 18.158 17.0559 18.3235 17.2252 18.5511V34.3147C17.7255 34.3279 18.2277 34.3185 18.7261 34.3147L18.7224 26.7122C18.7205 26.21 18.6979 25.6965 18.7487 25.1962C19.3412 19.3824 26.2572 16.8921 30.3161 21C33.2616 23.9812 32.2421 30.1824 32.338 34.3147H33.8409V26.637L33.8427 21.2652C33.8427 20.6276 33.5926 18.8276 34.0609 18.3461C34.4653 17.9285 35.1443 18.2351 35.18 18.7824C35.2196 19.3711 35.1913 19.9768 35.1913 20.5693V34.3147H38.1556V9.06957H36.1111C36.1148 9.62631 36.2616 11.2025 35.8873 11.5561C34.5801 12.7881 34.8039 9.33854 34.802 9.06957H32.7782C32.7819 9.63195 32.9305 11.2307 32.5431 11.5975C31.2716 12.8031 31.4766 9.34606 31.4785 9.06957H29.4923C29.496 9.62067 29.6427 11.2194 29.2647 11.6031C28.0233 12.8595 28.1888 9.31032 28.1907 9.06957H26.165C26.1688 9.61314 26.3192 11.1912 25.9487 11.5787C25.7249 11.8138 25.2848 11.8081 25.0628 11.5749C24.6923 11.1856 24.8634 9.61691 24.8597 9.06957H22.8791C22.8829 9.61691 23.039 11.2044 22.6534 11.5899C21.3725 12.8746 21.5813 9.31409 21.5794 9.06957H19.5556C19.5537 9.62819 19.7023 11.2044 19.3393 11.5881C19.1098 11.8307 18.6622 11.795 18.4421 11.5561C18.0697 11.1536 18.2409 9.62631 18.2371 9.06957H16.2829C16.2885 9.62067 16.4296 11.2138 16.0722 11.5862C15.8465 11.8232 15.4139 11.8138 15.192 11.5749C14.8271 11.178 14.9794 9.62631 14.9794 9.06957H12.9048ZM5.16312 14.5279C4.57441 14.4959 4.83585 15.3837 4.83961 15.9893H11.3512L11.4998 16.0006C11.6992 15.7693 11.5826 14.8552 11.5844 14.5279H5.16312ZM39.4967 14.5279V15.9893H46.296V14.5279H39.4967ZM5.53177 17.3379C5.52049 19.6401 5.47159 21.9912 5.53177 24.2896C7.09478 22.9467 9.16375 22.6213 10.9243 23.7724C11.1537 23.936 11.3719 24.1053 11.5844 24.2896V17.3379H5.53177ZM39.4967 17.3379V24.2896C40.9543 22.8733 43.1174 22.7172 44.8158 23.7724C45.0528 23.9323 45.2672 24.1015 45.4797 24.2896C45.5042 23.5072 45.4797 22.7229 45.4797 21.9404V17.3379H39.4967ZM25.2039 20.2307C22.7136 20.5504 20.6221 22.2376 20.1311 24.7392C19.7569 26.6388 19.9863 32.1856 20.0164 34.3147H31.0083V28.7925C31.0083 27.4363 31.1456 25.6307 30.8014 24.3404C30.1562 21.9178 27.7167 20.1084 25.2039 20.2307ZM8.46594 24.4382C5.2835 24.2859 5.52801 27.7373 5.53177 29.7987V34.3147H11.5844L11.5863 29.5467C11.5863 28.6495 11.6898 27.4965 11.4866 26.6294C11.1932 25.3693 9.79196 24.1975 8.46594 24.4382ZM42.0359 24.4382C39.2503 25.0928 39.4929 27.1749 39.4985 29.4263L39.4967 34.3147H45.4797L45.4779 29.684C45.4797 28.8056 45.5851 27.5229 45.3895 26.7028C45.0321 25.2075 43.5255 24.2671 42.0359 24.4382Z" fill="#5E17EB"/>
</g>
<path d="M16.2901 15.8521C15.376 15.3536 15.7616 14.5825 16.6437 14.5279L32.2061 14.526C32.7516 14.526 34.4744 14.3474 34.9014 14.6991C35.4788 15.1768 34.9559 15.8314 34.3578 15.8521L18.2782 15.8539C17.618 15.8539 16.9484 15.8897 16.2901 15.8521Z" fill="#5E17EB"/>
<path d="M9.62446 21.5718C9.1091 21.6019 8.05205 21.6452 7.59123 21.5097C6.89154 21.3066 7.0138 20.5054 7.5743 20.2307C8.17054 20.2138 10.3336 19.8978 10.074 21.032C10.0157 21.284 9.82948 21.4383 9.62446 21.5718Z" fill="#5E17EB"/>
<path d="M43.4624 21.5718C42.8699 21.5774 40.4662 21.916 40.9665 20.6257C41.0455 20.4188 41.2505 20.3116 41.4442 20.2307C41.9709 20.2269 43.2254 20.1141 43.658 20.3285C44.2749 20.6332 44.0436 21.41 43.4624 21.5718Z" fill="#5E17EB"/>
</svg>
