<svg width="36" height="36" viewBox="0 0 36 36" fill="none" xmlns="http://www.w3.org/2000/svg">
<path d="M28.125 36C30.2136 36 32.2166 35.1703 33.6935 33.6935C35.1703 32.2166 36 30.2136 36 28.125C36 26.0364 35.1703 24.0334 33.6935 22.5565C32.2166 21.0797 30.2136 20.25 28.125 20.25C26.0364 20.25 24.0334 21.0797 22.5565 22.5565C21.0797 24.0334 20.25 26.0364 20.25 28.125C20.25 30.2136 21.0797 32.2166 22.5565 33.6935C24.0334 35.1703 26.0364 36 28.125 36ZM31.9028 25.8907L28.899 30.8993C28.767 31.1193 28.5866 31.3063 28.3714 31.4461C28.1562 31.586 27.912 31.6749 27.6573 31.7061C27.4027 31.7374 27.1442 31.7101 26.9016 31.6264C26.6591 31.5428 26.4388 31.4049 26.2575 31.2232L24.516 29.484C24.3048 29.2728 24.1861 28.9862 24.1861 28.6875C24.1861 28.3888 24.3048 28.1022 24.516 27.891C24.7272 27.6798 25.0138 27.5611 25.3125 27.5611C25.6112 27.5611 25.8978 27.6798 26.109 27.891L27.3398 29.124L29.9722 24.7343C30.0482 24.6075 30.1483 24.4969 30.267 24.4089C30.3857 24.3208 30.5205 24.257 30.6639 24.2211C30.8072 24.1851 30.9562 24.1778 31.1023 24.1994C31.2485 24.2211 31.389 24.2713 31.5157 24.3472C31.6425 24.4232 31.7531 24.5233 31.8411 24.642C31.9292 24.7607 31.993 24.8955 32.0289 25.0389C32.0649 25.1822 32.0722 25.3312 32.0506 25.4773C32.0289 25.6235 31.9787 25.764 31.9028 25.8907Z" fill="white"/>
<path d="M4.5 2.25C4.5 1.65326 4.73705 1.08097 5.15901 0.65901C5.58097 0.237053 6.15326 0 6.75 0L29.25 0C29.8467 0 30.419 0.237053 30.841 0.65901C31.2629 1.08097 31.5 1.65326 31.5 2.25V16.875C31.5 17.1734 31.3815 17.4595 31.1705 17.6705C30.9595 17.8815 30.6734 18 30.375 18C30.0766 18 29.7905 17.8815 29.5795 17.6705C29.3685 17.4595 29.25 17.1734 29.25 16.875V2.25H6.75V33.75H13.5V28.125C13.5 27.8266 13.6185 27.5405 13.8295 27.3295C14.0405 27.1185 14.3266 27 14.625 27H18V36H6.75C6.15326 36 5.58097 35.7629 5.15901 35.341C4.73705 34.919 4.5 34.3467 4.5 33.75V2.25Z" fill="white"/>
<path d="M10.125 4.5C9.82663 4.5 9.54048 4.61853 9.32951 4.82951C9.11853 5.04048 9 5.32663 9 5.625V7.875C9 8.17337 9.11853 8.45952 9.32951 8.6705C9.54048 8.88147 9.82663 9 10.125 9H12.375C12.6734 9 12.9595 8.88147 13.1705 8.6705C13.3815 8.45952 13.5 8.17337 13.5 7.875V5.625C13.5 5.32663 13.3815 5.04048 13.1705 4.82951C12.9595 4.61853 12.6734 4.5 12.375 4.5H10.125ZM16.875 4.5C16.5766 4.5 16.2905 4.61853 16.0795 4.82951C15.8685 5.04048 15.75 5.32663 15.75 5.625V7.875C15.75 8.17337 15.8685 8.45952 16.0795 8.6705C16.2905 8.88147 16.5766 9 16.875 9H19.125C19.4234 9 19.7095 8.88147 19.9205 8.6705C20.1315 8.45952 20.25 8.17337 20.25 7.875V5.625C20.25 5.32663 20.1315 5.04048 19.9205 4.82951C19.7095 4.61853 19.4234 4.5 19.125 4.5H16.875ZM23.625 4.5C23.3266 4.5 23.0405 4.61853 22.8295 4.82951C22.6185 5.04048 22.5 5.32663 22.5 5.625V7.875C22.5 8.17337 22.6185 8.45952 22.8295 8.6705C23.0405 8.88147 23.3266 9 23.625 9H25.875C26.1734 9 26.4595 8.88147 26.6705 8.6705C26.8815 8.45952 27 8.17337 27 7.875V5.625C27 5.32663 26.8815 5.04048 26.6705 4.82951C26.4595 4.61853 26.1734 4.5 25.875 4.5H23.625ZM10.125 11.25C9.82663 11.25 9.54048 11.3685 9.32951 11.5795C9.11853 11.7905 9 12.0766 9 12.375V14.625C9 14.9234 9.11853 15.2095 9.32951 15.4205C9.54048 15.6315 9.82663 15.75 10.125 15.75H12.375C12.6734 15.75 12.9595 15.6315 13.1705 15.4205C13.3815 15.2095 13.5 14.9234 13.5 14.625V12.375C13.5 12.0766 13.3815 11.7905 13.1705 11.5795C12.9595 11.3685 12.6734 11.25 12.375 11.25H10.125ZM16.875 11.25C16.5766 11.25 16.2905 11.3685 16.0795 11.5795C15.8685 11.7905 15.75 12.0766 15.75 12.375V14.625C15.75 14.9234 15.8685 15.2095 16.0795 15.4205C16.2905 15.6315 16.5766 15.75 16.875 15.75H19.125C19.4234 15.75 19.7095 15.6315 19.9205 15.4205C20.1315 15.2095 20.25 14.9234 20.25 14.625V12.375C20.25 12.0766 20.1315 11.7905 19.9205 11.5795C19.7095 11.3685 19.4234 11.25 19.125 11.25H16.875ZM23.625 11.25C23.3266 11.25 23.0405 11.3685 22.8295 11.5795C22.6185 11.7905 22.5 12.0766 22.5 12.375V14.625C22.5 14.9234 22.6185 15.2095 22.8295 15.4205C23.0405 15.6315 23.3266 15.75 23.625 15.75H25.875C26.1734 15.75 26.4595 15.6315 26.6705 15.4205C26.8815 15.2095 27 14.9234 27 14.625V12.375C27 12.0766 26.8815 11.7905 26.6705 11.5795C26.4595 11.3685 26.1734 11.25 25.875 11.25H23.625ZM10.125 18C9.82663 18 9.54048 18.1185 9.32951 18.3295C9.11853 18.5405 9 18.8266 9 19.125V21.375C9 21.6734 9.11853 21.9595 9.32951 22.1705C9.54048 22.3815 9.82663 22.5 10.125 22.5H12.375C12.6734 22.5 12.9595 22.3815 13.1705 22.1705C13.3815 21.9595 13.5 21.6734 13.5 21.375V19.125C13.5 18.8266 13.3815 18.5405 13.1705 18.3295C12.9595 18.1185 12.6734 18 12.375 18H10.125ZM16.875 18C16.5766 18 16.2905 18.1185 16.0795 18.3295C15.8685 18.5405 15.75 18.8266 15.75 19.125V21.375C15.75 21.6734 15.8685 21.9595 16.0795 22.1705C16.2905 22.3815 16.5766 22.5 16.875 22.5H19.125C19.4234 22.5 19.7095 22.3815 19.9205 22.1705C20.1315 21.9595 20.25 21.6734 20.25 21.375V19.125C20.25 18.8266 20.1315 18.5405 19.9205 18.3295C19.7095 18.1185 19.4234 18 19.125 18H16.875Z" fill="white"/>
</svg>
