<svg width="36" height="36" viewBox="0 0 36 36" fill="none" xmlns="http://www.w3.org/2000/svg">
<path d="M10.5 7.245C10.5 9.5655 13.089 12.012 15.225 13.635C16.4235 14.544 17.022 15 18 15C18.978 15 19.5765 14.544 20.775 13.635C22.911 12.0105 25.5 9.564 25.5 7.245C25.5 3.06 21.375 1.4955 18 4.7295C14.625 1.4955 10.5 3.06 10.5 7.245ZM9.39 32.082H9C7.5855 32.082 6.879 32.082 6.4395 31.6425C6 31.206 6 30.498 6 29.0835V27.4155C6 26.6385 6 26.25 6.1995 25.902C6.399 25.554 6.7005 25.38 7.3035 25.029C11.2725 22.7205 16.908 21.4215 20.6685 23.664C20.9215 23.815 21.1465 23.999 21.3435 24.216C21.5453 24.4366 21.7009 24.6954 21.8009 24.9772C21.9009 25.259 21.9433 25.558 21.9257 25.8565C21.9081 26.1549 21.8307 26.4468 21.6983 26.7149C21.5658 26.9829 21.3809 27.2217 21.1545 27.417C20.9741 27.5882 20.754 27.712 20.514 27.777C20.694 27.756 20.8665 27.7325 21.0315 27.7065C22.398 27.489 23.5455 26.757 24.5955 25.9635L27.3075 23.916C27.7916 23.5647 28.3744 23.3756 28.9725 23.3756C29.5706 23.3756 30.1534 23.5647 30.6375 23.916C31.497 24.5655 31.761 25.635 31.2165 26.508C30.582 27.525 29.688 28.8255 28.83 29.6205C27.972 30.4155 26.691 31.1265 25.647 31.6305C24.489 32.19 23.211 32.511 21.9105 32.7225C19.2735 33.1485 16.5255 33.0825 13.9155 32.5455C12.4265 32.239 10.9102 32.0827 9.39 32.082Z" fill="#5E23DC"/>
</svg>
