<svg width="40" height="40" viewBox="0 0 40 40" fill="none" xmlns="http://www.w3.org/2000/svg">
<path d="M21.7691 3.75003C21.3003 3.28135 20.6645 3.01807 20.0016 3.01807C19.3387 3.01807 18.7029 3.28135 18.2341 3.75003L1.61658 20.365C1.50036 20.4813 1.40817 20.6192 1.34527 20.7711C1.28237 20.9229 1.25 21.0857 1.25 21.25C1.25 21.4144 1.28237 21.5771 1.34527 21.729C1.40817 21.8808 1.50036 22.0188 1.61658 22.135C1.8513 22.3697 2.16964 22.5016 2.50158 22.5016C2.66594 22.5016 2.82869 22.4692 2.98054 22.4063C3.13239 22.3434 3.27036 22.2513 3.38658 22.135L20.0016 5.51753L36.6166 22.135C36.8513 22.3697 37.1696 22.5016 37.5016 22.5016C37.8335 22.5016 38.1519 22.3697 38.3866 22.135C38.6213 21.9003 38.7532 21.582 38.7532 21.25C38.7532 20.9181 38.6213 20.5997 38.3866 20.365L32.5016 14.4825V6.25003C32.5016 5.91851 32.3699 5.60057 32.1355 5.36615C31.901 5.13173 31.5831 5.00003 31.2516 5.00003H28.7516C28.4201 5.00003 28.1021 5.13173 27.8677 5.36615C27.6333 5.60057 27.5016 5.91851 27.5016 6.25003V9.48253L21.7691 3.75003Z" fill="#5E23DC"/>
<path d="M20 8.23254L31.78 20.0125C29.7 19.9143 27.6335 20.3952 25.8107 21.4019C23.9878 22.4085 22.4802 23.9013 21.4555 25.714C20.4308 27.5268 19.9293 29.5884 20.0069 31.6693C20.0845 33.7501 20.7381 35.7686 21.895 37.5H8.75C7.75544 37.5 6.80161 37.105 6.09835 36.4017C5.39509 35.6984 5 34.7446 5 33.75V23.2325L20 8.23254Z" fill="#5E23DC"/>
<path d="M31.25 40C33.5706 40 35.7962 39.0781 37.4372 37.4372C39.0781 35.7962 40 33.5706 40 31.25C40 28.9294 39.0781 26.7038 37.4372 25.0628C35.7962 23.4219 33.5706 22.5 31.25 22.5C28.9294 22.5 26.7038 23.4219 25.0628 25.0628C23.4219 26.7038 22.5 28.9294 22.5 31.25C22.5 33.5706 23.4219 35.7962 25.0628 37.4372C26.7038 39.0781 28.9294 40 31.25 40ZM35.4475 28.7675L32.11 34.3325C31.9633 34.577 31.7628 34.7848 31.5238 34.9402C31.2847 35.0955 31.0134 35.1943 30.7304 35.229C30.4474 35.2637 30.1602 35.2334 29.8907 35.1405C29.6212 35.0475 29.3764 34.8943 29.175 34.6925L27.24 32.76C27.0056 32.5253 26.8741 32.2071 26.8743 31.8754C26.8745 31.5437 27.0065 31.2256 27.2412 30.9912C27.476 30.7569 27.7942 30.6253 28.1259 30.6256C28.4576 30.6258 28.7756 30.7578 29.01 30.9925L30.3775 32.36L33.3025 27.4825C33.3869 27.3417 33.4982 27.2188 33.63 27.121C33.7619 27.0231 33.9117 26.9522 34.0709 26.9123C34.2302 26.8724 34.3958 26.8642 34.5582 26.8883C34.7206 26.9123 34.8767 26.9681 35.0175 27.0525C35.1583 27.1369 35.2812 27.2482 35.379 27.38C35.4769 27.5119 35.5478 27.6617 35.5877 27.8209C35.6276 27.9802 35.6358 28.1458 35.6117 28.3082C35.5877 28.4706 35.5319 28.6267 35.4475 28.7675Z" fill="#5E23DC"/>
</svg>
