<svg width="45" height="36" viewBox="0 0 45 36" fill="none" xmlns="http://www.w3.org/2000/svg">
<path d="M25.3125 5.0625C25.3125 4.31658 25.0162 3.60121 24.4887 3.07376C23.9613 2.54632 23.2459 2.25 22.5 2.25C21.7541 2.25 21.0387 2.54632 20.5113 3.07376C19.9838 3.60121 19.6875 4.31658 19.6875 5.0625C19.6875 5.80842 19.9838 6.52379 20.5113 7.05124C21.0387 7.57868 21.7541 7.875 22.5 7.875C23.2459 7.875 23.9613 7.57868 24.4887 7.05124C25.0162 6.52379 25.3125 5.80842 25.3125 5.0625ZM10.125 14.625C10.8709 14.625 11.5863 14.3287 12.1137 13.8012C12.6412 13.2738 12.9375 12.5584 12.9375 11.8125C12.9375 11.0666 12.6412 10.3512 12.1137 9.82376C11.5863 9.29632 10.8709 9 10.125 9C9.37908 9 8.66371 9.29632 8.13626 9.82376C7.60882 10.3512 7.3125 11.0666 7.3125 11.8125C7.3125 12.5584 7.60882 13.2738 8.13626 13.8012C8.66371 14.3287 9.37908 14.625 10.125 14.625ZM2.25 29.25C1.00547 29.25 0 30.2555 0 31.5C0 32.7445 1.00547 33.75 2.25 33.75H42.75C43.9945 33.75 45 32.7445 45 31.5C45 30.2555 43.9945 29.25 42.75 29.25H2.25ZM34.875 14.625C35.6209 14.625 36.3363 14.3287 36.8637 13.8012C37.3912 13.2738 37.6875 12.5584 37.6875 11.8125C37.6875 11.0666 37.3912 10.3512 36.8637 9.82376C36.3363 9.29632 35.6209 9 34.875 9C34.1291 9 33.4137 9.29632 32.8863 9.82376C32.3588 10.3512 32.0625 11.0666 32.0625 11.8125C32.0625 12.5584 32.3588 13.2738 32.8863 13.8012C33.4137 14.3287 34.1291 14.625 34.875 14.625ZM14.0625 22.043L15.9539 25.5516C16.3969 26.3742 17.4164 26.6766 18.2391 26.2406C19.0617 25.8047 19.3641 24.7781 18.9281 23.9555L16.3758 19.2094C16.4953 19.0898 16.6008 18.9562 16.6781 18.8016L18.5625 15.293V19.125C18.5625 20.3695 19.568 21.375 20.8125 21.375H24.1875C25.432 21.375 26.4375 20.3695 26.4375 19.125V15.293L28.3289 18.8016C28.4133 18.9562 28.5117 19.0898 28.6313 19.2094L26.0789 23.9555C25.6359 24.7781 25.9453 25.7977 26.768 26.2406C27.5906 26.6836 28.6102 26.3742 29.0531 25.5516L30.9375 22.043V24.75C30.9375 25.9945 31.943 27 33.1875 27H36.5625C37.807 27 38.8125 25.9945 38.8125 24.75V22.043L40.7039 25.5516C41.1469 26.3742 42.1664 26.6766 42.9891 26.2406C43.8117 25.8047 44.1141 24.7781 43.6781 23.9555L41.0133 19.0125C39.9375 17.0086 37.8422 15.757 35.5641 15.757H34.193C33.0469 15.757 31.95 16.0734 31.0008 16.643L28.6383 12.2625C27.5625 10.2586 25.4672 9.00703 23.1891 9.00703H21.818C19.5398 9.00703 17.4516 10.2586 16.3687 12.2625L14.0062 16.643C13.057 16.0734 11.9602 15.757 10.8141 15.757H9.44297C7.16484 15.757 5.07656 17.0086 3.99375 19.0125L1.32891 23.9484C0.885937 24.7711 1.19531 25.7906 2.01797 26.2336C2.84063 26.6766 3.86016 26.3672 4.30312 25.5445L6.1875 22.043V24.75C6.1875 25.9945 7.19297 27 8.4375 27H11.8125C13.057 27 14.0625 25.9945 14.0625 24.75V22.043Z" fill="#5E23DC"/>
</svg>
