<svg width="40" height="40" viewBox="0 0 40 40" fill="none" xmlns="http://www.w3.org/2000/svg">
<path d="M31.6641 21.6666C32.2307 21.6666 32.7807 21.7333 33.3307 21.8166V16.6666C33.3307 15.7826 32.9795 14.9347 32.3544 14.3096C31.7293 13.6845 30.8815 13.3333 29.9974 13.3333H28.3307V9.99996C28.3307 5.39996 24.5974 1.66663 19.9974 1.66663C15.3974 1.66663 11.6641 5.39996 11.6641 9.99996V13.3333H9.9974C9.11334 13.3333 8.26549 13.6845 7.64037 14.3096C7.01525 14.9347 6.66406 15.7826 6.66406 16.6666V33.3333C6.66406 35.1833 8.1474 36.6666 9.9974 36.6666H23.0141C22.1641 35.2 21.6641 33.5 21.6641 31.6666C21.6641 26.15 26.1474 21.6666 31.6641 21.6666ZM14.9974 9.99996C14.9974 7.23329 17.2307 4.99996 19.9974 4.99996C22.7641 4.99996 24.9974 7.23329 24.9974 9.99996V13.3333H14.9974V9.99996ZM19.9974 28.3333C19.3381 28.3333 18.6937 28.1378 18.1455 27.7715C17.5973 27.4053 17.1701 26.8847 16.9178 26.2756C16.6655 25.6665 16.5995 24.9963 16.7281 24.3497C16.8567 23.7031 17.1742 23.1091 17.6404 22.6429C18.1065 22.1768 18.7005 21.8593 19.3471 21.7307C19.9937 21.6021 20.6639 21.6681 21.273 21.9204C21.8821 22.1727 22.4027 22.5999 22.769 23.1481C23.1352 23.6962 23.3307 24.3407 23.3307 25C23.3307 26.85 21.8474 28.3333 19.9974 28.3333ZM37.4974 28.75L29.5807 36.6666L24.9974 31.6666L26.9307 29.7333L29.5807 32.3833L35.5641 26.4L37.4974 28.75Z" fill="#5E23DC"/>
</svg>
