<svg width="36" height="36" viewBox="0 0 36 36" fill="none" xmlns="http://www.w3.org/2000/svg">
<path d="M18 33.75L11.052 30.0454C9.0711 28.9918 7.41455 27.4186 6.26022 25.4946C5.10589 23.5707 4.49738 21.3687 4.50001 19.125V4.5C4.50001 3.90326 4.73706 3.33097 5.15902 2.90901C5.58097 2.48705 6.15327 2.25 6.75001 2.25H29.25C29.8467 2.25 30.419 2.48705 30.841 2.90901C31.263 3.33097 31.5 3.90326 31.5 4.5V19.125C31.5026 21.3687 30.8941 23.5707 29.7398 25.4946C28.5855 27.4186 26.9289 28.9918 24.948 30.0454L18 33.75ZM6.75001 4.5V19.125C6.74876 20.9607 7.24712 22.762 8.19167 24.336C9.13622 25.91 10.4913 27.1973 12.1118 28.0597L18 31.1996L23.8883 28.0609C25.5088 27.1983 26.8641 25.9109 27.8086 24.3367C28.7532 22.7625 29.2515 20.9608 29.25 19.125V4.5H6.75001Z" fill="#5E23DC"/>
<path d="M18 28.4366V6.75H27V18.9056C26.9999 20.3316 26.6127 21.7308 25.8796 22.9539C25.1465 24.1769 24.0951 25.178 22.8375 25.8503L18 28.4366Z" fill="#5E23DC"/>
</svg>
