<svg width="137" height="25" viewBox="0 0 137 25" fill="none" xmlns="http://www.w3.org/2000/svg">
<rect y="0.5" width="137" height="24" rx="4" fill="white"/>
<rect y="0.5" width="137" height="24" rx="4" fill="#0BB501" fill-opacity="0.1"/>
<path d="M13.7337 19.5L12.467 17.3667L10.067 16.8333L10.3003 14.3667L8.66699 12.5L10.3003 10.6333L10.067 8.16667L12.467 7.63333L13.7337 5.5L16.0003 6.46667L18.267 5.5L19.5337 7.63333L21.9337 8.16667L21.7003 10.6333L23.3337 12.5L21.7003 14.3667L21.9337 16.8333L19.5337 17.3667L18.267 19.5L16.0003 18.5333L13.7337 19.5ZM15.3003 14.8667L19.067 11.1L18.1337 10.1333L15.3003 12.9667L13.867 11.5667L12.9337 12.5L15.3003 14.8667Z" fill="url(#paint0_linear_1261_727)"/>
<path d="M32.9588 17V8.27273H36.0696C36.7457 8.27273 37.3068 8.3892 37.7528 8.62216C38.2017 8.85511 38.5369 9.17756 38.7585 9.58949C38.9801 9.99858 39.0909 10.4716 39.0909 11.0085C39.0909 11.5426 38.9787 12.0128 38.7543 12.419C38.5327 12.8224 38.1974 13.1364 37.7486 13.3608C37.3026 13.5852 36.7415 13.6974 36.0653 13.6974H33.7088V12.5639H35.946C36.3722 12.5639 36.7188 12.5028 36.9858 12.3807C37.2557 12.2585 37.4531 12.081 37.5781 11.848C37.7031 11.6151 37.7656 11.3352 37.7656 11.0085C37.7656 10.679 37.7017 10.3935 37.5739 10.152C37.4489 9.91051 37.2514 9.72585 36.9815 9.59801C36.7145 9.46733 36.3636 9.40199 35.929 9.40199H34.2756V17H32.9588ZM37.267 13.0625L39.4233 17H37.9233L35.8097 13.0625H37.267ZM40.6932 17V8.27273H46.1648V9.40625H42.0099V12.0653H45.8793V13.1946H42.0099V15.8665H46.2159V17H40.6932ZM47.9237 17V8.27273H51.0344C51.7134 8.27273 52.2759 8.39631 52.7219 8.64347C53.168 8.89062 53.5018 9.22869 53.7234 9.65767C53.945 10.0838 54.0558 10.5639 54.0558 11.098C54.0558 11.6349 53.9435 12.1179 53.7191 12.5469C53.4975 12.973 53.1623 13.3111 52.7134 13.5611C52.2674 13.8082 51.7063 13.9318 51.0302 13.9318H48.891V12.8153H50.9109C51.3398 12.8153 51.6879 12.7415 51.9549 12.5938C52.2219 12.4432 52.418 12.2386 52.543 11.9801C52.668 11.7216 52.7305 11.4276 52.7305 11.098C52.7305 10.7685 52.668 10.4759 52.543 10.2202C52.418 9.96449 52.2205 9.7642 51.9506 9.61932C51.6836 9.47443 51.3313 9.40199 50.8938 9.40199H49.2404V17H47.9237ZM55.4109 17H54.0131L57.1538 8.27273H58.6751L61.8157 17H60.418L57.9506 9.85795H57.8825L55.4109 17ZM55.6452 13.5824H60.1793V14.6903H55.6452V13.5824ZM63.076 17V8.27273H66.1868C66.8629 8.27273 67.424 8.3892 67.87 8.62216C68.3189 8.85511 68.6541 9.17756 68.8757 9.58949C69.0973 9.99858 69.2081 10.4716 69.2081 11.0085C69.2081 11.5426 69.0959 12.0128 68.8714 12.419C68.6499 12.8224 68.3146 13.1364 67.8658 13.3608C67.4197 13.5852 66.8587 13.6974 66.1825 13.6974H63.826V12.5639H66.0632C66.4893 12.5639 66.8359 12.5028 67.103 12.3807C67.3729 12.2585 67.5703 12.081 67.6953 11.848C67.8203 11.6151 67.8828 11.3352 67.8828 11.0085C67.8828 10.679 67.8189 10.3935 67.6911 10.152C67.5661 9.91051 67.3686 9.72585 67.0987 9.59801C66.8317 9.46733 66.4808 9.40199 66.0462 9.40199H64.3928V17H63.076ZM67.3842 13.0625L69.5405 17H68.0405L65.9268 13.0625H67.3842ZM71.3622 8.27273L73.7912 15.3807H73.8892L76.3182 8.27273H77.7415L74.6009 17H73.0795L69.9389 8.27273H71.3622ZM82.9148 17H81.517L84.6577 8.27273H86.179L89.3196 17H87.9219L85.4545 9.85795H85.3864L82.9148 17ZM83.1491 13.5824H87.6832V14.6903H83.1491V13.5824ZM95.3356 12.0526L94.1808 12.2571C94.1325 12.1094 94.0558 11.9687 93.9506 11.8352C93.8484 11.7017 93.7092 11.5923 93.533 11.5071C93.3569 11.4219 93.1367 11.3793 92.8725 11.3793C92.5117 11.3793 92.2106 11.4602 91.9691 11.6222C91.7276 11.7812 91.6069 11.9872 91.6069 12.2401C91.6069 12.4588 91.6879 12.6349 91.8498 12.7685C92.0117 12.902 92.2731 13.0114 92.6339 13.0966L93.6737 13.3352C94.2759 13.4744 94.7248 13.6889 95.0202 13.9787C95.3157 14.2685 95.4634 14.6449 95.4634 15.108C95.4634 15.5 95.3498 15.8494 95.1225 16.1562C94.8981 16.4602 94.5842 16.6989 94.1808 16.8722C93.7802 17.0455 93.3157 17.1321 92.7873 17.1321C92.0543 17.1321 91.4563 16.9759 90.9933 16.6634C90.5302 16.348 90.2461 15.9006 90.141 15.321L91.3725 15.1335C91.4492 15.4545 91.6069 15.6974 91.8455 15.8622C92.0842 16.0241 92.3952 16.1051 92.7788 16.1051C93.1964 16.1051 93.5302 16.0185 93.7802 15.8452C94.0302 15.669 94.1552 15.4545 94.1552 15.2017C94.1552 14.9972 94.0785 14.8253 93.9251 14.6861C93.7745 14.5469 93.543 14.4418 93.2305 14.3707L92.1225 14.1278C91.5117 13.9886 91.06 13.767 90.7674 13.4631C90.4776 13.1591 90.3327 12.7741 90.3327 12.3082C90.3327 11.9219 90.4407 11.5838 90.6566 11.294C90.8725 11.0043 91.1708 10.7784 91.5515 10.6165C91.9322 10.4517 92.3683 10.3693 92.8597 10.3693C93.5671 10.3693 94.1239 10.5227 94.5302 10.8295C94.9364 11.1335 95.2049 11.5412 95.3356 12.0526ZM101.769 12.0526L100.614 12.2571C100.566 12.1094 100.489 11.9687 100.384 11.8352C100.282 11.7017 100.143 11.5923 99.9666 11.5071C99.7905 11.4219 99.5703 11.3793 99.3061 11.3793C98.9453 11.3793 98.6442 11.4602 98.4027 11.6222C98.1612 11.7812 98.0405 11.9872 98.0405 12.2401C98.0405 12.4588 98.1214 12.6349 98.2834 12.7685C98.4453 12.902 98.7067 13.0114 99.0675 13.0966L100.107 13.3352C100.71 13.4744 101.158 13.6889 101.454 13.9787C101.749 14.2685 101.897 14.6449 101.897 15.108C101.897 15.5 101.783 15.8494 101.556 16.1562C101.332 16.4602 101.018 16.6989 100.614 16.8722C100.214 17.0455 99.7493 17.1321 99.2209 17.1321C98.4879 17.1321 97.8899 16.9759 97.4268 16.6634C96.9638 16.348 96.6797 15.9006 96.5746 15.321L97.8061 15.1335C97.8828 15.4545 98.0405 15.6974 98.2791 15.8622C98.5178 16.0241 98.8288 16.1051 99.2124 16.1051C99.63 16.1051 99.9638 16.0185 100.214 15.8452C100.464 15.669 100.589 15.4545 100.589 15.2017C100.589 14.9972 100.512 14.8253 100.359 14.6861C100.208 14.5469 99.9766 14.4418 99.6641 14.3707L98.5561 14.1278C97.9453 13.9886 97.4936 13.767 97.201 13.4631C96.9112 13.1591 96.7663 12.7741 96.7663 12.3082C96.7663 11.9219 96.8743 11.5838 97.0902 11.294C97.3061 11.0043 97.6044 10.7784 97.9851 10.6165C98.3658 10.4517 98.8018 10.3693 99.2933 10.3693C100.001 10.3693 100.558 10.5227 100.964 10.8295C101.37 11.1335 101.638 11.5412 101.769 12.0526ZM107.444 14.2855V10.4545H108.723V17H107.47V15.8665H107.402C107.251 16.2159 107.01 16.5071 106.677 16.7401C106.348 16.9702 105.937 17.0852 105.446 17.0852C105.025 17.0852 104.653 16.9929 104.329 16.8082C104.008 16.6207 103.755 16.3438 103.571 15.9773C103.389 15.6108 103.298 15.1577 103.298 14.6179V10.4545H104.572V14.4645C104.572 14.9105 104.696 15.2656 104.943 15.5298C105.19 15.794 105.511 15.9261 105.906 15.9261C106.145 15.9261 106.382 15.8665 106.618 15.7472C106.856 15.6278 107.054 15.4474 107.21 15.206C107.369 14.9645 107.447 14.6577 107.444 14.2855ZM110.435 17V10.4545H111.666V11.4943H111.734C111.854 11.142 112.064 10.8651 112.365 10.6634C112.669 10.4588 113.013 10.3565 113.396 10.3565C113.476 10.3565 113.57 10.3594 113.678 10.3651C113.788 10.3707 113.875 10.3778 113.938 10.3864V11.6051C113.886 11.5909 113.795 11.5753 113.665 11.5582C113.534 11.5384 113.403 11.5284 113.273 11.5284C112.972 11.5284 112.703 11.5923 112.467 11.7202C112.234 11.8452 112.05 12.0199 111.913 12.2443C111.777 12.4659 111.709 12.7187 111.709 13.0028V17H110.435ZM117.627 17.1321C116.982 17.1321 116.426 16.9943 115.961 16.7188C115.498 16.4403 115.14 16.0497 114.887 15.5469C114.637 15.0412 114.512 14.4489 114.512 13.7699C114.512 13.0994 114.637 12.5085 114.887 11.9972C115.14 11.4858 115.492 11.0866 115.944 10.7997C116.398 10.5128 116.929 10.3693 117.537 10.3693C117.907 10.3693 118.265 10.4304 118.611 10.5526C118.958 10.6747 119.269 10.8665 119.544 11.1278C119.82 11.3892 120.037 11.7287 120.196 12.1463C120.355 12.5611 120.435 13.0653 120.435 13.6591V14.1108H115.232V13.1562H119.186C119.186 12.821 119.118 12.5241 118.982 12.2656C118.846 12.0043 118.654 11.7983 118.407 11.6477C118.162 11.4972 117.875 11.4219 117.546 11.4219C117.188 11.4219 116.875 11.5099 116.608 11.6861C116.344 11.8594 116.14 12.0866 115.995 12.3679C115.853 12.6463 115.782 12.9489 115.782 13.2756V14.0213C115.782 14.4588 115.858 14.831 116.012 15.1378C116.168 15.4446 116.385 15.679 116.664 15.8409C116.942 16 117.267 16.0795 117.64 16.0795C117.881 16.0795 118.101 16.0455 118.3 15.9773C118.499 15.9062 118.671 15.8011 118.816 15.6619C118.961 15.5227 119.071 15.3509 119.148 15.1463L120.354 15.3636C120.257 15.7187 120.084 16.0298 119.834 16.2969C119.587 16.5611 119.276 16.767 118.901 16.9148C118.529 17.0597 118.104 17.1321 117.627 17.1321ZM124.299 17.1278C123.771 17.1278 123.299 16.9929 122.884 16.723C122.472 16.4503 122.148 16.0625 121.913 15.5597C121.68 15.054 121.563 14.4474 121.563 13.7401C121.563 13.0327 121.681 12.4276 121.917 11.9247C122.156 11.4219 122.482 11.0369 122.897 10.7699C123.312 10.5028 123.782 10.3693 124.308 10.3693C124.714 10.3693 125.04 10.4375 125.288 10.5739C125.538 10.7074 125.731 10.8636 125.867 11.0426C126.006 11.2216 126.114 11.3793 126.191 11.5156H126.268V8.27273H127.542V17H126.298V15.9815H126.191C126.114 16.1207 126.004 16.2798 125.859 16.4588C125.717 16.6378 125.521 16.794 125.271 16.9276C125.021 17.0611 124.697 17.1278 124.299 17.1278ZM124.58 16.0412C124.947 16.0412 125.256 15.9446 125.509 15.7514C125.765 15.5554 125.958 15.2841 126.089 14.9375C126.222 14.5909 126.289 14.1875 126.289 13.7273C126.289 13.2727 126.224 12.875 126.093 12.5341C125.962 12.1932 125.771 11.9276 125.518 11.7372C125.265 11.5469 124.952 11.4517 124.58 11.4517C124.197 11.4517 123.877 11.5511 123.621 11.75C123.366 11.9489 123.173 12.2202 123.042 12.5639C122.914 12.9077 122.85 13.2955 122.85 13.7273C122.85 14.1648 122.915 14.5582 123.046 14.9077C123.177 15.2571 123.37 15.5341 123.626 15.7386C123.884 15.9403 124.202 16.0412 124.58 16.0412Z" fill="black" fill-opacity="0.6"/>
<defs>
<linearGradient id="paint0_linear_1261_727" x1="23.3337" y1="12.5" x2="8.66699" y2="12.5" gradientUnits="userSpaceOnUse">
<stop stop-color="#076300"/>
<stop offset="1" stop-color="#0BB501"/>
</linearGradient>
</defs>
</svg>
