<svg width="15" height="15" viewBox="0 0 15 15" fill="none" xmlns="http://www.w3.org/2000/svg">
<g clip-path="url(#clip0_2892_112)">
<path d="M14.3032 0.0398036C14.3951 0.0002154 14.4968 -0.0108771 14.5951 0.0079613C14.6934 0.0267997 14.7838 0.0747021 14.8545 0.14547C14.9253 0.216239 14.9732 0.306616 14.992 0.404908C15.0109 0.503201 14.9998 0.604885 14.9602 0.696804L8.9602 14.6968C8.92026 14.79 8.85291 14.8689 8.7671 14.9229C8.68129 14.977 8.58107 15.0037 8.47974 14.9995C8.37842 14.9952 8.28077 14.9603 8.19977 14.8993C8.11876 14.8382 8.05823 14.754 8.0262 14.6578L6.1052 8.8948L0.342196 6.9748C0.245654 6.94297 0.161109 6.88246 0.0998335 6.80134C0.038558 6.72023 0.00346279 6.62236 -0.00077343 6.5208C-0.00500965 6.41923 0.0218134 6.31878 0.0761213 6.23285C0.130429 6.14691 0.209641 6.07957 0.303197 6.0398L14.3032 0.0398036Z" fill="#8A38F5"/>
</g>
<defs>
<clipPath id="clip0_2892_112">
<rect width="15" height="15" fill="white" transform="matrix(-1 0 0 1 15 0)"/>
</clipPath>
</defs>
</svg>
