<svg width="48" height="48" viewBox="0 0 48 48" fill="none" xmlns="http://www.w3.org/2000/svg">
<rect x="0.5" y="0.5" width="47" height="47" rx="23.5" stroke="#EDEDED"/>
<path d="M30.2997 28.359H17.6435V29.8974H30.2997V28.359ZM29.6896 20.7984L30.0434 23.9209L31.5721 23.7478L31.2184 20.6252L29.6896 20.7984ZM17.8998 23.9209L18.2535 20.7984L16.7248 20.6252L16.3711 23.7478L17.8998 23.9209ZM16.8199 26.4264C17.4195 25.7205 17.7949 24.8467 17.8998 23.9209L16.3711 23.7478C16.3002 24.3738 16.0467 24.9603 15.6474 25.4302L16.8199 26.4264ZM30.0434 23.9209C30.1483 24.8467 30.5237 25.7205 31.1233 26.4264L32.2958 25.4302C31.8965 24.9603 31.643 24.3738 31.5721 23.7478L30.0434 23.9209ZM17.6435 28.359C16.734 28.359 16.1554 27.2083 16.8199 26.4264L15.6474 25.4302C14.192 27.1433 15.3339 29.8974 17.6435 29.8974V28.359ZM30.2997 29.8974C32.6092 29.8974 33.7512 27.1433 32.2958 25.4302L31.1233 26.4264C31.7877 27.2083 31.2092 28.359 30.2997 28.359V29.8974ZM31.2184 20.6252C30.7925 16.8664 27.6925 14 23.9716 14V15.5385C26.8744 15.5385 29.3479 17.7815 29.6896 20.7984L31.2184 20.6252ZM18.2535 20.7984C18.5953 17.7815 21.0688 15.5385 23.9716 15.5385V14C20.2507 14 17.1506 16.8664 16.7248 20.6252L18.2535 20.7984Z" fill="white"/>
<path d="M27.7688 31.4494C27.918 31.0516 27.7163 30.6083 27.3185 30.4592C26.9206 30.31 26.4773 30.5117 26.3282 30.9095L27.7688 31.4494ZM21.615 30.9095C21.4659 30.5117 21.0225 30.31 20.6247 30.4592C20.2269 30.6083 20.0253 31.0516 20.1744 31.4494L21.615 30.9095ZM26.3282 30.9095C25.9972 31.7927 25.084 32.4615 23.9716 32.4615V34C25.7003 34 27.204 32.9564 27.7688 31.4494L26.3282 30.9095ZM23.9716 32.4615C22.8592 32.4615 21.946 31.7927 21.615 30.9095L20.1744 31.4494C20.7391 32.9564 22.2429 34 23.9716 34V32.4615Z" fill="white"/>
<circle cx="29" cy="16" r="4" fill="#EA3434"/>
</svg>
