<svg width="11" height="14" viewBox="0 0 11 14" fill="none" xmlns="http://www.w3.org/2000/svg">
<path d="M5.18518 0C3.80999 0 2.49112 0.546295 1.51871 1.51871C0.546295 2.49112 0 3.80999 0 5.18518C0 9.38272 5.18518 13.3333 5.18518 13.3333C5.18518 13.3333 10.3704 9.38272 10.3704 5.18518C10.3704 3.80999 9.82408 2.49112 8.85166 1.51871C7.87925 0.546295 6.56038 0 5.18518 0ZM5.18518 7.65432C4.69684 7.65432 4.21945 7.50951 3.81341 7.2382C3.40736 6.96688 3.09088 6.58126 2.904 6.13008C2.71712 5.67891 2.66822 5.18245 2.76349 4.70348C2.85876 4.22451 3.09393 3.78456 3.43924 3.43924C3.78456 3.09393 4.22451 2.85876 4.70348 2.76349C5.18245 2.66822 5.67891 2.71712 6.13008 2.904C6.58126 3.09088 6.96688 3.40736 7.2382 3.81341C7.50951 4.21945 7.65432 4.69684 7.65432 5.18518C7.65432 5.84004 7.39418 6.46807 6.93113 6.93113C6.46807 7.39418 5.84004 7.65432 5.18518 7.65432Z" fill="white"/>
</svg>
