<svg width="20" height="20" viewBox="0 0 20 20" fill="none" xmlns="http://www.w3.org/2000/svg">
<path d="M18.8771 17.587L15.8821 14.592C17.3299 12.8135 18.0393 10.5468 17.8637 8.26029C17.6882 5.97372 16.6411 3.84192 14.9389 2.30523C13.2366 0.76854 11.0091 -0.0556448 8.71655 0.00292032C6.42401 0.0614854 4.24153 0.998327 2.61993 2.61993C0.998327 4.24153 0.0614854 6.42401 0.00292032 8.71655C-0.0556448 11.0091 0.76854 13.2366 2.30523 14.9389C3.84192 16.6411 5.97372 17.6882 8.26028 17.8637C10.5468 18.0393 12.8135 17.3299 14.592 15.8821L17.587 18.8771C17.7593 19.046 17.9909 19.1406 18.2321 19.1406C18.4733 19.1406 18.7049 19.046 18.8771 18.8771C19.0473 18.7056 19.1429 18.4737 19.1429 18.2321C19.1429 17.9904 19.0473 17.7586 18.8771 17.587ZM1.82722 8.95007C1.82722 7.5413 2.24497 6.16417 3.02764 4.99283C3.81031 3.82148 4.92274 2.90853 6.22427 2.36942C7.5258 1.83031 8.95797 1.68925 10.3397 1.96409C11.7214 2.23892 12.9905 2.91731 13.9867 3.91346C14.9828 4.90961 15.6612 6.17877 15.9361 7.56047C16.2109 8.94217 16.0698 10.3743 15.5307 11.6759C14.9916 12.9774 14.0787 14.0898 12.9073 14.8725C11.736 15.6552 10.3588 16.0729 8.95007 16.0729C7.06191 16.0699 5.25196 15.3184 3.91683 13.9833C2.58169 12.6482 1.83027 10.8382 1.82722 8.95007Z" fill="#36C991"/>
</svg>
