<svg width="24" height="24" viewBox="0 0 24 24" fill="none" xmlns="http://www.w3.org/2000/svg">
<mask id="mask0_3907_1421" style="mask-type:luminance" maskUnits="userSpaceOnUse" x="3" y="1" width="18" height="22">
<path d="M19 2H5C4.73478 2 4.48043 2.10536 4.29289 2.29289C4.10536 2.48043 4 2.73478 4 3V21C4 21.2652 4.10536 21.5196 4.29289 21.7071C4.48043 21.8946 4.73478 22 5 22H19C19.2652 22 19.5196 21.8946 19.7071 21.7071C19.8946 21.5196 20 21.2652 20 21V3C20 2.73478 19.8946 2.48043 19.7071 2.29289C19.5196 2.10536 19.2652 2 19 2Z" fill="white" stroke="white" stroke-width="2" stroke-linecap="round" stroke-linejoin="round"/>
<path d="M14 8.00005C14 8.69005 13.72 9.31505 13.2675 9.76755C12.8585 10.1765 12.3203 10.4309 11.7446 10.4875C11.169 10.5441 10.5916 10.3994 10.1107 10.078C9.62986 9.75654 9.27533 9.27833 9.10752 8.72481C8.93972 8.17129 8.96904 7.57671 9.19048 7.04239C9.41192 6.50806 9.81178 6.06705 10.3219 5.79449C10.8321 5.52193 11.421 5.4347 11.9882 5.54765C12.5555 5.6606 13.066 5.96675 13.4329 6.41393C13.7997 6.86111 14.0001 7.42165 14 8.00005Z" fill="white"/>
<path d="M15 11.4999L13.2675 9.76744M13.2675 9.76744C13.5045 9.53638 13.6932 9.26056 13.8227 8.95599C13.9523 8.65143 14.02 8.32417 14.0221 7.9932C14.0242 7.66224 13.9605 7.33416 13.8348 7.02799C13.7091 6.72182 13.5238 6.44366 13.2898 6.20965C13.0557 5.97563 12.7776 5.79042 12.4714 5.66475C12.1652 5.53909 11.8371 5.47547 11.5061 5.47759C11.1752 5.47971 10.8479 5.54753 10.5434 5.67711C10.2388 5.80669 9.96303 5.99545 9.732 6.23244C9.26662 6.70205 9.0062 7.33688 9.00774 7.99803C9.00928 8.65917 9.27265 9.29279 9.74022 9.76022C10.2078 10.2277 10.8415 10.4908 11.5026 10.4922C12.1638 10.4936 12.798 10.233 13.2675 9.76744ZM8.5 14.9999H15.5M8.5 17.9999H12" stroke="black" stroke-width="2" stroke-linecap="round" stroke-linejoin="round"/>
</mask>
<g mask="url(#mask0_3907_1421)">
<path d="M0 0H24V24H0V0Z" fill="white"/>
</g>
</svg>
