<svg width="36" height="36" viewBox="0 0 36 36" fill="none" xmlns="http://www.w3.org/2000/svg">
<path d="M18 22.5C11.37 22.5 6 25.185 6 28.5V31.5H30V28.5C30 25.185 24.63 22.5 18 22.5ZM12 13.5C12 15.0913 12.6321 16.6174 13.7574 17.7426C14.8826 18.8679 16.4087 19.5 18 19.5C19.5913 19.5 21.1174 18.8679 22.2426 17.7426C23.3679 16.6174 24 15.0913 24 13.5M17.25 3C16.8 3 16.5 3.315 16.5 3.75V8.25H15V4.5C15 4.5 11.625 5.79 11.625 10.125C11.625 10.125 10.5 10.335 10.5 12H25.5C25.425 10.335 24.375 10.125 24.375 10.125C24.375 5.79 21 4.5 21 4.5V8.25H19.5V3.75C19.5 3.315 19.215 3 18.75 3H17.25Z" fill="#FF6D00"/>
</svg>
