<svg width="36" height="36" viewBox="0 0 36 36" fill="none" xmlns="http://www.w3.org/2000/svg">
<path d="M26.678 1.69214L24.7051 7.83794L26.6927 8.25567L26.4748 9.33511L22.801 12.6991L19.1799 9.66684L17.5343 9.37905C18.1121 8.37147 18.5667 7.07491 18.6877 5.89197C19.3923 5.73166 21.143 5.49295 21.9287 5.1847C21.5774 4.46154 19.8055 3.996 18.5045 4.03748C18.3826 2.5811 17.8801 1.99462 16.103 2.07562C14.3258 2.15655 13.7846 2.53976 13.9823 4.63662C12.6558 4.92679 11.3036 5.52368 11.1881 6.54096C11.7415 6.51937 13.5056 6.33733 14.0515 6.32925C14.0979 7.32065 14.3609 8.28724 14.7525 8.88687L12.2805 8.4562L7.45312 13.7758L12.8914 17.7045L13.0056 18.8888L10.6016 34.0587H13.2999L15.9939 22.1583L19.36 34.0587H21.9946L21.744 32.9051L22.9459 34.0587L27.38 11.3807C27.7322 11.0615 28.0314 10.7844 28.2303 10.5853C28.2428 9.84445 28.0519 9.25347 27.8722 8.86268L27.9404 8.51801L29.8556 8.92047L30.4493 2.37319L28.843 7.20935L28.0802 7.05072L28.5467 1.94196L27.0302 6.83219L26.2415 6.66815L26.678 1.69214ZM28.5467 1.94196L28.5469 1.94126H28.5467V1.94196ZM12.8562 10.7852L12.8804 15.2919L10.6656 13.622L12.8562 10.7852ZM19.0459 12.2795L22.623 15.5095C22.623 15.5095 24.2397 14.1415 25.7783 12.8002L21.7397 32.8788L18.7295 18.9901L19.0459 12.2795Z" fill="#04972B"/>
</svg>
