<svg width="24" height="24" viewBox="0 0 24 24" fill="none" xmlns="http://www.w3.org/2000/svg">
<path d="M6.66869 22.7679H17.3358C19.4153 22.7679 20.4498 21.7132 20.4498 19.6239V10.5035H13.1774C11.8917 10.5035 11.2891 9.89061 11.2891 8.60489V1.23218H6.66869C4.59955 1.23218 3.55469 2.29675 3.55469 4.38646V19.6239C3.55469 21.723 4.59955 22.7679 6.66869 22.7679ZM13.2078 9.12732H20.3393C20.269 8.71546 19.9775 8.31346 19.5057 7.82146L13.9608 2.18661C13.4988 1.70446 13.0771 1.41303 12.655 1.34232V8.58518C12.655 8.94646 12.8461 9.12732 13.2078 9.12732ZM8.13526 14.853C7.7234 14.853 7.43197 14.5616 7.43197 14.1699C7.43197 13.7777 7.7234 13.4867 8.13483 13.4867H15.8791C16.2811 13.4867 16.5927 13.7782 16.5927 14.1695C16.5927 14.5616 16.2811 14.8526 15.8795 14.8526L8.13526 14.853ZM8.13526 18.6797C7.7234 18.6797 7.43197 18.3883 7.43197 17.9966C7.43197 17.6049 7.7234 17.3135 8.13483 17.3135H15.8791C16.2811 17.3135 16.5927 17.6049 16.5927 17.9966C16.5927 18.3883 16.2811 18.6797 15.8795 18.6797H8.13526Z" fill="#5E23DC"/>
</svg>
