<svg width="16" height="16" viewBox="0 0 16 16" fill="none" xmlns="http://www.w3.org/2000/svg">
<g clip-path="url(#clip0_3897_1090)">
<path fill-rule="evenodd" clip-rule="evenodd" d="M7.9974 0.666748C3.9474 0.666748 0.664062 3.95008 0.664062 8.00008C0.664062 12.0501 3.9474 15.3334 7.9974 15.3334C12.0474 15.3334 15.3307 12.0501 15.3307 8.00008C15.3307 3.95008 12.0474 0.666748 7.9974 0.666748ZM7.66406 4.00008C7.48725 4.00008 7.31768 4.07032 7.19266 4.19534C7.06763 4.32037 6.9974 4.48994 6.9974 4.66675C6.9974 4.84356 7.06763 5.01313 7.19266 5.13815C7.31768 5.26318 7.48725 5.33342 7.66406 5.33342H7.9974C8.17421 5.33342 8.34378 5.26318 8.4688 5.13815C8.59382 5.01313 8.66406 4.84356 8.66406 4.66675C8.66406 4.48994 8.59382 4.32037 8.4688 4.19534C8.34378 4.07032 8.17421 4.00008 7.9974 4.00008H7.66406ZM6.66406 6.66675C6.48725 6.66675 6.31768 6.73699 6.19266 6.86201C6.06763 6.98703 5.9974 7.1566 5.9974 7.33342C5.9974 7.51023 6.06763 7.6798 6.19266 7.80482C6.31768 7.92984 6.48725 8.00008 6.66406 8.00008H7.33073V10.0001H6.66406C6.48725 10.0001 6.31768 10.0703 6.19266 10.1953C6.06763 10.3204 5.9974 10.4899 5.9974 10.6667C5.9974 10.8436 6.06763 11.0131 6.19266 11.1382C6.31768 11.2632 6.48725 11.3334 6.66406 11.3334H9.33073C9.50754 11.3334 9.67711 11.2632 9.80213 11.1382C9.92716 11.0131 9.9974 10.8436 9.9974 10.6667C9.9974 10.4899 9.92716 10.3204 9.80213 10.1953C9.67711 10.0703 9.50754 10.0001 9.33073 10.0001H8.66406V7.33342C8.66406 7.1566 8.59382 6.98703 8.4688 6.86201C8.34378 6.73699 8.17421 6.66675 7.9974 6.66675H6.66406Z" fill="#FFBC33"/>
</g>
<defs>
<clipPath id="clip0_3897_1090">
<rect width="16" height="16" fill="white"/>
</clipPath>
</defs>
</svg>
