<svg width="36" height="36" viewBox="0 0 36 36" fill="none" xmlns="http://www.w3.org/2000/svg">
<path d="M15.825 3.79949C16.4336 3.28652 17.204 3.00519 18 3.00519C18.796 3.00519 19.5664 3.28652 20.175 3.79949L30.3 12.342C31.062 12.9825 31.5 13.926 31.5 14.922V18.075C30.7701 17.33 29.8348 16.8193 28.8134 16.6081C27.7921 16.3968 26.7309 16.4945 25.7653 16.8888C24.7997 17.2831 23.9735 17.956 23.3919 18.8218C22.8104 19.6876 22.4998 20.707 22.5 21.75V22.5C22.329 21.66 21.5595 21.024 20.6745 21H15.3255C14.8368 21.0129 14.3726 21.2161 14.0316 21.5664C13.6906 21.9166 13.4998 22.3862 13.5 22.875V28.8795C13.5 29.5757 13.2234 30.2434 12.7312 30.7356C12.2389 31.2279 11.5712 31.5045 10.875 31.5045H7.125C6.42881 31.5045 5.76113 31.2279 5.26884 30.7356C4.77656 30.2434 4.5 29.5757 4.5 28.8795V14.9205C4.5 13.926 4.938 12.9825 5.7 12.3405L15.825 3.79949ZM31.5 21.75C31.5 22.7446 31.1049 23.6984 30.4016 24.4016C29.6984 25.1049 28.7446 25.5 27.75 25.5C26.7554 25.5 25.8016 25.1049 25.0984 24.4016C24.3951 23.6984 24 22.7446 24 21.75C24 20.7554 24.3951 19.8016 25.0984 19.0983C25.8016 18.3951 26.7554 18 27.75 18C28.7446 18 29.6984 18.3951 30.4016 19.0983C31.1049 19.8016 31.5 20.7554 31.5 21.75ZM34.5 29.8125C34.5 32.1465 32.571 34.5 27.75 34.5C22.929 34.5 21 32.1555 21 29.8125V29.658C21 28.188 22.191 27 23.6595 27H31.8405C33.3105 27 34.5 28.1895 34.5 29.658V29.8125Z" fill="#5E23DC"/>
</svg>
