<svg width="24" height="24" viewBox="0 0 24 24" fill="none" xmlns="http://www.w3.org/2000/svg">
<path d="M14.625 11.1555V15H18C18.7956 15 19.5587 15.3161 20.1213 15.8787C20.6839 16.4413 21 17.2044 21 18H3C3 17.2044 3.31607 16.4413 3.87868 15.8787C4.44129 15.3161 5.20435 15 6 15H9.375V11.1555C8.60141 10.6 8.02405 9.81326 7.72601 8.90868C7.42797 8.0041 7.42462 7.02828 7.71644 6.12167C8.00827 5.21506 8.58022 4.42442 9.34997 3.86355C10.1197 3.30267 11.0476 3.00049 12 3.00049C12.9524 3.00049 13.8803 3.30267 14.65 3.86355C15.4198 4.42442 15.9917 5.21506 16.2836 6.12167C16.5754 7.02828 16.572 8.0041 16.274 8.90868C15.9759 9.81326 15.3986 10.6 14.625 11.1555ZM3 21V19.5H21V21H3Z" fill="#5E23DC"/>
</svg>
