<svg width="36" height="36" viewBox="0 0 36 36" fill="none" xmlns="http://www.w3.org/2000/svg">
<path d="M4.5 22.5C4.5 22.3011 4.57902 22.1103 4.71967 21.9697C4.86032 21.829 5.05109 21.75 5.25 21.75H7.5C7.69891 21.75 7.88968 21.829 8.03033 21.9697C8.17098 22.1103 8.25 22.3011 8.25 22.5V30.747C8.25 30.9459 8.17098 31.1367 8.03033 31.2773C7.88968 31.418 7.69891 31.497 7.5 31.497H5.25C5.05109 31.497 4.86032 31.418 4.71967 31.2773C4.57902 31.1367 4.5 30.9459 4.5 30.747V22.5ZM13.2787 21.8918C13.9777 21.573 15.6863 21.8918 15.6863 21.8918L20.6558 23.0062C20.6558 23.0062 21.8985 23.4045 23.0632 23.4045C24.228 23.4045 23.5312 24.999 22.752 25.5555C21.9728 26.112 21.4065 26.082 21.4065 26.082L17.394 26.0332C17.394 26.0332 20.889 26.6707 22.209 26.7502C22.8772 26.7908 24.024 26.3197 25.3065 25.794C26.5553 25.281 27.9315 24.7163 29.1195 24.5198C31.527 24.1223 31.9155 26.2725 31.1385 27.069C30.3622 27.8655 24.15 30.8918 23.0632 31.29C22.2113 31.602 21.1815 31.4985 20.0198 31.3815C19.698 31.3492 19.3658 31.3155 19.0253 31.29C17.6678 31.1873 16.6312 30.8573 15.6052 30.531C14.5042 30.1815 13.416 29.8358 11.9587 29.7765C11.4697 29.757 10.3253 29.8177 9.75 29.8515V23.205C10.7445 22.851 12.7582 22.1288 13.2787 21.8918Z" fill="#FF0000"/>
<path d="M32 12.9971C32 13.196 31.921 13.3867 31.7803 13.5274C31.6397 13.6681 31.4489 13.7471 31.25 13.7471H29C28.8011 13.7471 28.6103 13.6681 28.4697 13.5274C28.329 13.3867 28.25 13.196 28.25 12.9971V4.75007C28.25 4.55116 28.329 4.36039 28.4697 4.21974C28.6103 4.07909 28.8011 4.00007 29 4.00007H31.25C31.4489 4.00007 31.6397 4.07909 31.7803 4.21974C31.921 4.36039 32 4.55116 32 4.75007V12.9971ZM23.2213 13.6053C22.5223 13.9241 20.8137 13.6053 20.8137 13.6053L15.8442 12.4908C15.8442 12.4908 14.6015 12.0926 13.4368 12.0926C12.272 12.0926 12.9688 10.4981 13.748 9.94157C14.5272 9.38507 15.0935 9.41507 15.0935 9.41507L19.106 9.46382C19.106 9.46382 15.611 8.82632 14.291 8.74682C13.6228 8.70632 12.476 9.17732 11.1935 9.70307C9.94475 10.2161 8.5685 10.7808 7.3805 10.9773C4.973 11.3748 4.5845 9.22457 5.3615 8.42807C6.13775 7.63157 12.35 4.60532 13.4368 4.20707C14.2887 3.89507 15.3185 3.99857 16.4802 4.11557C16.802 4.14782 17.1342 4.18157 17.4747 4.20707C18.8322 4.30982 19.8688 4.63982 20.8948 4.96607C21.9958 5.31557 23.084 5.66132 24.5413 5.72057C25.0303 5.74007 26.1747 5.67932 26.75 5.64557V12.2921C25.7555 12.6461 23.7418 13.3683 23.2213 13.6053Z" fill="#FF0000"/>
</svg>
