<svg width="36" height="36" viewBox="0 0 36 36" fill="none" xmlns="http://www.w3.org/2000/svg">
<path d="M17.9976 25.9125L11.7726 29.6625C11.4976 29.8375 11.2101 29.9125 10.9101 29.8875C10.6101 29.8625 10.3476 29.7625 10.1226 29.5875C9.89756 29.4125 9.72256 29.194 9.59756 28.932C9.47256 28.67 9.44756 28.3761 9.52256 28.0501L11.1726 20.9625L5.66006 16.2C5.41006 15.975 5.25406 15.7185 5.19206 15.4305C5.13006 15.1425 5.14856 14.8615 5.24756 14.5875C5.34656 14.3135 5.49656 14.0885 5.69756 13.9125C5.89856 13.7365 6.17356 13.624 6.52256 13.575L13.7976 12.9375L16.6101 6.26255C16.7351 5.96255 16.9291 5.73755 17.1921 5.58755C17.4551 5.43755 17.7236 5.36255 17.9976 5.36255C18.2716 5.36255 18.5401 5.43755 18.8031 5.58755C19.0661 5.73755 19.2601 5.96255 19.3851 6.26255L22.1976 12.9375L29.4726 13.575C29.8226 13.625 30.0976 13.7375 30.2976 13.9125C30.4976 14.0875 30.6476 14.3125 30.7476 14.5875C30.8476 14.8625 30.8666 15.144 30.8046 15.432C30.7426 15.72 30.5861 15.976 30.3351 16.2L24.8226 20.9625L26.4726 28.0501C26.5476 28.375 26.5226 28.6691 26.3976 28.932C26.2726 29.195 26.0976 29.4135 25.8726 29.5875C25.6476 29.7615 25.3851 29.8615 25.0851 29.8875C24.7851 29.9135 24.4976 29.8385 24.2226 29.6625L17.9976 25.9125Z" fill="white"/>
</svg>
