<svg width="16" height="16" viewBox="0 0 16 16" fill="none" xmlns="http://www.w3.org/2000/svg">
<path d="M8.67263 14.0418C8.66838 14.0418 8.66328 14.0418 8.65902 14.041L7.28486 14.001C7.14796 13.9968 7.02041 13.9304 6.93962 13.8199C6.85799 13.7102 6.83248 13.569 6.8699 13.4381L7.2517 12.0937C7.27976 11.9968 7.33929 11.9117 7.42177 11.8539L13.6344 7.44575C13.8342 7.30374 14.1114 7.34966 14.2543 7.54864L15.2467 8.93384C15.3155 9.02993 15.3427 9.14813 15.3232 9.26378C15.3036 9.37942 15.239 9.48316 15.1429 9.55119L8.93028 13.9594C8.8546 14.0129 8.76447 14.0418 8.67263 14.0418ZM7.88096 13.1328L8.53572 13.1524L14.2654 9.08776L13.7883 8.42279L8.06463 12.484L7.88096 13.1337V13.1328Z" fill="#8A38F5"/>
<mask id="mask0_2894_396" style="mask-type:luminance" maskUnits="userSpaceOnUse" x="0" y="0" width="13" height="16">
<path d="M0 0H12.9423V16H0V0Z" fill="white"/>
</mask>
<g mask="url(#mask0_2894_396)">
<path d="M12.3048 16H0.449252C0.204352 16 0.00537109 15.8019 0.00537109 15.5578V0.443027C0.00537109 0.198129 0.204352 0 0.449252 0H12.3048C12.5505 0 12.7495 0.198129 12.7495 0.443027V7.37415H11.86V0.885204H0.893983V15.1156H11.86V12.4124H12.7495V15.5578C12.7495 15.8019 12.5505 16 12.3048 16Z" fill="#8A38F5"/>
</g>
<path d="M6.44406 7.59056C6.33096 7.59056 6.21702 7.54719 6.13028 7.46131L4.0886 5.42985C3.91513 5.25723 3.91513 4.97662 4.0886 4.804L5.05119 3.84651C5.13452 3.76318 5.24762 3.71641 5.36582 3.71641C5.48317 3.71641 5.59626 3.76318 5.6796 3.84651L6.44406 4.60757L8.74594 2.3176C8.91941 2.14413 9.20088 2.14413 9.37435 2.3176L10.3369 3.27509C10.5104 3.4477 10.5104 3.72747 10.3369 3.90094L6.75869 7.46131C6.67195 7.54804 6.558 7.59056 6.44406 7.59056ZM5.03163 5.11692L6.44406 6.52253L9.39391 3.58801L9.06057 3.25553L6.75869 5.54549C6.67535 5.62883 6.56226 5.6756 6.44406 5.6756C6.32671 5.6756 6.21361 5.62883 6.13028 5.54549L5.36582 4.78444L5.03163 5.11692Z" fill="#8A38F5"/>
<path d="M5.98903 9.09176C5.50858 9.09176 5.04004 9.00078 4.59616 8.8222C4.13697 8.63598 3.72456 8.36387 3.37166 8.01268C3.01792 7.66064 2.74411 7.25078 2.55788 6.79329C2.37846 6.35197 2.28662 5.88598 2.28662 5.40724C2.28662 4.92935 2.37846 4.46251 2.55788 4.02118C2.74411 3.56455 3.01792 3.15384 3.37166 2.80265C3.68034 2.49482 4.03663 2.24652 4.43034 2.06455C4.81045 1.88938 5.21521 1.78054 5.63443 1.74057C6.47543 1.65979 7.32492 1.86982 8.02646 2.33071L7.53666 3.0688C6.42781 2.34091 4.94055 2.49142 4.00007 3.4285C3.4686 3.95656 3.17608 4.65979 3.17608 5.40724C3.17608 6.15554 3.4686 6.85792 4.00007 7.38683C4.53153 7.91574 5.23732 8.20656 5.98903 8.20656C6.74073 8.20656 7.44737 7.91574 7.97799 7.38683C8.47119 6.89618 8.76201 6.24567 8.79857 5.55435L9.68633 5.60027C9.63871 6.51013 9.25521 7.36727 8.60724 8.01268C8.2535 8.36387 7.84193 8.63598 7.38189 8.82135C6.93801 9.00078 6.46947 9.09176 5.98903 9.09176Z" fill="#8A38F5"/>
<path d="M4.30859 9.7998H8.32053V10.6842H4.30859V9.7998Z" fill="#8A38F5"/>
<path d="M2.04395 11.252H6.23785V12.1363H2.04395V11.252Z" fill="#8A38F5"/>
<path d="M2.03467 12.5566H6.22857V13.441H2.03467V12.5566Z" fill="#8A38F5"/>
</svg>
