<svg width="15" height="20" viewBox="0 0 15 20" fill="none" xmlns="http://www.w3.org/2000/svg">
<mask id="mask0_2894_397" style="mask-type:luminance" maskUnits="userSpaceOnUse" x="0" y="0" width="15" height="20">
<path d="M0 0H15V19.5114H0V0Z" fill="white"/>
</mask>
<g mask="url(#mask0_2894_397)">
<path fill-rule="evenodd" clip-rule="evenodd" d="M8.69258 0.509561L9.20948 1.06848C9.57981 1.46911 10.0899 1.63913 10.6293 1.54337L11.1041 1.45836C11.5605 1.37628 11.9865 1.48376 12.349 1.77104C12.7115 2.05832 12.9109 2.44624 12.9314 2.9055L12.9656 3.66278C12.989 4.20606 13.2695 4.66141 13.7453 4.93207L14.1636 5.16952C14.5671 5.39817 14.8231 5.75091 14.915 6.20235C15.0068 6.65281 14.9072 7.07688 14.6248 7.44233L14.1596 8.04425C13.8264 8.47517 13.7453 9.00282 13.9349 9.51288L14.101 9.96139C14.2613 10.3933 14.229 10.8271 14.0072 11.2307C13.7844 11.6352 13.4336 11.8961 12.9802 11.9968L12.2337 12.1609C11.6982 12.2792 11.2947 12.6309 11.109 13.1429L10.9458 13.5924C10.7885 14.0253 10.4827 14.337 10.0498 14.5051C9.61792 14.6731 9.17919 14.6497 8.76684 14.4376L8.08871 14.0878C7.60209 13.8367 7.06369 13.8494 6.58978 14.123L6.17352 14.3634C5.7729 14.595 5.33612 14.6389 4.89543 14.4914C4.45572 14.3448 4.13522 14.0478 3.95738 13.6227L3.66424 12.9221C3.45415 12.4199 3.03399 12.0876 2.49265 11.9948L2.01874 11.9137C1.56047 11.8355 1.19795 11.5912 0.95562 11.1975C0.714268 10.8047 0.661503 10.3728 0.800256 9.93403L1.02988 9.21095C1.19502 8.69209 1.08851 8.16932 0.734788 7.75404L0.423082 7.38957C0.124078 7.0378 0.00389075 6.61959 0.0742445 6.16424C0.143621 5.7089 0.383019 5.34442 0.77485 5.09721L1.41976 4.68877C1.88194 4.3966 2.13893 3.92856 2.13698 3.38527L2.136 2.90745C2.13405 2.44722 2.31384 2.0505 2.66268 1.74661C3.01054 1.44175 3.4307 1.3157 3.89093 1.3753L4.64919 1.47399C5.19345 1.54435 5.69473 1.3499 6.04552 0.93266L6.35331 0.565257C6.65036 0.211535 7.0461 0.0219704 7.51024 0.0112218C7.97438 0.000473507 8.37891 0.170495 8.69258 0.509561ZM11.5937 13.5758L11.5145 13.7947C11.2986 14.3907 10.8647 14.8324 10.2706 15.063C9.67753 15.2926 9.05314 15.2594 8.48835 14.9692L7.80925 14.6194C7.77016 14.5989 7.7301 14.5813 7.69003 14.5666L9.06389 16.9235L10.4749 19.3458C10.5384 19.4562 10.6576 19.5139 10.7846 19.4972C10.9116 19.4816 11.0113 19.3946 11.0445 19.2715L11.5605 17.3632L13.4854 17.8752C13.6095 17.9074 13.7346 17.8654 13.8128 17.7648C13.8909 17.6641 13.8997 17.5332 13.8352 17.4228L12.4243 15.0005L11.5937 13.5758ZM6.87315 14.6536L6.47741 14.8813C5.92631 15.1998 5.30778 15.2614 4.70293 15.0601C4.09711 14.8578 3.64372 14.4367 3.39846 13.8523L3.17274 13.313L2.19072 15.0005L0.778759 17.4228C0.715245 17.5332 0.723062 17.6641 0.801233 17.7648C0.880381 17.8654 1.00448 17.9074 1.12857 17.8752L3.05451 17.3632L3.56946 19.2715C3.60268 19.3946 3.70235 19.4816 3.82937 19.4972C3.95738 19.5139 4.07561 19.4562 4.1401 19.3458L5.55109 16.9235L6.87315 14.6536ZM6.78325 9.20509C6.95132 9.21779 7.10375 9.24124 7.15652 9.27642C7.37637 9.45816 7.73303 9.55881 8.22648 9.57933L10.0459 9.55783C10.2335 9.50311 10.3625 9.33309 10.3625 9.13864C10.3625 8.94517 10.2335 8.77417 10.0459 8.71945C10.2628 8.71652 10.4514 8.57092 10.5081 8.36377C10.5648 8.15564 10.4768 7.93579 10.2921 7.82342C10.5218 7.80583 10.6996 7.61529 10.6996 7.38664C10.6996 7.15701 10.5218 6.96647 10.2921 6.94888C10.5345 6.9225 10.7113 6.70851 10.6898 6.46715C10.6674 6.2258 10.4553 6.04698 10.212 6.06457C9.7684 6.06262 9.32478 6.06262 8.88116 6.06457C9.09711 5.47634 9.11763 4.88322 8.91145 4.42201C8.78931 4.14743 8.45513 3.87579 8.3369 4.32918C8.1102 5.49099 7.70078 6.26098 7.1487 6.45347L6.78325 6.4564V9.20509ZM4.79576 9.50702H5.88624C6.04649 9.50702 6.17841 9.37706 6.17841 9.21779V6.32351C6.17841 6.16522 6.04649 6.03526 5.88624 6.03526H4.79576C4.63551 6.03526 4.50457 6.16522 4.50457 6.32351V9.21779C4.50457 9.37706 4.63551 9.50702 4.79576 9.50702ZM7.50145 2.90061C5.04298 2.90061 3.04962 4.87638 3.04962 7.31335C3.04962 9.75033 5.04298 11.7261 7.50145 11.7261C9.95992 11.7261 11.9523 9.75033 11.9523 7.31335C11.9523 4.87638 9.95992 2.90061 7.50145 2.90061Z" fill="#8A38F5"/>
</g>
</svg>
