<svg width="188" height="79" viewBox="0 0 188 79" fill="none" xmlns="http://www.w3.org/2000/svg">
<g clip-path="url(#clip0_2473_2809)">
<mask id="mask0_2473_2809" style="mask-type:luminance" maskUnits="userSpaceOnUse" x="0" y="0" width="188" height="79">
<path d="M187.426 0H0V79H187.426V0Z" fill="white"/>
</mask>
<g mask="url(#mask0_2473_2809)">
<path d="M143.174 42.8309C142.637 43.0936 142.127 43.4266 141.663 43.8671C140.672 44.8146 139.906 46.2246 139.635 48.3156L139.072 47.6309L135.045 42.7604L133.494 40.8804L132.095 39.1891L106.854 8.63796L81.731 37.0166L78.6031 40.5547L74.2612 45.4584C74.0945 43.1121 72.7102 41.1062 70.7261 40.0663L75.02 35.218L77.4964 32.4163L104.599 1.78754C105.207 1.11027 106.076 0.710566 106.983 0.743874C107.894 0.762379 108.749 1.16948 109.33 1.86895L135.042 32.9937L136.481 34.7406L137.393 35.8361L139.07 37.8642L143.17 42.8345L143.174 42.8309Z" fill="url(#paint0_linear_2473_2809)"/>
<path d="M125.599 41.606V62.5089C125.599 63.5452 124.763 64.3815 123.726 64.3815H111.648V47.646C111.648 47.3647 111.422 47.1352 111.137 47.1352H102.775C102.494 47.1352 102.264 47.3609 102.264 47.646V64.3815H88.5054C87.4689 64.3815 86.6323 63.5452 86.6323 62.5089V41.6393C86.6323 41.1877 86.8026 40.7474 87.1025 40.3995L88.5054 38.8156L105.333 19.8001C106.092 18.9415 107.443 18.9637 108.172 19.852L123.841 38.8156L125.159 40.4105C125.436 40.7511 125.588 41.1694 125.588 41.6024L125.599 41.606Z" fill="white"/>
<path d="M187.428 31.5542L175.997 60.9617C175.102 63.2674 172.884 64.7847 170.407 64.7847H168.32C165.847 64.7847 163.627 63.2674 162.73 60.9617L151.301 31.5542H162.642L169.394 52.7901L176.145 31.5542H187.42H187.428Z" fill="white"/>
<path d="M20.5297 31.3357V42.4126C20.5297 42.4126 10.4207 39.6517 10.3799 50.007C10.3392 60.3621 10.3799 64.3776 10.3799 64.3776H0.0228486V50.2919C0.0228486 50.2919 -1.50961 31.332 20.5261 31.332L20.5297 31.3357Z" fill="white"/>
<path d="M149.674 31.3357V42.4163C149.674 42.4163 146.08 41.4354 143.17 42.8344C142.633 43.0935 142.122 43.4303 141.661 43.8707C140.668 44.8145 139.902 46.2281 139.632 48.3155C139.561 48.8336 139.525 49.3999 139.52 50.0106C139.52 50.3622 139.516 50.7027 139.516 51.0431C139.484 60.6322 139.52 64.3813 139.52 64.3813H129.163V50.2956C129.163 50.2956 128.786 45.5953 131.121 40.8804C131.403 40.3142 131.721 39.7478 132.088 39.1853C132.85 38.0121 133.816 36.8686 135.027 35.836C135.475 35.4549 135.959 35.0847 136.481 34.7368C139.488 32.7161 143.722 31.3357 149.674 31.3357Z" fill="white"/>
<path d="M37.6485 57.9639C32.4514 57.1681 31.0189 52.431 31.0189 52.431C51.4925 45.6953 47.9908 32.1943 47.9908 32.1943C46.3361 31.3505 35.1166 28.634 28.1835 34.3483C21.2504 40.0625 21.0579 49.2852 22.7458 54.4962C28.1835 70.9282 47.8168 63.493 47.8168 63.493V55.7581C46.8322 56.5095 42.853 58.7559 37.6485 57.9639ZM34.0912 38.6339C36.3381 36.7834 39.9693 37.6643 40.5061 37.9345C40.5061 37.9345 41.9239 43.3971 32.3293 45.1586C31.7851 43.471 31.8443 40.4844 34.0912 38.6339Z" fill="white"/>
<path d="M81.7309 37.0166C80.6241 35.2253 79.1841 33.6636 77.4962 32.4163C74.7422 30.3735 71.333 29.167 67.6462 29.167C58.9992 29.167 51.8996 35.7954 51.1518 44.2482C51.1037 44.7368 51.0815 45.2291 51.0815 45.7323V76.2687C51.0815 76.2687 57.5482 76.55 59.4286 69.2444V60.1068C61.8494 61.4946 64.6553 62.2867 67.6499 62.2867C76.7965 62.2867 84.2146 54.8736 84.2146 45.7287C84.2146 42.5311 83.3114 39.5481 81.7345 37.0166H81.7309ZM67.6462 52.5717C63.9816 52.5717 61.013 49.6035 61.013 45.9396C61.013 42.2757 63.9816 39.3076 67.6462 39.3076C68.7604 39.3076 69.808 39.5814 70.7297 40.0663C72.71 41.1062 74.0944 43.1158 74.2647 45.4584C74.2795 45.6177 74.2832 45.7767 74.2832 45.9396C74.2832 49.6035 71.3146 52.5717 67.6499 52.5717H67.6462Z" fill="white"/>
<path d="M106.3 33.908H103.749V36.4579H106.3V33.908Z" fill="white"/>
<path d="M106.3 37.2166H103.749V39.7665H106.3V37.2166Z" fill="white"/>
<path d="M109.508 33.908H106.958V36.4579H109.508V33.908Z" fill="white"/>
<path d="M109.508 37.2166H106.958V39.7665H109.508V37.2166Z" fill="white"/>
<path d="M67.5938 69.5332V68.8049H72.6797V69.5332H70.5474V75.585H69.7262V69.5332H67.5938ZM73.313 75.585V70.4999H74.0679V71.268H74.1209C74.2137 71.0164 74.3814 70.8122 74.6243 70.6556C74.867 70.4988 75.1409 70.4205 75.4455 70.4205C75.5028 70.4205 75.5746 70.4216 75.6607 70.4237C75.7467 70.4259 75.8118 70.4293 75.8561 70.4337V71.2283C75.8295 71.2217 75.7688 71.2117 75.6739 71.1985C75.5812 71.183 75.4829 71.1753 75.3793 71.1753C75.132 71.1753 74.9112 71.2271 74.7169 71.3309C74.525 71.4324 74.3726 71.5736 74.26 71.7546C74.1496 71.9335 74.0945 72.1375 74.0945 72.3671V75.585H73.313ZM79.9876 73.506V70.4999H80.769V75.585H79.9876V74.7242H79.9346C79.8154 74.9825 79.63 75.202 79.3784 75.383C79.1266 75.5619 78.8088 75.6512 78.4247 75.6512C78.1068 75.6512 77.8242 75.5816 77.577 75.4427C77.3298 75.3015 77.1356 75.0895 76.9943 74.807C76.853 74.5224 76.7823 74.1637 76.7823 73.7311V70.4999H77.5637V73.6781C77.5637 74.0489 77.6676 74.3446 77.875 74.5654C78.0847 74.786 78.3518 74.8964 78.6764 74.8964C78.8706 74.8964 79.0682 74.8468 79.2691 74.7474C79.4721 74.6481 79.6421 74.4958 79.779 74.2905C79.918 74.0853 79.9876 73.8237 79.9876 73.506ZM84.4121 70.4999V71.162H81.7764V70.4999H84.4121ZM82.5447 69.2817H83.3261V74.1283C83.3261 74.3491 83.3581 74.5146 83.4221 74.6249C83.4883 74.7331 83.5723 74.8059 83.6737 74.8434C83.7776 74.8788 83.8868 74.8964 84.0015 74.8964C84.0876 74.8964 84.1583 74.892 84.2135 74.8832C84.2687 74.8721 84.3128 74.8633 84.3459 74.8567L84.5049 75.5585C84.4519 75.5784 84.3779 75.5982 84.283 75.6181C84.1882 75.6402 84.0679 75.6512 83.9221 75.6512C83.7014 75.6512 83.4851 75.6037 83.2731 75.5089C83.0634 75.414 82.889 75.2694 82.75 75.0752C82.613 74.881 82.5447 74.6359 82.5447 74.3402V69.2817ZM86.4784 72.526V75.585H85.6969V68.8049H86.4784V71.2945H86.5446C86.6638 71.0318 86.8426 70.8232 87.081 70.6688C87.3216 70.512 87.6416 70.4337 88.0412 70.4337C88.3878 70.4337 88.6913 70.5033 88.9518 70.6422C89.2123 70.7791 89.4143 70.99 89.5577 71.2746C89.7035 71.5571 89.7762 71.9168 89.7762 72.3538V75.585H88.9948V72.4068C88.9948 72.0029 88.8901 71.6906 88.6803 71.47C88.4728 71.247 88.1848 71.1356 87.816 71.1356C87.56 71.1356 87.3305 71.1896 87.1274 71.2978C86.9264 71.4059 86.7676 71.5638 86.6505 71.7712C86.5357 71.9787 86.4784 72.2303 86.4784 72.526ZM91.7755 75.638C91.6121 75.638 91.4719 75.5795 91.3549 75.4625C91.2379 75.3456 91.1794 75.2054 91.1794 75.0421C91.1794 74.8788 91.2379 74.7386 91.3549 74.6216C91.4719 74.5046 91.6121 74.4462 91.7755 74.4462C91.9388 74.4462 92.079 74.5046 92.196 74.6216C92.313 74.7386 92.3715 74.8788 92.3715 75.0421C92.3715 75.1503 92.3438 75.2496 92.2886 75.34C92.2356 75.4304 92.164 75.5033 92.0734 75.5585C91.9851 75.6115 91.8858 75.638 91.7755 75.638ZM93.1902 69.5332V68.8049H98.2762V69.5332H96.1437V75.585H95.3225V69.5332H93.1902ZM98.9094 75.585V70.4999H99.6644V71.268H99.7174C99.8101 71.0164 99.9778 70.8122 100.221 70.6556C100.464 70.4988 100.737 70.4205 101.042 70.4205C101.099 70.4205 101.171 70.4216 101.257 70.4237C101.343 70.4259 101.408 70.4293 101.452 70.4337V71.2283C101.426 71.2217 101.365 71.2117 101.27 71.1985C101.178 71.183 101.079 71.1753 100.976 71.1753C100.728 71.1753 100.508 71.2271 100.313 71.3309C100.121 71.4324 99.969 71.5736 99.8565 71.7546C99.7461 71.9335 99.6909 72.1375 99.6909 72.3671V75.585H98.9094ZM105.584 73.506V70.4999H106.365V75.585H105.584V74.7242H105.531C105.412 74.9825 105.226 75.202 104.975 75.383C104.723 75.5619 104.405 75.6512 104.021 75.6512C103.703 75.6512 103.421 75.5816 103.173 75.4427C102.926 75.3015 102.732 75.0895 102.591 74.807C102.449 74.5224 102.379 74.1637 102.379 73.7311V70.4999H103.16V73.6781C103.16 74.0489 103.264 74.3446 103.472 74.5654C103.681 74.786 103.948 74.8964 104.273 74.8964C104.467 74.8964 104.665 74.8468 104.865 74.7474C105.069 74.6481 105.239 74.4958 105.375 74.2905C105.514 74.0853 105.584 73.8237 105.584 73.506ZM111.399 71.6387L110.697 71.8374C110.653 71.7204 110.588 71.6067 110.502 71.4964C110.418 71.3839 110.303 71.2911 110.158 71.2184C110.012 71.1455 109.825 71.1091 109.598 71.1091C109.287 71.1091 109.027 71.1808 108.82 71.3242C108.615 71.4655 108.512 71.6454 108.512 71.8639C108.512 72.0581 108.583 72.2115 108.724 72.3241C108.865 72.4366 109.086 72.5305 109.386 72.6055L110.141 72.7909C110.596 72.9012 110.935 73.0701 111.158 73.2974C111.381 73.5225 111.492 73.8127 111.492 74.1681C111.492 74.4594 111.408 74.7199 111.24 74.9494C111.075 75.1789 110.843 75.3599 110.545 75.4923C110.247 75.6247 109.9 75.691 109.505 75.691C108.987 75.691 108.557 75.5784 108.217 75.3532C107.877 75.1282 107.662 74.7993 107.572 74.3667L108.313 74.1813C108.384 74.4549 108.517 74.6602 108.714 74.7971C108.913 74.934 109.172 75.0023 109.492 75.0023C109.856 75.0023 110.146 74.9251 110.36 74.7707C110.576 74.6139 110.684 74.4263 110.684 74.2079C110.684 74.0312 110.622 73.8834 110.499 73.7642C110.375 73.6427 110.185 73.5523 109.929 73.4928L109.081 73.294C108.616 73.1837 108.274 73.0126 108.055 72.7809C107.839 72.5469 107.731 72.2545 107.731 71.9036C107.731 71.6167 107.811 71.3629 107.972 71.1422C108.136 70.9215 108.357 70.7482 108.638 70.6225C108.92 70.4966 109.24 70.4337 109.598 70.4337C110.101 70.4337 110.496 70.544 110.783 70.7648C111.073 70.9855 111.278 71.2768 111.399 71.6387ZM114.88 70.4999V71.162H112.244V70.4999H114.88ZM113.013 69.2817H113.794V74.1283C113.794 74.3491 113.826 74.5146 113.89 74.6249C113.956 74.7331 114.04 74.8059 114.142 74.8434C114.246 74.8788 114.355 74.8964 114.47 74.8964C114.556 74.8964 114.626 74.892 114.681 74.8832C114.737 74.8721 114.781 74.8633 114.814 74.8567L114.973 75.5585C114.92 75.5784 114.846 75.5982 114.751 75.6181C114.656 75.6402 114.536 75.6512 114.39 75.6512C114.169 75.6512 113.953 75.6037 113.741 75.5089C113.531 75.414 113.357 75.2694 113.218 75.0752C113.081 74.881 113.013 74.6359 113.013 74.3402V69.2817ZM116.625 75.638C116.462 75.638 116.322 75.5795 116.205 75.4625C116.088 75.3456 116.029 75.2054 116.029 75.0421C116.029 74.8788 116.088 74.7386 116.205 74.6216C116.322 74.5046 116.462 74.4462 116.625 74.4462C116.789 74.4462 116.929 74.5046 117.046 74.6216C117.163 74.7386 117.221 74.8788 117.221 75.0421C117.221 75.1503 117.194 75.2496 117.138 75.34C117.085 75.4304 117.014 75.5033 116.923 75.5585C116.835 75.6115 116.736 75.638 116.625 75.638ZM118.04 69.5332V68.8049H123.126V69.5332H120.994V75.585H120.172V69.5332H118.04ZM123.759 75.585V70.4999H124.514V71.268H124.567C124.66 71.0164 124.828 70.8122 125.07 70.6556C125.313 70.4988 125.587 70.4205 125.892 70.4205C125.949 70.4205 126.021 70.4216 126.107 70.4237C126.193 70.4259 126.258 70.4293 126.302 70.4337V71.2283C126.276 71.2217 126.215 71.2117 126.12 71.1985C126.027 71.183 125.929 71.1753 125.825 71.1753C125.578 71.1753 125.357 71.2271 125.163 71.3309C124.971 71.4324 124.819 71.5736 124.706 71.7546C124.596 71.9335 124.541 72.1375 124.541 72.3671V75.585H123.759ZM128.725 75.7042C128.403 75.7042 128.11 75.6435 127.848 75.5221C127.585 75.3986 127.376 75.2208 127.222 74.9891C127.067 74.7551 126.99 74.4726 126.99 74.1417C126.99 73.8503 127.048 73.6141 127.162 73.4331C127.277 73.2499 127.43 73.1065 127.623 73.0027C127.815 72.899 128.026 72.8218 128.258 72.771C128.492 72.718 128.727 72.6761 128.964 72.6452C129.273 72.6055 129.523 72.5757 129.715 72.5558C129.909 72.5337 130.051 72.4974 130.139 72.4466C130.229 72.3958 130.275 72.3075 130.275 72.1818V72.1552C130.275 71.8286 130.185 71.5748 130.007 71.3938C129.83 71.2128 129.562 71.1224 129.202 71.1224C128.829 71.1224 128.536 71.2039 128.325 71.3673C128.113 71.5306 127.964 71.705 127.877 71.8904L127.136 71.6255C127.268 71.3166 127.445 71.0759 127.666 70.9039C127.888 70.7294 128.131 70.608 128.394 70.5397C128.659 70.469 128.919 70.4337 129.175 70.4337C129.339 70.4337 129.527 70.4536 129.738 70.4934C129.953 70.5308 130.159 70.6091 130.358 70.7283C130.558 70.8475 130.725 71.0274 130.858 71.268C130.99 71.5085 131.056 71.8308 131.056 72.2346V75.585H130.275V74.8964H130.235C130.182 75.0067 130.094 75.1248 129.97 75.2507C129.847 75.3765 129.682 75.4834 129.477 75.5718C129.271 75.6601 129.021 75.7042 128.725 75.7042ZM128.844 75.0023C129.153 75.0023 129.414 74.9416 129.626 74.8202C129.84 74.6989 130.001 74.5421 130.109 74.3502C130.22 74.1581 130.275 73.9561 130.275 73.7443V73.0293C130.242 73.0689 130.169 73.1054 130.056 73.1385C129.946 73.1694 129.818 73.1969 129.672 73.2213C129.529 73.2434 129.389 73.2631 129.252 73.2808C129.117 73.2962 129.008 73.3096 128.924 73.3206C128.721 73.347 128.531 73.3901 128.354 73.4497C128.18 73.5071 128.039 73.5942 127.93 73.7112C127.824 73.8259 127.772 73.9827 127.772 74.1813C127.772 74.4528 127.872 74.658 128.073 74.7971C128.276 74.934 128.533 75.0023 128.844 75.0023ZM133.264 72.526V75.585H132.482V70.4999H133.237V71.2945H133.304C133.423 71.0363 133.604 70.8288 133.847 70.6721C134.09 70.5132 134.403 70.4337 134.787 70.4337C135.132 70.4337 135.433 70.5044 135.691 70.6456C135.949 70.7847 136.15 70.9965 136.293 71.2812C136.438 71.5638 136.508 71.9213 136.508 72.3538V75.585H135.728V72.4068C135.728 72.0073 135.624 71.6962 135.416 71.4732C135.209 71.2481 134.924 71.1356 134.562 71.1356C134.312 71.1356 134.09 71.1896 133.893 71.2978C133.699 71.4059 133.545 71.5638 133.433 71.7712C133.32 71.9787 133.264 72.2303 133.264 72.526ZM141.539 71.6387L140.838 71.8374C140.793 71.7204 140.729 71.6067 140.642 71.4964C140.559 71.3839 140.444 71.2911 140.298 71.2184C140.153 71.1455 139.966 71.1091 139.738 71.1091C139.426 71.1091 139.168 71.1808 138.961 71.3242C138.755 71.4655 138.653 71.6454 138.653 71.8639C138.653 72.0581 138.722 72.2115 138.864 72.3241C139.006 72.4366 139.226 72.5305 139.526 72.6055L140.281 72.7909C140.736 72.9012 141.075 73.0701 141.298 73.2974C141.52 73.5225 141.632 73.8127 141.632 74.1681C141.632 74.4594 141.549 74.7199 141.38 74.9494C141.215 75.1789 140.984 75.3599 140.685 75.4923C140.387 75.6247 140.041 75.691 139.646 75.691C139.127 75.691 138.698 75.5784 138.357 75.3532C138.018 75.1282 137.803 74.7993 137.711 74.3667L138.454 74.1813C138.525 74.4549 138.658 74.6602 138.854 74.7971C139.053 74.934 139.312 75.0023 139.632 75.0023C139.996 75.0023 140.286 74.9251 140.5 74.7707C140.717 74.6139 140.824 74.4263 140.824 74.2079C140.824 74.0312 140.763 73.8834 140.639 73.7642C140.515 73.6427 140.326 73.5523 140.07 73.4928L139.222 73.294C138.756 73.1837 138.414 73.0126 138.195 72.7809C137.978 72.5469 137.871 72.2545 137.871 71.9036C137.871 71.6167 137.951 71.3629 138.112 71.1422C138.275 70.9215 138.497 70.7482 138.778 70.6225C139.06 70.4966 139.38 70.4337 139.738 70.4337C140.241 70.4337 140.636 70.544 140.924 70.7648C141.213 70.9855 141.418 71.2768 141.539 71.6387ZM142.809 77.4919V70.4999H143.564V71.3077H143.657C143.714 71.2195 143.793 71.1068 143.895 70.9701C143.998 70.831 144.146 70.7073 144.338 70.5992C144.532 70.4889 144.795 70.4337 145.126 70.4337C145.554 70.4337 145.932 70.5408 146.259 70.7549C146.585 70.969 146.84 71.2725 147.024 71.6653C147.207 72.0581 147.298 72.5216 147.298 73.0557C147.298 73.5942 147.207 74.061 147.024 74.4562C146.84 74.849 146.587 75.1535 146.263 75.3698C145.937 75.584 145.564 75.691 145.14 75.691C144.813 75.691 144.552 75.6369 144.355 75.5288C144.158 75.4183 144.007 75.2937 143.902 75.1546C143.795 75.0134 143.714 74.8964 143.657 74.8038H143.59V77.4919H142.809ZM143.576 73.0425C143.576 73.4264 143.633 73.7653 143.745 74.0588C143.858 74.3502 144.023 74.5786 144.24 74.7441C144.455 74.9074 144.72 74.9891 145.034 74.9891C145.361 74.9891 145.633 74.9031 145.851 74.7309C146.072 74.5565 146.238 74.3225 146.348 74.029C146.46 73.7333 146.517 73.4044 146.517 73.0425C146.517 72.6849 146.462 72.3627 146.351 72.0758C146.244 71.7866 146.079 71.5582 145.858 71.3905C145.64 71.2206 145.365 71.1356 145.034 71.1356C144.716 71.1356 144.448 71.2161 144.233 71.3772C144.016 71.5362 143.853 71.7591 143.742 72.046C143.632 72.3306 143.576 72.6629 143.576 73.0425ZM149.987 75.7042C149.664 75.7042 149.373 75.6435 149.11 75.5221C148.847 75.3986 148.639 75.2208 148.485 74.9891C148.329 74.7551 148.252 74.4726 148.252 74.1417C148.252 73.8503 148.31 73.6141 148.425 73.4331C148.539 73.2499 148.693 73.1065 148.885 73.0027C149.077 72.899 149.288 72.8218 149.52 72.771C149.754 72.718 149.99 72.6761 150.226 72.6452C150.535 72.6055 150.786 72.5757 150.978 72.5558C151.171 72.5337 151.313 72.4974 151.401 72.4466C151.491 72.3958 151.538 72.3075 151.538 72.1818V72.1552C151.538 71.8286 151.448 71.5748 151.269 71.3938C151.092 71.2128 150.824 71.1224 150.464 71.1224C150.091 71.1224 149.798 71.2039 149.587 71.3673C149.374 71.5306 149.226 71.705 149.14 71.8904L148.397 71.6255C148.531 71.3166 148.707 71.0759 148.927 70.9039C149.151 70.7294 149.393 70.608 149.656 70.5397C149.92 70.469 150.182 70.4337 150.438 70.4337C150.6 70.4337 150.788 70.4536 151.001 70.4934C151.215 70.5308 151.42 70.6091 151.619 70.7283C151.821 70.8475 151.987 71.0274 152.119 71.268C152.253 71.5085 152.318 71.8308 152.318 72.2346V75.585H151.538V74.8964H151.497C151.444 75.0067 151.356 75.1248 151.232 75.2507C151.108 75.3765 150.944 75.4834 150.739 75.5718C150.533 75.6601 150.283 75.7042 149.987 75.7042ZM150.107 75.0023C150.415 75.0023 150.677 74.9416 150.888 74.8202C151.102 74.6989 151.264 74.5421 151.371 74.3502C151.482 74.1581 151.538 73.9561 151.538 73.7443V73.0293C151.503 73.0689 151.431 73.1054 151.318 73.1385C151.208 73.1694 151.08 73.1969 150.934 73.2213C150.791 73.2434 150.651 73.2631 150.513 73.2808C150.38 73.2962 150.269 73.3096 150.186 73.3206C149.983 73.347 149.792 73.3901 149.617 73.4497C149.442 73.5071 149.301 73.5942 149.193 73.7112C149.087 73.8259 149.034 73.9827 149.034 74.1813C149.034 74.4528 149.134 74.658 149.335 74.7971C149.538 74.934 149.795 75.0023 150.107 75.0023ZM153.744 75.585V70.4999H154.499V71.268H154.552C154.645 71.0164 154.813 70.8122 155.056 70.6556C155.299 70.4988 155.573 70.4205 155.877 70.4205C155.935 70.4205 156.006 70.4216 156.092 70.4237C156.179 70.4259 156.243 70.4293 156.288 70.4337V71.2283C156.261 71.2217 156.201 71.2117 156.105 71.1985C156.013 71.183 155.915 71.1753 155.811 71.1753C155.563 71.1753 155.342 71.2271 155.149 71.3309C154.957 71.4324 154.804 71.5736 154.691 71.7546C154.581 71.9335 154.526 72.1375 154.526 72.3671V75.585H153.744ZM159.191 75.691C158.702 75.691 158.278 75.5829 157.923 75.3666C157.57 75.1479 157.297 74.8434 157.105 74.4528C156.916 74.0599 156.821 73.6031 156.821 73.0822C156.821 72.5614 156.916 72.1022 157.105 71.705C157.297 71.3056 157.564 70.9943 157.906 70.7713C158.251 70.5463 158.653 70.4337 159.112 70.4337C159.376 70.4337 159.638 70.4778 159.897 70.5661C160.156 70.6545 160.39 70.7979 160.602 70.9965C160.814 71.1929 160.982 71.4533 161.109 71.7778C161.235 72.1022 161.297 72.5017 161.297 72.9763V73.3073H157.376V72.6319H160.503C160.503 72.3451 160.446 72.089 160.33 71.8639C160.218 71.6387 160.057 71.4611 159.848 71.3309C159.639 71.2007 159.394 71.1356 159.112 71.1356C158.801 71.1356 158.532 71.2128 158.304 71.3673C158.079 71.5195 157.906 71.7183 157.784 71.9632C157.662 72.2082 157.603 72.4708 157.603 72.7511V73.2014C157.603 73.5854 157.668 73.9109 157.801 74.178C157.935 74.4428 158.122 74.6448 158.36 74.7839C158.598 74.9206 158.876 74.9891 159.191 74.9891C159.397 74.9891 159.582 74.9604 159.748 74.9031C159.916 74.8434 160.06 74.7551 160.181 74.6381C160.303 74.5189 160.397 74.3712 160.463 74.1945L161.218 74.4064C161.139 74.6625 161.006 74.8875 160.818 75.0818C160.63 75.2738 160.398 75.4239 160.121 75.5321C159.846 75.638 159.536 75.691 159.191 75.691ZM163.267 72.526V75.585H162.486V70.4999H163.241V71.2945H163.308C163.426 71.0363 163.608 70.8288 163.85 70.6721C164.093 70.5132 164.407 70.4337 164.79 70.4337C165.135 70.4337 165.436 70.5044 165.695 70.6456C165.954 70.7847 166.154 70.9965 166.297 71.2812C166.441 71.5638 166.512 71.9213 166.512 72.3538V75.585H165.732V72.4068C165.732 72.0073 165.628 71.6962 165.42 71.4732C165.212 71.2481 164.928 71.1356 164.565 71.1356C164.316 71.1356 164.093 71.1896 163.896 71.2978C163.703 71.4059 163.549 71.5638 163.436 71.7712C163.324 71.9787 163.267 72.2303 163.267 72.526ZM170.006 75.691C169.53 75.691 169.12 75.5784 168.775 75.3532C168.43 75.1282 168.166 74.8181 167.981 74.4229C167.795 74.0279 167.703 73.5765 167.703 73.0689C167.703 72.5525 167.797 72.0968 167.988 71.7016C168.18 71.3045 168.447 70.9943 168.789 70.7713C169.133 70.5463 169.534 70.4337 169.993 70.4337C170.351 70.4337 170.674 70.4999 170.96 70.6324C171.248 70.7648 171.482 70.9502 171.666 71.1886C171.848 71.4269 171.963 71.705 172.006 72.0228H171.226C171.166 71.791 171.034 71.5859 170.828 71.407C170.625 71.226 170.351 71.1356 170.006 71.1356C169.703 71.1356 169.436 71.215 169.205 71.3739C168.978 71.5306 168.801 71.7524 168.673 72.0393C168.546 72.3241 168.483 72.6585 168.483 73.0425C168.483 73.4353 168.546 73.7774 168.669 74.0688C168.795 74.3601 168.971 74.5864 169.199 74.7474C169.429 74.9085 169.697 74.9891 170.006 74.9891C170.209 74.9891 170.395 74.9537 170.56 74.8832C170.726 74.8125 170.866 74.711 170.981 74.5786C171.095 74.4462 171.177 74.2873 171.226 74.1019H172.006C171.963 74.4021 171.854 74.6724 171.679 74.913C171.506 75.1514 171.279 75.3411 170.994 75.4823C170.711 75.6214 170.382 75.691 170.006 75.691ZM173.652 77.4919C173.52 77.4919 173.401 77.4809 173.298 77.4588C173.194 77.439 173.122 77.4191 173.083 77.3992L173.281 76.7107C173.471 76.7591 173.64 76.7769 173.784 76.7636C173.93 76.7503 174.059 76.6852 174.172 76.5683C174.287 76.4535 174.392 76.267 174.487 76.0088L174.633 75.6115L172.752 70.4999H173.599L175.003 74.552H175.057L176.46 70.4999H177.308L175.149 76.3266C175.053 76.5892 174.931 76.8067 174.788 76.9787C174.645 77.1532 174.478 77.2822 174.288 77.3661C174.1 77.45 173.889 77.4919 173.652 77.4919Z" fill="white"/>
</g>
</g>
<defs>
<linearGradient id="paint0_linear_2473_2809" x1="106.95" y1="0.741943" x2="106.95" y2="48.3156" gradientUnits="userSpaceOnUse">
<stop stop-color="white"/>
<stop offset="1" stop-color="white"/>
</linearGradient>
<clipPath id="clip0_2473_2809">
<rect width="188" height="79" fill="white"/>
</clipPath>
</defs>
</svg>
