<svg width="30" height="30" viewBox="0 0 30 30" fill="none" xmlns="http://www.w3.org/2000/svg">
<path fill-rule="evenodd" clip-rule="evenodd" d="M7.29167 0C5.3578 0 3.50313 0.768227 2.13568 2.13568C0.768227 3.50313 0 5.3578 0 7.29167V21.875C0 23.8089 0.768227 25.6635 2.13568 27.031C3.50313 28.3984 5.3578 29.1667 7.29167 29.1667H21.875C23.8089 29.1667 25.6635 28.3984 27.031 27.031C28.3984 25.6635 29.1667 23.8089 29.1667 21.875V7.29167C29.1667 5.3578 28.3984 3.50313 27.031 2.13568C25.6635 0.768227 23.8089 0 21.875 0H7.29167ZM20.0229 12.6642C20.1539 12.5244 20.2561 12.3601 20.3236 12.1808C20.3911 12.0015 20.4227 11.8107 20.4164 11.6192C20.4102 11.4277 20.3663 11.2394 20.2873 11.0648C20.2083 10.8903 20.0956 10.7331 19.9558 10.6021C19.816 10.4711 19.6518 10.3689 19.4725 10.3014C19.2932 10.2339 19.1024 10.2023 18.9109 10.2086C18.7194 10.2148 18.531 10.2587 18.3565 10.3377C18.182 10.4167 18.0247 10.5294 17.8937 10.6692L13.3977 15.4671L11.1767 13.494C10.8857 13.252 10.512 13.1327 10.1347 13.1612C9.75734 13.1897 9.40584 13.3637 9.15443 13.6465C8.90302 13.9294 8.7714 14.2988 8.78737 14.6769C8.80333 15.055 8.96564 15.4121 9.24 15.6727L12.5212 18.5894C12.8052 18.8416 13.1763 18.9731 13.5556 18.9559C13.935 18.9388 14.2927 18.7743 14.5527 18.4975L20.0229 12.6642Z" fill="#8A38F5"/>
</svg>
