<svg width="24" height="24" viewBox="0 0 24 24" fill="none" xmlns="http://www.w3.org/2000/svg">
<path d="M12.05 17.625L9.225 20.45C8.84167 20.8333 8.371 21.025 7.813 21.025C7.255 21.025 6.784 20.8333 6.4 20.45L3.575 17.625C3.19167 17.2416 3 16.7666 3 16.2C3 15.6333 3.19167 15.1583 3.575 14.775L6.375 11.975V8.69998C6.375 8.24998 6.57933 7.94164 6.988 7.77498C7.39667 7.60831 7.759 7.68331 8.075 7.99998L16.025 15.925C16.3417 16.2416 16.4127 16.6043 16.238 17.013C16.0633 17.4216 15.7507 17.6256 15.3 17.625H12.05ZM16.95 7.02498C15.9667 6.04164 14.8127 5.40831 13.488 5.12498C12.1633 4.84164 10.8673 4.93331 9.6 5.39998C9.35 5.48331 9.096 5.47931 8.838 5.38798C8.58 5.29664 8.409 5.12564 8.325 4.87498C8.225 4.59164 8.23333 4.32098 8.35 4.06298C8.46667 3.80498 8.66667 3.62564 8.95 3.52498C10.5667 2.92498 12.225 2.80398 13.925 3.16198C15.625 3.51998 17.1083 4.33264 18.375 5.59998C19.6417 6.86731 20.4543 8.36331 20.813 10.088C21.1717 11.8126 21.0423 13.4916 20.425 15.125C20.325 15.3916 20.1417 15.5793 19.875 15.688C19.6083 15.7966 19.3417 15.7923 19.075 15.675C18.825 15.575 18.654 15.4 18.562 15.15C18.47 14.9 18.4743 14.6416 18.575 14.375C19.0417 13.1083 19.1333 11.8126 18.85 10.488C18.5667 9.16331 17.9333 8.00898 16.95 7.02498ZM15.55 8.44998C15.9167 8.81664 16.204 9.22931 16.412 9.68798C16.62 10.1466 16.766 10.634 16.85 11.15C16.8833 11.4166 16.8083 11.6416 16.625 11.825C16.4417 12.0083 16.2083 12.1 15.925 12.1C15.6583 12.1 15.4293 12.0083 15.238 11.825C15.0467 11.6416 14.9173 11.4166 14.85 11.15C14.7833 10.9166 14.696 10.6916 14.588 10.475C14.48 10.2583 14.334 10.0583 14.15 9.87498C13.966 9.69164 13.7577 9.53764 13.525 9.41298C13.2923 9.28831 13.0507 9.19231 12.8 9.12498C12.5333 9.05831 12.3043 8.93331 12.113 8.74998C11.9217 8.56664 11.809 8.33331 11.775 8.04998C11.7417 7.78331 11.8127 7.54998 11.988 7.34998C12.1633 7.14998 12.3757 7.06664 12.625 7.09998C13.175 7.16664 13.7043 7.31264 14.213 7.53798C14.7217 7.76331 15.1673 8.06731 15.55 8.44998Z" fill="#5E23DC"/>
</svg>
