<svg width="24" height="24" viewBox="0 0 24 24" fill="none" xmlns="http://www.w3.org/2000/svg">
<path d="M22.74 21.967H18.87C18.8309 21.9687 18.792 21.9605 18.757 21.943C18.722 21.9255 18.6921 21.8993 18.67 21.867C18.6533 21.8345 18.6446 21.7985 18.6446 21.762C18.6446 21.7255 18.6533 21.6895 18.67 21.657L19.99 16.657C20.0255 16.5206 20.0277 16.3776 19.9963 16.2401C19.965 16.1026 19.9011 15.9746 19.81 15.867C19.7149 15.7528 19.5956 15.6613 19.4606 15.599C19.3257 15.5367 19.1786 15.5053 19.03 15.507H4.74C4.59141 15.5053 4.4443 15.5367 4.30937 15.599C4.17445 15.6613 4.0551 15.7528 3.96 15.867C3.8689 15.9746 3.80499 16.1026 3.77367 16.2401C3.74234 16.3776 3.74452 16.5206 3.78 16.657L5.1 21.657C5.11667 21.6895 5.12537 21.7255 5.12537 21.762C5.12537 21.7985 5.11667 21.8345 5.1 21.867C5.07545 21.9042 5.04066 21.9334 4.99983 21.9511C4.959 21.9689 4.9139 21.9744 4.87 21.967H1C0.734784 21.967 0.48043 22.0724 0.292893 22.2599C0.105357 22.4474 0 22.7018 0 22.967C0 23.2322 0.105357 23.4866 0.292893 23.6741C0.48043 23.8617 0.734784 23.967 1 23.967H22.74C23.0052 23.967 23.2596 23.8617 23.4471 23.6741C23.6346 23.4866 23.74 23.2322 23.74 22.967C23.74 22.7018 23.6346 22.4474 23.4471 22.2599C23.2596 22.0724 23.0052 21.967 22.74 21.967ZM11.87 17.967C12.1157 17.965 12.3564 18.0361 12.5616 18.1711C12.7668 18.3062 12.9273 18.4991 13.0227 18.7255C13.1181 18.9519 13.1441 19.2016 13.0974 19.4427C13.0507 19.6839 12.9334 19.9058 12.7604 20.0802C12.5873 20.2547 12.3664 20.3737 12.1256 20.4224C11.8848 20.4711 11.635 20.4471 11.4078 20.3536C11.1806 20.26 10.9864 20.1011 10.8497 19.897C10.713 19.6928 10.64 19.4527 10.64 19.207C10.6387 19.0447 10.6695 18.8836 10.7307 18.7332C10.792 18.5829 10.8824 18.4461 10.9967 18.3308C11.1111 18.2155 11.2471 18.124 11.397 18.0616C11.5469 17.9992 11.7076 17.967 11.87 17.967ZM6.15 13.537C6.15517 13.6661 6.21012 13.7882 6.30333 13.8777C6.39655 13.9672 6.52079 14.0171 6.65 14.017H17.09C17.2209 14.017 17.3466 13.9657 17.4401 13.8741C17.5336 13.7825 17.5874 13.6579 17.59 13.527C17.5898 12.4569 17.2899 11.4083 16.7243 10.4998C16.1588 9.59141 15.3501 8.85951 14.39 8.38702C14.3525 8.36627 14.3212 8.33584 14.2994 8.29891C14.2777 8.26198 14.2662 8.21989 14.2662 8.17702C14.2662 8.13415 14.2777 8.09206 14.2994 8.05513C14.3212 8.0182 14.3525 7.98778 14.39 7.96702C15.1484 7.42741 15.7157 6.6607 16.0099 5.77763C16.3041 4.89455 16.3101 3.94081 16.0268 3.05415C15.7436 2.16749 15.1859 1.39381 14.4342 0.844829C13.6825 0.295852 12.7758 0 11.845 0C10.9142 0 10.0075 0.295852 9.25582 0.844829C8.50415 1.39381 7.94642 2.16749 7.66318 3.05415C7.37994 3.94081 7.38586 4.89455 7.68008 5.77763C7.97429 6.6607 8.54157 7.42741 9.3 7.96702C9.33523 7.99392 9.36357 8.02879 9.3827 8.06877C9.40182 8.10876 9.41118 8.15271 9.41 8.19702C9.40482 8.23927 9.38934 8.2796 9.36493 8.31447C9.34052 8.34935 9.30792 8.37769 9.27 8.39702C8.32554 8.88151 7.53392 9.61841 6.98312 10.5258C6.43233 11.4332 6.14394 12.4756 6.15 13.537ZM11.87 9.63702C12.0663 9.63702 12.2545 9.71498 12.3933 9.85376C12.532 9.99254 12.61 10.1808 12.61 10.377V11.597C12.61 11.7933 12.532 11.9815 12.3933 12.1203C12.2545 12.2591 12.0663 12.337 11.87 12.337C11.6737 12.337 11.4855 12.2591 11.3467 12.1203C11.208 11.9815 11.13 11.7933 11.13 11.597V10.377C11.13 10.1808 11.208 9.99254 11.3467 9.85376C11.4855 9.71498 11.6737 9.63702 11.87 9.63702ZM9.52 3.63702C9.53283 3.6011 9.55404 3.56876 9.58186 3.54268C9.60969 3.51659 9.64333 3.49751 9.68 3.48702C9.71223 3.46952 9.74832 3.46035 9.785 3.46035C9.82168 3.46035 9.85777 3.46952 9.89 3.48702C10.7831 4.0683 11.8244 4.3807 12.89 4.38702C13.2696 4.38286 13.648 4.34268 14.02 4.26702C14.0355 4.25912 14.0526 4.255 14.07 4.255C14.0874 4.255 14.1045 4.25912 14.12 4.26702C14.1348 4.27936 14.1468 4.29461 14.1554 4.31181C14.164 4.32902 14.169 4.34781 14.17 4.36702C14.1716 4.71744 14.0967 5.06399 13.9506 5.38251C13.8045 5.70103 13.5907 5.98386 13.3241 6.21129C13.0575 6.43871 12.7445 6.60526 12.407 6.69933C12.0694 6.7934 11.7154 6.81272 11.3696 6.75594C11.0238 6.69917 10.6945 6.56767 10.4048 6.37061C10.115 6.17355 9.87169 5.91567 9.6918 5.61494C9.51191 5.31421 9.39977 4.97787 9.36319 4.62935C9.32661 4.28084 9.36647 3.92855 9.48 3.59702L9.52 3.63702Z" fill="#5E23DC"/>
</svg>
