<svg width="50" height="50" viewBox="0 0 50 50" fill="none" xmlns="http://www.w3.org/2000/svg">
<path fill-rule="evenodd" clip-rule="evenodd" d="M13.0633 4.39996C11.3758 4.62079 10.4841 5.02704 9.84662 5.64996C9.2112 6.27496 8.79661 7.14996 8.56953 8.80204C8.3362 10.5041 8.33203 12.7583 8.33203 15.9895V33.8437C9.15698 33.2805 10.0723 32.8626 11.0383 32.6083C12.1383 32.3187 13.4216 32.3187 15.3029 32.3208H41.6654V15.9916C41.6654 12.7583 41.6612 10.5041 41.4279 8.80204C41.2008 7.14996 40.7862 6.27496 40.1508 5.64996C39.5133 5.02704 38.6216 4.62079 36.9341 4.39996C35.1966 4.17079 32.8966 4.16663 29.5966 4.16663H20.4008C17.1008 4.16663 14.8008 4.17079 13.0633 4.39996ZM14.0799 13.7395C14.0799 12.8062 14.8508 12.05 15.8029 12.05H34.1945C34.6465 12.0461 35.0817 12.2215 35.4046 12.5378C35.7275 12.8541 35.9119 13.2855 35.9174 13.7375C35.9125 14.1898 35.7283 14.6217 35.4053 14.9385C35.0823 15.2552 34.6469 15.4309 34.1945 15.427H15.8029C15.3509 15.4309 14.9157 15.2555 14.5928 14.9392C14.2699 14.6229 14.0854 14.1915 14.0799 13.7395ZM15.8029 19.9333C15.3509 19.9294 14.9157 20.1048 14.5928 20.4211C14.2699 20.7374 14.0854 21.1688 14.0799 21.6208C14.0799 22.5541 14.8508 23.3104 15.8029 23.3104H27.2966C27.749 23.3148 28.1846 23.1397 28.508 22.8233C28.8314 22.5069 29.0161 22.0752 29.0216 21.6229C29.0167 21.1702 28.8322 20.7379 28.5088 20.4211C28.1853 20.1043 27.7493 19.9288 27.2966 19.9333H15.8029Z" fill="#5E23DC"/>
<path d="M15.5674 35.6979H41.6654C41.6591 38.052 41.6216 39.8104 41.4299 41.1979C41.2029 42.85 40.7883 43.725 40.1529 44.35C39.5154 44.9729 38.6237 45.3791 36.9362 45.6C35.1987 45.8291 32.8987 45.8333 29.5987 45.8333H20.4008C17.1008 45.8333 14.8008 45.8291 13.0633 45.602C11.3758 45.3791 10.4841 44.9729 9.84661 44.35C9.2112 43.725 8.79661 42.85 8.56953 41.1979C8.48411 40.5729 8.42786 39.8708 8.39453 39.0729C8.68008 38.2925 9.1511 37.5933 9.767 37.0355C10.3829 36.4776 11.1252 36.0779 11.9299 35.8708C12.5341 35.7125 13.3195 35.6979 15.5674 35.6979Z" fill="#5E23DC"/>
</svg>
