<svg width="36" height="36" viewBox="0 0 36 36" fill="none" xmlns="http://www.w3.org/2000/svg">
<path fill-rule="evenodd" clip-rule="evenodd" d="M18 6C13.8195 6 10.1055 7.8855 7.461 10.2195C6.135 11.391 5.04 12.705 4.269 14.016C3.51 15.3015 3 16.695 3 18C3 19.305 3.51 20.6985 4.269 21.984C5.04 23.2935 6.1335 24.609 7.461 25.7805C10.1055 28.1145 13.821 30 18 30C22.1805 30 25.8945 28.1145 28.539 25.7805C29.8665 24.609 30.96 23.2935 31.731 21.984C32.49 20.6985 33 19.305 33 18C33 16.695 32.49 15.3015 31.731 14.016C30.96 12.7065 29.8665 11.391 28.539 10.2195C25.8945 7.8855 22.179 6 18 6ZM21 18C21.54 18 22.0455 17.8575 22.4835 17.6085C22.5634 18.5283 22.3585 19.4504 21.8965 20.2498C21.4346 21.0492 20.7379 21.6871 19.901 22.077C19.0641 22.467 18.1276 22.5901 17.2183 22.4296C16.3091 22.2692 15.4713 21.8329 14.8184 21.1801C14.1656 20.5272 13.7293 19.6894 13.5689 18.7802C13.4084 17.8709 13.5315 16.9344 13.9215 16.0975C14.3114 15.2606 14.9493 14.5639 15.7487 14.102C16.5481 13.64 17.4702 13.4351 18.39 13.515C18.1299 13.9715 17.9943 14.4884 17.9967 15.0138C17.9991 15.5392 18.1395 16.0548 18.4038 16.5089C18.668 16.963 19.047 17.3398 19.5026 17.6015C19.9582 17.8632 20.4746 18.0006 21 18Z" fill="white"/>
</svg>
