<svg width="356" height="246" viewBox="0 0 356 246" fill="none" xmlns="http://www.w3.org/2000/svg">
<rect width="356" height="246" rx="16" fill="url(#paint0_linear_2864_1917)"/>
<g filter="url(#filter0_d_2864_1917)">
<path d="M56.4648 57H52.3398L51.1445 53.2617H45.168L43.9844 57H39.8828L46 40.1953H50.4883L56.4648 57ZM50.2773 50.3555L48.4727 44.707C48.3398 44.2852 48.2461 43.7812 48.1914 43.1953H48.0977C48.0586 43.6875 47.9609 44.1758 47.8047 44.6602L45.9766 50.3555H50.2773ZM61.9023 57H58.1992V39.2344H61.9023V57ZM68.7227 57H65.0195V39.2344H68.7227V57ZM82.6211 51.2109V57H78.8359V40.1953H84.7656C89 40.1953 91.1172 41.9805 91.1172 45.5508C91.1172 47.2383 90.5078 48.6055 89.2891 49.6523C88.0781 50.6914 86.457 51.2109 84.4258 51.2109H82.6211ZM82.6211 43.1016V48.3398H84.1094C86.125 48.3398 87.1328 47.457 87.1328 45.6914C87.1328 43.9648 86.125 43.1016 84.1094 43.1016H82.6211ZM101.043 48.3398C100.598 48.0977 100.078 47.9766 99.4844 47.9766C98.6797 47.9766 98.0508 48.2734 97.5977 48.8672C97.1445 49.4531 96.918 50.2539 96.918 51.2695V57H93.2148V45H96.918V47.2266H96.9648C97.5508 45.6016 98.6055 44.7891 100.129 44.7891C100.52 44.7891 100.824 44.8359 101.043 44.9297V48.3398ZM108.402 57.293C106.402 57.293 104.828 56.7344 103.68 55.6172C102.539 54.4922 101.969 52.9688 101.969 51.0469C101.969 49.0625 102.562 47.5117 103.75 46.3945C104.938 45.2695 106.543 44.707 108.566 44.707C110.559 44.707 112.121 45.2695 113.254 46.3945C114.387 47.5117 114.953 48.9922 114.953 50.8359C114.953 52.8281 114.367 54.4023 113.195 55.5586C112.031 56.7148 110.434 57.293 108.402 57.293ZM108.496 47.543C107.621 47.543 106.941 47.8438 106.457 48.4453C105.973 49.0469 105.73 49.8984 105.73 51C105.73 53.3047 106.66 54.457 108.52 54.457C110.293 54.457 111.18 53.2734 111.18 50.9062C111.18 48.6641 110.285 47.543 108.496 47.543ZM121.105 55.6055H121.059V62.5195H117.355V45H121.059V46.8047H121.105C122.02 45.4062 123.305 44.707 124.961 44.707C126.516 44.707 127.715 45.2422 128.559 46.3125C129.41 47.375 129.836 48.8242 129.836 50.6602C129.836 52.6602 129.34 54.2656 128.348 55.4766C127.363 56.6875 126.051 57.293 124.41 57.293C122.965 57.293 121.863 56.7305 121.105 55.6055ZM121 50.6836V51.6445C121 52.4727 121.219 53.1484 121.656 53.6719C122.094 54.1953 122.668 54.457 123.379 54.457C124.223 54.457 124.875 54.1328 125.336 53.4844C125.805 52.8281 126.039 51.9023 126.039 50.707C126.039 48.5977 125.219 47.543 123.578 47.543C122.82 47.543 122.199 47.832 121.715 48.4102C121.238 48.9805 121 49.7383 121 50.6836ZM143.02 52.0547H135.191C135.316 53.7969 136.414 54.668 138.484 54.668C139.805 54.668 140.965 54.3555 141.965 53.7305V56.4023C140.855 56.9961 139.414 57.293 137.641 57.293C135.703 57.293 134.199 56.7578 133.129 55.6875C132.059 54.6094 131.523 53.1094 131.523 51.1875C131.523 49.1953 132.102 47.6172 133.258 46.4531C134.414 45.2891 135.836 44.707 137.523 44.707C139.273 44.707 140.625 45.2266 141.578 46.2656C142.539 47.3047 143.02 48.7148 143.02 50.4961V52.0547ZM139.586 49.7812C139.586 48.0625 138.891 47.2031 137.5 47.2031C136.906 47.2031 136.391 47.4492 135.953 47.9414C135.523 48.4336 135.262 49.0469 135.168 49.7812H139.586ZM153.051 48.3398C152.605 48.0977 152.086 47.9766 151.492 47.9766C150.688 47.9766 150.059 48.2734 149.605 48.8672C149.152 49.4531 148.926 50.2539 148.926 51.2695V57H145.223V45H148.926V47.2266H148.973C149.559 45.6016 150.613 44.7891 152.137 44.7891C152.527 44.7891 152.832 44.8359 153.051 44.9297V48.3398ZM162.742 56.8594C162.195 57.1484 161.371 57.293 160.27 57.293C157.66 57.293 156.355 55.9375 156.355 53.2266V47.7305H154.41V45H156.355V42.4102L160.047 41.3555V45H162.742V47.7305H160.047V52.582C160.047 53.832 160.543 54.457 161.535 54.457C161.926 54.457 162.328 54.3438 162.742 54.1172V56.8594ZM176.266 45L171.391 57.9609C170.219 61.0781 168.453 62.6367 166.094 62.6367C165.195 62.6367 164.457 62.5352 163.879 62.332V59.3789C164.371 59.668 164.906 59.8125 165.484 59.8125C166.438 59.8125 167.102 59.3633 167.477 58.4648L168.109 56.9766L163.234 45H167.336L169.574 52.3008C169.715 52.7539 169.824 53.2891 169.902 53.9062H169.949C170.02 53.4531 170.148 52.9258 170.336 52.3242L172.598 45H176.266ZM183.977 56.3555V52.6055C184.656 53.1758 185.395 53.6055 186.191 53.8945C186.988 54.1758 187.793 54.3164 188.605 54.3164C189.082 54.3164 189.496 54.2734 189.848 54.1875C190.207 54.1016 190.504 53.9844 190.738 53.8359C190.98 53.6797 191.16 53.5 191.277 53.2969C191.395 53.0859 191.453 52.8594 191.453 52.6172C191.453 52.2891 191.359 51.9961 191.172 51.7383C190.984 51.4805 190.727 51.2422 190.398 51.0234C190.078 50.8047 189.695 50.5938 189.25 50.3906C188.805 50.1875 188.324 49.9805 187.809 49.7695C186.496 49.2227 185.516 48.5547 184.867 47.7656C184.227 46.9766 183.906 46.0234 183.906 44.9062C183.906 44.0312 184.082 43.2812 184.434 42.6562C184.785 42.0234 185.262 41.5039 185.863 41.0977C186.473 40.6914 187.176 40.3945 187.973 40.207C188.77 40.0117 189.613 39.9141 190.504 39.9141C191.379 39.9141 192.152 39.9688 192.824 40.0781C193.504 40.1797 194.129 40.3398 194.699 40.5586V44.0625C194.418 43.8672 194.109 43.6953 193.773 43.5469C193.445 43.3984 193.105 43.2773 192.754 43.1836C192.402 43.082 192.051 43.0078 191.699 42.9609C191.355 42.9141 191.027 42.8906 190.715 42.8906C190.285 42.8906 189.895 42.9336 189.543 43.0195C189.191 43.0977 188.895 43.2109 188.652 43.3594C188.41 43.5078 188.223 43.6875 188.09 43.8984C187.957 44.1016 187.891 44.332 187.891 44.5898C187.891 44.8711 187.965 45.125 188.113 45.3516C188.262 45.5703 188.473 45.7812 188.746 45.9844C189.02 46.1797 189.352 46.375 189.742 46.5703C190.133 46.7578 190.574 46.9531 191.066 47.1562C191.738 47.4375 192.34 47.7383 192.871 48.0586C193.41 48.3711 193.871 48.7266 194.254 49.125C194.637 49.5234 194.93 49.9805 195.133 50.4961C195.336 51.0039 195.438 51.5977 195.438 52.2773C195.438 53.2148 195.258 54.0039 194.898 54.6445C194.547 55.2773 194.066 55.793 193.457 56.1914C192.848 56.582 192.137 56.8633 191.324 57.0352C190.52 57.207 189.668 57.293 188.77 57.293C187.848 57.293 186.969 57.2148 186.133 57.0586C185.305 56.9023 184.586 56.668 183.977 56.3555ZM203.559 57.293C201.559 57.293 199.984 56.7344 198.836 55.6172C197.695 54.4922 197.125 52.9688 197.125 51.0469C197.125 49.0625 197.719 47.5117 198.906 46.3945C200.094 45.2695 201.699 44.707 203.723 44.707C205.715 44.707 207.277 45.2695 208.41 46.3945C209.543 47.5117 210.109 48.9922 210.109 50.8359C210.109 52.8281 209.523 54.4023 208.352 55.5586C207.188 56.7148 205.59 57.293 203.559 57.293ZM203.652 47.543C202.777 47.543 202.098 47.8438 201.613 48.4453C201.129 49.0469 200.887 49.8984 200.887 51C200.887 53.3047 201.816 54.457 203.676 54.457C205.449 54.457 206.336 53.2734 206.336 50.9062C206.336 48.6641 205.441 47.543 203.652 47.543ZM216.215 57H212.512V39.2344H216.215V57ZM230.734 57H227.043V55.1719H226.984C226.07 56.5859 224.848 57.293 223.316 57.293C220.535 57.293 219.145 55.6094 219.145 52.2422V45H222.836V51.9141C222.836 53.6094 223.508 54.457 224.852 54.457C225.516 54.457 226.047 54.2266 226.445 53.7656C226.844 53.2969 227.043 52.6641 227.043 51.8672V45H230.734V57ZM241.117 56.8594C240.57 57.1484 239.746 57.293 238.645 57.293C236.035 57.293 234.73 55.9375 234.73 53.2266V47.7305H232.785V45H234.73V42.4102L238.422 41.3555V45H241.117V47.7305H238.422V52.582C238.422 53.832 238.918 54.457 239.91 54.457C240.301 54.457 240.703 54.3438 241.117 54.1172V56.8594ZM245.09 43.1016C244.465 43.1016 243.953 42.918 243.555 42.5508C243.156 42.1758 242.957 41.7188 242.957 41.1797C242.957 40.625 243.156 40.1719 243.555 39.8203C243.953 39.4688 244.465 39.293 245.09 39.293C245.723 39.293 246.234 39.4688 246.625 39.8203C247.023 40.1719 247.223 40.625 247.223 41.1797C247.223 41.7422 247.023 42.2031 246.625 42.5625C246.234 42.9219 245.723 43.1016 245.09 43.1016ZM246.918 57H243.215V45H246.918V57ZM255.754 57.293C253.754 57.293 252.18 56.7344 251.031 55.6172C249.891 54.4922 249.32 52.9688 249.32 51.0469C249.32 49.0625 249.914 47.5117 251.102 46.3945C252.289 45.2695 253.895 44.707 255.918 44.707C257.91 44.707 259.473 45.2695 260.605 46.3945C261.738 47.5117 262.305 48.9922 262.305 50.8359C262.305 52.8281 261.719 54.4023 260.547 55.5586C259.383 56.7148 257.785 57.293 255.754 57.293ZM255.848 47.543C254.973 47.543 254.293 47.8438 253.809 48.4453C253.324 49.0469 253.082 49.8984 253.082 51C253.082 53.3047 254.012 54.457 255.871 54.457C257.645 54.457 258.531 53.2734 258.531 50.9062C258.531 48.6641 257.637 47.543 255.848 47.543ZM276.297 57H272.605V50.332C272.605 48.4727 271.941 47.543 270.613 47.543C269.973 47.543 269.445 47.7891 269.031 48.2812C268.617 48.7734 268.41 49.3984 268.41 50.1562V57H264.707V45H268.41V46.8984H268.457C269.34 45.4375 270.625 44.707 272.312 44.707C274.969 44.707 276.297 46.3555 276.297 49.6523V57ZM278.453 56.6836V53.6836C279.062 54.0508 279.668 54.3242 280.27 54.5039C280.879 54.6836 281.453 54.7734 281.992 54.7734C282.648 54.7734 283.164 54.6836 283.539 54.5039C283.922 54.3242 284.113 54.0508 284.113 53.6836C284.113 53.4492 284.027 53.2539 283.855 53.0977C283.684 52.9414 283.461 52.8047 283.188 52.6875C282.922 52.5703 282.629 52.4648 282.309 52.3711C281.988 52.2773 281.68 52.1719 281.383 52.0547C280.906 51.875 280.484 51.6836 280.117 51.4805C279.758 51.2695 279.453 51.0273 279.203 50.7539C278.961 50.4805 278.773 50.1641 278.641 49.8047C278.516 49.4453 278.453 49.0195 278.453 48.5273C278.453 47.8555 278.598 47.2773 278.887 46.793C279.184 46.3086 279.574 45.9141 280.059 45.6094C280.551 45.2969 281.109 45.0703 281.734 44.9297C282.367 44.7812 283.023 44.707 283.703 44.707C284.234 44.707 284.773 44.75 285.32 44.8359C285.867 44.9141 286.406 45.0312 286.938 45.1875V48.0469C286.469 47.7734 285.965 47.5703 285.426 47.4375C284.895 47.2969 284.371 47.2266 283.855 47.2266C283.613 47.2266 283.383 47.25 283.164 47.2969C282.953 47.3359 282.766 47.3984 282.602 47.4844C282.438 47.5625 282.309 47.668 282.215 47.8008C282.121 47.9258 282.074 48.0703 282.074 48.2344C282.074 48.4531 282.145 48.6406 282.285 48.7969C282.426 48.9531 282.609 49.0898 282.836 49.207C283.062 49.3164 283.312 49.418 283.586 49.5117C283.867 49.5977 284.145 49.6875 284.418 49.7812C284.91 49.9531 285.355 50.1406 285.754 50.3438C286.152 50.5469 286.492 50.7852 286.773 51.0586C287.062 51.332 287.281 51.6523 287.43 52.0195C287.586 52.3867 287.664 52.8242 287.664 53.332C287.664 54.043 287.508 54.6523 287.195 55.1602C286.891 55.6602 286.48 56.0703 285.965 56.3906C285.457 56.7031 284.867 56.9297 284.195 57.0703C283.531 57.2188 282.84 57.293 282.121 57.293C280.801 57.293 279.578 57.0898 278.453 56.6836ZM298.316 43.1016C297.691 43.1016 297.18 42.918 296.781 42.5508C296.383 42.1758 296.184 41.7188 296.184 41.1797C296.184 40.625 296.383 40.1719 296.781 39.8203C297.18 39.4688 297.691 39.293 298.316 39.293C298.949 39.293 299.461 39.4688 299.852 39.8203C300.25 40.1719 300.449 40.625 300.449 41.1797C300.449 41.7422 300.25 42.2031 299.852 42.5625C299.461 42.9219 298.949 43.1016 298.316 43.1016ZM300.145 57H296.441V45H300.145V57ZM314.852 57H311.16V50.332C311.16 48.4727 310.496 47.543 309.168 47.543C308.527 47.543 308 47.7891 307.586 48.2812C307.172 48.7734 306.965 49.3984 306.965 50.1562V57H303.262V45H306.965V46.8984H307.012C307.895 45.4375 309.18 44.707 310.867 44.707C313.523 44.707 314.852 46.3555 314.852 49.6523V57ZM133.598 89.293C131.191 89.293 129.23 88.5117 127.715 86.9492C126.199 85.3789 125.441 83.3359 125.441 80.8203C125.441 78.1641 126.211 76.0156 127.75 74.375C129.289 72.7344 131.328 71.9141 133.867 71.9141C136.266 71.9141 138.203 72.6992 139.68 74.2695C141.164 75.8398 141.906 77.9102 141.906 80.4805C141.906 83.1211 141.137 85.25 139.598 86.8672C138.066 88.4844 136.066 89.293 133.598 89.293ZM133.762 75.1719C132.434 75.1719 131.379 75.6719 130.598 76.6719C129.816 77.6641 129.426 78.9805 129.426 80.6211C129.426 82.2852 129.816 83.6016 130.598 84.5703C131.379 85.5391 132.402 86.0234 133.668 86.0234C134.973 86.0234 136.008 85.5547 136.773 84.6172C137.539 83.6719 137.922 82.3633 137.922 80.6914C137.922 78.9492 137.551 77.5938 136.809 76.625C136.066 75.6562 135.051 75.1719 133.762 75.1719ZM155.934 89H152.242V82.332C152.242 80.4727 151.578 79.543 150.25 79.543C149.609 79.543 149.082 79.7891 148.668 80.2812C148.254 80.7734 148.047 81.3984 148.047 82.1562V89H144.344V77H148.047V78.8984H148.094C148.977 77.4375 150.262 76.707 151.949 76.707C154.605 76.707 155.934 78.3555 155.934 81.6523V89ZM169.656 84.0547H161.828C161.953 85.7969 163.051 86.668 165.121 86.668C166.441 86.668 167.602 86.3555 168.602 85.7305V88.4023C167.492 88.9961 166.051 89.293 164.277 89.293C162.34 89.293 160.836 88.7578 159.766 87.6875C158.695 86.6094 158.16 85.1094 158.16 83.1875C158.16 81.1953 158.738 79.6172 159.895 78.4531C161.051 77.2891 162.473 76.707 164.16 76.707C165.91 76.707 167.262 77.2266 168.215 78.2656C169.176 79.3047 169.656 80.7148 169.656 82.4961V84.0547ZM166.223 81.7812C166.223 80.0625 165.527 79.2031 164.137 79.2031C163.543 79.2031 163.027 79.4492 162.59 79.9414C162.16 80.4336 161.898 81.0469 161.805 81.7812H166.223ZM193.633 89H189.508L188.312 85.2617H182.336L181.152 89H177.051L183.168 72.1953H187.656L193.633 89ZM187.445 82.3555L185.641 76.707C185.508 76.2852 185.414 75.7812 185.359 75.1953H185.266C185.227 75.6875 185.129 76.1758 184.973 76.6602L183.145 82.3555H187.445ZM199.117 87.6055H199.07V94.5195H195.367V77H199.07V78.8047H199.117C200.031 77.4062 201.316 76.707 202.973 76.707C204.527 76.707 205.727 77.2422 206.57 78.3125C207.422 79.375 207.848 80.8242 207.848 82.6602C207.848 84.6602 207.352 86.2656 206.359 87.4766C205.375 88.6875 204.062 89.293 202.422 89.293C200.977 89.293 199.875 88.7305 199.117 87.6055ZM199.012 82.6836V83.6445C199.012 84.4727 199.23 85.1484 199.668 85.6719C200.105 86.1953 200.68 86.457 201.391 86.457C202.234 86.457 202.887 86.1328 203.348 85.4844C203.816 84.8281 204.051 83.9023 204.051 82.707C204.051 80.5977 203.23 79.543 201.59 79.543C200.832 79.543 200.211 79.832 199.727 80.4102C199.25 80.9805 199.012 81.7383 199.012 82.6836ZM214 87.6055H213.953V94.5195H210.25V77H213.953V78.8047H214C214.914 77.4062 216.199 76.707 217.855 76.707C219.41 76.707 220.609 77.2422 221.453 78.3125C222.305 79.375 222.73 80.8242 222.73 82.6602C222.73 84.6602 222.234 86.2656 221.242 87.4766C220.258 88.6875 218.945 89.293 217.305 89.293C215.859 89.293 214.758 88.7305 214 87.6055ZM213.895 82.6836V83.6445C213.895 84.4727 214.113 85.1484 214.551 85.6719C214.988 86.1953 215.562 86.457 216.273 86.457C217.117 86.457 217.77 86.1328 218.23 85.4844C218.699 84.8281 218.934 83.9023 218.934 82.707C218.934 80.5977 218.113 79.543 216.473 79.543C215.715 79.543 215.094 79.832 214.609 80.4102C214.133 80.9805 213.895 81.7383 213.895 82.6836ZM229.434 72.1953L228.977 83.7734H225.977L225.543 72.1953H229.434ZM227.512 89.2695C226.887 89.2695 226.371 89.082 225.965 88.707C225.559 88.3242 225.355 87.8633 225.355 87.3242C225.355 86.7617 225.559 86.3008 225.965 85.9414C226.379 85.582 226.895 85.4023 227.512 85.4023C228.137 85.4023 228.648 85.5859 229.047 85.9531C229.445 86.3125 229.645 86.7695 229.645 87.3242C229.645 87.8867 229.445 88.3516 229.047 88.7188C228.656 89.0859 228.145 89.2695 227.512 89.2695Z" fill="white"/>
</g>
<path d="M98.377 121V110.497H101.365C102.273 110.497 102.994 110.719 103.526 111.164C104.058 111.608 104.324 112.187 104.324 112.899C104.324 113.495 104.163 114.013 103.841 114.452C103.519 114.892 103.074 115.204 102.508 115.39V115.419C103.216 115.502 103.782 115.771 104.207 116.225C104.632 116.674 104.844 117.26 104.844 117.982C104.844 118.881 104.522 119.608 103.877 120.165C103.233 120.722 102.42 121 101.438 121H98.377ZM99.6074 111.61V115.001H100.867C101.541 115.001 102.071 114.84 102.457 114.518C102.842 114.191 103.035 113.732 103.035 113.141C103.035 112.121 102.364 111.61 101.021 111.61H99.6074ZM99.6074 116.107V119.887H101.277C102 119.887 102.559 119.716 102.955 119.374C103.355 119.032 103.555 118.563 103.555 117.968C103.555 116.728 102.71 116.107 101.021 116.107H99.6074ZM112.879 121H111.678V119.813H111.648C111.15 120.722 110.379 121.176 109.334 121.176C107.547 121.176 106.653 120.111 106.653 117.982V113.5H107.847V117.792C107.847 119.374 108.453 120.165 109.664 120.165C110.25 120.165 110.73 119.95 111.106 119.521C111.487 119.086 111.678 118.52 111.678 117.821V113.5H112.879V121ZM121.28 113.5L117.83 122.201C117.215 123.754 116.351 124.53 115.237 124.53C114.925 124.53 114.664 124.499 114.454 124.435V123.358C114.712 123.446 114.949 123.49 115.164 123.49C115.77 123.49 116.224 123.129 116.526 122.406L117.127 120.985L114.197 113.5H115.53L117.559 119.271C117.583 119.345 117.635 119.535 117.713 119.843H117.757C117.781 119.726 117.83 119.54 117.903 119.286L120.035 113.5H121.28ZM126.632 115.525C126.632 115.075 126.702 114.715 126.842 114.445C126.992 114.165 127.192 113.965 127.442 113.845C127.702 113.725 127.987 113.665 128.297 113.665C128.607 113.665 128.887 113.725 129.137 113.845C129.387 113.965 129.587 114.165 129.737 114.445C129.887 114.715 129.962 115.075 129.962 115.525C129.962 115.965 129.887 116.325 129.737 116.605C129.587 116.875 129.387 117.075 129.137 117.205C128.887 117.325 128.607 117.385 128.297 117.385C127.987 117.385 127.702 117.325 127.442 117.205C127.192 117.075 126.992 116.875 126.842 116.605C126.702 116.325 126.632 115.965 126.632 115.525ZM136.119 120.575V119.125C136.285 119.271 136.482 119.403 136.712 119.521C136.946 119.638 137.19 119.738 137.444 119.821C137.703 119.899 137.962 119.96 138.221 120.004C138.479 120.048 138.719 120.07 138.938 120.07C139.695 120.07 140.259 119.931 140.63 119.652C141.006 119.369 141.194 118.964 141.194 118.437C141.194 118.153 141.131 117.907 141.004 117.697C140.882 117.487 140.711 117.296 140.491 117.125C140.271 116.95 140.01 116.784 139.708 116.627C139.41 116.466 139.087 116.298 138.741 116.122C138.375 115.937 138.033 115.749 137.715 115.558C137.398 115.368 137.122 115.158 136.888 114.928C136.653 114.699 136.468 114.44 136.331 114.152C136.199 113.859 136.133 113.517 136.133 113.126C136.133 112.648 136.238 112.233 136.448 111.881C136.658 111.525 136.934 111.232 137.276 111.002C137.618 110.773 138.006 110.602 138.44 110.49C138.88 110.377 139.327 110.321 139.781 110.321C140.816 110.321 141.57 110.446 142.044 110.695V112.079C141.424 111.649 140.628 111.435 139.656 111.435C139.388 111.435 139.119 111.464 138.851 111.522C138.582 111.576 138.343 111.667 138.133 111.793C137.923 111.92 137.752 112.084 137.62 112.284C137.488 112.484 137.422 112.729 137.422 113.017C137.422 113.285 137.471 113.517 137.569 113.712C137.671 113.908 137.82 114.086 138.016 114.247C138.211 114.408 138.448 114.564 138.726 114.716C139.009 114.867 139.334 115.033 139.7 115.214C140.076 115.399 140.433 115.595 140.77 115.8C141.106 116.005 141.402 116.232 141.656 116.481C141.91 116.73 142.11 117.006 142.256 117.309C142.408 117.611 142.483 117.958 142.483 118.349C142.483 118.866 142.381 119.306 142.176 119.667C141.976 120.023 141.702 120.314 141.355 120.539C141.014 120.763 140.618 120.924 140.169 121.022C139.72 121.125 139.246 121.176 138.748 121.176C138.582 121.176 138.377 121.161 138.133 121.132C137.889 121.107 137.64 121.068 137.386 121.015C137.132 120.966 136.89 120.905 136.661 120.832C136.436 120.753 136.255 120.668 136.119 120.575ZM150.445 117.55H145.149C145.169 118.385 145.394 119.03 145.823 119.484C146.253 119.938 146.844 120.165 147.596 120.165C148.44 120.165 149.217 119.887 149.925 119.33V120.458C149.266 120.937 148.394 121.176 147.31 121.176C146.25 121.176 145.418 120.836 144.812 120.158C144.207 119.474 143.904 118.515 143.904 117.279C143.904 116.112 144.234 115.163 144.893 114.43C145.557 113.693 146.38 113.324 147.361 113.324C148.343 113.324 149.102 113.642 149.639 114.276C150.176 114.911 150.445 115.792 150.445 116.92V117.55ZM149.214 116.532C149.209 115.839 149.041 115.299 148.709 114.914C148.382 114.528 147.925 114.335 147.339 114.335C146.773 114.335 146.292 114.538 145.896 114.943C145.501 115.348 145.257 115.878 145.164 116.532H149.214ZM153.47 121H152.269V109.896H153.47V121ZM157.103 121H155.901V109.896H157.103V121ZM163.59 115.525C163.59 115.075 163.66 114.715 163.8 114.445C163.95 114.165 164.15 113.965 164.4 113.845C164.66 113.725 164.945 113.665 165.255 113.665C165.565 113.665 165.845 113.725 166.095 113.845C166.345 113.965 166.545 114.165 166.695 114.445C166.845 114.715 166.92 115.075 166.92 115.525C166.92 115.965 166.845 116.325 166.695 116.605C166.545 116.875 166.345 117.075 166.095 117.205C165.845 117.325 165.565 117.385 165.255 117.385C164.945 117.385 164.66 117.325 164.4 117.205C164.15 117.075 163.95 116.875 163.8 116.605C163.66 116.325 163.59 115.965 163.59 115.525ZM181.097 121H179.632L177.874 118.056C177.713 117.782 177.557 117.55 177.405 117.36C177.254 117.165 177.098 117.006 176.937 116.884C176.78 116.762 176.609 116.674 176.424 116.62C176.243 116.562 176.038 116.532 175.809 116.532H174.798V121H173.567V110.497H176.702C177.161 110.497 177.583 110.556 177.969 110.673C178.36 110.785 178.697 110.958 178.98 111.193C179.268 111.427 179.493 111.72 179.654 112.072C179.815 112.418 179.896 112.826 179.896 113.295C179.896 113.661 179.839 113.998 179.727 114.306C179.62 114.608 179.463 114.879 179.258 115.119C179.058 115.358 178.814 115.563 178.526 115.734C178.243 115.9 177.923 116.029 177.566 116.122V116.151C177.742 116.229 177.894 116.32 178.021 116.422C178.152 116.52 178.277 116.637 178.394 116.774C178.511 116.911 178.626 117.067 178.738 117.243C178.855 117.414 178.985 117.614 179.126 117.843L181.097 121ZM174.798 111.61V115.419H176.468C176.775 115.419 177.059 115.373 177.317 115.28C177.581 115.187 177.808 115.055 177.999 114.884C178.189 114.708 178.338 114.496 178.445 114.247C178.553 113.993 178.606 113.71 178.606 113.397C178.606 112.836 178.423 112.399 178.057 112.086C177.696 111.769 177.171 111.61 176.482 111.61H174.798ZM187.989 117.55H182.693C182.713 118.385 182.938 119.03 183.367 119.484C183.797 119.938 184.388 120.165 185.14 120.165C185.984 120.165 186.761 119.887 187.469 119.33V120.458C186.81 120.937 185.938 121.176 184.854 121.176C183.794 121.176 182.962 120.836 182.356 120.158C181.751 119.474 181.448 118.515 181.448 117.279C181.448 116.112 181.778 115.163 182.437 114.43C183.101 113.693 183.924 113.324 184.905 113.324C185.887 113.324 186.646 113.642 187.183 114.276C187.72 114.911 187.989 115.792 187.989 116.92V117.55ZM186.758 116.532C186.753 115.839 186.585 115.299 186.253 114.914C185.926 114.528 185.469 114.335 184.883 114.335C184.317 114.335 183.836 114.538 183.44 114.943C183.045 115.348 182.801 115.878 182.708 116.532H186.758ZM196.038 121H194.837V116.723C194.837 115.131 194.256 114.335 193.094 114.335C192.493 114.335 191.995 114.562 191.6 115.016C191.209 115.465 191.014 116.034 191.014 116.723V121H189.812V113.5H191.014V114.745H191.043C191.609 113.798 192.43 113.324 193.504 113.324C194.324 113.324 194.952 113.59 195.386 114.123C195.821 114.65 196.038 115.414 196.038 116.415V121ZM201.788 120.927C201.504 121.083 201.131 121.161 200.667 121.161C199.354 121.161 198.697 120.429 198.697 118.964V114.525H197.408V113.5H198.697V111.669L199.898 111.281V113.5H201.788V114.525H199.898V118.751C199.898 119.254 199.983 119.613 200.154 119.828C200.325 120.043 200.608 120.15 201.004 120.15C201.307 120.15 201.568 120.067 201.788 119.901V120.927ZM207.447 115.525C207.447 115.075 207.517 114.715 207.657 114.445C207.807 114.165 208.007 113.965 208.257 113.845C208.517 113.725 208.802 113.665 209.112 113.665C209.422 113.665 209.702 113.725 209.952 113.845C210.202 113.965 210.402 114.165 210.552 114.445C210.702 114.715 210.777 115.075 210.777 115.525C210.777 115.965 210.702 116.325 210.552 116.605C210.402 116.875 210.202 117.075 209.952 117.205C209.702 117.325 209.422 117.385 209.112 117.385C208.802 117.385 208.517 117.325 208.257 117.205C208.007 117.075 207.807 116.875 207.657 116.605C207.517 116.325 207.447 115.965 207.447 115.525ZM224.954 121H223.489L221.731 118.056C221.57 117.782 221.414 117.55 221.263 117.36C221.111 117.165 220.955 117.006 220.794 116.884C220.638 116.762 220.467 116.674 220.281 116.62C220.101 116.562 219.896 116.532 219.666 116.532H218.655V121H217.425V110.497H220.56C221.019 110.497 221.441 110.556 221.827 110.673C222.217 110.785 222.554 110.958 222.837 111.193C223.125 111.427 223.35 111.72 223.511 112.072C223.672 112.418 223.753 112.826 223.753 113.295C223.753 113.661 223.697 113.998 223.584 114.306C223.477 114.608 223.321 114.879 223.116 115.119C222.916 115.358 222.671 115.563 222.383 115.734C222.1 115.9 221.78 116.029 221.424 116.122V116.151C221.6 116.229 221.751 116.32 221.878 116.422C222.01 116.52 222.134 116.637 222.251 116.774C222.369 116.911 222.483 117.067 222.596 117.243C222.713 117.414 222.842 117.614 222.984 117.843L224.954 121ZM218.655 111.61V115.419H220.325C220.633 115.419 220.916 115.373 221.175 115.28C221.438 115.187 221.666 115.055 221.856 114.884C222.046 114.708 222.195 114.496 222.303 114.247C222.41 113.993 222.464 113.71 222.464 113.397C222.464 112.836 222.281 112.399 221.915 112.086C221.553 111.769 221.028 111.61 220.34 111.61H218.655ZM231.846 117.55H226.551C226.57 118.385 226.795 119.03 227.225 119.484C227.654 119.938 228.245 120.165 228.997 120.165C229.842 120.165 230.618 119.887 231.326 119.33V120.458C230.667 120.937 229.795 121.176 228.711 121.176C227.652 121.176 226.819 120.836 226.214 120.158C225.608 119.474 225.306 118.515 225.306 117.279C225.306 116.112 225.635 115.163 226.294 114.43C226.958 113.693 227.781 113.324 228.763 113.324C229.744 113.324 230.503 113.642 231.041 114.276C231.578 114.911 231.846 115.792 231.846 116.92V117.55ZM230.616 116.532C230.611 115.839 230.442 115.299 230.11 114.914C229.783 114.528 229.327 114.335 228.741 114.335C228.174 114.335 227.693 114.538 227.298 114.943C226.902 115.348 226.658 115.878 226.565 116.532H230.616ZM233.216 120.729V119.44C233.87 119.923 234.59 120.165 235.376 120.165C236.431 120.165 236.958 119.813 236.958 119.11C236.958 118.91 236.912 118.742 236.819 118.605C236.731 118.463 236.609 118.339 236.453 118.231C236.302 118.124 236.121 118.029 235.911 117.946C235.706 117.858 235.484 117.768 235.245 117.675C234.913 117.543 234.62 117.411 234.366 117.279C234.117 117.143 233.907 116.991 233.736 116.825C233.57 116.654 233.443 116.461 233.355 116.247C233.272 116.032 233.23 115.78 233.23 115.492C233.23 115.141 233.311 114.831 233.472 114.562C233.633 114.289 233.848 114.062 234.117 113.881C234.385 113.695 234.69 113.556 235.032 113.463C235.379 113.371 235.735 113.324 236.102 113.324C236.751 113.324 237.332 113.437 237.845 113.661V114.877C237.293 114.516 236.658 114.335 235.94 114.335C235.716 114.335 235.513 114.362 235.333 114.416C235.152 114.464 234.996 114.535 234.864 114.628C234.737 114.721 234.637 114.833 234.563 114.965C234.495 115.092 234.461 115.233 234.461 115.39C234.461 115.585 234.495 115.749 234.563 115.88C234.637 116.012 234.742 116.129 234.878 116.232C235.015 116.334 235.181 116.427 235.376 116.51C235.572 116.593 235.794 116.684 236.043 116.781C236.375 116.908 236.673 117.04 236.937 117.177C237.2 117.309 237.425 117.46 237.61 117.631C237.796 117.797 237.938 117.99 238.035 118.209C238.138 118.429 238.189 118.69 238.189 118.993C238.189 119.364 238.106 119.687 237.94 119.96C237.779 120.233 237.562 120.46 237.288 120.641C237.015 120.822 236.7 120.956 236.343 121.044C235.987 121.132 235.613 121.176 235.223 121.176C234.451 121.176 233.782 121.027 233.216 120.729ZM245.411 121H244.209V119.828H244.18C243.658 120.727 242.889 121.176 241.873 121.176C241.126 121.176 240.54 120.978 240.115 120.583C239.695 120.187 239.485 119.662 239.485 119.008C239.485 117.606 240.311 116.791 241.961 116.562L244.209 116.247C244.209 114.972 243.694 114.335 242.664 114.335C241.761 114.335 240.945 114.643 240.218 115.258V114.027C240.955 113.559 241.805 113.324 242.767 113.324C244.529 113.324 245.411 114.257 245.411 116.122V121ZM244.209 117.206L242.4 117.455C241.844 117.533 241.424 117.672 241.141 117.873C240.857 118.068 240.716 118.417 240.716 118.92C240.716 119.286 240.845 119.586 241.104 119.821C241.368 120.05 241.717 120.165 242.151 120.165C242.747 120.165 243.238 119.958 243.624 119.542C244.014 119.123 244.209 118.593 244.209 117.953V117.206ZM248.875 121H247.674V109.896H248.875V121ZM257.334 117.55H252.039C252.059 118.385 252.283 119.03 252.713 119.484C253.143 119.938 253.733 120.165 254.485 120.165C255.33 120.165 256.106 119.887 256.814 119.33V120.458C256.155 120.937 255.284 121.176 254.2 121.176C253.14 121.176 252.308 120.836 251.702 120.158C251.097 119.474 250.794 118.515 250.794 117.279C250.794 116.112 251.124 115.163 251.783 114.43C252.447 113.693 253.27 113.324 254.251 113.324C255.232 113.324 255.992 113.642 256.529 114.276C257.066 114.911 257.334 115.792 257.334 116.92V117.55ZM256.104 116.532C256.099 115.839 255.931 115.299 255.599 114.914C255.271 114.528 254.815 114.335 254.229 114.335C253.663 114.335 253.182 114.538 252.786 114.943C252.391 115.348 252.146 115.878 252.054 116.532H256.104Z" fill="white"/>
<rect x="24" y="149" width="311" height="61" rx="30.5" fill="white"/>
<path d="M61.9219 187V170.195H67.875C73.8438 170.195 76.8281 172.926 76.8281 178.387C76.8281 181.004 76.0117 183.094 74.3789 184.656C72.7539 186.219 70.5859 187 67.875 187H61.9219ZM65.707 173.277V183.93H67.582C69.2227 183.93 70.5078 183.438 71.4375 182.453C72.375 181.469 72.8438 180.129 72.8438 178.434C72.8438 176.832 72.3789 175.574 71.4492 174.66C70.5273 173.738 69.2305 173.277 67.5586 173.277H65.707ZM84.9727 187.293C82.9727 187.293 81.3984 186.734 80.25 185.617C79.1094 184.492 78.5391 182.969 78.5391 181.047C78.5391 179.062 79.1328 177.512 80.3203 176.395C81.5078 175.27 83.1133 174.707 85.1367 174.707C87.1289 174.707 88.6914 175.27 89.8242 176.395C90.957 177.512 91.5234 178.992 91.5234 180.836C91.5234 182.828 90.9375 184.402 89.7656 185.559C88.6016 186.715 87.0039 187.293 84.9727 187.293ZM85.0664 177.543C84.1914 177.543 83.5117 177.844 83.0273 178.445C82.543 179.047 82.3008 179.898 82.3008 181C82.3008 183.305 83.2305 184.457 85.0898 184.457C86.8633 184.457 87.75 183.273 87.75 180.906C87.75 178.664 86.8555 177.543 85.0664 177.543ZM111.305 175L107.848 187H103.957L102.188 179.969C102.07 179.5 102.004 178.988 101.988 178.434H101.918C101.863 179.043 101.785 179.539 101.684 179.922L99.7852 187H95.9414L92.5547 175H96.3281L97.9805 182.828C98.0586 183.195 98.1172 183.641 98.1562 184.164H98.2266C98.2656 183.617 98.3359 183.156 98.4375 182.781L100.5 175H104.027L105.879 182.828C105.926 183.023 105.98 183.477 106.043 184.188H106.125C106.164 183.734 106.227 183.281 106.312 182.828L107.871 175H111.305ZM124.664 187H120.973V180.332C120.973 178.473 120.309 177.543 118.98 177.543C118.34 177.543 117.812 177.789 117.398 178.281C116.984 178.773 116.777 179.398 116.777 180.156V187H113.074V175H116.777V176.898H116.824C117.707 175.438 118.992 174.707 120.68 174.707C123.336 174.707 124.664 176.355 124.664 179.652V187ZM131.309 187H127.605V169.234H131.309V187ZM140.145 187.293C138.145 187.293 136.57 186.734 135.422 185.617C134.281 184.492 133.711 182.969 133.711 181.047C133.711 179.062 134.305 177.512 135.492 176.395C136.68 175.27 138.285 174.707 140.309 174.707C142.301 174.707 143.863 175.27 144.996 176.395C146.129 177.512 146.695 178.992 146.695 180.836C146.695 182.828 146.109 184.402 144.938 185.559C143.773 186.715 142.176 187.293 140.145 187.293ZM140.238 177.543C139.363 177.543 138.684 177.844 138.199 178.445C137.715 179.047 137.473 179.898 137.473 181C137.473 183.305 138.402 184.457 140.262 184.457C142.035 184.457 142.922 183.273 142.922 180.906C142.922 178.664 142.027 177.543 140.238 177.543ZM158.848 187H155.344V185.277H155.297C154.492 186.621 153.301 187.293 151.723 187.293C150.559 187.293 149.641 186.965 148.969 186.309C148.305 185.645 147.973 184.762 147.973 183.66C147.973 181.332 149.352 179.988 152.109 179.629L155.367 179.195C155.367 177.883 154.656 177.227 153.234 177.227C151.805 177.227 150.445 177.652 149.156 178.504V175.715C149.672 175.449 150.375 175.215 151.266 175.012C152.164 174.809 152.98 174.707 153.715 174.707C157.137 174.707 158.848 176.414 158.848 179.828V187ZM155.367 182.125V181.316L153.188 181.598C151.984 181.754 151.383 182.297 151.383 183.227C151.383 183.648 151.527 183.996 151.816 184.27C152.113 184.535 152.512 184.668 153.012 184.668C153.707 184.668 154.273 184.43 154.711 183.953C155.148 183.469 155.367 182.859 155.367 182.125ZM173.52 187H169.816V185.348H169.77C168.926 186.645 167.688 187.293 166.055 187.293C164.555 187.293 163.348 186.766 162.434 185.711C161.52 184.648 161.062 183.168 161.062 181.27C161.062 179.285 161.566 177.695 162.574 176.5C163.582 175.305 164.902 174.707 166.535 174.707C168.082 174.707 169.16 175.262 169.77 176.371H169.816V169.234H173.52V187ZM169.887 181.164V180.262C169.887 179.48 169.66 178.832 169.207 178.316C168.754 177.801 168.164 177.543 167.438 177.543C166.617 177.543 165.977 177.867 165.516 178.516C165.055 179.156 164.824 180.039 164.824 181.164C164.824 182.219 165.047 183.031 165.492 183.602C165.938 184.172 166.555 184.457 167.344 184.457C168.094 184.457 168.703 184.156 169.172 183.555C169.648 182.953 169.887 182.156 169.887 181.164ZM198.75 187H194.93L188.004 176.441C187.598 175.824 187.316 175.359 187.16 175.047H187.113C187.176 175.641 187.207 176.547 187.207 177.766V187H183.633V170.195H187.711L194.379 180.426C194.684 180.887 194.965 181.344 195.223 181.797H195.27C195.207 181.406 195.176 180.637 195.176 179.488V170.195H198.75V187ZM207.949 187.293C205.949 187.293 204.375 186.734 203.227 185.617C202.086 184.492 201.516 182.969 201.516 181.047C201.516 179.062 202.109 177.512 203.297 176.395C204.484 175.27 206.09 174.707 208.113 174.707C210.105 174.707 211.668 175.27 212.801 176.395C213.934 177.512 214.5 178.992 214.5 180.836C214.5 182.828 213.914 184.402 212.742 185.559C211.578 186.715 209.98 187.293 207.949 187.293ZM208.043 177.543C207.168 177.543 206.488 177.844 206.004 178.445C205.52 179.047 205.277 179.898 205.277 181C205.277 183.305 206.207 184.457 208.066 184.457C209.84 184.457 210.727 183.273 210.727 180.906C210.727 178.664 209.832 177.543 208.043 177.543ZM234.281 175L230.824 187H226.934L225.164 179.969C225.047 179.5 224.98 178.988 224.965 178.434H224.895C224.84 179.043 224.762 179.539 224.66 179.922L222.762 187H218.918L215.531 175H219.305L220.957 182.828C221.035 183.195 221.094 183.641 221.133 184.164H221.203C221.242 183.617 221.312 183.156 221.414 182.781L223.477 175H227.004L228.855 182.828C228.902 183.023 228.957 183.477 229.02 184.188H229.102C229.141 183.734 229.203 183.281 229.289 182.828L230.848 175H234.281Z" fill="#8A38F5"/>
<circle cx="304.822" cy="179.381" r="20.5279" fill="#8A38F5"/>
<g clip-path="url(#clip0_2864_1917)">
<path fill-rule="evenodd" clip-rule="evenodd" d="M307.105 178.946C307.22 179.061 307.285 179.218 307.285 179.381C307.285 179.545 307.22 179.701 307.105 179.817L303.621 183.301C303.564 183.359 303.496 183.406 303.421 183.439C303.346 183.471 303.265 183.488 303.184 183.489C303.102 183.489 303.021 183.474 302.945 183.443C302.869 183.412 302.801 183.366 302.743 183.308C302.685 183.25 302.639 183.182 302.608 183.106C302.577 183.03 302.562 182.949 302.562 182.867C302.563 182.786 302.58 182.705 302.612 182.63C302.645 182.554 302.692 182.487 302.75 182.43L305.799 179.381L302.75 176.333C302.638 176.217 302.576 176.061 302.578 175.9C302.579 175.738 302.644 175.584 302.758 175.47C302.872 175.355 303.027 175.291 303.188 175.289C303.349 175.288 303.505 175.35 303.621 175.462L307.105 178.946Z" fill="white"/>
</g>
<defs>
<filter id="filter0_d_2864_1917" x="31.2828" y="34.6344" width="292.169" height="72.4852" filterUnits="userSpaceOnUse" color-interpolation-filters="sRGB">
<feFlood flood-opacity="0" result="BackgroundImageFix"/>
<feColorMatrix in="SourceAlpha" type="matrix" values="0 0 0 0 0 0 0 0 0 0 0 0 0 0 0 0 0 0 127 0" result="hardAlpha"/>
<feOffset dy="4"/>
<feGaussianBlur stdDeviation="4.3"/>
<feComposite in2="hardAlpha" operator="out"/>
<feColorMatrix type="matrix" values="0 0 0 0 0 0 0 0 0 0 0 0 0 0 0 0 0 0 0.28 0"/>
<feBlend mode="normal" in2="BackgroundImageFix" result="effect1_dropShadow_2864_1917"/>
<feBlend mode="normal" in="SourceGraphic" in2="effect1_dropShadow_2864_1917" result="shape"/>
</filter>
<linearGradient id="paint0_linear_2864_1917" x1="0" y1="123" x2="356" y2="123" gradientUnits="userSpaceOnUse">
<stop stop-color="#331A53"/>
<stop offset="1" stop-color="#8A38F5"/>
</linearGradient>
<clipPath id="clip0_2864_1917">
<rect width="14.7801" height="14.7801" fill="white" transform="matrix(0 -1 1 0 297.432 186.771)"/>
</clipPath>
</defs>
</svg>
