<svg width="369" height="369" viewBox="0 0 369 369" fill="none" xmlns="http://www.w3.org/2000/svg">
<rect x="1" y="1" width="367" height="367" rx="183.5" fill="white" fill-opacity="0.13" stroke="white" stroke-width="2"/>
<rect x="178" y="178" width="12" height="12" rx="6" fill="white"/>
<g filter="url(#filter0_d_6921_7003)">
<rect x="178" y="178" width="12" height="12" rx="6" fill="white" fill-opacity="0.01" shape-rendering="crispEdges"/>
</g>
<rect x="268.5" y="218.5" width="57.06" height="33" rx="16.5" fill="white"/>
<rect x="268.5" y="218.5" width="57.06" height="33" rx="16.5" stroke="#E2E8F0"/>
<g filter="url(#filter1_dd_6921_7003)">
<rect x="268" y="218" width="58.06" height="34" rx="17" fill="white" fill-opacity="0.01" shape-rendering="crispEdges"/>
</g>
<path d="M287.439 232.43L287.124 233.605H281.422L281.734 232.43H287.439ZM284.494 239L281.568 235.507L281.564 234.465H283.016C283.345 234.465 283.619 234.406 283.838 234.287C284.057 234.169 284.222 234.005 284.334 233.797C284.445 233.589 284.501 233.352 284.501 233.086C284.501 232.686 284.385 232.361 284.153 232.111C283.922 231.862 283.542 231.737 283.016 231.737H281.422L281.775 230.27H283.016C283.738 230.27 284.34 230.379 284.821 230.596C285.302 230.814 285.663 231.124 285.904 231.524C286.146 231.925 286.266 232.402 286.266 232.954C286.266 233.443 286.184 233.872 286.021 234.242C285.857 234.612 285.601 234.918 285.253 235.161C284.906 235.403 284.454 235.578 283.898 235.685L283.834 235.711L286.45 238.923V239H284.494ZM287.445 230.27L287.124 231.464L282.443 231.46L282.761 230.27H287.445ZM288.445 237.449V236.038L292.1 230.27H293.309V232.24H292.589L290.251 235.935V236.006H295.432V237.449H288.445ZM292.625 239V237.022L292.659 236.388V230.27H294.343V239H292.625ZM299.653 239.117C299.055 239.117 298.522 239.007 298.054 238.787C297.587 238.567 297.217 238.263 296.946 237.877C296.674 237.49 296.531 237.048 296.518 236.55H298.261C298.272 236.776 298.34 236.976 298.468 237.15C298.595 237.323 298.762 237.458 298.969 237.554C299.176 237.651 299.404 237.699 299.653 237.699C299.945 237.699 300.204 237.633 300.429 237.502C300.653 237.37 300.83 237.188 300.957 236.953C301.085 236.719 301.149 236.449 301.149 236.143C301.149 235.831 301.083 235.556 300.952 235.317C300.821 235.078 300.641 234.892 300.412 234.758C300.184 234.624 299.92 234.557 299.62 234.557C299.359 234.557 299.109 234.609 298.868 234.714C298.628 234.819 298.441 234.959 298.307 235.134L296.7 234.853L297.121 230.27H302.405V231.745H298.603L298.377 233.955H298.424C298.58 233.743 298.812 233.569 299.119 233.432C299.426 233.295 299.768 233.227 300.145 233.227C300.537 233.227 300.9 233.297 301.234 233.437C301.567 233.578 301.858 233.777 302.105 234.034C302.351 234.291 302.543 234.595 302.68 234.945C302.816 235.295 302.884 235.679 302.884 236.097C302.884 236.683 302.748 237.203 302.476 237.658C302.204 238.112 301.826 238.469 301.341 238.728C300.856 238.988 300.293 239.117 299.653 239.117ZM307.066 239V230.27H308.857V237.516H312.621V239H307.066Z" fill="#7C3AED"/>
<mask id="path-7-inside-1_6921_7003" fill="white">
<path d="M291.03 251H303.03V259H291.03V251Z"/>
</mask>
<g clip-path="url(#paint0_diamond_6921_7003_clip_path)" data-figma-skip-parse="true" mask="url(#path-7-inside-1_6921_7003)"><g transform="matrix(0.006 0 0 0.008 297.03 251)"><rect x="0" y="0" width="1166.67" height="1125" fill="url(#paint0_diamond_6921_7003)" opacity="1" shape-rendering="crispEdges"/><rect x="0" y="0" width="1166.67" height="1125" transform="scale(1 -1)" fill="url(#paint0_diamond_6921_7003)" opacity="1" shape-rendering="crispEdges"/><rect x="0" y="0" width="1166.67" height="1125" transform="scale(-1 1)" fill="url(#paint0_diamond_6921_7003)" opacity="1" shape-rendering="crispEdges"/><rect x="0" y="0" width="1166.67" height="1125" transform="scale(-1)" fill="url(#paint0_diamond_6921_7003)" opacity="1" shape-rendering="crispEdges"/></g></g><path d="M291.03 251V243H285.03V251H291.03ZM303.03 251H309.03V243H303.03V251ZM291.03 251V259H303.03V251V243H291.03V251ZM303.03 251H297.03V259H303.03H309.03V251H303.03ZM291.03 259H297.03V251H291.03H285.03V259H291.03Z" data-figma-gradient-fill="{&#34;type&#34;:&#34;GRADIENT_DIAMOND&#34;,&#34;stops&#34;:[{&#34;color&#34;:{&#34;r&#34;:1.0,&#34;g&#34;:1.0,&#34;b&#34;:1.0,&#34;a&#34;:1.0},&#34;position&#34;:0.99999988079071045},{&#34;color&#34;:{&#34;r&#34;:0.0,&#34;g&#34;:0.0,&#34;b&#34;:0.0,&#34;a&#34;:0.0},&#34;position&#34;:1.0}],&#34;stopsVar&#34;:[],&#34;transform&#34;:{&#34;m00&#34;:12.0,&#34;m01&#34;:0.0,&#34;m02&#34;:291.03027343750,&#34;m10&#34;:0.0,&#34;m11&#34;:16.0,&#34;m12&#34;:243.0},&#34;opacity&#34;:1.0,&#34;blendMode&#34;:&#34;NORMAL&#34;,&#34;visible&#34;:true}" mask="url(#path-7-inside-1_6921_7003)"/>
<rect x="268.5" y="85.5" width="65.2" height="33" rx="16.5" fill="white"/>
<rect x="268.5" y="85.5" width="65.2" height="33" rx="16.5" stroke="#E2E8F0"/>
<g filter="url(#filter2_dd_6921_7003)">
<rect x="268" y="85" width="66.2" height="34" rx="17" fill="white" fill-opacity="0.01" shape-rendering="crispEdges"/>
</g>
<path d="M287.439 99.4297L287.124 100.605H281.422L281.734 99.4297H287.439ZM284.494 106L281.568 102.507L281.564 101.465H283.016C283.345 101.465 283.619 101.406 283.838 101.287C284.057 101.169 284.222 101.005 284.334 100.797C284.445 100.589 284.501 100.352 284.501 100.086C284.501 99.6862 284.385 99.3613 284.153 99.1115C283.922 98.8616 283.542 98.7366 283.016 98.7366H281.422L281.775 97.2695H283.016C283.738 97.2695 284.34 97.3785 284.821 97.5965C285.302 97.8145 285.663 98.1238 285.904 98.5245C286.146 98.9252 286.266 99.4018 286.266 99.9542C286.266 100.443 286.184 100.872 286.021 101.242C285.857 101.612 285.601 101.918 285.253 102.161C284.906 102.403 284.454 102.578 283.898 102.685L283.834 102.711L286.45 105.923V106H284.494ZM287.445 97.2695L287.124 98.4636L282.443 98.4601L282.761 97.2695H287.445ZM292.242 97.2695V106H290.459V98.845H290.401L288.399 100.261V98.6225L290.329 97.2695H292.242ZM295.033 106.111C294.747 106.111 294.506 106.014 294.311 105.821C294.115 105.628 294.017 105.389 294.017 105.105C294.017 104.821 294.115 104.582 294.311 104.389C294.506 104.195 294.747 104.099 295.033 104.099C295.319 104.099 295.56 104.195 295.756 104.389C295.951 104.582 296.049 104.821 296.049 105.105C296.049 105.389 295.951 105.628 295.756 105.821C295.56 106.014 295.319 106.111 295.033 106.111ZM297.762 106V104.713L300.856 101.81C301.121 101.552 301.345 101.318 301.528 101.111C301.711 100.903 301.851 100.699 301.946 100.498C302.042 100.296 302.09 100.078 302.09 99.842C302.09 99.5817 302.031 99.3575 301.913 99.1697C301.795 98.9818 301.634 98.8373 301.431 98.7361C301.228 98.6349 300.996 98.5843 300.734 98.5843C300.463 98.5843 300.227 98.639 300.025 98.7485C299.823 98.8579 299.667 99.0141 299.556 99.2172C299.445 99.4202 299.39 99.6636 299.39 99.9474H297.684C297.684 99.379 297.814 98.8858 298.072 98.4678C298.33 98.0497 298.69 97.726 299.151 97.4965C299.611 97.2671 300.144 97.1523 300.748 97.1523C301.364 97.1523 301.903 97.2623 302.363 97.4823C302.824 97.7022 303.182 98.0058 303.438 98.3931C303.694 98.7803 303.822 99.2256 303.822 99.7291C303.822 100.056 303.758 100.377 303.631 100.693C303.504 101.009 303.278 101.362 302.953 101.754C302.628 102.146 302.166 102.616 301.568 103.165L300.247 104.467V104.531H303.94V106H297.762ZM312.041 106.117C311.268 106.117 310.575 105.941 309.964 105.589C309.352 105.238 308.87 104.728 308.517 104.06C308.164 103.392 307.988 102.586 307.988 101.641C307.988 100.69 308.166 99.8795 308.522 99.2107C308.878 98.5418 309.362 98.0315 309.975 97.6799C310.587 97.3282 311.276 97.1523 312.041 97.1523C312.537 97.1523 313 97.2215 313.428 97.3599C313.857 97.4983 314.237 97.7005 314.568 97.9665C314.9 98.2325 315.171 98.5575 315.384 98.9416C315.596 99.3257 315.735 99.7635 315.8 100.255H313.991C313.949 100.015 313.873 99.8023 313.763 99.6158C313.653 99.4293 313.514 99.2706 313.347 99.1396C313.179 99.0087 312.989 98.9095 312.775 98.8419C312.56 98.7743 312.328 98.7405 312.079 98.7405C311.625 98.7405 311.227 98.8538 310.884 99.0804C310.542 99.307 310.276 99.636 310.086 100.067C309.897 100.499 309.803 101.023 309.803 101.641C309.803 102.269 309.899 102.798 310.091 103.229C310.283 103.659 310.549 103.983 310.89 104.202C311.231 104.42 311.625 104.529 312.073 104.529C312.322 104.529 312.553 104.495 312.767 104.426C312.98 104.358 313.171 104.259 313.34 104.129C313.51 103.999 313.651 103.84 313.763 103.652C313.875 103.465 313.953 103.252 313.997 103.015H315.806C315.757 103.42 315.637 103.808 315.445 104.178C315.253 104.549 314.996 104.88 314.674 105.172C314.352 105.465 313.97 105.695 313.529 105.864C313.088 106.033 312.592 106.117 312.041 106.117ZM317.063 106V99.4492H318.766V100.59H318.836C318.955 100.186 319.156 99.8805 319.44 99.673C319.723 99.4655 320.048 99.3618 320.415 99.3618C320.506 99.3618 320.604 99.3669 320.708 99.3771C320.812 99.3874 320.904 99.4018 320.983 99.4205V100.991C320.906 100.964 320.792 100.942 320.643 100.925C320.494 100.909 320.354 100.9 320.224 100.9C319.956 100.9 319.715 100.958 319.502 101.074C319.289 101.191 319.122 101.351 319.001 101.557C318.88 101.762 318.82 102 318.82 102.272V106H317.063Z" fill="#7C3AED"/>
<mask id="path-12-inside-2_6921_7003" fill="white">
<path d="M295.09 118H307.09V126H295.09V118Z"/>
</mask>
<g clip-path="url(#paint1_diamond_6921_7003_clip_path)" data-figma-skip-parse="true" mask="url(#path-12-inside-2_6921_7003)"><g transform="matrix(0.006 0 0 0.008 301.09 118)"><rect x="0" y="0" width="1166.67" height="1125" fill="url(#paint1_diamond_6921_7003)" opacity="1" shape-rendering="crispEdges"/><rect x="0" y="0" width="1166.67" height="1125" transform="scale(1 -1)" fill="url(#paint1_diamond_6921_7003)" opacity="1" shape-rendering="crispEdges"/><rect x="0" y="0" width="1166.67" height="1125" transform="scale(-1 1)" fill="url(#paint1_diamond_6921_7003)" opacity="1" shape-rendering="crispEdges"/><rect x="0" y="0" width="1166.67" height="1125" transform="scale(-1)" fill="url(#paint1_diamond_6921_7003)" opacity="1" shape-rendering="crispEdges"/></g></g><path d="M295.09 118V110H289.09V118H295.09ZM307.09 118H313.09V110H307.09V118ZM295.09 118V126H307.09V118V110H295.09V118ZM307.09 118H301.09V126H307.09H313.09V118H307.09ZM295.09 126H301.09V118H295.09H289.09V126H295.09Z" data-figma-gradient-fill="{&#34;type&#34;:&#34;GRADIENT_DIAMOND&#34;,&#34;stops&#34;:[{&#34;color&#34;:{&#34;r&#34;:1.0,&#34;g&#34;:1.0,&#34;b&#34;:1.0,&#34;a&#34;:1.0},&#34;position&#34;:0.99999988079071045},{&#34;color&#34;:{&#34;r&#34;:0.0,&#34;g&#34;:0.0,&#34;b&#34;:0.0,&#34;a&#34;:0.0},&#34;position&#34;:1.0}],&#34;stopsVar&#34;:[],&#34;transform&#34;:{&#34;m00&#34;:12.0,&#34;m01&#34;:0.0,&#34;m02&#34;:295.089843750,&#34;m10&#34;:0.0,&#34;m11&#34;:16.0,&#34;m12&#34;:110.0},&#34;opacity&#34;:1.0,&#34;blendMode&#34;:&#34;NORMAL&#34;,&#34;visible&#34;:true}" mask="url(#path-12-inside-2_6921_7003)"/>
<rect x="66" y="244" width="55.77" height="32" rx="16" fill="#7C3AED"/>
<g filter="url(#filter3_dd_6921_7003)">
<rect x="66" y="244" width="55.77" height="32" rx="16" fill="white" fill-opacity="0.01" shape-rendering="crispEdges"/>
</g>
<path d="M84.4389 257.43L84.1242 258.605H78.4221L78.7341 257.43H84.4389ZM81.4938 264L78.5683 260.507L78.5638 259.465H80.0157C80.3446 259.465 80.6186 259.406 80.8377 259.287C81.0569 259.169 81.2223 259.005 81.3338 258.797C81.4453 258.589 81.5011 258.352 81.5011 258.086C81.5011 257.686 81.3852 257.361 81.1534 257.111C80.9217 256.862 80.5425 256.737 80.0157 256.737H78.4221L78.7747 255.27H80.0157C80.7385 255.27 81.3404 255.379 81.8214 255.596C82.3024 255.814 82.6634 256.124 82.9045 256.524C83.1455 256.925 83.2661 257.402 83.2661 257.954C83.2661 258.443 83.1842 258.872 83.0206 259.242C82.8569 259.612 82.6012 259.918 82.2535 260.161C81.9057 260.403 81.4538 260.578 80.8978 260.685L80.8336 260.711L83.4498 263.923V264H81.4938ZM84.4452 255.27L84.1242 256.464L79.443 256.46L79.7613 255.27H84.4452ZM88.7575 264.117C88.1065 264.117 87.5285 264.01 87.0235 263.796C86.5185 263.582 86.1227 263.289 85.8359 262.917C85.5491 262.546 85.4058 262.125 85.4058 261.654C85.4058 261.291 85.4884 260.957 85.6537 260.651C85.8191 260.345 86.0438 260.09 86.328 259.885C86.6122 259.68 86.9311 259.549 87.2849 259.49V259.437C86.8211 259.338 86.4447 259.109 86.1557 258.749C85.8667 258.388 85.7222 257.972 85.7222 257.498C85.7222 257.046 85.8532 256.644 86.1153 256.291C86.3775 255.939 86.7371 255.661 87.1943 255.457C87.6515 255.254 88.1725 255.152 88.7575 255.152C89.3409 255.152 89.8618 255.254 90.32 255.457C90.7783 255.661 91.1389 255.939 91.4019 256.293C91.6649 256.647 91.7964 257.048 91.7964 257.498C91.7964 257.974 91.6504 258.391 91.3584 258.75C91.0663 259.109 90.6932 259.338 90.2391 259.437V259.49C90.5871 259.549 90.9033 259.68 91.1874 259.885C91.4716 260.09 91.6978 260.345 91.866 260.651C92.0341 260.957 92.1182 261.291 92.1182 261.654C92.1182 262.125 91.9739 262.546 91.6854 262.917C91.3968 263.289 90.9995 263.582 90.4935 263.796C89.9875 264.01 89.4088 264.117 88.7575 264.117ZM88.7575 262.793C89.0577 262.793 89.3194 262.739 89.5427 262.631C89.7659 262.523 89.9399 262.373 90.0647 262.18C90.1894 261.987 90.2518 261.765 90.2518 261.514C90.2518 261.257 90.1872 261.03 90.0579 260.832C89.9287 260.635 89.7515 260.479 89.5265 260.365C89.3015 260.251 89.0451 260.194 88.7575 260.194C88.4704 260.194 88.2144 260.25 87.9894 260.363C87.7643 260.476 87.5872 260.632 87.4579 260.829C87.3287 261.027 87.2641 261.255 87.2641 261.514C87.2641 261.765 87.326 261.987 87.4499 262.178C87.5737 262.37 87.7482 262.52 87.9732 262.629C88.1982 262.738 88.4597 262.793 88.7575 262.793ZM88.7575 258.879C89.007 258.879 89.2282 258.829 89.4212 258.728C89.6141 258.627 89.7667 258.486 89.879 258.306C89.9913 258.126 90.0475 257.919 90.0475 257.688C90.0475 257.454 89.9926 257.249 89.883 257.075C89.7734 256.9 89.6217 256.763 89.4279 256.665C89.2341 256.567 89.0106 256.518 88.7575 256.518C88.5047 256.518 88.2814 256.567 88.0875 256.665C87.8937 256.763 87.7425 256.9 87.634 257.075C87.5254 257.249 87.4711 257.454 87.4711 257.688C87.4711 257.919 87.5259 258.125 87.6353 258.304C87.7448 258.484 87.8968 258.624 88.0916 258.726C88.2863 258.828 88.5083 258.879 88.7575 258.879ZM96.3481 264.117C95.7499 264.117 95.217 264.007 94.7496 263.787C94.2822 263.567 93.9126 263.263 93.6409 262.877C93.3692 262.49 93.2267 262.048 93.2135 261.55H94.9561C94.9669 261.776 95.0358 261.976 95.1628 262.15C95.2899 262.323 95.457 262.458 95.6642 262.554C95.8714 262.651 96.0994 262.699 96.3481 262.699C96.6406 262.699 96.8992 262.633 97.1239 262.502C97.3487 262.37 97.525 262.188 97.6527 261.953C97.7805 261.719 97.8444 261.449 97.8444 261.143C97.8444 260.831 97.7787 260.556 97.6474 260.317C97.516 260.078 97.3361 259.892 97.1078 259.758C96.8794 259.624 96.6154 259.557 96.3157 259.557C96.0546 259.557 95.8039 259.609 95.5634 259.714C95.323 259.819 95.1358 259.959 95.0019 260.134L93.3957 259.853L93.8164 255.27H99.1V256.745H95.2982L95.0721 258.955H95.119C95.2755 258.743 95.5073 258.569 95.8145 258.432C96.1217 258.295 96.4637 258.227 96.8404 258.227C97.2325 258.227 97.5954 258.297 97.9291 258.437C98.2627 258.578 98.553 258.777 98.7998 259.034C99.0467 259.291 99.2384 259.595 99.3749 259.945C99.5115 260.295 99.5798 260.679 99.5798 261.097C99.5798 261.683 99.4438 262.203 99.1718 262.658C98.8998 263.112 98.5213 263.469 98.0363 263.728C97.5514 263.988 96.9886 264.117 96.3481 264.117ZM103.762 264V255.27H105.552V262.516H109.316V264H103.762Z" fill="white"/>
<mask id="path-17-inside-3_6921_7003" fill="white">
<path d="M87.8701 276H99.8701V284H87.8701V276Z"/>
</mask>
<g clip-path="url(#paint2_diamond_6921_7003_clip_path)" data-figma-skip-parse="true" mask="url(#path-17-inside-3_6921_7003)"><g transform="matrix(0.006 0 0 0.008 93.8701 276)"><rect x="0" y="0" width="1166.67" height="1125" fill="url(#paint2_diamond_6921_7003)" opacity="1" shape-rendering="crispEdges"/><rect x="0" y="0" width="1166.67" height="1125" transform="scale(1 -1)" fill="url(#paint2_diamond_6921_7003)" opacity="1" shape-rendering="crispEdges"/><rect x="0" y="0" width="1166.67" height="1125" transform="scale(-1 1)" fill="url(#paint2_diamond_6921_7003)" opacity="1" shape-rendering="crispEdges"/><rect x="0" y="0" width="1166.67" height="1125" transform="scale(-1)" fill="url(#paint2_diamond_6921_7003)" opacity="1" shape-rendering="crispEdges"/></g></g><path d="M87.8701 276V268H81.8701V276H87.8701ZM99.8701 276H105.87V268H99.8701V276ZM87.8701 276V284H99.8701V276V268H87.8701V276ZM99.8701 276H93.8701V284H99.8701H105.87V276H99.8701ZM87.8701 284H93.8701V276H87.8701H81.8701V284H87.8701Z" data-figma-gradient-fill="{&#34;type&#34;:&#34;GRADIENT_DIAMOND&#34;,&#34;stops&#34;:[{&#34;color&#34;:{&#34;r&#34;:0.48627451062202454,&#34;g&#34;:0.22745098173618317,&#34;b&#34;:0.92941176891326904,&#34;a&#34;:1.0},&#34;position&#34;:0.99999988079071045},{&#34;color&#34;:{&#34;r&#34;:0.0,&#34;g&#34;:0.0,&#34;b&#34;:0.0,&#34;a&#34;:0.0},&#34;position&#34;:1.0}],&#34;stopsVar&#34;:[],&#34;transform&#34;:{&#34;m00&#34;:12.0,&#34;m01&#34;:0.0,&#34;m02&#34;:87.87011718750,&#34;m10&#34;:0.0,&#34;m11&#34;:16.0,&#34;m12&#34;:268.0},&#34;opacity&#34;:1.0,&#34;blendMode&#34;:&#34;NORMAL&#34;,&#34;visible&#34;:true}" mask="url(#path-17-inside-3_6921_7003)"/>
<defs>
<filter id="filter0_d_6921_7003" x="174" y="174" width="20" height="20" filterUnits="userSpaceOnUse" color-interpolation-filters="sRGB">
<feFlood flood-opacity="0" result="BackgroundImageFix"/>
<feColorMatrix in="SourceAlpha" type="matrix" values="0 0 0 0 0 0 0 0 0 0 0 0 0 0 0 0 0 0 127 0" result="hardAlpha"/>
<feMorphology radius="4" operator="dilate" in="SourceAlpha" result="effect1_dropShadow_6921_7003"/>
<feOffset/>
<feComposite in2="hardAlpha" operator="out"/>
<feColorMatrix type="matrix" values="0 0 0 0 0.486275 0 0 0 0 0.227451 0 0 0 0 0.929412 0 0 0 0.2 0"/>
<feBlend mode="normal" in2="BackgroundImageFix" result="effect1_dropShadow_6921_7003"/>
<feBlend mode="normal" in="SourceGraphic" in2="effect1_dropShadow_6921_7003" result="shape"/>
</filter>
<filter id="filter1_dd_6921_7003" x="256" y="216" width="82.0596" height="58" filterUnits="userSpaceOnUse" color-interpolation-filters="sRGB">
<feFlood flood-opacity="0" result="BackgroundImageFix"/>
<feColorMatrix in="SourceAlpha" type="matrix" values="0 0 0 0 0 0 0 0 0 0 0 0 0 0 0 0 0 0 127 0" result="hardAlpha"/>
<feMorphology radius="4" operator="erode" in="SourceAlpha" result="effect1_dropShadow_6921_7003"/>
<feOffset dy="4"/>
<feGaussianBlur stdDeviation="3"/>
<feComposite in2="hardAlpha" operator="out"/>
<feColorMatrix type="matrix" values="0 0 0 0 0 0 0 0 0 0 0 0 0 0 0 0 0 0 0.1 0"/>
<feBlend mode="normal" in2="BackgroundImageFix" result="effect1_dropShadow_6921_7003"/>
<feColorMatrix in="SourceAlpha" type="matrix" values="0 0 0 0 0 0 0 0 0 0 0 0 0 0 0 0 0 0 127 0" result="hardAlpha"/>
<feMorphology radius="3" operator="erode" in="SourceAlpha" result="effect2_dropShadow_6921_7003"/>
<feOffset dy="10"/>
<feGaussianBlur stdDeviation="7.5"/>
<feComposite in2="hardAlpha" operator="out"/>
<feColorMatrix type="matrix" values="0 0 0 0 0 0 0 0 0 0 0 0 0 0 0 0 0 0 0.1 0"/>
<feBlend mode="normal" in2="effect1_dropShadow_6921_7003" result="effect2_dropShadow_6921_7003"/>
<feBlend mode="normal" in="SourceGraphic" in2="effect2_dropShadow_6921_7003" result="shape"/>
</filter>
<clipPath id="paint0_diamond_6921_7003_clip_path"><path d="M291.03 251V243H285.03V251H291.03ZM303.03 251H309.03V243H303.03V251ZM291.03 251V259H303.03V251V243H291.03V251ZM303.03 251H297.03V259H303.03H309.03V251H303.03ZM291.03 259H297.03V251H291.03H285.03V259H291.03Z" mask="url(#path-7-inside-1_6921_7003)"/></clipPath><filter id="filter2_dd_6921_7003" x="256" y="83" width="90.2002" height="58" filterUnits="userSpaceOnUse" color-interpolation-filters="sRGB">
<feFlood flood-opacity="0" result="BackgroundImageFix"/>
<feColorMatrix in="SourceAlpha" type="matrix" values="0 0 0 0 0 0 0 0 0 0 0 0 0 0 0 0 0 0 127 0" result="hardAlpha"/>
<feMorphology radius="4" operator="erode" in="SourceAlpha" result="effect1_dropShadow_6921_7003"/>
<feOffset dy="4"/>
<feGaussianBlur stdDeviation="3"/>
<feComposite in2="hardAlpha" operator="out"/>
<feColorMatrix type="matrix" values="0 0 0 0 0 0 0 0 0 0 0 0 0 0 0 0 0 0 0.1 0"/>
<feBlend mode="normal" in2="BackgroundImageFix" result="effect1_dropShadow_6921_7003"/>
<feColorMatrix in="SourceAlpha" type="matrix" values="0 0 0 0 0 0 0 0 0 0 0 0 0 0 0 0 0 0 127 0" result="hardAlpha"/>
<feMorphology radius="3" operator="erode" in="SourceAlpha" result="effect2_dropShadow_6921_7003"/>
<feOffset dy="10"/>
<feGaussianBlur stdDeviation="7.5"/>
<feComposite in2="hardAlpha" operator="out"/>
<feColorMatrix type="matrix" values="0 0 0 0 0 0 0 0 0 0 0 0 0 0 0 0 0 0 0.1 0"/>
<feBlend mode="normal" in2="effect1_dropShadow_6921_7003" result="effect2_dropShadow_6921_7003"/>
<feBlend mode="normal" in="SourceGraphic" in2="effect2_dropShadow_6921_7003" result="shape"/>
</filter>
<clipPath id="paint1_diamond_6921_7003_clip_path"><path d="M295.09 118V110H289.09V118H295.09ZM307.09 118H313.09V110H307.09V118ZM295.09 118V126H307.09V118V110H295.09V118ZM307.09 118H301.09V126H307.09H313.09V118H307.09ZM295.09 126H301.09V118H295.09H289.09V126H295.09Z" mask="url(#path-12-inside-2_6921_7003)"/></clipPath><filter id="filter3_dd_6921_7003" x="54" y="242" width="79.7695" height="56" filterUnits="userSpaceOnUse" color-interpolation-filters="sRGB">
<feFlood flood-opacity="0" result="BackgroundImageFix"/>
<feColorMatrix in="SourceAlpha" type="matrix" values="0 0 0 0 0 0 0 0 0 0 0 0 0 0 0 0 0 0 127 0" result="hardAlpha"/>
<feMorphology radius="4" operator="erode" in="SourceAlpha" result="effect1_dropShadow_6921_7003"/>
<feOffset dy="4"/>
<feGaussianBlur stdDeviation="3"/>
<feComposite in2="hardAlpha" operator="out"/>
<feColorMatrix type="matrix" values="0 0 0 0 0 0 0 0 0 0 0 0 0 0 0 0 0 0 0.1 0"/>
<feBlend mode="normal" in2="BackgroundImageFix" result="effect1_dropShadow_6921_7003"/>
<feColorMatrix in="SourceAlpha" type="matrix" values="0 0 0 0 0 0 0 0 0 0 0 0 0 0 0 0 0 0 127 0" result="hardAlpha"/>
<feMorphology radius="3" operator="erode" in="SourceAlpha" result="effect2_dropShadow_6921_7003"/>
<feOffset dy="10"/>
<feGaussianBlur stdDeviation="7.5"/>
<feComposite in2="hardAlpha" operator="out"/>
<feColorMatrix type="matrix" values="0 0 0 0 0 0 0 0 0 0 0 0 0 0 0 0 0 0 0.1 0"/>
<feBlend mode="normal" in2="effect1_dropShadow_6921_7003" result="effect2_dropShadow_6921_7003"/>
<feBlend mode="normal" in="SourceGraphic" in2="effect2_dropShadow_6921_7003" result="shape"/>
</filter>
<clipPath id="paint2_diamond_6921_7003_clip_path"><path d="M87.8701 276V268H81.8701V276H87.8701ZM99.8701 276H105.87V268H99.8701V276ZM87.8701 276V284H99.8701V276V268H87.8701V276ZM99.8701 276H93.8701V284H99.8701H105.87V276H99.8701ZM87.8701 284H93.8701V276H87.8701H81.8701V284H87.8701Z" mask="url(#path-17-inside-3_6921_7003)"/></clipPath><linearGradient id="paint0_diamond_6921_7003" x1="0" y1="0" x2="500" y2="500" gradientUnits="userSpaceOnUse">
<stop offset="1" stop-color="white"/>
<stop offset="1" stop-opacity="0"/>
</linearGradient>
<linearGradient id="paint1_diamond_6921_7003" x1="0" y1="0" x2="500" y2="500" gradientUnits="userSpaceOnUse">
<stop offset="1" stop-color="white"/>
<stop offset="1" stop-opacity="0"/>
</linearGradient>
<linearGradient id="paint2_diamond_6921_7003" x1="0" y1="0" x2="500" y2="500" gradientUnits="userSpaceOnUse">
<stop offset="1" stop-color="#7C3AED"/>
<stop offset="1" stop-opacity="0"/>
</linearGradient>
</defs>
</svg>
