<svg width="1345" height="541" viewBox="0 0 1345 541" fill="none" xmlns="http://www.w3.org/2000/svg">
<rect width="1344.99" height="541" rx="36" fill="#E4EDFF"/>
<mask id="mask0_2371_1180" style="mask-type:luminance" maskUnits="userSpaceOnUse" x="765" y="466" width="571" height="42">
<path d="M765.183 466.096H1335.63V507.531H765.183V466.096Z" fill="white"/>
</mask>
<g mask="url(#mask0_2371_1180)">
<path d="M1335.63 486.923C1335.63 487.255 1335.52 487.588 1335.29 487.92C1335.06 488.257 1334.72 488.59 1334.26 488.918C1333.8 489.25 1333.23 489.583 1332.55 489.911C1331.86 490.243 1331.07 490.571 1330.16 490.895C1329.25 491.223 1328.22 491.547 1327.09 491.87C1325.95 492.194 1324.71 492.518 1323.35 492.837C1322 493.157 1320.54 493.472 1318.96 493.787C1317.39 494.097 1315.71 494.408 1313.93 494.718C1312.14 495.025 1310.25 495.331 1308.25 495.633C1306.25 495.934 1304.16 496.232 1301.96 496.525C1299.76 496.818 1297.46 497.107 1295.06 497.395C1292.66 497.68 1290.16 497.964 1287.57 498.24C1284.97 498.515 1282.29 498.791 1279.51 499.058C1276.72 499.325 1273.85 499.587 1270.89 499.845C1267.93 500.103 1264.88 500.357 1261.75 500.602C1258.62 500.847 1255.4 501.092 1252.09 501.324C1248.8 501.56 1245.42 501.792 1241.96 502.015C1238.5 502.238 1234.96 502.457 1231.36 502.667C1227.75 502.881 1224.07 503.087 1220.32 503.284C1216.57 503.48 1212.75 503.673 1208.88 503.861C1204.99 504.045 1201.05 504.224 1197.05 504.395C1193.04 504.565 1188.98 504.732 1184.86 504.889C1180.75 505.042 1176.58 505.195 1172.36 505.335C1168.14 505.48 1163.88 505.615 1159.56 505.742C1155.25 505.869 1150.89 505.987 1146.5 506.101C1142.1 506.215 1137.67 506.32 1133.21 506.416C1128.74 506.512 1124.24 506.599 1119.71 506.683C1115.18 506.761 1110.63 506.836 1106.05 506.901C1101.48 506.967 1096.88 507.024 1092.26 507.072C1087.64 507.12 1083.01 507.159 1078.37 507.194C1073.72 507.225 1069.07 507.251 1064.4 507.269C1059.75 507.282 1055.08 507.291 1050.41 507.291C1045.74 507.291 1041.08 507.282 1036.41 507.269C1031.75 507.251 1027.1 507.225 1022.45 507.194C1017.81 507.159 1013.18 507.12 1008.56 507.072C1003.94 507.024 999.343 506.967 994.767 506.901C990.186 506.836 985.633 506.761 981.108 506.683C976.577 506.599 972.079 506.512 967.613 506.416C963.148 506.32 958.714 506.215 954.322 506.101C949.925 505.987 945.574 505.869 941.26 505.742C936.946 505.615 932.682 505.48 928.46 505.335C924.243 505.195 920.071 505.042 915.955 504.889C911.838 504.732 907.777 504.565 903.776 504.395C899.77 504.224 895.829 504.045 891.947 503.861C888.065 503.673 884.252 503.48 880.499 503.284C876.751 503.087 873.072 502.881 869.466 502.667C865.855 502.457 862.323 502.238 858.864 502.015C855.406 501.792 852.025 501.56 848.723 501.324C845.426 501.092 842.206 500.847 839.074 500.602C835.937 500.357 832.888 500.103 829.926 499.845C826.964 499.587 824.094 499.325 821.316 499.058C818.534 498.791 815.848 498.515 813.254 498.24C810.66 497.964 808.163 497.68 805.762 497.395C803.366 497.107 801.066 496.818 798.863 496.525C796.664 496.232 794.563 495.934 792.571 495.633C790.575 495.331 788.68 495.025 786.896 494.718C785.111 494.408 783.428 494.097 781.86 493.787C780.287 493.472 778.819 493.157 777.467 492.837C776.11 492.518 774.869 492.194 773.733 491.87C772.597 491.547 771.576 491.223 770.665 490.895C769.754 490.571 768.959 490.243 768.273 489.911C767.588 489.583 767.013 489.25 766.558 488.918C766.098 488.59 765.758 488.257 765.528 487.92C765.298 487.588 765.183 487.255 765.183 486.923C765.183 486.59 765.298 486.258 765.528 485.921C765.758 485.589 766.098 485.256 766.558 484.928C767.013 484.596 767.588 484.263 768.273 483.935C768.959 483.603 769.754 483.275 770.665 482.951C771.576 482.623 772.597 482.295 773.733 481.975C774.869 481.652 776.11 481.328 777.467 481.009C778.819 480.689 780.287 480.374 781.86 480.059C783.428 479.749 785.111 479.434 786.896 479.128C788.68 478.821 790.575 478.515 792.571 478.213C794.563 477.911 796.664 477.614 798.863 477.321C801.066 477.028 803.366 476.735 805.762 476.45C808.163 476.166 810.66 475.882 813.254 475.606C815.848 475.33 818.534 475.055 821.316 474.788C824.094 474.521 826.964 474.259 829.926 474.001C832.888 473.743 835.937 473.489 839.074 473.244C842.206 472.994 845.426 472.754 848.723 472.518C852.025 472.286 855.406 472.054 858.864 471.831C862.323 471.608 865.855 471.389 869.466 471.179C873.072 470.965 876.751 470.759 880.499 470.562C884.252 470.365 888.065 470.173 891.947 469.985C895.829 469.801 899.77 469.622 903.776 469.451C907.777 469.28 911.838 469.114 915.955 468.957C920.071 468.799 924.243 468.651 928.46 468.511C932.682 468.366 936.946 468.231 941.26 468.104C945.574 467.977 949.925 467.854 954.322 467.745C958.714 467.631 963.148 467.526 967.613 467.43C972.079 467.334 976.577 467.246 981.108 467.163C985.633 467.084 990.186 467.01 994.767 466.945C999.343 466.879 1003.94 466.822 1008.56 466.774C1013.18 466.726 1017.81 466.682 1022.45 466.651C1027.1 466.621 1031.75 466.595 1036.41 466.577C1041.08 466.56 1045.74 466.555 1050.41 466.555C1055.08 466.555 1059.75 466.56 1064.4 466.577C1069.07 466.595 1073.72 466.621 1078.37 466.651C1083.01 466.682 1087.64 466.726 1092.26 466.774C1096.88 466.822 1101.48 466.879 1106.05 466.945C1110.63 467.01 1115.18 467.084 1119.71 467.163C1124.24 467.246 1128.74 467.334 1133.21 467.43C1137.67 467.526 1142.1 467.631 1146.5 467.745C1150.89 467.854 1155.25 467.977 1159.56 468.104C1163.88 468.231 1168.14 468.366 1172.36 468.511C1176.58 468.651 1180.75 468.799 1184.86 468.957C1188.98 469.114 1193.04 469.28 1197.05 469.451C1201.05 469.622 1204.99 469.801 1208.88 469.985C1212.75 470.173 1216.57 470.365 1220.32 470.562C1224.07 470.759 1227.75 470.965 1231.36 471.179C1234.96 471.389 1238.5 471.608 1241.96 471.831C1245.42 472.054 1248.8 472.286 1252.09 472.518C1255.4 472.754 1258.62 472.994 1261.75 473.244C1264.88 473.489 1267.93 473.743 1270.89 474.001C1273.85 474.259 1276.72 474.521 1279.51 474.788C1282.29 475.055 1284.97 475.33 1287.57 475.606C1290.16 475.882 1292.66 476.166 1295.06 476.45C1297.46 476.735 1299.76 477.028 1301.96 477.321C1304.16 477.614 1306.25 477.911 1308.25 478.213C1310.25 478.515 1312.14 478.821 1313.93 479.128C1315.71 479.434 1317.39 479.749 1318.96 480.059C1320.54 480.374 1322 480.689 1323.35 481.009C1324.71 481.328 1325.95 481.652 1327.09 481.975C1328.22 482.295 1329.25 482.623 1330.16 482.951C1331.07 483.275 1331.86 483.603 1332.55 483.935C1333.23 484.263 1333.8 484.596 1334.26 484.928C1334.72 485.256 1335.06 485.589 1335.29 485.921C1335.52 486.258 1335.63 486.59 1335.63 486.923Z" fill="#C5EAE2"/>
</g>
<path d="M814.174 482.439C814.174 482.439 835.289 445.697 821.247 441.017C812.021 437.898 808.949 472.303 808.949 472.303C808.949 472.303 808.126 434.293 795.827 439.166C786.606 442.871 798.904 470.352 798.904 470.352C798.904 470.352 785.479 460.024 783.736 466.454C781.068 476.787 796.545 482.636 796.545 482.636L814.174 482.439Z" fill="#A2DDD0"/>
<path d="M809.869 482.535L820.12 452.128C820.12 451.935 820.12 451.738 819.913 451.738C819.706 451.738 819.504 451.738 819.504 451.935L809.252 482.535H809.869Z" fill="#E0FBF0"/>
<path d="M807.206 482.534L799.93 449.397C799.93 449.205 799.723 449.109 799.516 449.205C799.313 449.205 799.212 449.397 799.313 449.594L806.589 482.635L807.206 482.534Z" fill="#E0FBF0"/>
<path d="M803.411 482.536L789.476 471.136C789.37 471.035 789.168 471.035 788.961 471.136C788.859 471.232 788.859 471.429 788.961 471.621L802.285 482.536H803.411Z" fill="#E0FBF0"/>
<path d="M1283.98 483.218C1283.98 483.218 1266.46 458.462 1277.63 449.009C1284.5 443.165 1287.88 461.778 1287.88 461.778C1287.88 461.778 1291.77 426.205 1304.38 433.707C1310.53 437.412 1297.51 470.16 1297.51 470.16C1297.51 470.16 1306.73 453.104 1314.01 457.78C1325.8 465.383 1297.71 482.929 1297.71 482.929L1283.98 483.218Z" fill="#A2DDD0"/>
<path d="M1290.65 483.121L1299.77 442.871C1299.77 442.674 1299.66 442.381 1299.46 442.381C1299.26 442.381 1298.95 442.482 1298.95 442.674L1289.82 483.121H1290.65Z" fill="#E0FBF0"/>
<path d="M1295.46 483.025L1312.16 463.725C1312.37 463.532 1312.27 463.239 1312.06 463.143C1311.86 463.047 1311.55 463.047 1311.45 463.239L1294.23 483.121L1295.46 483.025Z" fill="#E0FBF0"/>
<path d="M1287.57 483.122L1280.7 453.69C1280.7 453.493 1280.39 453.301 1280.19 453.397C1279.98 453.493 1279.78 453.69 1279.88 453.883L1286.75 483.218L1287.57 483.122Z" fill="#E0FBF0"/>
<path d="M1088.33 148.638C1073.68 157.116 1059.02 169.688 1056.56 187.523C1054.61 202.046 1055.12 221.049 1073.37 224.851C1094.28 229.138 1114.47 221.145 1127.38 206.92C1138.14 195.126 1144.19 181.775 1146.85 172.028C1150.03 160.235 1153.21 148.537 1156.49 136.748C1156.79 135.672 1155.77 134.408 1154.54 134.701C1142.85 137.234 1131.07 138.791 1119.08 139.963C1108.01 140.939 1097.76 143.178 1088.33 148.638Z" fill="#A2DDD0"/>
<path d="M1155.36 136.258C1149.62 141.91 1143.88 147.566 1137.32 152.439C1136.81 152.829 1136.19 153.218 1135.68 153.607C1137.94 153.021 1140.19 152.439 1142.55 152.046C1145.42 151.464 1148.39 151.267 1151.26 151.656C1152.18 151.757 1152.18 153.314 1151.16 153.118C1148.29 152.632 1145.42 152.925 1142.55 153.511C1139.27 154.194 1135.99 155.069 1132.71 155.847C1132.61 155.847 1132.4 155.847 1132.3 155.847C1127.38 158.966 1122.15 161.696 1117.23 164.815C1112.01 168.227 1106.98 172.029 1102.37 176.119C1109.14 178.752 1117.13 176.316 1123.9 175.047C1127.99 174.268 1132.1 173.49 1136.19 172.711C1139.37 172.125 1142.65 171.539 1145.52 173.197C1146.34 173.682 1145.52 174.951 1144.7 174.465C1141.22 172.514 1136.4 174.268 1132.71 174.951C1128.51 175.729 1124.3 176.508 1120 177.291C1113.75 178.459 1107.09 179.728 1101.04 177.19C1094.28 183.236 1087.92 189.667 1081.67 196.198C1079.62 198.341 1077.57 200.485 1075.52 202.628C1096.02 205.944 1116.93 203.018 1135.27 193.665C1136.19 193.175 1136.81 194.54 1135.99 195.03C1117.13 204.579 1095.4 207.501 1074.39 203.897C1070.29 208.381 1066.5 213.057 1063.53 218.32C1063.02 219.199 1061.79 218.32 1062.3 217.541C1063.42 215.59 1064.66 213.74 1065.99 211.985V211.889C1065.27 202.335 1065.89 192.786 1067.73 183.429C1069.68 174.076 1072.34 163.354 1079.42 156.237C1080.13 155.554 1081.05 156.63 1080.44 157.308C1076.65 161.11 1074.5 165.887 1072.86 170.76C1071.32 175.148 1070.09 179.627 1069.16 184.111C1067.42 192.689 1066.91 201.364 1067.42 210.039C1069.27 207.602 1071.32 205.262 1073.37 202.921C1073.37 202.628 1073.57 202.335 1073.88 202.335C1075.01 201.167 1076.14 199.903 1077.26 198.731C1079.62 196.294 1081.98 193.857 1084.33 191.421C1084.44 184.015 1085.57 176.902 1087.92 169.784C1090.48 161.893 1093.25 154.093 1096.02 146.298C1096.33 145.418 1097.76 145.908 1097.45 146.783C1094.89 154.386 1092.23 161.893 1089.66 169.491C1087.41 176.219 1086.18 182.847 1085.97 189.763C1088.74 186.937 1091.61 184.111 1094.58 181.285C1096.43 179.531 1098.27 177.873 1100.12 176.219C1100.22 175.83 1100.53 175.537 1100.94 175.537C1104.52 172.418 1108.32 169.395 1112.31 166.569V166.473C1114.36 162.085 1113.85 157.212 1114.67 152.632C1115.59 147.663 1118.36 143.861 1121.74 140.06C1122.36 139.377 1123.69 140.156 1122.97 140.838C1121.33 142.789 1119.59 144.64 1118.36 146.884C1117.13 149.124 1116.41 151.56 1116 153.997C1115.49 157.702 1115.59 161.499 1114.47 165.012C1120.72 160.821 1127.58 157.505 1133.73 153.314C1141.42 148.052 1147.98 141.621 1154.43 135.186C1155.05 134.504 1156.08 135.576 1155.36 136.258Z" fill="#E0FBF0"/>
<path d="M830.676 178.656C827.189 185.476 823.4 192.103 818.989 198.437C818.58 199.024 819.095 199.999 819.913 200.095C828.316 200.975 836.719 201.85 845.228 202.628C852.195 203.311 862.341 202.825 872.593 199.22C884.891 194.929 894.83 184.793 896.882 171.442C898.726 159.745 886.326 155.068 876.489 152.829C864.291 150.099 852.605 155.847 843.691 162.475C837.745 166.766 833.955 172.221 830.676 178.656Z" fill="#A2DDD0"/>
<path d="M819.812 199.12C824.835 197.072 829.852 194.929 834.571 192.3C834.981 192.103 835.39 191.81 835.698 191.617C834.774 192.785 833.854 194.054 833.031 195.318C832.005 196.88 831.186 198.634 830.777 200.388C830.676 200.974 831.596 201.263 831.701 200.681C832.111 198.827 832.929 197.269 833.955 195.712C835.183 193.857 836.517 192.199 837.851 190.445L837.952 190.253C841.13 188.109 844.101 185.672 847.279 183.428C850.761 181.092 854.348 179.045 858.142 177.19C858.244 181.775 854.863 185.966 852.403 189.666C850.968 191.91 849.431 194.15 847.996 196.39C846.87 198.144 845.738 199.903 846.152 202.046C846.253 202.628 847.279 202.436 847.173 201.849C846.663 199.317 849.022 196.88 850.25 194.929C851.786 192.593 853.221 190.253 854.757 188.008C857.016 184.601 859.37 180.992 859.062 176.801C864.6 174.172 870.34 171.928 875.974 169.784C877.818 169.102 879.768 168.323 881.612 167.641C878.945 180.506 872.184 192.199 861.831 200.874C861.32 201.263 862.038 201.946 862.548 201.556C873.209 192.593 880.177 180.506 882.739 167.251C886.635 165.886 890.53 164.719 894.729 164.132C895.346 164.036 895.139 163.061 894.527 163.157C892.986 163.354 891.551 163.647 890.015 164.036H889.914C883.866 161.403 877.51 159.552 870.951 158.48C864.393 157.409 856.707 156.529 850.457 159.067C849.841 159.355 850.351 160.138 850.968 159.942C854.348 158.577 857.935 158.48 861.523 158.577C864.701 158.673 867.98 158.966 871.057 159.552C876.999 160.528 882.84 162.282 888.378 164.522C886.326 165.108 884.376 165.69 882.33 166.372C882.123 166.276 881.92 166.372 881.815 166.569C880.794 166.958 879.768 167.348 878.641 167.737C876.489 168.52 874.336 169.395 872.184 170.174C867.263 168.52 862.447 167.544 857.218 167.251C851.478 166.958 845.738 166.766 840.003 166.569C839.387 166.569 839.285 167.544 840.003 167.544C845.536 167.737 851.069 167.934 856.606 168.227C861.523 168.419 866.136 169.299 870.749 170.76C868.187 171.735 865.726 172.807 863.266 173.879C861.73 174.561 860.189 175.244 858.653 175.926C858.451 175.926 858.142 176.022 858.041 176.219C855.171 177.68 852.301 179.141 849.533 180.799H849.431C846.152 180.992 843.075 179.531 839.897 178.944C836.416 178.363 833.238 179.045 830.059 180.117C829.443 180.309 829.65 181.285 830.266 181.092C831.904 180.602 833.546 180.021 835.289 179.727C837.027 179.531 838.77 179.627 840.513 180.021C843.075 180.602 845.435 181.482 848.098 181.674C843.894 184.404 840.205 187.619 835.9 190.349C830.676 193.665 824.936 196.001 819.297 198.341C818.686 198.634 819.196 199.413 819.812 199.12Z" fill="#E0FBF0"/>
<path d="M863.574 148.243C870.85 148.344 878.227 147.272 885.2 144.835C890.631 142.981 895.654 141.519 896.472 134.796C898.215 121.344 892.476 107.801 883.967 98.9292C882.33 97.2712 880.587 95.8101 878.843 94.4453C874.847 90.7445 870.339 87.7217 865.211 85.8712C855.783 82.2623 845.536 82.0698 835.491 83.4346C830.57 84.1171 825.552 85.1888 820.631 86.3568C814.79 87.7217 808.231 90.3551 802.593 87.2361C801.365 86.5537 800.132 88.0148 800.339 89.2834C801.875 97.8574 803.517 106.628 806.999 114.428C810.384 121.93 815.71 127.875 821.965 132.652C834.056 141.62 848.406 147.854 863.574 148.243Z" fill="#A2DDD0"/>
<path d="M859.78 146.687C862.958 142.789 867.571 140.939 872.694 140.939C875.564 140.939 878.227 140.838 880.895 139.863C883.457 138.988 885.917 137.527 888.272 136.162C884.275 132.653 880.177 129.241 875.771 126.218C875.665 126.122 875.564 126.122 875.463 126.026C862.139 128.463 853.019 139.67 839.897 142.789C838.977 142.982 838.462 141.621 839.488 141.424C852.094 138.401 861.113 127.78 873.72 124.954C868.389 121.542 862.548 119.009 856.5 116.866C854.454 116.083 852.403 115.4 850.457 114.718C846.971 115.693 844.101 117.837 841.024 119.591C838.361 121.153 835.491 122.128 832.419 122.71C826.27 123.782 819.914 123.099 813.663 124.176C812.739 124.368 812.228 122.907 813.148 122.811C819.196 121.739 825.446 122.321 831.494 121.345C835.082 120.763 838.26 119.495 841.231 117.741C843.485 116.376 845.738 114.915 848.199 113.843C841.332 111.503 834.571 109.066 828.008 106.24C819.812 107.802 810.793 108.97 803.72 103.9C802.901 103.318 803.927 102.246 804.745 102.828C810.894 107.216 818.58 106.533 825.755 105.265C823.294 104.097 820.833 102.929 818.377 101.564C811.819 97.9547 805.771 93.6677 800.44 88.602C799.723 87.9196 800.749 86.8478 801.466 87.5302C809.151 94.9363 818.377 100.391 828.215 104.779C828.624 104.683 828.933 104.875 829.034 105.168C830.059 105.654 831.085 106.048 832.212 106.533C831.803 104.193 831.085 102.049 830.266 100.103C828.215 95.5181 825.345 91.3273 822.374 87.3334C821.859 86.4541 823.092 85.6754 823.703 86.4541C828.215 92.7928 832.722 99.3195 833.854 107.019C834.672 107.408 835.491 107.701 836.31 107.994C841.024 109.748 845.738 111.406 850.558 112.964H850.659C853.221 113.843 855.783 114.718 858.244 115.693C858.653 109.945 855.682 104.779 852.605 100.002C849.326 94.8357 846.355 89.77 844.92 83.825C844.717 82.9457 846.152 82.4602 846.355 83.4357C847.173 86.7472 848.305 89.9625 849.942 92.9852C851.584 95.9118 853.529 98.7377 855.272 101.564C858.041 106.048 860.189 111.017 859.679 116.28C865.009 118.327 870.133 120.663 874.847 123.782C877.818 125.733 880.688 127.78 883.355 130.02C885.71 123.589 882.229 116.962 879.152 111.209C875.872 105.168 873.619 99.2233 873.619 92.3991C873.619 91.4279 875.155 91.4279 875.155 92.3028C875.155 96.008 875.771 99.7089 876.999 103.217C878.434 107.119 880.587 110.628 882.431 114.232C884.993 119.495 886.736 125.344 884.482 130.995C887.453 133.528 890.424 136.162 893.294 138.695C894.012 139.377 892.986 140.449 892.269 139.766C891.248 138.791 890.222 137.916 889.095 136.94C884.79 139.473 880.278 141.91 875.155 142.107C872.386 142.203 869.723 142.01 867.06 142.982C864.494 143.861 862.341 145.418 860.704 147.465C860.295 148.441 859.168 147.465 859.78 146.687Z" fill="#E0FBF0"/>
<path d="M910.514 480.199H1059.43C1073.68 480.199 1085.26 469.184 1085.26 455.637V117.74C1085.26 104.193 1073.68 93.1819 1059.43 93.1819H910.615C896.371 93.1819 884.79 104.193 884.79 117.74V455.637C884.684 469.184 896.265 480.199 910.514 480.199Z" fill="#29566D"/>
<path d="M912.868 100.491H1057.17C1067.94 100.491 1076.65 108.772 1076.65 119.008V453.199C1076.65 463.435 1067.94 471.716 1057.17 471.716H912.868C902.111 471.716 893.395 463.435 893.395 453.199V119.008C893.395 108.772 902.111 100.491 912.868 100.491Z" fill="#C1E5FD"/>
<path d="M914.612 140.644H1055.54C1061.79 140.644 1066.81 145.417 1066.81 151.362V440.333C1066.81 446.283 1061.79 451.055 1055.54 451.055H914.612C908.361 451.055 903.339 446.283 903.339 440.333V151.362C903.339 145.417 908.361 140.644 914.612 140.644Z" fill="#F8FCFF"/>
<path d="M928.552 160.624H1041.7C1042.93 160.624 1043.95 161.599 1043.95 162.767V168.616C1043.95 169.784 1042.93 170.76 1041.7 170.76H928.552C927.319 170.76 926.298 169.784 926.298 168.616V162.767C926.298 161.599 927.218 160.624 928.552 160.624Z" fill="#4693B9"/>
<path d="M945.358 178.655H1024.69C1025.92 178.655 1026.94 179.626 1026.94 180.799V183.038C1026.94 184.211 1025.92 185.182 1024.69 185.182H945.358C944.13 185.182 943.104 184.211 943.104 183.038V180.799C943.104 179.626 944.13 178.655 945.358 178.655Z" fill="#FFD471"/>
<path d="M1047.64 342.292C1047.64 342.594 1047.54 342.896 1047.34 343.198C1047.14 343.499 1046.84 343.797 1046.44 344.094C1046.04 344.392 1045.54 344.689 1044.94 344.978C1044.35 345.267 1043.66 345.551 1042.88 345.831C1042.09 346.115 1041.21 346.387 1040.25 346.653C1039.28 346.92 1038.23 347.183 1037.09 347.432C1035.95 347.686 1034.73 347.931 1033.43 348.163C1032.13 348.399 1030.75 348.622 1029.3 348.836C1027.85 349.051 1026.33 349.256 1024.75 349.449C1023.16 349.641 1021.52 349.821 1019.81 349.987C1018.11 350.157 1016.35 350.311 1014.54 350.455C1012.73 350.599 1010.88 350.726 1008.99 350.844C1007.09 350.958 1005.16 351.063 1003.2 351.15C1001.24 351.238 999.251 351.312 997.237 351.369C995.227 351.43 993.203 351.474 991.161 351.505C989.119 351.535 987.073 351.549 985.021 351.549C982.97 351.549 980.923 351.535 978.886 351.505C976.844 351.474 974.816 351.43 972.806 351.369C970.796 351.312 968.809 351.238 966.845 351.15C964.881 351.063 962.954 350.958 961.059 350.844C959.164 350.726 957.311 350.599 955.503 350.455C953.696 350.311 951.939 350.157 950.233 349.987C948.526 349.821 946.88 349.641 945.298 349.449C943.711 349.256 942.193 349.051 940.744 348.836C939.291 348.622 937.916 348.399 936.614 348.163C935.313 347.931 934.094 347.686 932.953 347.432C931.817 347.183 930.764 346.92 929.794 346.653C928.828 346.387 927.954 346.115 927.168 345.831C926.386 345.551 925.696 345.267 925.098 344.978C924.505 344.689 924.003 344.392 923.603 344.094C923.203 343.797 922.904 343.499 922.702 343.198C922.504 342.896 922.403 342.594 922.403 342.292C922.403 341.986 922.504 341.684 922.702 341.382C922.904 341.08 923.203 340.783 923.603 340.485C924.003 340.188 924.505 339.89 925.098 339.602C925.696 339.313 926.386 339.029 927.168 338.749C927.954 338.469 928.828 338.193 929.794 337.926C930.764 337.659 931.817 337.397 932.953 337.148C934.094 336.894 935.313 336.649 936.614 336.417C937.916 336.181 939.291 335.958 940.744 335.743C942.193 335.529 943.711 335.323 945.298 335.131C946.88 334.939 948.526 334.759 950.233 334.593C951.939 334.422 953.696 334.269 955.503 334.125C957.311 333.981 959.164 333.854 961.059 333.736C962.954 333.622 964.881 333.517 966.845 333.429C968.809 333.342 970.796 333.267 972.806 333.211C974.816 333.149 976.844 333.106 978.886 333.075C980.923 333.044 982.97 333.031 985.021 333.031C987.073 333.031 989.119 333.044 991.161 333.075C993.203 333.106 995.227 333.149 997.237 333.211C999.251 333.267 1001.24 333.342 1003.2 333.429C1005.16 333.517 1007.09 333.622 1008.99 333.736C1010.88 333.854 1012.73 333.981 1014.54 334.125C1016.35 334.269 1018.11 334.422 1019.81 334.593C1021.52 334.759 1023.16 334.939 1024.75 335.131C1026.33 335.323 1027.85 335.529 1029.3 335.743C1030.75 335.958 1032.13 336.181 1033.43 336.417C1034.73 336.649 1035.95 336.894 1037.09 337.148C1038.23 337.397 1039.28 337.659 1040.25 337.926C1041.21 338.193 1042.09 338.469 1042.88 338.749C1043.66 339.029 1044.35 339.313 1044.94 339.602C1045.54 339.89 1046.04 340.188 1046.44 340.485C1046.84 340.783 1047.14 341.08 1047.34 341.382C1047.54 341.684 1047.64 341.986 1047.64 342.292Z" fill="#A2DDD0"/>
<path d="M990.453 342.192H933.984V296.776L962.269 269.291L990.453 296.776V342.192Z" fill="#8DC5EA"/>
<path d="M990.453 296.776H1040.26V342.293H990.453V296.776Z" fill="#98D4FC"/>
<path d="M1043.13 297.165L993.429 297.068L962.269 266.661L1013.31 266.854L1043.13 297.165Z" fill="#4693B9"/>
<path d="M929.679 302.235L926.91 299.601L962.269 266.661L993.429 297.068L991.994 300.87L962.168 271.827L929.679 302.235Z" fill="#2F627C"/>
<path d="M998.345 297.068L967.701 266.661H968.009L998.653 297.068H998.345Z" fill="#98D4FC"/>
<path d="M1005.21 297.068L974.568 266.757L974.876 266.661L1005.52 297.068H1005.21Z" fill="#98D4FC"/>
<path d="M1012.08 297.069L981.434 266.758H981.843L1012.39 297.069H1012.08Z" fill="#98D4FC"/>
<path d="M1018.95 297.069L988.301 266.758H988.71L1019.25 297.069H1018.95Z" fill="#98D4FC"/>
<path d="M1025.81 297.165L995.167 266.758H995.577L1026.22 297.165H1025.81Z" fill="#98D4FC"/>
<path d="M1032.68 297.165L1002.14 266.854H1002.44L1033.09 297.165H1032.68Z" fill="#98D4FC"/>
<path d="M1039.55 297.165L1009.01 266.854H1009.31L1039.95 297.165H1039.55Z" fill="#98D4FC"/>
<path d="M1041.29 300.871H991.994L993.429 297.069L1043.13 297.165L1041.29 300.871Z" fill="#4087AA"/>
<path d="M962.168 271.828L934.494 297.655L933.984 298.141V303.697L962.375 276.99L990.453 305.744V299.41L962.168 271.828Z" fill="#90CAF0"/>
<path d="M990.453 299.41V305.744H1040.26V300.871H991.994L990.453 299.41Z" fill="#98D4FC"/>
<path d="M962.269 271.727L934.494 297.655L962.168 271.828L990.453 299.409L991.994 300.87L962.269 271.727Z" fill="#5085A4"/>
<path d="M1002.34 313.635H1010.64V330.792H1002.34V313.635Z" fill="#4693B9"/>
<path d="M957.352 313.635H965.654V330.792H957.352V313.635Z" fill="#4693B9"/>
<path d="M1021.61 313.635H1029.91V330.792H1021.61V313.635Z" fill="#4693B9"/>
<path d="M966.063 296.775C966.063 299.019 964.113 300.87 961.758 300.87C959.399 300.87 957.454 299.019 957.454 296.775C957.454 294.535 959.399 292.681 961.758 292.681C964.113 292.681 966.063 294.435 966.063 296.775Z" fill="#4693B9"/>
<path d="M992.196 375.719H1035.35C1036.37 375.719 1037.29 376.502 1037.29 377.573V426.402C1037.29 427.373 1036.47 428.252 1035.35 428.252H992.196C991.171 428.252 990.251 427.473 990.251 426.402V377.573C990.251 376.502 991.07 375.719 992.196 375.719Z" fill="#2F627C"/>
<path d="M1021.82 414.703C1021 414.703 1020.28 414.41 1019.76 413.828C1019.25 413.242 1018.95 412.56 1018.95 411.781V410.123C1018.95 409.244 1019.15 408.465 1019.76 407.98C1020.28 407.49 1021 407.201 1021.82 407.201C1022.63 407.201 1023.35 407.49 1023.87 407.98C1024.38 408.465 1024.69 409.244 1024.69 410.123V411.781C1024.58 413.728 1023.66 414.703 1021.82 414.703ZM1021.71 403.496C1019.56 403.496 1017.82 404.082 1016.48 405.25C1015.16 406.418 1014.44 408.076 1014.44 410.027V411.68C1014.44 413.728 1015.16 415.289 1016.38 416.457C1017.72 417.625 1019.46 418.308 1021.71 418.308C1023.87 418.308 1025.71 417.726 1026.94 416.554C1028.27 415.386 1028.89 413.728 1028.89 411.781V410.219C1028.89 408.172 1028.17 406.519 1026.84 405.346C1025.61 404.082 1023.87 403.496 1021.71 403.496ZM1020.18 388.972L1003.78 413.828L1007.06 415.482L1023.35 390.63L1020.18 388.972ZM1005.73 396.772C1004.9 396.772 1004.19 396.479 1003.68 395.989C1003.16 395.504 1002.86 394.725 1002.86 393.846V392.288C1002.86 391.313 1003.06 390.63 1003.68 390.044C1004.19 389.559 1004.9 389.265 1005.73 389.265C1006.65 389.265 1007.26 389.559 1007.77 390.044C1008.29 390.63 1008.49 391.313 1008.49 392.192V393.846C1008.49 394.725 1008.29 395.504 1007.77 395.989C1007.26 396.479 1006.65 396.772 1005.73 396.772ZM1005.73 385.661C1003.57 385.661 1001.83 386.243 1000.5 387.511C999.164 388.78 998.552 390.337 998.552 392.288V393.846C998.552 395.893 999.27 397.551 1000.6 398.719C1001.93 399.891 1003.68 400.574 1005.93 400.574C1008.08 400.574 1009.83 399.987 1011.16 398.815C1012.49 397.647 1013.21 395.989 1013.21 394.042V392.481C1013.21 390.433 1012.49 388.78 1011.16 387.608C1009.62 386.243 1007.88 385.661 1005.73 385.661Z" fill="#D5E0E5"/>
<path d="M934.802 375.719H977.952C978.973 375.719 979.898 376.502 979.898 377.573V426.498C979.898 427.473 979.079 428.348 977.952 428.348H934.802C933.777 428.348 932.857 427.57 932.857 426.498V377.573C932.857 376.502 933.777 375.719 934.802 375.719Z" fill="#2A817D"/>
<path d="M958.787 383.417H955.503V387.608C953.047 387.805 951.097 388.68 949.662 390.044C948.227 391.409 947.409 393.264 947.409 395.408C947.409 396.672 947.616 397.744 948.025 398.719C948.434 399.695 949.051 400.473 949.869 401.156C950.688 401.838 951.613 402.424 952.638 403.01C953.765 403.496 954.993 404.082 956.529 404.568C958.07 405.053 959.091 405.736 959.707 406.322C960.323 407.004 960.632 407.783 960.632 408.855C960.632 409.83 960.323 410.71 959.606 411.291C958.888 411.878 957.964 412.171 956.736 412.171C955.301 412.171 954.174 411.781 953.457 410.902C952.739 410.123 952.33 408.855 952.33 407.394H946.383C946.383 410.027 947.202 412.171 948.637 413.829C950.178 415.386 952.33 416.361 955.094 416.655V420.552H958.373V416.655C960.94 416.361 962.885 415.583 964.32 414.218C965.755 412.853 966.473 410.998 966.473 408.855C966.473 407.687 966.266 406.615 965.856 405.736C965.447 404.861 964.936 404.082 964.219 403.4C963.502 402.717 962.577 402.131 961.551 401.545C960.526 400.963 959.197 400.377 957.555 399.791C955.917 399.209 954.791 398.527 954.174 397.94C953.558 397.354 953.25 396.576 953.25 395.6C953.25 394.528 953.558 393.75 954.174 393.067C954.791 392.481 955.609 392.192 956.736 392.192C957.863 392.192 958.787 392.582 959.505 393.36C960.222 394.139 960.526 395.307 960.526 396.869H966.473C966.473 394.336 965.755 392.289 964.421 390.727C963.088 389.169 961.142 388.194 958.787 387.901V383.417Z" fill="#D4E6E5"/>
<path d="M957.656 206.429H1012.39C1023.46 206.429 1032.48 215.007 1032.48 225.532V225.628C1032.48 236.154 1023.46 244.732 1012.39 244.732H957.656C946.59 244.732 937.571 236.154 937.571 225.628V225.532C937.571 215.007 946.59 206.429 957.656 206.429Z" fill="#2A817D"/>
<path d="M980.408 498.226C980.408 498.226 948.945 441.895 974.466 442.482C985.021 442.77 994.04 487.508 994.04 487.508C994.04 487.508 991.994 446.672 1013 453.103C1024.38 456.611 1007.16 487.508 1007.16 487.508C1007.16 487.508 1022.74 467.526 1031.55 473.182C1045.9 482.438 1019.66 498.327 1019.66 498.327L980.408 498.226Z" fill="#A2DDD0"/>
<path d="M966.675 498.13C966.675 498.13 961.142 468.309 948.945 468.794C940.234 469.184 948.126 489.359 955.503 498.034C955.402 498.13 966.266 498.13 966.675 498.13Z" fill="#A2DDD0"/>
<path d="M988.098 498.227L974.977 454.079C974.875 453.786 974.567 453.59 974.259 453.69C973.956 453.786 973.749 454.079 973.85 454.373L986.866 498.227H988.098Z" fill="#E0FBF0"/>
<path d="M998.962 498.327L1008.08 462.653C1008.18 462.364 1007.98 462.071 1007.67 461.97C1007.36 461.874 1007.06 462.071 1006.96 462.364L997.835 498.327H998.962Z" fill="#E0FBF0"/>
<path d="M960.94 498.13L952.532 478.248C952.431 477.955 952.123 477.858 951.815 477.955C951.507 478.055 951.406 478.445 951.507 478.637L959.707 498.13H960.94Z" fill="#E0FBF0"/>
<path d="M1008.6 498.327L1025.09 480.588C1025.3 480.392 1025.3 480.002 1024.99 479.81C1024.79 479.613 1024.38 479.613 1024.17 479.81L1007.06 498.327H1008.6Z" fill="#E0FBF0"/>
<path d="M1105.86 420.356H1167.66V429.127H1105.86V420.356Z" fill="#FFD471"/>
<path d="M1112.11 420.356H1113.03V429.127H1112.11V420.356Z" fill="#FFBC33"/>
<path d="M1118.87 420.356H1119.79V429.127H1118.87V420.356Z" fill="#FFBC33"/>
<path d="M1125.43 420.356H1126.35V429.127H1125.43V420.356Z" fill="#FFBC33"/>
<path d="M1132.1 420.356H1133.01V429.127H1132.1V420.356Z" fill="#FFBC33"/>
<path d="M1139.16 420.356H1140.09V429.127H1139.16V420.356Z" fill="#FFBC33"/>
<path d="M1146.55 420.356H1147.46V429.127H1146.55V420.356Z" fill="#FFBC33"/>
<path d="M1153.62 420.356H1154.54V429.127H1153.62V420.356Z" fill="#FFBC33"/>
<path d="M1160.28 420.356H1161.2V429.127H1160.28V420.356Z" fill="#FFBC33"/>
<path d="M1107.6 410.998H1169.4V420.062H1107.6V410.998Z" fill="#FFD471"/>
<path d="M1113.85 410.998H1114.77V419.774H1113.85V410.998Z" fill="#FFBC33"/>
<path d="M1120.62 410.998H1121.53V419.774H1120.62V410.998Z" fill="#FFBC33"/>
<path d="M1127.17 410.998H1128.1V419.774H1127.17V410.998Z" fill="#FFBC33"/>
<path d="M1133.83 410.998H1134.76V419.774H1133.83V410.998Z" fill="#FFBC33"/>
<path d="M1140.91 410.998H1141.83V419.774H1140.91V410.998Z" fill="#FFBC33"/>
<path d="M1148.29 410.998H1149.21V419.774H1148.29V410.998Z" fill="#FFBC33"/>
<path d="M1155.36 410.998H1156.28V419.774H1155.36V410.998Z" fill="#FFBC33"/>
<path d="M1162.02 410.998H1162.94V419.774H1162.02V410.998Z" fill="#FFBC33"/>
<path d="M1098.89 401.742H1160.69V410.513H1098.89V401.742Z" fill="#FFD471"/>
<path d="M1105.24 401.742H1106.16V410.513H1105.24V401.742Z" fill="#FFBC33"/>
<path d="M1112.01 401.742H1112.93V410.513H1112.01V401.742Z" fill="#FFBC33"/>
<path d="M1118.56 401.742H1119.49V410.513H1118.56V401.742Z" fill="#FFBC33"/>
<path d="M1125.23 401.742H1126.15V410.513H1125.23V401.742Z" fill="#FFBC33"/>
<path d="M1132.2 401.742H1133.11V410.513H1132.2V401.742Z" fill="#FFBC33"/>
<path d="M1139.68 401.742H1140.6V410.513H1139.68V401.742Z" fill="#FFBC33"/>
<path d="M1146.65 401.742H1147.56V410.513H1146.65V401.742Z" fill="#FFBC33"/>
<path d="M1153.41 401.742H1154.33V410.513H1153.41V401.742Z" fill="#FFBC33"/>
<path d="M1107.6 419.871H1167.76V420.356H1107.6V419.871Z" fill="#FFBC33"/>
<path d="M1107.6 410.513H1160.79V410.999H1107.6V410.513Z" fill="#FFBC33"/>
<path d="M1109.34 429.616H1171.14V438.387H1109.34V429.616Z" fill="#FFD471"/>
<path d="M1115.59 429.616H1116.51V438.387H1115.59V429.616Z" fill="#FFBC33"/>
<path d="M1122.36 429.616H1123.28V438.387H1122.36V429.616Z" fill="#FFBC33"/>
<path d="M1128.92 429.616H1129.84V438.387H1128.92V429.616Z" fill="#FFBC33"/>
<path d="M1135.58 429.616H1136.5V438.387H1135.58V429.616Z" fill="#FFBC33"/>
<path d="M1142.55 429.616H1143.47V438.387H1142.55V429.616Z" fill="#FFBC33"/>
<path d="M1150.03 429.616H1150.95V438.387H1150.03V429.616Z" fill="#FFBC33"/>
<path d="M1157 429.616H1157.92V438.387H1157V429.616Z" fill="#FFBC33"/>
<path d="M1163.76 429.616H1164.68V438.387H1163.76V429.616Z" fill="#FFBC33"/>
<path d="M1109.34 429.127H1167.76V429.617H1109.34V429.127Z" fill="#FFBC33"/>
<path d="M1107.6 363.049H1173.19V372.31H1107.6V363.049Z" fill="#FFD471"/>
<path d="M1114.36 363.049H1115.28V372.31H1114.36V363.049Z" fill="#FFBC33"/>
<path d="M1121.43 363.049H1122.36V372.31H1121.43V363.049Z" fill="#FFBC33"/>
<path d="M1128.4 363.049H1129.32V372.31H1128.4V363.049Z" fill="#FFBC33"/>
<path d="M1135.48 363.049H1136.4V372.31H1135.48V363.049Z" fill="#FFBC33"/>
<path d="M1142.96 363.049H1143.88V372.31H1142.96V363.049Z" fill="#FFBC33"/>
<path d="M1150.85 363.049H1151.77V372.31H1150.85V363.049Z" fill="#FFBC33"/>
<path d="M1158.23 363.049H1159.15V372.31H1158.23V363.049Z" fill="#FFBC33"/>
<path d="M1165.4 363.049H1166.32V372.31H1165.4V363.049Z" fill="#FFBC33"/>
<path d="M1103.7 372.892H1169.3V382.153H1103.7V372.892Z" fill="#FFD471"/>
<path d="M1110.36 372.892H1111.29V382.153H1110.36V372.892Z" fill="#FFBC33"/>
<path d="M1117.54 372.892H1118.46V382.153H1117.54V372.892Z" fill="#FFBC33"/>
<path d="M1124.41 372.892H1125.33V382.153H1124.41V372.892Z" fill="#FFBC33"/>
<path d="M1131.58 372.892H1132.5V382.153H1131.58V372.892Z" fill="#FFBC33"/>
<path d="M1138.96 372.892H1139.88V382.153H1138.96V372.892Z" fill="#FFBC33"/>
<path d="M1146.85 372.892H1147.77V382.153H1146.85V372.892Z" fill="#FFBC33"/>
<path d="M1154.33 372.892H1155.25V382.153H1154.33V372.892Z" fill="#FFBC33"/>
<path d="M1161.41 372.892H1162.32V382.153H1161.41V372.892Z" fill="#FFBC33"/>
<path d="M1109.95 382.735H1175.55V391.995H1109.95V382.735Z" fill="#FFD471"/>
<path d="M1116.62 382.735H1117.54V391.995H1116.62V382.735Z" fill="#FFBC33"/>
<path d="M1123.69 382.735H1124.61V391.995H1123.69V382.735Z" fill="#FFBC33"/>
<path d="M1130.66 382.735H1131.58V391.995H1130.66V382.735Z" fill="#FFBC33"/>
<path d="M1137.73 382.735H1138.65V391.995H1137.73V382.735Z" fill="#FFBC33"/>
<path d="M1145.21 382.735H1146.13V391.995H1145.21V382.735Z" fill="#FFBC33"/>
<path d="M1153.11 382.735H1154.02V391.995H1153.11V382.735Z" fill="#FFBC33"/>
<path d="M1160.48 382.735H1161.4V391.995H1160.48V382.735Z" fill="#FFBC33"/>
<path d="M1167.66 382.735H1168.58V391.995H1167.66V382.735Z" fill="#FFBC33"/>
<path d="M1107.6 372.311H1169.19V372.797H1107.6V372.311Z" fill="#FFBC33"/>
<path d="M1109.95 382.154H1169.3V382.639H1109.95V382.154Z" fill="#FFBC33"/>
<path d="M1101.55 392.482H1167.15V401.743H1101.55V392.482Z" fill="#FFD471"/>
<path d="M1108.32 392.482H1109.23V401.743H1108.32V392.482Z" fill="#FFBC33"/>
<path d="M1115.39 392.482H1116.31V401.743H1115.39V392.482Z" fill="#FFBC33"/>
<path d="M1122.36 392.482H1123.28V401.743H1122.36V392.482Z" fill="#FFBC33"/>
<path d="M1129.43 392.482H1130.35V401.743H1129.43V392.482Z" fill="#FFBC33"/>
<path d="M1136.91 392.482H1137.83V401.743H1136.91V392.482Z" fill="#FFBC33"/>
<path d="M1144.8 392.482H1145.72V401.743H1144.8V392.482Z" fill="#FFBC33"/>
<path d="M1152.18 392.482H1153.1V401.743H1152.18V392.482Z" fill="#FFBC33"/>
<path d="M1159.36 392.482H1160.28V401.743H1159.36V392.482Z" fill="#FFBC33"/>
<path d="M1109.95 391.997H1167.25V392.482H1109.95V391.997Z" fill="#FFBC33"/>
<path d="M1111.29 353.11H1176.88V362.367H1111.29V353.11Z" fill="#FFD471"/>
<path d="M1117.95 353.11H1118.87V362.367H1117.95V353.11Z" fill="#FFBC33"/>
<path d="M1125.12 353.11H1126.04V362.367H1125.12V353.11Z" fill="#FFBC33"/>
<path d="M1132.1 353.11H1133.01V362.367H1132.1V353.11Z" fill="#FFBC33"/>
<path d="M1139.16 353.11H1140.09V362.367H1139.16V353.11Z" fill="#FFBC33"/>
<path d="M1146.55 353.11H1147.46V362.367H1146.55V353.11Z" fill="#FFBC33"/>
<path d="M1154.43 353.11H1155.36V362.367H1154.43V353.11Z" fill="#FFBC33"/>
<path d="M1161.92 353.11H1162.84V362.367H1161.92V353.11Z" fill="#FFBC33"/>
<path d="M1168.99 353.11H1169.91V362.367H1168.99V353.11Z" fill="#FFBC33"/>
<path d="M1111.29 362.464H1173.19V362.954H1111.29V362.464Z" fill="#FFBC33"/>
<path d="M1101.55 401.353H1160.79V401.838H1101.55V401.353Z" fill="#FFBC33"/>
<path d="M1111.7 482.146C1105.65 490.724 1093.46 492.964 1084.54 487.216C1075.52 481.463 1073.16 469.867 1079.21 461.389C1085.26 452.907 1097.45 450.571 1106.37 456.319C1115.29 462.071 1117.75 473.572 1111.7 482.146Z" fill="#4087AA"/>
<path d="M1095.4 464.118C1099.81 464.118 1103.4 467.526 1103.4 471.716C1103.4 475.907 1099.81 479.319 1095.4 479.319C1091 479.319 1087.41 475.907 1087.41 471.716C1087.41 467.526 1091 464.118 1095.4 464.118Z" fill="#2F627C"/>
<path d="M1112.83 449.985L1075.52 402.425L1209.17 401.935L1201.17 437.22C1200.25 439.556 1192.15 440.142 1189.59 440.435L1125.64 448.913C1123.28 449.303 1114.47 451.739 1112.83 449.985Z" fill="#4693B9"/>
<path d="M1070.91 395.798L1210.39 395.308C1211.83 395.308 1212.96 396.384 1212.96 397.744V401.546C1212.96 402.911 1211.83 403.982 1210.39 403.982L1070.91 404.472C1069.47 404.472 1068.35 403.4 1068.35 402.036V398.234C1068.35 396.869 1069.47 395.798 1070.91 395.798Z" fill="#2F627C"/>
<path d="M1250.88 380.981L1236.02 382.932C1232.94 383.322 1230.28 385.273 1228.95 388.002L1209.17 431.468C1208.04 433.904 1205.58 435.755 1202.81 436.048L1183.54 438.58L1149 443.165L1116.41 447.452C1111.6 448.134 1107.19 450.667 1104.42 454.469L1093.15 470.064C1092.33 471.232 1092.53 472.89 1093.66 473.765C1094.17 474.154 1094.79 474.255 1095.3 474.255C1096.22 474.255 1097.04 473.865 1097.56 473.082L1108.83 457.391C1110.78 454.762 1113.64 453.008 1117.03 452.618L1147.77 448.524L1167.15 477.955C1169.5 481.564 1173.7 483.708 1178.01 483.708C1178.62 483.708 1179.14 483.708 1179.75 483.607C1186.82 482.636 1191.64 476.494 1190.72 469.867L1186.82 443.454L1203.32 441.31C1208.04 440.728 1212.14 437.802 1213.98 433.611L1233.76 390.146C1234.28 389.074 1235.3 388.291 1236.53 388.195L1252.72 386.051C1255.39 383.322 1253.23 380.693 1250.88 380.981ZM1185.49 470.646C1186 474.447 1183.23 477.955 1179.24 478.542C1176.37 478.931 1173.5 477.662 1172.06 475.326L1154.02 447.938L1181.7 444.237L1185.49 470.646Z" fill="#254D62"/>
<path d="M1077.77 404.766C1082.08 404.766 1086.49 404.766 1090.79 404.766C1101.14 404.766 1111.5 404.665 1121.84 404.665C1134.35 404.665 1146.85 404.569 1159.36 404.569C1170.22 404.569 1181.08 404.473 1191.95 404.473C1195.53 404.473 1199.12 404.473 1202.71 404.473C1204.35 404.473 1206.09 404.569 1207.73 404.473H1207.94C1208.35 404.473 1208.35 403.886 1207.94 403.886C1203.63 403.886 1199.23 403.886 1194.92 403.886C1184.57 403.886 1174.22 403.983 1163.87 403.983C1151.36 403.983 1138.86 404.083 1126.36 404.083C1115.49 404.083 1104.63 404.18 1093.76 404.18C1090.17 404.18 1086.59 404.18 1083 404.18C1081.36 404.18 1079.62 404.083 1077.98 404.18H1077.77C1077.26 404.083 1077.26 404.766 1077.77 404.766Z" fill="#29566D"/>
<path d="M1254.98 385.954L1242.16 387.608L1241.35 381.956L1254.16 380.298C1255.8 380.105 1257.33 381.177 1257.54 382.734C1257.75 384.296 1256.62 385.757 1254.98 385.954Z" fill="#4693B9"/>
<path d="M931.523 239.662C931.523 239.662 932.549 238.883 932.958 238.59C933.882 237.908 934.802 237.129 935.727 236.547C936.752 235.865 937.879 235.375 939.006 235.182C940.133 234.985 941.158 234.985 942.285 234.596C943.821 234.01 944.948 232.938 945.771 231.573C945.974 231.963 946.282 232.356 946.898 232.159C947.308 232.063 947.51 231.77 947.616 231.381C947.919 231.674 948.333 231.77 948.844 231.28C949.869 230.501 950.072 228.844 949.869 227.676C949.253 224.653 946.075 223.292 943.104 223.97C943.72 222.802 944.64 221.827 945.463 220.755C945.873 220.173 946.793 218.905 946.489 218.126C945.666 216.271 942.285 220.462 941.876 221.144C941.053 222.413 940.234 223.581 939.314 224.753C938.187 226.214 937.47 227.382 936.035 228.454C933.059 230.698 929.78 232.746 926.399 234.5C926.193 234.5 928.86 238.979 931.523 239.662Z" fill="#FFA18A"/>
<path d="M897.498 430.006C897.806 435.172 898.933 440.142 898.625 445.404C898.114 455.54 895.037 465.286 891.96 474.74H882.946C883.047 469.28 883.249 463.825 883.249 458.27C883.249 453.007 882.431 447.644 882.638 442.381C882.84 439.849 883.047 437.219 882.946 434.682C882.84 431.953 882.33 429.323 882.021 426.594C881.405 422.403 880.895 418.212 881.713 414.118H899.65L899.545 414.218C898.418 419.38 897.19 424.647 897.498 430.006Z" fill="#FFA18A"/>
<path d="M856.399 430.006C856.091 435.172 854.964 440.142 855.272 445.404C855.682 455.54 858.86 465.286 861.831 474.74H870.85C870.749 469.28 870.542 463.825 870.542 458.27C870.542 453.007 871.36 447.644 871.158 442.381C870.951 439.849 870.749 437.219 870.85 434.682C870.951 431.953 871.466 429.323 871.774 426.594C872.386 422.403 872.901 418.212 872.078 414.118H854.145L854.247 414.218C855.475 419.38 856.707 424.647 856.399 430.006Z" fill="#FFA18A"/>
<path d="M865.009 244.733C864.19 243.954 863.473 243.176 862.857 242.296C861.32 239.956 859.679 237.716 857.526 235.962L838.053 242.296C837.952 242.393 837.952 242.493 837.851 242.59C836.719 245.122 836.517 248.145 836.517 250.875C836.618 254.186 837.335 257.502 838.669 260.521C839.079 261.4 840.615 264.418 842.155 265.005C842.459 266.076 842.767 267.052 843.075 268.027C843.383 269.195 843.692 270.56 844.202 271.632L863.882 265.201C863.473 263.837 863.059 262.568 862.447 261.299C863.675 259.838 864.701 258.185 864.908 256.234C865.009 255.066 864.701 253.893 864.393 252.725C863.882 250.774 863.776 249.217 865.009 247.463C865.418 246.877 865.929 246.29 865.625 245.512C865.52 245.319 865.211 245.026 865.009 244.733Z" fill="#FFA18A"/>
<path d="M796.343 321.335C797.571 317.048 800.749 313.247 803.412 309.642C806.079 306.037 808.742 302.428 811.612 299.021C817.554 292 824.32 286.155 832.419 281.378C834.875 279.917 837.437 278.355 839.18 276.116C840.514 274.265 841.438 272.314 843.177 270.757C845.536 268.71 848.714 267.638 851.786 266.855C855.374 265.201 863.367 263.933 863.574 263.836C869.926 263.447 871.876 263.736 877.818 261.496C883.866 259.156 893.294 253.994 898.216 249.996C907.846 242.2 919.225 236.837 930.498 231.675C931.422 234.4 936.035 238.591 936.035 238.591C926.193 245.901 919.432 256.234 909.387 263.347C903.955 267.244 898.933 270.656 895.139 276.212C893.81 278.163 892.678 280.21 891.551 282.354C889.606 289.856 888.787 297.656 889.298 305.451C890.015 315.198 892.784 324.262 896.983 333.229C900.98 341.803 903.955 350.185 905.593 359.446C907.235 368.899 908.362 378.545 909.079 388.099C909.695 396.187 910.105 404.372 910.206 412.561C888.58 418.021 866.343 418.699 844.303 416.848C843.485 402.229 844.101 387.513 846.047 372.989C847.173 364.805 849.022 356.812 850.25 348.724C851.584 340.049 850.968 331.182 848.507 322.7C846.047 314.318 842.459 306.326 837.952 298.728C833.854 303.793 829.549 308.763 825.037 313.443C822.682 315.976 820.121 318.413 817.352 320.46C827.498 324.165 837.952 326.794 848.608 328.256C848.608 328.256 846.152 330.793 844.92 338.781C844.92 338.781 833.238 336.834 827.397 336.152C822.167 335.565 816.837 335.373 811.612 334.69C804.235 333.811 793.781 330.303 796.343 321.335Z" fill="#FFD471"/>
<path d="M832.005 252.917C832.419 255.747 833.03 258.67 834.157 261.299C835.592 264.811 838.669 266.662 842.256 267.537C842.049 268.123 841.847 268.709 841.741 269.392C841.332 271.045 841.024 272.799 841.024 274.553C841.024 276.99 842.155 279.72 844.717 280.792C847.279 281.767 850.149 280.498 851.887 278.744C854.964 275.726 855.065 271.146 852.605 267.926C854.454 267.147 856.091 265.686 857.324 264.129C858.653 262.274 859.577 260.227 859.885 257.987C860.189 255.551 859.476 253.21 859.577 250.774C859.678 248.145 861.113 245.804 861.831 243.271C862.341 241.71 862.447 240.056 862.341 238.494C862.649 237.226 862.856 229.723 853.837 227.383C844 224.85 837.436 229.238 834.157 233.136C831.701 236.154 829.852 238.787 829.852 244.439C829.751 248.241 831.701 250.384 832.005 252.917Z" fill="#A55852"/>
<path d="M845.127 337.707C845.945 337.808 846.764 338.197 847.38 338.683C847.891 339.173 848.305 339.755 849.022 340.048C850.043 340.533 851.069 339.755 851.377 338.779C851.584 338.101 851.584 337.318 851.685 336.636C851.786 335.857 852.094 335.078 852.094 334.199C852.196 332.738 851.892 330.498 849.942 329.427L850.043 329.912C849.74 330.205 849.326 330.109 848.916 330.008C848.305 329.912 848.098 329.816 847.587 329.523C846.87 330.595 846.253 331.863 845.844 333.031C845.435 334.396 845.127 337.611 845.127 337.707Z" fill="#FFA18A"/>
<path d="M857.425 460.802C857.324 459.927 857.117 458.952 857.016 458.072C856.91 457.683 856.91 457.587 856.91 457.587C861.114 458.366 866.752 458.072 870.749 457.779C870.749 457.779 870.85 459.144 870.951 460.802H857.425Z" fill="#98D4FC"/>
<path d="M871.158 479.223C871.057 476.201 871.466 473.082 871.568 469.963C871.775 466.747 871.361 460.317 871.361 460.317C867.263 460.61 861.523 460.899 857.218 460.12C857.218 460.12 857.218 460.317 857.324 460.61C857.935 463.532 858.345 466.454 858.653 469.477C858.759 470.746 858.86 472.11 858.961 473.375C859.062 474.936 859.269 476.691 858.961 478.152C858.552 480.199 856.91 481.953 857.016 484.193C857.117 485.947 858.451 487.119 859.78 488.091C861.32 489.263 862.447 491.21 864.292 491.988C865.929 492.671 867.879 492.382 869.516 491.599C871.466 490.628 871.669 488.677 871.876 486.629C872.184 484.097 871.259 481.852 871.158 479.223Z" fill="#12252E"/>
<path d="M896.371 461.095C896.472 460.216 896.679 459.244 896.78 458.365C896.882 457.976 896.882 457.88 896.882 457.88C892.678 458.658 887.044 458.365 883.047 458.072C883.047 458.072 882.946 459.437 882.946 461.095H896.371Z" fill="#98D4FC"/>
<path d="M882.021 486.826C882.228 488.874 882.532 490.917 884.376 491.796C886.018 492.575 887.862 492.868 889.606 492.185C891.349 491.407 892.577 489.456 894.113 488.288C895.345 487.312 896.78 486.144 896.882 484.39C896.983 482.146 895.345 480.392 894.936 478.344C894.628 476.883 894.83 475.033 894.936 473.572C895.037 472.303 895.138 470.938 895.244 469.674C895.548 466.651 895.962 463.725 896.573 460.802C896.679 460.413 896.679 460.317 896.679 460.317C892.374 461.096 886.634 460.802 882.532 460.509C882.532 460.509 882.123 466.944 882.33 470.16C882.431 473.182 882.84 476.301 882.739 479.416C882.638 481.853 881.713 484.193 882.021 486.826Z" fill="#12252E"/>
<path d="M1222.18 302.038C1227.71 320.848 1216.03 340.341 1196.25 345.604C1176.47 350.77 1155.98 339.755 1150.44 320.945C1144.9 302.134 1156.59 282.646 1176.37 277.383C1196.15 272.116 1216.65 283.227 1222.18 302.038Z" fill="#FFBC33"/>
<path d="M1217.26 303.307C1221.98 319.581 1211.93 336.444 1194.82 340.928C1177.7 345.408 1159.97 335.858 1155.26 319.581C1150.54 303.307 1160.59 286.448 1177.7 281.964C1194.82 277.48 1212.55 287.03 1217.26 303.307Z" fill="#FFD471"/>
<path d="M1191.84 316.269C1191.44 315.197 1190.82 314.419 1190 314.029C1189.18 313.636 1187.85 313.443 1186.21 313.347C1184.57 313.347 1183.03 313.246 1181.8 313.054C1180.57 312.857 1179.34 312.664 1178.32 312.174C1177.29 311.785 1176.37 311.199 1175.65 310.42C1174.83 309.642 1174.22 308.666 1173.81 307.402C1172.99 305.254 1172.99 303.211 1173.91 301.26C1174.83 299.41 1176.47 297.848 1178.83 296.776L1177.29 292.682L1180.57 291.61L1182.11 295.801C1184.67 295.315 1186.82 295.608 1188.87 296.68C1190.92 297.752 1192.25 299.602 1193.28 302.135L1187.44 304.182C1186.82 302.625 1186.1 301.553 1185.08 301.063C1184.06 300.578 1183.03 300.481 1182.01 300.871C1180.88 301.26 1180.16 301.846 1179.75 302.625C1179.34 303.404 1179.34 304.379 1179.75 305.451C1180.16 306.426 1180.77 307.109 1181.6 307.498C1182.42 307.887 1183.75 308.084 1185.59 308.181C1187.44 308.277 1188.97 308.373 1190.21 308.57C1191.44 308.762 1192.56 309.055 1193.59 309.545C1194.61 309.935 1195.43 310.617 1196.15 311.3C1196.87 312.078 1197.48 313.054 1197.89 314.222C1198.71 316.365 1198.71 318.413 1197.79 320.263C1196.87 322.118 1195.22 323.579 1192.77 324.747L1194.2 328.548L1190.92 329.62L1189.49 325.819C1186.62 326.501 1184.06 326.309 1181.91 325.237C1179.75 324.165 1178.21 322.31 1177.19 319.681L1183.03 317.634C1183.64 319.191 1184.47 320.167 1185.49 320.753C1186.62 321.335 1187.85 321.335 1189.28 320.849C1190.51 320.46 1191.33 319.777 1191.74 318.999C1192.25 318.22 1192.25 317.341 1191.84 316.269Z" fill="#FFBC33"/>
<path d="M1193.28 337.127C1178.42 341.024 1163.04 332.739 1158.95 318.609C1154.85 304.572 1163.56 289.856 1178.42 286.054C1193.28 282.157 1208.65 290.442 1212.75 304.572C1216.85 318.609 1208.14 333.229 1193.28 337.127ZM1178.73 286.934C1164.48 290.735 1156.08 304.768 1159.97 318.413C1163.97 331.96 1178.73 339.953 1193.07 336.247C1207.32 332.446 1215.72 318.413 1211.83 304.768C1207.83 291.221 1192.97 283.228 1178.73 286.934Z" fill="#FFBC33"/>
<path d="M1225.87 355.837L1260.2 363.343C1264.31 377.574 1255.59 386.734 1255.59 412.268C1255.59 427.474 1255.08 442.483 1254.47 457.391H1227.82C1226.9 451.35 1226.69 443.848 1224.43 429.42C1222.49 417.141 1220.34 404.276 1219.52 395.798C1217.98 380.789 1217.26 360.811 1215.93 352.328L1225.87 355.837Z" fill="#2A817D"/>
<path d="M1210.91 334.59C1205.07 335.08 1197.48 331.961 1192.05 331.278C1189.28 330.889 1190.72 333.325 1194.92 336.055C1197.79 337.906 1175.65 336.738 1182.52 342.096C1187.23 356.226 1198.4 343.851 1213.26 345.119C1212.65 342.582 1211.52 337.223 1210.91 334.59Z" fill="#FFA18A"/>
<path d="M1255.9 239.373C1257.64 238.59 1259.38 238.008 1260.62 235.471C1263.59 229.626 1267.07 228.651 1273.53 230.891C1279.06 232.745 1277.42 249.018 1277.42 249.018C1277.32 250.676 1278.24 251.748 1279.06 252.431L1281.42 253.31C1281.42 253.31 1280.39 254.67 1279.78 256.525C1278.76 259.351 1279.27 262.663 1279.27 266.368C1279.27 266.757 1273.12 267.536 1272.71 267.636C1270.25 267.733 1262.36 268.415 1260.72 264.907L1264 256.621C1263.38 256.425 1262.66 256.232 1262.05 255.939C1257.75 254.185 1256.72 250.676 1256.72 246.971C1256.72 245.318 1257.03 243.563 1257.54 241.809C1257.64 241.612 1257.44 241.416 1257.23 241.319L1256.31 241.026C1255.29 240.834 1255.18 239.661 1255.9 239.373Z" fill="#FFA18A"/>
<path d="M1274.04 219.103C1271.89 218.516 1271.68 215.691 1265.94 217.445C1262.36 218.613 1258.87 224.365 1262.05 230.113C1263.49 232.646 1269.74 232.161 1270.35 240.638C1270.56 244.344 1273.83 239.567 1276.4 240.638C1278.24 241.321 1277.11 246.391 1274.24 247.17C1274.24 247.17 1271.27 257.891 1278.35 257.891C1280.8 257.891 1286.24 253.797 1289.72 247.559C1298.23 232.55 1290.95 223.779 1274.04 219.103Z" fill="#12252E"/>
<path d="M1286.54 282.157C1286.13 275.822 1283.78 269.681 1279.78 264.615C1279.78 262.957 1279.68 261.4 1279.17 259.742C1275.27 260.035 1263.07 260.52 1262.46 260.717C1261.44 261.107 1260.41 261.981 1259.49 262.861C1248.93 268.513 1238.17 279.235 1233.97 289.956C1232.53 293.465 1226.9 307.691 1224.33 322.214C1224.23 322.897 1224.13 324.747 1224.13 324.747C1219 328.063 1212.03 332.446 1207.01 334.59C1209.88 337.709 1210.09 342.875 1209.68 346.287C1211.83 346.484 1212.85 346.191 1214.29 345.994C1213.47 348.431 1212.34 353.4 1212.34 353.4C1216.44 354.669 1242.58 366.655 1246.58 367.727C1250.57 368.798 1262.56 374.065 1262.56 374.065C1265.63 365.972 1266.46 355.937 1267.89 347.455C1269.94 335.373 1277.63 310.714 1281.42 304.086C1284.91 297.944 1286.96 289.173 1286.54 282.157Z" fill="#98D4FC"/>
<path d="M1237.15 457.098C1234.99 444.818 1232.84 432.635 1230.79 420.356C1230.28 417.237 1229.77 414.118 1229.46 410.999C1229.15 407.98 1229.25 405.054 1229.25 402.036C1229.36 395.99 1228.95 389.949 1228.43 383.908C1227.92 377.083 1227.3 370.163 1226.79 363.343C1226.79 363.146 1226.49 363.146 1226.49 363.343C1227 369.581 1227.51 375.718 1228.02 381.86C1228.54 387.901 1229.05 393.947 1228.95 399.988C1228.95 403.007 1228.85 406.029 1228.95 409.148C1229.15 412.071 1229.56 414.997 1229.97 417.919C1231 423.965 1232.02 430.006 1233.15 436.047C1234.38 442.968 1235.61 449.985 1236.73 457.001C1236.84 457.391 1237.15 457.294 1237.15 457.098Z" fill="#20615E"/>
<path d="M1206.7 488.773C1207.11 486.726 1208.65 485.361 1210.29 484.289C1213.57 482.246 1223.72 479.416 1224.84 478.541C1226.9 476.787 1227.3 473.865 1227.2 471.328C1227 465.969 1226.28 460.509 1225.77 455.151C1225.77 455.151 1232.94 457.294 1245.14 455.444C1245.14 455.444 1244.32 464.604 1243.91 469.477C1243.71 471.818 1243.5 474.154 1243.71 476.59C1243.91 478.637 1244.32 480.685 1244.73 482.732C1245.14 484.779 1245.55 486.826 1245.65 488.874C1245.65 489.263 1245.65 489.946 1245.65 489.946C1244.32 491.31 1241.14 491.114 1239.6 491.114C1235.81 490.917 1232.12 490.431 1228.33 490.628C1223.41 490.917 1218.49 491.7 1213.57 491.892C1211.83 491.988 1210.29 491.892 1208.76 491.7C1206.7 491.114 1206.5 489.359 1206.7 488.773Z" fill="#091317"/>
<path d="M1216.03 489.264C1216.44 487.12 1217.98 485.755 1219.72 484.583C1223.11 482.439 1233.56 479.614 1234.69 478.638C1236.84 476.788 1237.25 473.865 1237.15 471.232C1236.94 465.676 1236.22 460.121 1235.71 454.565C1235.71 454.565 1243.09 456.319 1255.7 454.373C1255.7 454.373 1254.88 464.311 1254.47 469.281C1254.26 471.718 1254.05 474.154 1254.26 476.591C1254.47 478.734 1254.88 480.781 1255.39 482.925C1255.8 484.972 1256.31 487.12 1256.31 489.264C1256.31 489.653 1256.31 490.432 1256.31 490.432C1254.88 491.797 1251.6 491.7 1250.06 491.6C1246.17 491.407 1242.37 490.821 1238.37 491.114C1233.25 491.407 1228.23 492.186 1223.11 492.383C1221.36 492.479 1219.72 492.383 1218.08 492.186C1216.03 491.7 1215.83 489.845 1216.03 489.264Z" fill="#12252E"/>
<path d="M1215.11 345.507C1222.49 344.046 1230.17 342.777 1237.25 340.144C1243.09 338 1248.83 334.492 1251.8 328.936C1253.34 326.014 1253.64 322.698 1254.77 319.68C1256 316.171 1258.16 312.855 1259.9 309.544C1263.28 303.109 1266.35 296.582 1268.71 289.758C1270.96 283.424 1271.99 275.335 1266.15 270.265C1266.05 270.169 1265.74 270.361 1265.94 270.462C1271.48 275.235 1270.66 282.934 1268.61 288.979C1266.35 295.607 1263.49 302.037 1260.2 308.179C1258.57 311.298 1256.62 314.317 1255.18 317.536C1253.85 320.458 1253.44 323.577 1252.42 326.6C1250.36 332.641 1244.73 336.736 1238.89 339.173C1231.41 342.292 1223 343.652 1215.11 345.214C1214.8 345.31 1214.9 345.603 1215.11 345.507Z" fill="#84B8DA"/>
<path d="M1224.74 324.166C1227 322.018 1229.36 319.874 1230.58 317.048C1231.82 314.03 1232.43 310.714 1233.56 307.499C1235.71 301.165 1238.68 295.023 1242.27 289.275C1244.32 285.959 1246.68 282.743 1249.24 279.721C1249.34 279.528 1249.14 279.331 1249.03 279.528C1240.63 289.76 1234.79 301.458 1231.3 314.03C1230.79 315.977 1230.07 317.928 1228.85 319.581C1227.61 321.143 1226.18 322.604 1224.64 323.873C1224.33 324.065 1224.54 324.262 1224.74 324.166Z" fill="#84B8DA"/>
<path d="M971.803 116.472H998.143C1001.11 116.472 1003.57 114.136 1003.57 111.31C1003.57 108.383 1001.11 106.143 998.143 106.143H971.803C968.827 106.143 966.371 108.484 966.371 111.31C966.371 114.136 968.827 116.472 971.803 116.472Z" fill="#29566D"/>
<g opacity="0.4">
<mask id="mask1_2371_1180" style="mask-type:luminance" maskUnits="userSpaceOnUse" x="177" y="26" width="431" height="453">
<path d="M177.491 26.2986H607.413V478.093H177.491V26.2986Z" fill="white"/>
</mask>
<g mask="url(#mask1_2371_1180)">
<path d="M586.196 441.086C581.276 445.765 588.578 449.48 413.447 282.927C409.186 278.875 415.629 272.736 419.889 276.794C597.414 445.629 590.886 436.63 586.196 441.086ZM347.823 192.23L331.874 177.065L348.207 161.53L364.156 176.695L347.823 192.23ZM312.306 158.453L328.639 142.918L345.361 158.818L329.022 174.353L312.306 158.453ZM290.086 247.141L274.137 231.971L290.475 216.441L306.419 231.606L290.086 247.141ZM270.901 265.383L254.957 250.218L271.29 234.683L287.234 249.848L270.901 265.383ZM235.383 231.606L251.722 216.071L268.438 231.971L252.106 247.506L235.383 231.606ZM270.901 197.829L287.623 213.729L271.29 229.264L254.568 213.358L270.901 197.829ZM347.823 124.676C368.755 144.579 360.182 136.431 383.341 158.453L367.008 173.988L351.059 158.818L367.392 143.288L364.546 140.576L348.207 156.111L331.485 140.205L347.823 124.676ZM416.528 249.891L466.145 202.699L357.038 98.9282L387.836 69.6398H316.286L270.735 26.3145L249.403 46.6099L273.621 69.6398H177.514V269.659L208.313 240.37L317.425 344.141L367.535 296.485L390.677 318.491L416.671 316.236L416.665 343.209L436.005 345.66L435.363 360.988L468.664 365.683L472.095 387.357L494.664 390.407V417.381L522.382 416.771L523.665 444.97L559.119 451.719L558.478 478.071L604.458 475.211L607.465 431.478L416.528 249.891Z" fill="#C1D6FF"/>
</g>
</g>
<path d="M95.5078 114.211V149.111H88.5078V134.261H73.5578V149.111H66.5578V114.211H73.5578V128.561H88.5078V114.211H95.5078ZM114.698 149.561C112.031 149.561 109.631 148.978 107.498 147.811C105.364 146.611 103.681 144.928 102.448 142.761C101.248 140.594 100.648 138.094 100.648 135.261C100.648 132.428 101.264 129.928 102.498 127.761C103.764 125.594 105.481 123.928 107.648 122.761C109.814 121.561 112.231 120.961 114.898 120.961C117.564 120.961 119.981 121.561 122.148 122.761C124.314 123.928 126.014 125.594 127.248 127.761C128.514 129.928 129.148 132.428 129.148 135.261C129.148 138.094 128.498 140.594 127.198 142.761C125.931 144.928 124.198 146.611 121.998 147.811C119.831 148.978 117.398 149.561 114.698 149.561ZM114.698 143.461C115.964 143.461 117.148 143.161 118.248 142.561C119.381 141.928 120.281 140.994 120.948 139.761C121.614 138.528 121.948 137.028 121.948 135.261C121.948 132.628 121.248 130.611 119.848 129.211C118.481 127.778 116.798 127.061 114.798 127.061C112.798 127.061 111.114 127.778 109.748 129.211C108.414 130.611 107.748 132.628 107.748 135.261C107.748 137.894 108.398 139.928 109.698 141.361C111.031 142.761 112.698 143.461 114.698 143.461ZM168.682 121.011C172.082 121.011 174.816 122.061 176.882 124.161C178.982 126.228 180.032 129.128 180.032 132.861V149.111H173.032V133.811C173.032 131.644 172.482 129.994 171.382 128.861C170.282 127.694 168.782 127.111 166.882 127.111C164.982 127.111 163.466 127.694 162.332 128.861C161.232 129.994 160.682 131.644 160.682 133.811V149.111H153.682V133.811C153.682 131.644 153.132 129.994 152.032 128.861C150.932 127.694 149.432 127.111 147.532 127.111C145.599 127.111 144.066 127.694 142.932 128.861C141.832 129.994 141.282 131.644 141.282 133.811V149.111H134.282V121.411H141.282V124.761C142.182 123.594 143.332 122.678 144.732 122.011C146.166 121.344 147.732 121.011 149.432 121.011C151.599 121.011 153.532 121.478 155.232 122.411C156.932 123.311 158.249 124.611 159.182 126.311C160.082 124.711 161.382 123.428 163.082 122.461C164.816 121.494 166.682 121.011 168.682 121.011ZM212.425 134.661C212.425 135.661 212.358 136.561 212.225 137.361H191.975C192.142 139.361 192.842 140.928 194.075 142.061C195.308 143.194 196.825 143.761 198.625 143.761C201.225 143.761 203.075 142.644 204.175 140.411H211.725C210.925 143.078 209.392 145.278 207.125 147.011C204.858 148.711 202.075 149.561 198.775 149.561C196.108 149.561 193.708 148.978 191.575 147.811C189.475 146.611 187.825 144.928 186.625 142.761C185.458 140.594 184.875 138.094 184.875 135.261C184.875 132.394 185.458 129.878 186.625 127.711C187.792 125.544 189.425 123.878 191.525 122.711C193.625 121.544 196.042 120.961 198.775 120.961C201.408 120.961 203.758 121.528 205.825 122.661C207.925 123.794 209.542 125.411 210.675 127.511C211.842 129.578 212.425 131.961 212.425 134.661ZM205.175 132.661C205.142 130.861 204.492 129.428 203.225 128.361C201.958 127.261 200.408 126.711 198.575 126.711C196.842 126.711 195.375 127.244 194.175 128.311C193.008 129.344 192.292 130.794 192.025 132.661H205.175ZM236.448 143.561H247.948V149.111H229.448V114.211H236.448V143.561ZM264.698 149.561C262.031 149.561 259.631 148.978 257.498 147.811C255.364 146.611 253.681 144.928 252.448 142.761C251.248 140.594 250.648 138.094 250.648 135.261C250.648 132.428 251.264 129.928 252.498 127.761C253.764 125.594 255.481 123.928 257.648 122.761C259.814 121.561 262.231 120.961 264.898 120.961C267.564 120.961 269.981 121.561 272.148 122.761C274.314 123.928 276.014 125.594 277.248 127.761C278.514 129.928 279.148 132.428 279.148 135.261C279.148 138.094 278.498 140.594 277.198 142.761C275.931 144.928 274.198 146.611 271.998 147.811C269.831 148.978 267.398 149.561 264.698 149.561ZM264.698 143.461C265.964 143.461 267.148 143.161 268.248 142.561C269.381 141.928 270.281 140.994 270.948 139.761C271.614 138.528 271.948 137.028 271.948 135.261C271.948 132.628 271.248 130.611 269.848 129.211C268.481 127.778 266.798 127.061 264.798 127.061C262.798 127.061 261.114 127.778 259.748 129.211C258.414 130.611 257.748 132.628 257.748 135.261C257.748 137.894 258.398 139.928 259.698 141.361C261.031 142.761 262.698 143.461 264.698 143.461ZM282.482 135.161C282.482 132.361 283.032 129.878 284.132 127.711C285.266 125.544 286.782 123.878 288.682 122.711C290.616 121.544 292.766 120.961 295.132 120.961C297.199 120.961 298.999 121.378 300.532 122.211C302.099 123.044 303.349 124.094 304.282 125.361V121.411H311.332V149.111H304.282V145.061C303.382 146.361 302.132 147.444 300.532 148.311C298.966 149.144 297.149 149.561 295.082 149.561C292.749 149.561 290.616 148.961 288.682 147.761C286.782 146.561 285.266 144.878 284.132 142.711C283.032 140.511 282.482 137.994 282.482 135.161ZM304.282 135.261C304.282 133.561 303.949 132.111 303.282 130.911C302.616 129.678 301.716 128.744 300.582 128.111C299.449 127.444 298.232 127.111 296.932 127.111C295.632 127.111 294.432 127.428 293.332 128.061C292.232 128.694 291.332 129.628 290.632 130.861C289.966 132.061 289.632 133.494 289.632 135.161C289.632 136.828 289.966 138.294 290.632 139.561C291.332 140.794 292.232 141.744 293.332 142.411C294.466 143.078 295.666 143.411 296.932 143.411C298.232 143.411 299.449 143.094 300.582 142.461C301.716 141.794 302.616 140.861 303.282 139.661C303.949 138.428 304.282 136.961 304.282 135.261ZM333.519 121.011C336.819 121.011 339.486 122.061 341.519 124.161C343.553 126.228 344.569 129.128 344.569 132.861V149.111H337.569V133.811C337.569 131.611 337.019 129.928 335.919 128.761C334.819 127.561 333.319 126.961 331.419 126.961C329.486 126.961 327.953 127.561 326.819 128.761C325.719 129.928 325.169 131.611 325.169 133.811V149.111H318.169V121.411H325.169V124.861C326.103 123.661 327.286 122.728 328.719 122.061C330.186 121.361 331.786 121.011 333.519 121.011ZM361.826 149.561C359.559 149.561 357.526 149.161 355.726 148.361C353.926 147.528 352.492 146.411 351.426 145.011C350.392 143.611 349.826 142.061 349.726 140.361H356.776C356.909 141.428 357.426 142.311 358.326 143.011C359.259 143.711 360.409 144.061 361.776 144.061C363.109 144.061 364.142 143.794 364.876 143.261C365.642 142.728 366.026 142.044 366.026 141.211C366.026 140.311 365.559 139.644 364.626 139.211C363.726 138.744 362.276 138.244 360.276 137.711C358.209 137.211 356.509 136.694 355.176 136.161C353.876 135.628 352.742 134.811 351.776 133.711C350.842 132.611 350.376 131.128 350.376 129.261C350.376 127.728 350.809 126.328 351.676 125.061C352.576 123.794 353.842 122.794 355.476 122.061C357.142 121.328 359.092 120.961 361.326 120.961C364.626 120.961 367.259 121.794 369.226 123.461C371.192 125.094 372.276 127.311 372.476 130.111H365.776C365.676 129.011 365.209 128.144 364.376 127.511C363.576 126.844 362.492 126.511 361.126 126.511C359.859 126.511 358.876 126.744 358.176 127.211C357.509 127.678 357.176 128.328 357.176 129.161C357.176 130.094 357.642 130.811 358.576 131.311C359.509 131.778 360.959 132.261 362.926 132.761C364.926 133.261 366.576 133.778 367.876 134.311C369.176 134.844 370.292 135.678 371.226 136.811C372.192 137.911 372.692 139.378 372.726 141.211C372.726 142.811 372.276 144.244 371.376 145.511C370.509 146.778 369.242 147.778 367.576 148.511C365.942 149.211 364.026 149.561 361.826 149.561ZM414.136 114.211V119.861H404.836V149.111H397.836V119.861H388.536V114.211H414.136ZM434.843 121.011C436.943 121.011 438.81 121.478 440.443 122.411C442.077 123.311 443.343 124.661 444.243 126.461C445.177 128.228 445.643 130.361 445.643 132.861V149.111H438.643V133.811C438.643 131.611 438.093 129.928 436.993 128.761C435.893 127.561 434.393 126.961 432.493 126.961C430.56 126.961 429.027 127.561 427.893 128.761C426.793 129.928 426.243 131.611 426.243 133.811V149.111H419.243V112.111H426.243V124.861C427.143 123.661 428.343 122.728 429.843 122.061C431.343 121.361 433.01 121.011 434.843 121.011ZM450.5 135.161C450.5 132.361 451.05 129.878 452.15 127.711C453.283 125.544 454.8 123.878 456.7 122.711C458.633 121.544 460.783 120.961 463.15 120.961C465.217 120.961 467.017 121.378 468.55 122.211C470.117 123.044 471.367 124.094 472.3 125.361V121.411H479.35V149.111H472.3V145.061C471.4 146.361 470.15 147.444 468.55 148.311C466.983 149.144 465.167 149.561 463.1 149.561C460.767 149.561 458.633 148.961 456.7 147.761C454.8 146.561 453.283 144.878 452.15 142.711C451.05 140.511 450.5 137.994 450.5 135.161ZM472.3 135.261C472.3 133.561 471.967 132.111 471.3 130.911C470.633 129.678 469.733 128.744 468.6 128.111C467.467 127.444 466.25 127.111 464.95 127.111C463.65 127.111 462.45 127.428 461.35 128.061C460.25 128.694 459.35 129.628 458.65 130.861C457.983 132.061 457.65 133.494 457.65 135.161C457.65 136.828 457.983 138.294 458.65 139.561C459.35 140.794 460.25 141.744 461.35 142.411C462.483 143.078 463.683 143.411 464.95 143.411C466.25 143.411 467.467 143.094 468.6 142.461C469.733 141.794 470.633 140.861 471.3 139.661C471.967 138.428 472.3 136.961 472.3 135.261ZM494.337 127.161V140.561C494.337 141.494 494.553 142.178 494.987 142.611C495.453 143.011 496.22 143.211 497.287 143.211H500.537V149.111H496.137C490.237 149.111 487.287 146.244 487.287 140.511V127.161H483.987V121.411H487.287V114.561H494.337V121.411H500.537V127.161H494.337ZM539.036 114.211V119.861H524.486V128.811H535.636V134.361H524.486V149.111H517.486V114.211H539.036ZM547.549 118.111C546.316 118.111 545.283 117.728 544.449 116.961C543.649 116.161 543.249 115.178 543.249 114.011C543.249 112.844 543.649 111.878 544.449 111.111C545.283 110.311 546.316 109.911 547.549 109.911C548.783 109.911 549.799 110.311 550.599 111.111C551.433 111.878 551.849 112.844 551.849 114.011C551.849 115.178 551.433 116.161 550.599 116.961C549.799 117.728 548.783 118.111 547.549 118.111ZM550.999 121.411V149.111H543.999V121.411H550.999ZM566.065 127.161V140.561C566.065 141.494 566.282 142.178 566.715 142.611C567.182 143.011 567.949 143.211 569.015 143.211H572.265V149.111H567.865C561.965 149.111 559.015 146.244 559.015 140.511V127.161H555.715V121.411H559.015V114.561H566.065V121.411H572.265V127.161H566.065ZM616.964 114.211L605.164 136.961V149.111H598.164V136.961L586.314 114.211H594.214L601.714 130.161L609.164 114.211H616.964ZM633.301 149.561C630.635 149.561 628.235 148.978 626.101 147.811C623.968 146.611 622.285 144.928 621.051 142.761C619.851 140.594 619.251 138.094 619.251 135.261C619.251 132.428 619.868 129.928 621.101 127.761C622.368 125.594 624.085 123.928 626.251 122.761C628.418 121.561 630.835 120.961 633.501 120.961C636.168 120.961 638.585 121.561 640.751 122.761C642.918 123.928 644.618 125.594 645.851 127.761C647.118 129.928 647.751 132.428 647.751 135.261C647.751 138.094 647.101 140.594 645.801 142.761C644.535 144.928 642.801 146.611 640.601 147.811C638.435 148.978 636.001 149.561 633.301 149.561ZM633.301 143.461C634.568 143.461 635.751 143.161 636.851 142.561C637.985 141.928 638.885 140.994 639.551 139.761C640.218 138.528 640.551 137.028 640.551 135.261C640.551 132.628 639.851 130.611 638.451 129.211C637.085 127.778 635.401 127.061 633.401 127.061C631.401 127.061 629.718 127.778 628.351 129.211C627.018 130.611 626.351 132.628 626.351 135.261C626.351 137.894 627.001 139.928 628.301 141.361C629.635 142.761 631.301 143.461 633.301 143.461ZM679.036 121.411V149.111H671.986V145.611C671.086 146.811 669.903 147.761 668.436 148.461C667.003 149.128 665.436 149.461 663.736 149.461C661.569 149.461 659.653 149.011 657.986 148.111C656.319 147.178 655.003 145.828 654.036 144.061C653.103 142.261 652.636 140.128 652.636 137.661V121.411H659.636V136.661C659.636 138.861 660.186 140.561 661.286 141.761C662.386 142.928 663.886 143.511 665.786 143.511C667.719 143.511 669.236 142.928 670.336 141.761C671.436 140.561 671.986 138.861 671.986 136.661V121.411H679.036ZM692.943 125.711C693.843 124.244 695.009 123.094 696.443 122.261C697.909 121.428 699.576 121.011 701.443 121.011V128.361H699.593C697.393 128.361 695.726 128.878 694.593 129.911C693.493 130.944 692.943 132.744 692.943 135.311V149.111H685.943V121.411H692.943V125.711ZM73.5578 223.561H85.0578V229.111H66.5578V194.211H73.5578V223.561ZM93.0571 198.111C91.8237 198.111 90.7904 197.728 89.9571 196.961C89.1571 196.161 88.7571 195.178 88.7571 194.011C88.7571 192.844 89.1571 191.878 89.9571 191.111C90.7904 190.311 91.8237 189.911 93.0571 189.911C94.2904 189.911 95.3071 190.311 96.1071 191.111C96.9404 191.878 97.3571 192.844 97.3571 194.011C97.3571 195.178 96.9404 196.161 96.1071 196.961C95.3071 197.728 94.2904 198.111 93.0571 198.111ZM96.5071 201.411V229.111H89.5071V201.411H96.5071ZM116.123 207.161H111.273V229.111H104.173V207.161H101.023V201.411H104.173V200.011C104.173 196.611 105.14 194.111 107.073 192.511C109.006 190.911 111.923 190.161 115.823 190.261V196.161C114.123 196.128 112.94 196.411 112.273 197.011C111.606 197.611 111.273 198.694 111.273 200.261V201.411H116.123V207.161ZM146.409 214.661C146.409 215.661 146.343 216.561 146.209 217.361H125.959C126.126 219.361 126.826 220.928 128.059 222.061C129.293 223.194 130.809 223.761 132.609 223.761C135.209 223.761 137.059 222.644 138.159 220.411H145.709C144.909 223.078 143.376 225.278 141.109 227.011C138.843 228.711 136.059 229.561 132.759 229.561C130.093 229.561 127.693 228.978 125.559 227.811C123.459 226.611 121.809 224.928 120.609 222.761C119.443 220.594 118.859 218.094 118.859 215.261C118.859 212.394 119.443 209.878 120.609 207.711C121.776 205.544 123.409 203.878 125.509 202.711C127.609 201.544 130.026 200.961 132.759 200.961C135.393 200.961 137.743 201.528 139.809 202.661C141.909 203.794 143.526 205.411 144.659 207.511C145.826 209.578 146.409 211.961 146.409 214.661ZM139.159 212.661C139.126 210.861 138.476 209.428 137.209 208.361C135.943 207.261 134.393 206.711 132.559 206.711C130.826 206.711 129.359 207.244 128.159 208.311C126.993 209.344 126.276 210.794 126.009 212.661H139.159ZM159.169 221.761L153.319 235.811H148.819L152.069 221.761H159.169ZM188.178 229.461C185.745 229.461 183.545 229.044 181.578 228.211C179.645 227.378 178.111 226.178 176.978 224.611C175.845 223.044 175.261 221.194 175.228 219.061H182.728C182.828 220.494 183.328 221.628 184.228 222.461C185.161 223.294 186.428 223.711 188.028 223.711C189.661 223.711 190.945 223.328 191.878 222.561C192.811 221.761 193.278 220.728 193.278 219.461C193.278 218.428 192.961 217.578 192.328 216.911C191.695 216.244 190.895 215.728 189.928 215.361C188.995 214.961 187.695 214.528 186.028 214.061C183.761 213.394 181.911 212.744 180.478 212.111C179.078 211.444 177.861 210.461 176.828 209.161C175.828 207.828 175.328 206.061 175.328 203.861C175.328 201.794 175.845 199.994 176.878 198.461C177.911 196.928 179.361 195.761 181.228 194.961C183.095 194.128 185.228 193.711 187.628 193.711C191.228 193.711 194.145 194.594 196.378 196.361C198.645 198.094 199.895 200.528 200.128 203.661H192.428C192.361 202.461 191.845 201.478 190.878 200.711C189.945 199.911 188.695 199.511 187.128 199.511C185.761 199.511 184.661 199.861 183.828 200.561C183.028 201.261 182.628 202.278 182.628 203.611C182.628 204.544 182.928 205.328 183.528 205.961C184.161 206.561 184.928 207.061 185.828 207.461C186.761 207.828 188.061 208.261 189.728 208.761C191.995 209.428 193.845 210.094 195.278 210.761C196.711 211.428 197.945 212.428 198.978 213.761C200.011 215.094 200.528 216.844 200.528 219.011C200.528 220.878 200.045 222.611 199.078 224.211C198.111 225.811 196.695 227.094 194.828 228.061C192.961 228.994 190.745 229.461 188.178 229.461ZM232.347 214.661C232.347 215.661 232.28 216.561 232.147 217.361H211.897C212.064 219.361 212.764 220.928 213.997 222.061C215.23 223.194 216.747 223.761 218.547 223.761C221.147 223.761 222.997 222.644 224.097 220.411H231.647C230.847 223.078 229.314 225.278 227.047 227.011C224.78 228.711 221.997 229.561 218.697 229.561C216.03 229.561 213.63 228.978 211.497 227.811C209.397 226.611 207.747 224.928 206.547 222.761C205.38 220.594 204.797 218.094 204.797 215.261C204.797 212.394 205.38 209.878 206.547 207.711C207.714 205.544 209.347 203.878 211.447 202.711C213.547 201.544 215.964 200.961 218.697 200.961C221.33 200.961 223.68 201.528 225.747 202.661C227.847 203.794 229.464 205.411 230.597 207.511C231.764 209.578 232.347 211.961 232.347 214.661ZM225.097 212.661C225.064 210.861 224.414 209.428 223.147 208.361C221.88 207.261 220.33 206.711 218.497 206.711C216.764 206.711 215.297 207.244 214.097 208.311C212.93 209.344 212.214 210.794 211.947 212.661H225.097ZM235.656 215.161C235.656 212.361 236.206 209.878 237.306 207.711C238.44 205.544 239.956 203.878 241.856 202.711C243.79 201.544 245.94 200.961 248.306 200.961C250.373 200.961 252.173 201.378 253.706 202.211C255.273 203.044 256.523 204.094 257.456 205.361V201.411H264.506V229.111H257.456V225.061C256.556 226.361 255.306 227.444 253.706 228.311C252.14 229.144 250.323 229.561 248.256 229.561C245.923 229.561 243.79 228.961 241.856 227.761C239.956 226.561 238.44 224.878 237.306 222.711C236.206 220.511 235.656 217.994 235.656 215.161ZM257.456 215.261C257.456 213.561 257.123 212.111 256.456 210.911C255.79 209.678 254.89 208.744 253.756 208.111C252.623 207.444 251.406 207.111 250.106 207.111C248.806 207.111 247.606 207.428 246.506 208.061C245.406 208.694 244.506 209.628 243.806 210.861C243.14 212.061 242.806 213.494 242.806 215.161C242.806 216.828 243.14 218.294 243.806 219.561C244.506 220.794 245.406 221.744 246.506 222.411C247.64 223.078 248.84 223.411 250.106 223.411C251.406 223.411 252.623 223.094 253.756 222.461C254.89 221.794 255.79 220.861 256.456 219.661C257.123 218.428 257.456 216.961 257.456 215.261ZM305.743 201.011C309.143 201.011 311.876 202.061 313.943 204.161C316.043 206.228 317.093 209.128 317.093 212.861V229.111H310.093V213.811C310.093 211.644 309.543 209.994 308.443 208.861C307.343 207.694 305.843 207.111 303.943 207.111C302.043 207.111 300.526 207.694 299.393 208.861C298.293 209.994 297.743 211.644 297.743 213.811V229.111H290.743V213.811C290.743 211.644 290.193 209.994 289.093 208.861C287.993 207.694 286.493 207.111 284.593 207.111C282.66 207.111 281.126 207.694 279.993 208.861C278.893 209.994 278.343 211.644 278.343 213.811V229.111H271.343V201.411H278.343V204.761C279.243 203.594 280.393 202.678 281.793 202.011C283.226 201.344 284.793 201.011 286.493 201.011C288.66 201.011 290.593 201.478 292.293 202.411C293.993 203.311 295.31 204.611 296.243 206.311C297.143 204.711 298.443 203.428 300.143 202.461C301.876 201.494 303.743 201.011 305.743 201.011ZM330.736 192.111V229.111H323.736V192.111H330.736ZM363.402 214.661C363.402 215.661 363.335 216.561 363.202 217.361H342.952C343.118 219.361 343.818 220.928 345.052 222.061C346.285 223.194 347.802 223.761 349.602 223.761C352.202 223.761 354.052 222.644 355.152 220.411H362.702C361.902 223.078 360.368 225.278 358.102 227.011C355.835 228.711 353.052 229.561 349.752 229.561C347.085 229.561 344.685 228.978 342.552 227.811C340.452 226.611 338.802 224.928 337.602 222.761C336.435 220.594 335.852 218.094 335.852 215.261C335.852 212.394 336.435 209.878 337.602 207.711C338.768 205.544 340.402 203.878 342.502 202.711C344.602 201.544 347.018 200.961 349.752 200.961C352.385 200.961 354.735 201.528 356.802 202.661C358.902 203.794 360.518 205.411 361.652 207.511C362.818 209.578 363.402 211.961 363.402 214.661ZM356.152 212.661C356.118 210.861 355.468 209.428 354.202 208.361C352.935 207.261 351.385 206.711 349.552 206.711C347.818 206.711 346.352 207.244 345.152 208.311C343.985 209.344 343.268 210.794 343.002 212.661H356.152ZM379.111 229.561C376.844 229.561 374.811 229.161 373.011 228.361C371.211 227.528 369.778 226.411 368.711 225.011C367.678 223.611 367.111 222.061 367.011 220.361H374.061C374.194 221.428 374.711 222.311 375.611 223.011C376.544 223.711 377.694 224.061 379.061 224.061C380.394 224.061 381.428 223.794 382.161 223.261C382.928 222.728 383.311 222.044 383.311 221.211C383.311 220.311 382.844 219.644 381.911 219.211C381.011 218.744 379.561 218.244 377.561 217.711C375.494 217.211 373.794 216.694 372.461 216.161C371.161 215.628 370.028 214.811 369.061 213.711C368.128 212.611 367.661 211.128 367.661 209.261C367.661 207.728 368.094 206.328 368.961 205.061C369.861 203.794 371.128 202.794 372.761 202.061C374.428 201.328 376.378 200.961 378.611 200.961C381.911 200.961 384.544 201.794 386.511 203.461C388.478 205.094 389.561 207.311 389.761 210.111H383.061C382.961 209.011 382.494 208.144 381.661 207.511C380.861 206.844 379.778 206.511 378.411 206.511C377.144 206.511 376.161 206.744 375.461 207.211C374.794 207.678 374.461 208.328 374.461 209.161C374.461 210.094 374.928 210.811 375.861 211.311C376.794 211.778 378.244 212.261 380.211 212.761C382.211 213.261 383.861 213.778 385.161 214.311C386.461 214.844 387.578 215.678 388.511 216.811C389.478 217.911 389.978 219.378 390.011 221.211C390.011 222.811 389.561 224.244 388.661 225.511C387.794 226.778 386.528 227.778 384.861 228.511C383.228 229.211 381.311 229.561 379.111 229.561ZM406.357 229.561C404.09 229.561 402.057 229.161 400.257 228.361C398.457 227.528 397.024 226.411 395.957 225.011C394.924 223.611 394.357 222.061 394.257 220.361H401.307C401.44 221.428 401.957 222.311 402.857 223.011C403.79 223.711 404.94 224.061 406.307 224.061C407.64 224.061 408.674 223.794 409.407 223.261C410.174 222.728 410.557 222.044 410.557 221.211C410.557 220.311 410.09 219.644 409.157 219.211C408.257 218.744 406.807 218.244 404.807 217.711C402.74 217.211 401.04 216.694 399.707 216.161C398.407 215.628 397.274 214.811 396.307 213.711C395.374 212.611 394.907 211.128 394.907 209.261C394.907 207.728 395.34 206.328 396.207 205.061C397.107 203.794 398.374 202.794 400.007 202.061C401.674 201.328 403.624 200.961 405.857 200.961C409.157 200.961 411.79 201.794 413.757 203.461C415.724 205.094 416.807 207.311 417.007 210.111H410.307C410.207 209.011 409.74 208.144 408.907 207.511C408.107 206.844 407.024 206.511 405.657 206.511C404.39 206.511 403.407 206.744 402.707 207.211C402.04 207.678 401.707 208.328 401.707 209.161C401.707 210.094 402.174 210.811 403.107 211.311C404.04 211.778 405.49 212.261 407.457 212.761C409.457 213.261 411.107 213.778 412.407 214.311C413.707 214.844 414.824 215.678 415.757 216.811C416.724 217.911 417.224 219.378 417.257 221.211C417.257 222.811 416.807 224.244 415.907 225.511C415.04 226.778 413.774 227.778 412.107 228.511C410.474 229.211 408.557 229.561 406.357 229.561ZM430.003 192.111V229.111H423.003V192.111H430.003ZM463.419 201.411L446.269 242.211H438.819L444.819 228.411L433.719 201.411H441.569L448.719 220.761L455.969 201.411H463.419ZM470.293 229.461C469.026 229.461 467.976 229.078 467.143 228.311C466.343 227.511 465.943 226.528 465.943 225.361C465.943 224.194 466.343 223.228 467.143 222.461C467.976 221.661 469.026 221.261 470.293 221.261C471.526 221.261 472.543 221.661 473.343 222.461C474.143 223.228 474.543 224.194 474.543 225.361C474.543 226.528 474.143 227.511 473.343 228.311C472.543 229.078 471.526 229.461 470.293 229.461Z" fill="#06112D"/>
<rect x="63.1078" y="330.611" width="722.094" height="120.222" rx="24" fill="#3A6DC9"/>
<path d="M122.664 407.225C120.474 407.225 118.494 406.85 116.724 406.1C114.984 405.35 113.604 404.27 112.584 402.86C111.564 401.45 111.039 399.785 111.009 397.865H117.759C117.849 399.155 118.299 400.175 119.109 400.925C119.949 401.675 121.089 402.05 122.529 402.05C123.999 402.05 125.154 401.705 125.994 401.015C126.834 400.295 127.254 399.365 127.254 398.225C127.254 397.295 126.969 396.53 126.399 395.93C125.829 395.33 125.109 394.865 124.239 394.535C123.399 394.175 122.229 393.785 120.729 393.365C118.689 392.765 117.024 392.18 115.734 391.61C114.474 391.01 113.379 390.125 112.449 388.955C111.549 387.755 111.099 386.165 111.099 384.185C111.099 382.325 111.564 380.705 112.494 379.325C113.424 377.945 114.729 376.895 116.409 376.175C118.089 375.425 120.009 375.05 122.169 375.05C125.409 375.05 128.034 375.845 130.044 377.435C132.084 378.995 133.209 381.185 133.419 384.005H126.489C126.429 382.925 125.964 382.04 125.094 381.35C124.254 380.63 123.129 380.27 121.719 380.27C120.489 380.27 119.499 380.585 118.749 381.215C118.029 381.845 117.669 382.76 117.669 383.96C117.669 384.8 117.939 385.505 118.479 386.075C119.049 386.615 119.739 387.065 120.549 387.425C121.389 387.755 122.559 388.145 124.059 388.595C126.099 389.195 127.764 389.795 129.054 390.395C130.344 390.995 131.454 391.895 132.384 393.095C133.314 394.295 133.779 395.87 133.779 397.82C133.779 399.5 133.344 401.06 132.474 402.5C131.604 403.94 130.329 405.095 128.649 405.965C126.969 406.805 124.974 407.225 122.664 407.225ZM146.576 387.155V399.215C146.576 400.055 146.771 400.67 147.161 401.06C147.581 401.42 148.271 401.6 149.231 401.6H152.156V406.91H148.196C142.886 406.91 140.231 404.33 140.231 399.17V387.155H137.261V381.98H140.231V375.815H146.576V381.98H152.156V387.155H146.576ZM155.067 394.355C155.067 391.835 155.562 389.6 156.552 387.65C157.572 385.7 158.937 384.2 160.647 383.15C162.387 382.1 164.322 381.575 166.452 381.575C168.312 381.575 169.932 381.95 171.312 382.7C172.722 383.45 173.847 384.395 174.687 385.535V381.98H181.032V406.91H174.687V403.265C173.877 404.435 172.752 405.41 171.312 406.19C169.902 406.94 168.267 407.315 166.407 407.315C164.307 407.315 162.387 406.775 160.647 405.695C158.937 404.615 157.572 403.1 156.552 401.15C155.562 399.17 155.067 396.905 155.067 394.355ZM174.687 394.445C174.687 392.915 174.387 391.61 173.787 390.53C173.187 389.42 172.377 388.58 171.357 388.01C170.337 387.41 169.242 387.11 168.072 387.11C166.902 387.11 165.822 387.395 164.832 387.965C163.842 388.535 163.032 389.375 162.402 390.485C161.802 391.565 161.502 392.855 161.502 394.355C161.502 395.855 161.802 397.175 162.402 398.315C163.032 399.425 163.842 400.28 164.832 400.88C165.852 401.48 166.932 401.78 168.072 401.78C169.242 401.78 170.337 401.495 171.357 400.925C172.377 400.325 173.187 399.485 173.787 398.405C174.387 397.295 174.687 395.975 174.687 394.445ZM193.485 385.85C194.295 384.53 195.345 383.495 196.635 382.745C197.955 381.995 199.455 381.62 201.135 381.62V388.235H199.47C197.49 388.235 195.99 388.7 194.97 389.63C193.98 390.56 193.485 392.18 193.485 394.49V406.91H187.185V381.98H193.485V385.85ZM212.713 387.155V399.215C212.713 400.055 212.908 400.67 213.298 401.06C213.718 401.42 214.408 401.6 215.368 401.6H218.293V406.91H214.333C209.023 406.91 206.368 404.33 206.368 399.17V387.155H203.398V381.98H206.368V375.815H212.713V381.98H218.293V387.155H212.713ZM258.522 375.5L247.902 395.975V406.91H241.602V395.975L230.937 375.5H238.047L244.797 389.855L251.502 375.5H258.522ZM273.226 407.315C270.826 407.315 268.666 406.79 266.746 405.74C264.826 404.66 263.311 403.145 262.201 401.195C261.121 399.245 260.581 396.995 260.581 394.445C260.581 391.895 261.136 389.645 262.246 387.695C263.386 385.745 264.931 384.245 266.881 383.195C268.831 382.115 271.006 381.575 273.406 381.575C275.806 381.575 277.981 382.115 279.931 383.195C281.881 384.245 283.411 385.745 284.521 387.695C285.661 389.645 286.231 391.895 286.231 394.445C286.231 396.995 285.646 399.245 284.476 401.195C283.336 403.145 281.776 404.66 279.796 405.74C277.846 406.79 275.656 407.315 273.226 407.315ZM273.226 401.825C274.366 401.825 275.431 401.555 276.421 401.015C277.441 400.445 278.251 399.605 278.851 398.495C279.451 397.385 279.751 396.035 279.751 394.445C279.751 392.075 279.121 390.26 277.861 389C276.631 387.71 275.116 387.065 273.316 387.065C271.516 387.065 270.001 387.71 268.771 389C267.571 390.26 266.971 392.075 266.971 394.445C266.971 396.815 267.556 398.645 268.726 399.935C269.926 401.195 271.426 401.825 273.226 401.825ZM314.387 381.98V406.91H308.042V403.76C307.232 404.84 306.167 405.695 304.847 406.325C303.557 406.925 302.147 407.225 300.617 407.225C298.667 407.225 296.942 406.82 295.442 406.01C293.942 405.17 292.757 403.955 291.887 402.365C291.047 400.745 290.627 398.825 290.627 396.605V381.98H296.927V395.705C296.927 397.685 297.422 399.215 298.412 400.295C299.402 401.345 300.752 401.87 302.462 401.87C304.202 401.87 305.567 401.345 306.557 400.295C307.547 399.215 308.042 397.685 308.042 395.705V381.98H314.387ZM326.903 385.85C327.713 384.53 328.763 383.495 330.053 382.745C331.373 381.995 332.873 381.62 334.553 381.62V388.235H332.888C330.908 388.235 329.408 388.7 328.388 389.63C327.398 390.56 326.903 392.18 326.903 394.49V406.91H320.603V381.98H326.903V385.85ZM355.819 401.915H366.169V406.91H349.519V375.5H355.819V401.915ZM381.243 407.315C378.843 407.315 376.683 406.79 374.763 405.74C372.843 404.66 371.328 403.145 370.218 401.195C369.138 399.245 368.598 396.995 368.598 394.445C368.598 391.895 369.153 389.645 370.263 387.695C371.403 385.745 372.948 384.245 374.898 383.195C376.848 382.115 379.023 381.575 381.423 381.575C383.823 381.575 385.998 382.115 387.948 383.195C389.898 384.245 391.428 385.745 392.538 387.695C393.678 389.645 394.248 391.895 394.248 394.445C394.248 396.995 393.663 399.245 392.493 401.195C391.353 403.145 389.793 404.66 387.813 405.74C385.863 406.79 383.673 407.315 381.243 407.315ZM381.243 401.825C382.383 401.825 383.448 401.555 384.438 401.015C385.458 400.445 386.268 399.605 386.868 398.495C387.468 397.385 387.768 396.035 387.768 394.445C387.768 392.075 387.138 390.26 385.878 389C384.648 387.71 383.133 387.065 381.333 387.065C379.533 387.065 378.018 387.71 376.788 389C375.588 390.26 374.988 392.075 374.988 394.445C374.988 396.815 375.573 398.645 376.743 399.935C377.943 401.195 379.443 401.825 381.243 401.825ZM397.25 394.355C397.25 391.835 397.745 389.6 398.735 387.65C399.755 385.7 401.12 384.2 402.83 383.15C404.57 382.1 406.505 381.575 408.635 381.575C410.495 381.575 412.115 381.95 413.495 382.7C414.905 383.45 416.03 384.395 416.87 385.535V381.98H423.215V406.91H416.87V403.265C416.06 404.435 414.935 405.41 413.495 406.19C412.085 406.94 410.45 407.315 408.59 407.315C406.49 407.315 404.57 406.775 402.83 405.695C401.12 404.615 399.755 403.1 398.735 401.15C397.745 399.17 397.25 396.905 397.25 394.355ZM416.87 394.445C416.87 392.915 416.57 391.61 415.97 390.53C415.37 389.42 414.56 388.58 413.54 388.01C412.52 387.41 411.425 387.11 410.255 387.11C409.085 387.11 408.005 387.395 407.015 387.965C406.025 388.535 405.215 389.375 404.585 390.485C403.985 391.565 403.685 392.855 403.685 394.355C403.685 395.855 403.985 397.175 404.585 398.315C405.215 399.425 406.025 400.28 407.015 400.88C408.035 401.48 409.115 401.78 410.255 401.78C411.425 401.78 412.52 401.495 413.54 400.925C414.56 400.325 415.37 399.485 415.97 398.405C416.57 397.295 416.87 395.975 416.87 394.445ZM443.183 381.62C446.153 381.62 448.553 382.565 450.383 384.455C452.213 386.315 453.128 388.925 453.128 392.285V406.91H446.828V393.14C446.828 391.16 446.333 389.645 445.343 388.595C444.353 387.515 443.003 386.975 441.293 386.975C439.553 386.975 438.173 387.515 437.153 388.595C436.163 389.645 435.668 391.16 435.668 393.14V406.91H429.368V381.98H435.668V385.085C436.508 384.005 437.573 383.165 438.863 382.565C440.183 381.935 441.623 381.62 443.183 381.62ZM489.101 400.925H476.591L474.521 406.91H467.906L479.201 375.455H486.536L497.831 406.91H491.171L489.101 400.925ZM487.391 395.885L482.846 382.745L478.301 395.885H487.391ZM508.353 385.58C509.163 384.44 510.273 383.495 511.683 382.745C513.123 381.965 514.758 381.575 516.588 381.575C518.718 381.575 520.638 382.1 522.348 383.15C524.088 384.2 525.453 385.7 526.443 387.65C527.463 389.57 527.973 391.805 527.973 394.355C527.973 396.905 527.463 399.17 526.443 401.15C525.453 403.1 524.088 404.615 522.348 405.695C520.638 406.775 518.718 407.315 516.588 407.315C514.758 407.315 513.138 406.94 511.728 406.19C510.348 405.44 509.223 404.495 508.353 403.355V418.79H502.053V381.98H508.353V385.58ZM521.538 394.355C521.538 392.855 521.223 391.565 520.593 390.485C519.993 389.375 519.183 388.535 518.163 387.965C517.173 387.395 516.093 387.11 514.923 387.11C513.783 387.11 512.703 387.41 511.683 388.01C510.693 388.58 509.883 389.42 509.253 390.53C508.653 391.64 508.353 392.945 508.353 394.445C508.353 395.945 508.653 397.25 509.253 398.36C509.883 399.47 510.693 400.325 511.683 400.925C512.703 401.495 513.783 401.78 514.923 401.78C516.093 401.78 517.173 401.48 518.163 400.88C519.183 400.28 519.993 399.425 520.593 398.315C521.223 397.205 521.538 395.885 521.538 394.355ZM538.851 385.58C539.661 384.44 540.771 383.495 542.181 382.745C543.621 381.965 545.256 381.575 547.086 381.575C549.216 381.575 551.136 382.1 552.846 383.15C554.586 384.2 555.951 385.7 556.941 387.65C557.961 389.57 558.471 391.805 558.471 394.355C558.471 396.905 557.961 399.17 556.941 401.15C555.951 403.1 554.586 404.615 552.846 405.695C551.136 406.775 549.216 407.315 547.086 407.315C545.256 407.315 543.636 406.94 542.226 406.19C540.846 405.44 539.721 404.495 538.851 403.355V418.79H532.551V381.98H538.851V385.58ZM552.036 394.355C552.036 392.855 551.721 391.565 551.091 390.485C550.491 389.375 549.681 388.535 548.661 387.965C547.671 387.395 546.591 387.11 545.421 387.11C544.281 387.11 543.201 387.41 542.181 388.01C541.191 388.58 540.381 389.42 539.751 390.53C539.151 391.64 538.851 392.945 538.851 394.445C538.851 395.945 539.151 397.25 539.751 398.36C540.381 399.47 541.191 400.325 542.181 400.925C543.201 401.495 544.281 401.78 545.421 401.78C546.591 401.78 547.671 401.48 548.661 400.88C549.681 400.28 550.491 399.425 551.091 398.315C551.721 397.205 552.036 395.885 552.036 394.355ZM569.349 373.61V406.91H563.049V373.61H569.349ZM578.769 379.01C577.659 379.01 576.729 378.665 575.979 377.975C575.259 377.255 574.899 376.37 574.899 375.32C574.899 374.27 575.259 373.4 575.979 372.71C576.729 371.99 577.659 371.63 578.769 371.63C579.879 371.63 580.794 371.99 581.514 372.71C582.264 373.4 582.639 374.27 582.639 375.32C582.639 376.37 582.264 377.255 581.514 377.975C580.794 378.665 579.879 379.01 578.769 379.01ZM581.874 381.98V406.91H575.574V381.98H581.874ZM586.478 394.445C586.478 391.865 587.003 389.615 588.053 387.695C589.103 385.745 590.558 384.245 592.418 383.195C594.278 382.115 596.408 381.575 598.808 381.575C601.898 381.575 604.448 382.355 606.458 383.915C608.498 385.445 609.863 387.605 610.553 390.395H603.758C603.398 389.315 602.783 388.475 601.913 387.875C601.073 387.245 600.023 386.93 598.763 386.93C596.963 386.93 595.538 387.59 594.488 388.91C593.438 390.2 592.913 392.045 592.913 394.445C592.913 396.815 593.438 398.66 594.488 399.98C595.538 401.27 596.963 401.915 598.763 401.915C601.313 401.915 602.978 400.775 603.758 398.495H610.553C609.863 401.195 608.498 403.34 606.458 404.93C604.418 406.52 601.868 407.315 598.808 407.315C596.408 407.315 594.278 406.79 592.418 405.74C590.558 404.66 589.103 403.16 588.053 401.24C587.003 399.29 586.478 397.025 586.478 394.445ZM613.548 394.355C613.548 391.835 614.043 389.6 615.033 387.65C616.053 385.7 617.418 384.2 619.128 383.15C620.868 382.1 622.803 381.575 624.933 381.575C626.793 381.575 628.413 381.95 629.793 382.7C631.203 383.45 632.328 384.395 633.168 385.535V381.98H639.513V406.91H633.168V403.265C632.358 404.435 631.233 405.41 629.793 406.19C628.383 406.94 626.748 407.315 624.888 407.315C622.788 407.315 620.868 406.775 619.128 405.695C617.418 404.615 616.053 403.1 615.033 401.15C614.043 399.17 613.548 396.905 613.548 394.355ZM633.168 394.445C633.168 392.915 632.868 391.61 632.268 390.53C631.668 389.42 630.858 388.58 629.838 388.01C628.818 387.41 627.723 387.11 626.553 387.11C625.383 387.11 624.303 387.395 623.313 387.965C622.323 388.535 621.513 389.375 620.883 390.485C620.283 391.565 619.983 392.855 619.983 394.355C619.983 395.855 620.283 397.175 620.883 398.315C621.513 399.425 622.323 400.28 623.313 400.88C624.333 401.48 625.413 401.78 626.553 401.78C627.723 401.78 628.818 401.495 629.838 400.925C630.858 400.325 631.668 399.485 632.268 398.405C632.868 397.295 633.168 395.975 633.168 394.445ZM653.001 387.155V399.215C653.001 400.055 653.196 400.67 653.586 401.06C654.006 401.42 654.696 401.6 655.656 401.6H658.581V406.91H654.621C649.311 406.91 646.656 404.33 646.656 399.17V387.155H643.686V381.98H646.656V375.815H653.001V381.98H658.581V387.155H653.001ZM666.308 379.01C665.198 379.01 664.268 378.665 663.518 377.975C662.798 377.255 662.438 376.37 662.438 375.32C662.438 374.27 662.798 373.4 663.518 372.71C664.268 371.99 665.198 371.63 666.308 371.63C667.418 371.63 668.333 371.99 669.053 372.71C669.803 373.4 670.178 374.27 670.178 375.32C670.178 376.37 669.803 377.255 669.053 377.975C668.333 378.665 667.418 379.01 666.308 379.01ZM669.413 381.98V406.91H663.113V381.98H669.413ZM686.707 407.315C684.307 407.315 682.147 406.79 680.227 405.74C678.307 404.66 676.792 403.145 675.682 401.195C674.602 399.245 674.062 396.995 674.062 394.445C674.062 391.895 674.617 389.645 675.727 387.695C676.867 385.745 678.412 384.245 680.362 383.195C682.312 382.115 684.487 381.575 686.887 381.575C689.287 381.575 691.462 382.115 693.412 383.195C695.362 384.245 696.892 385.745 698.002 387.695C699.142 389.645 699.712 391.895 699.712 394.445C699.712 396.995 699.127 399.245 697.957 401.195C696.817 403.145 695.257 404.66 693.277 405.74C691.327 406.79 689.137 407.315 686.707 407.315ZM686.707 401.825C687.847 401.825 688.912 401.555 689.902 401.015C690.922 400.445 691.732 399.605 692.332 398.495C692.932 397.385 693.232 396.035 693.232 394.445C693.232 392.075 692.602 390.26 691.342 389C690.112 387.71 688.597 387.065 686.797 387.065C684.997 387.065 683.482 387.71 682.252 389C681.052 390.26 680.452 392.075 680.452 394.445C680.452 396.815 681.037 398.645 682.207 399.935C683.407 401.195 684.907 401.825 686.707 401.825ZM718.148 381.62C721.118 381.62 723.518 382.565 725.348 384.455C727.178 386.315 728.093 388.925 728.093 392.285V406.91H721.793V393.14C721.793 391.16 721.298 389.645 720.308 388.595C719.318 387.515 717.968 386.975 716.258 386.975C714.518 386.975 713.138 387.515 712.118 388.595C711.128 389.645 710.633 391.16 710.633 393.14V406.91H704.333V381.98H710.633V385.085C711.473 384.005 712.538 383.165 713.828 382.565C715.148 381.935 716.588 381.62 718.148 381.62Z" fill="white"/>
</svg>
