<svg width="60" height="60" viewBox="0 0 60 60" fill="none" xmlns="http://www.w3.org/2000/svg">
<path d="M21.875 25C21.875 22.8451 22.731 20.7785 24.2548 19.2548C25.7785 17.731 27.8451 16.875 30 16.875C32.1549 16.875 34.2215 17.731 35.7452 19.2548C37.269 20.7785 38.125 22.8451 38.125 25C38.125 27.1549 37.269 29.2215 35.7452 30.7452C34.2215 32.269 32.1549 33.125 30 33.125C27.8451 33.125 25.7785 32.269 24.2548 30.7452C22.731 29.2215 21.875 27.1549 21.875 25Z" fill="#8A38F5"/>
<path fill-rule="evenodd" clip-rule="evenodd" d="M9.43482 22.1925C9.85066 17.1669 12.1404 12.4812 15.8497 9.06496C19.5591 5.64875 24.417 3.75164 29.4598 3.75H30.5398C35.5826 3.75164 40.4406 5.64875 44.1499 9.06496C47.8593 12.4812 50.149 17.1669 50.5648 22.1925C51.0263 27.8035 49.294 33.3749 45.7323 37.735L33.7498 52.39C33.2957 52.9459 32.7236 53.3938 32.075 53.7014C31.4265 54.0091 30.7176 54.1686 29.9998 54.1686C29.282 54.1686 28.5732 54.0091 27.9246 53.7014C27.276 53.3938 26.704 52.9459 26.2498 52.39L14.2698 37.735C10.7072 33.3752 8.97406 27.8039 9.43482 22.1925ZM29.9998 13.125C26.8504 13.125 23.8299 14.3761 21.6029 16.6031C19.3759 18.8301 18.1248 21.8506 18.1248 25C18.1248 28.1494 19.3759 31.1699 21.6029 33.3969C23.8299 35.6239 26.8504 36.875 29.9998 36.875C33.1493 36.875 36.1697 35.6239 38.3967 33.3969C40.6237 31.1699 41.8748 28.1494 41.8748 25C41.8748 21.8506 40.6237 18.8301 38.3967 16.6031C36.1697 14.3761 33.1493 13.125 29.9998 13.125Z" fill="#8A38F5"/>
</svg>
