<svg width="60" height="60" viewBox="0 0 60 60" fill="none" xmlns="http://www.w3.org/2000/svg">
<g clip-path="url(#clip0_2479_3126)">
<path d="M30 34.2001C29.337 34.2001 28.7011 34.4634 28.2323 34.9323C27.7634 35.4011 27.5 36.037 27.5 36.7001V55.4501C27.5 56.1131 27.7634 56.749 28.2323 57.2178C28.7011 57.6867 29.337 57.9501 30 57.9501C30.6631 57.9501 31.299 57.6867 31.7678 57.2178C32.2367 56.749 32.5 56.1131 32.5 55.4501V36.7001C32.5 36.037 32.2367 35.4011 31.7678 34.9323C31.299 34.4634 30.6631 34.2001 30 34.2001ZM18.75 30.4501C18.087 30.4501 17.4511 30.7134 16.9823 31.1823C16.5134 31.6511 16.25 32.287 16.25 32.9501V46.7001C16.25 47.3631 16.5134 47.999 16.9823 48.4678C17.4511 48.9367 18.087 49.2001 18.75 49.2001C19.4131 49.2001 20.049 48.9367 20.5178 48.4678C20.9867 47.999 21.25 47.3631 21.25 46.7001V32.9501C21.25 32.287 20.9867 31.6511 20.5178 31.1823C20.049 30.7134 19.4131 30.4501 18.75 30.4501ZM41.25 30.4501C40.587 30.4501 39.9511 30.7134 39.4823 31.1823C39.0134 31.6511 38.75 32.287 38.75 32.9501V46.7001C38.75 47.3631 39.0134 47.999 39.4823 48.4678C39.9511 48.9367 40.587 49.2001 41.25 49.2001C41.9131 49.2001 42.549 48.9367 43.0178 48.4678C43.4867 47.999 43.75 47.3631 43.75 46.7001V32.9501C43.75 32.287 43.4867 31.6511 43.0178 31.1823C42.549 30.7134 41.9131 30.4501 41.25 30.4501ZM5.42504 2.50006C4.85747 2.21662 4.22728 2.08181 3.59342 2.10824C2.95957 2.13466 2.34278 2.32147 1.80078 2.65117C1.25877 2.98086 0.809271 3.44268 0.494338 3.99339C0.179405 4.54411 0.00933432 5.16572 4.22649e-05 5.80006V7.50006C-0.0127281 8.25678 0.205309 8.99944 0.625125 9.62917C1.04494 10.2589 1.64661 10.7458 2.35004 11.0251L4.85004 12.0501C4.19187 12.6029 3.75661 13.3757 3.62504 14.2251C3.54005 14.7307 3.55825 15.2482 3.67855 15.7466C3.79885 16.245 4.01876 16.7139 4.32504 17.1251L6.22504 19.6251C6.57425 20.0891 7.02778 20.4644 7.54896 20.7207C8.07014 20.9769 8.64432 21.1069 9.22504 21.1001C9.6854 21.11 10.1432 21.029 10.5722 20.8617C11.0012 20.6944 11.393 20.444 11.725 20.1251L13.475 17.8501C13.6534 17.6409 13.7509 17.3749 13.75 17.1001V8.00006C13.754 7.78088 13.6978 7.5648 13.5876 7.37529C13.4775 7.18577 13.3175 7.03006 13.125 6.92506L5.42504 2.50006ZM43.475 9.57506C43.3961 9.52638 43.3053 9.50061 43.2125 9.50061C43.1198 9.50061 43.0289 9.52638 42.95 9.57506L32.5 16.1251C31.749 16.5899 30.8833 16.8362 30 16.8362C29.1168 16.8362 28.2511 16.5899 27.5 16.1251L17.05 9.57506C16.971 9.53395 16.8831 9.51269 16.7939 9.51309C16.7048 9.5135 16.6171 9.53556 16.5384 9.57737C16.4597 9.61919 16.3923 9.67951 16.3421 9.75314C16.2918 9.82677 16.2603 9.91151 16.25 10.0001V22.5001C16.25 23.3444 16.5837 24.1546 17.1784 24.754C17.7732 25.3534 18.5807 25.6935 19.425 25.7001H40.575C41.4194 25.6935 42.2269 25.3534 42.8216 24.754C43.4164 24.1546 43.7501 23.3444 43.75 22.5001V10.0001C43.7462 9.91115 43.7186 9.82489 43.6703 9.75018C43.622 9.67547 43.5546 9.61502 43.475 9.57506Z" fill="#8A38F5"/>
<path d="M40.5748 2.04994H19.4248C18.5827 2.04994 17.7752 2.38445 17.1797 2.97988C16.5843 3.57531 16.2498 4.38288 16.2498 5.22494C16.2344 5.27376 16.2344 5.32612 16.2498 5.37494L29.0748 13.4249C29.3295 13.5847 29.6241 13.6694 29.9248 13.6694C30.2255 13.6694 30.5201 13.5847 30.7748 13.4249L43.5998 5.34994C43.6108 5.33094 43.6165 5.30939 43.6165 5.28744C43.6165 5.2655 43.6108 5.24395 43.5998 5.22494C43.6007 4.40824 43.2869 3.62259 42.7235 3.03129C42.1601 2.43999 41.3906 2.08853 40.5748 2.04994ZM58.2248 2.49994C57.6561 2.18018 57.0147 2.01221 56.3623 2.01221C55.7099 2.01221 55.0685 2.18018 54.4998 2.49994L46.8748 6.92494C46.6824 7.02995 46.5224 7.18566 46.4122 7.37517C46.302 7.56469 46.2458 7.78076 46.2498 7.99994V17.0999C46.2489 17.3748 46.3465 17.6408 46.5248 17.8499L48.2748 20.1249C48.9527 20.7578 49.8474 21.1067 50.7748 21.0999C51.3555 21.1068 51.9297 20.9768 52.4509 20.7206C52.9721 20.4643 53.4256 20.089 53.7748 19.6249L55.6998 17.1249C55.9985 16.715 56.2121 16.2495 56.328 15.7557C56.4439 15.2619 56.4598 14.75 56.3748 14.2499C56.2432 13.4006 55.808 12.6277 55.1498 12.0749L57.6498 11.0499C58.3573 10.7692 58.9618 10.2784 59.3819 9.64375C59.8021 9.00906 60.0177 8.26089 59.9998 7.49994V5.74994C60.0081 5.10137 59.8491 4.4616 59.5382 3.89234C59.2273 3.32308 58.7749 2.84353 58.2248 2.49994Z" fill="#8A38F5"/>
</g>
<defs>
<clipPath id="clip0_2479_3126">
<rect width="60" height="60" fill="white"/>
</clipPath>
</defs>
</svg>
