<svg width="60" height="60" viewBox="0 0 60 60" fill="none" xmlns="http://www.w3.org/2000/svg">
<path d="M53.3249 47.5875C53.0109 48.995 52.2325 50.256 51.1149 51.1675C49.8939 52.4058 48.4391 53.3891 46.8348 54.0604C45.2306 54.7316 43.5089 55.0773 41.7699 55.0775H40.9574C37.3075 54.8793 33.7336 53.9555 30.4449 52.36H30.4199C29.6574 52.005 28.8699 51.65 28.1074 51.2175C24.2684 49.065 20.7472 46.3894 17.6449 43.2675C13.6188 39.4858 10.3149 35.0027 7.8949 30.0375C6.60877 27.3163 5.75033 24.413 5.3499 21.43C4.76105 18.3075 5.11527 15.0804 6.3674 12.16C7.15789 10.8424 8.12335 9.63813 9.2374 8.57998C9.73868 8.0131 10.3516 7.55576 11.0377 7.23658C11.7238 6.91739 12.4684 6.74323 13.2249 6.72498C14.0477 6.8159 14.8442 7.06935 15.5682 7.47062C16.2922 7.87189 16.9292 8.41298 17.4424 9.06248C18.5849 10.305 19.9799 11.6 21.1249 12.795L22.6999 14.345C23.6249 15.165 24.1974 16.31 24.2999 17.545C24.2999 18.6775 23.8824 19.77 23.1299 20.6175C22.6426 21.2102 22.1252 21.7776 21.5799 22.3175L21.0724 22.85C20.7774 23.125 20.5524 23.465 20.4124 23.8425C20.2874 24.2141 20.2374 24.595 20.2624 24.985C20.6649 26.0625 21.2974 27.0425 22.1124 27.855C23.3849 29.58 24.6549 31.08 25.9499 32.705C28.2923 35.4243 31.0721 37.7335 34.1749 39.5375C34.4924 39.77 34.8574 39.925 35.2449 39.9925C35.5799 40.0175 35.9199 39.9675 36.2349 39.8425C37.1224 39.32 37.9099 38.65 38.5699 37.86C39.4575 36.7731 40.7317 36.0723 42.1249 35.905C43.4656 35.9234 44.7446 36.4716 45.6824 37.43C46.1899 37.86 46.7474 38.445 47.2824 39.005L48.0424 39.79L48.8299 40.5525L50.1774 41.9225C50.9807 42.6358 51.7341 43.3983 52.4374 44.21C53.1424 45.185 53.4599 46.3925 53.3249 47.5875ZM44.2099 30.19C43.7063 30.1848 43.2248 29.9824 42.8686 29.6263C42.5125 29.2701 42.3101 28.7886 42.3049 28.285C42.3075 26.8469 42.0262 25.4225 41.4771 24.0934C40.928 22.7643 40.1219 21.5567 39.1051 20.5398C38.0882 19.523 36.8806 18.7169 35.5515 18.1677C34.2224 17.6186 32.798 17.3373 31.3599 17.34C30.8547 17.34 30.3701 17.1393 30.0129 16.782C29.6556 16.4248 29.4549 15.9402 29.4549 15.435C29.4549 14.9297 29.6556 14.4452 30.0129 14.0879C30.3701 13.7307 30.8547 13.53 31.3599 13.53C33.2984 13.527 35.2184 13.9066 37.0099 14.6471C38.8014 15.3876 40.4292 16.4743 41.7999 17.845C43.1706 19.2157 44.2573 20.8435 44.9978 22.635C45.7382 24.4265 46.1179 26.3465 46.1149 28.285C46.1156 28.5353 46.0667 28.7833 45.9712 29.0148C45.8757 29.2462 45.7354 29.4565 45.5584 29.6335C45.3814 29.8105 45.1711 29.9508 44.9397 30.0463C44.7083 30.1418 44.4603 30.1906 44.2099 30.19Z" fill="#8A38F5"/>
<path d="M53.0224 29.3C52.5192 29.2948 52.0381 29.0928 51.682 28.7372C51.3259 28.3816 51.1233 27.9007 51.1174 27.3975C51.1214 24.9473 50.6421 22.5203 49.7071 20.2555C48.7721 17.9906 47.3997 15.9324 45.6684 14.1985C43.937 12.4647 41.8808 11.0892 39.6174 10.1509C37.3539 9.21251 34.9277 8.72968 32.4774 8.73002C32.2216 8.73929 31.9666 8.69691 31.7275 8.60541C31.4884 8.51391 31.2703 8.37518 31.086 8.19748C30.9017 8.01979 30.7552 7.80678 30.6551 7.57119C30.555 7.33559 30.5034 7.08224 30.5034 6.82626C30.5034 6.57029 30.555 6.31694 30.6551 6.08134C30.7552 5.84575 30.9017 5.63274 31.086 5.45505C31.2703 5.27735 31.4884 5.13862 31.7275 5.04712C31.9666 4.95562 32.2216 4.91324 32.4774 4.92251C35.4277 4.92251 38.349 5.50403 41.0744 6.63381C43.7998 7.76359 46.2758 9.41948 48.3608 11.5068C50.4458 13.5941 52.0989 16.0719 53.2257 18.7986C54.3524 21.5252 54.9307 24.4472 54.9274 27.3975C54.9281 27.6479 54.8793 27.8959 54.7838 28.1273C54.6882 28.3587 54.548 28.569 54.3709 28.746C54.1939 28.923 53.9836 29.0633 53.7522 29.1588C53.5208 29.2543 53.2728 29.3007 53.0224 29.3Z" fill="#8A38F5"/>
</svg>
