<svg width="15" height="15" viewBox="0 0 15 15" fill="none" xmlns="http://www.w3.org/2000/svg">
<g clip-path="url(#clip0_3897_1157)">
<mask id="mask0_3897_1157" style="mask-type:luminance" maskUnits="userSpaceOnUse" x="0" y="0" width="15" height="15">
<path d="M7.5 13.75C8.32091 13.751 9.13393 13.5898 9.89235 13.2757C10.6508 12.9615 11.3396 12.5006 11.9194 11.9194C12.5006 11.3396 12.9615 10.6508 13.2757 9.89235C13.5898 9.13393 13.751 8.32091 13.75 7.5C13.751 6.6791 13.5898 5.86608 13.2757 5.10766C12.9615 4.34924 12.5006 3.66037 11.9194 3.08063C11.3396 2.49943 10.6508 2.03851 9.89235 1.72435C9.13393 1.4102 8.32091 1.24899 7.5 1.25C6.6791 1.24899 5.86608 1.4102 5.10766 1.72435C4.34924 2.03851 3.66037 2.49943 3.08063 3.08063C2.49943 3.66037 2.03851 4.34924 1.72435 5.10766C1.4102 5.86608 1.24899 6.6791 1.25 7.5C1.24899 8.32091 1.4102 9.13393 1.72435 9.89235C2.03851 10.6508 2.49943 11.3396 3.08063 11.9194C3.66037 12.5006 4.34924 12.9615 5.10766 13.2757C5.86608 13.5898 6.6791 13.751 7.5 13.75Z" fill="white" stroke="white" stroke-width="2" stroke-linejoin="round"/>
<path d="M5 7.5L6.875 9.375L10.625 5.625" stroke="black" stroke-width="2" stroke-linecap="round" stroke-linejoin="round"/>
</mask>
<g mask="url(#mask0_3897_1157)">
<path d="M0 0H15V15H0V0Z" fill="#0075C4"/>
</g>
</g>
<defs>
<clipPath id="clip0_3897_1157">
<rect width="15" height="15" fill="white"/>
</clipPath>
</defs>
</svg>
