<svg width="20" height="20" viewBox="0 0 20 20" fill="none" xmlns="http://www.w3.org/2000/svg">
<path d="M6.29961 6.7938L5.71524 6.20942C5.32461 5.8188 5.32461 5.18442 5.71524 4.7938L9.29961 1.2063C9.69024 0.815674 10.3246 0.815674 10.7152 1.2063L11.2996 1.7938C11.6902 2.18442 11.6902 2.8188 11.2996 3.20942L7.71524 6.7938C7.32461 7.18442 6.69024 7.18442 6.29961 6.7938ZM9.62461 8.61567L8.64336 7.63442L12.1434 4.13442L15.8746 7.86567L12.3746 11.3657L11.3934 10.3844L4.14336 17.6344C3.65586 18.1219 2.86524 18.1219 2.37461 17.6344C1.88399 17.1469 1.88711 16.3563 2.37461 15.8657L9.62461 8.61567ZM13.2152 13.7063C12.8246 13.3157 12.8246 12.6813 13.2152 12.2907L16.7996 8.7063C17.1902 8.31567 17.8246 8.31567 18.2152 8.7063L18.7996 9.29067C19.1902 9.6813 19.1902 10.3157 18.7996 10.7063L15.2152 14.2938C14.8246 14.6844 14.1902 14.6844 13.7996 14.2938L13.2152 13.7094V13.7063Z" fill="white"/>
</svg>
