<svg width="36" height="36" viewBox="0 0 36 36" fill="none" xmlns="http://www.w3.org/2000/svg">
<path d="M6 17.25L5.2725 17.4315C4.62348 17.5937 4.04731 17.9682 3.63556 18.4955C3.22381 19.0228 3.0001 19.6725 3 20.3415V23.157C3.0001 23.826 3.22381 24.4757 3.63556 25.003C4.04731 25.5303 4.62348 25.9048 5.2725 26.067L7.8825 26.7195C8.01512 26.7525 8.15353 26.7549 8.28722 26.7265C8.4209 26.6981 8.54636 26.6396 8.65406 26.5554C8.76177 26.4713 8.84889 26.3637 8.90883 26.2409C8.96877 26.118 8.99995 25.9832 9 25.8465V17.652C9.00001 17.5152 8.96881 17.3801 8.90879 17.2572C8.84876 17.1342 8.76149 17.0265 8.6536 16.9424C8.54571 16.8582 8.42005 16.7997 8.28617 16.7714C8.15229 16.7431 8.01372 16.7457 7.881 16.779L6 17.25ZM6 17.25V16.5C6 13.3174 7.26428 10.2652 9.51472 8.01472C11.7652 5.76428 14.8174 4.5 18 4.5C21.1826 4.5 24.2348 5.76428 26.4853 8.01472C28.7357 10.2652 30 13.3174 30 16.5V17.25M30 17.25L30.7275 17.4315C31.3765 17.5937 31.9527 17.9682 32.3644 18.4955C32.7762 19.0228 32.9999 19.6725 33 20.3415V23.157C32.9999 23.826 32.7762 24.4757 32.3644 25.003C31.9527 25.5303 31.3765 25.9048 30.7275 26.067L30 26.25M30 17.25L28.1175 16.779C27.9849 16.746 27.8465 16.7436 27.7128 16.772C27.5791 16.8004 27.4536 16.8589 27.3459 16.9431C27.2382 17.0272 27.1511 17.1348 27.0912 17.2576C27.0312 17.3805 27 17.5153 27 17.652V25.8465C27 25.9832 27.0312 26.118 27.0912 26.2409C27.1511 26.3637 27.2382 26.4713 27.3459 26.5554C27.4536 26.6396 27.5791 26.6981 27.7128 26.7265C27.8465 26.7549 27.9849 26.7525 28.1175 26.7195L30 26.25M30 26.25V27.75C30 28.5456 29.6839 29.3087 29.1213 29.8713C28.5587 30.4339 27.7956 30.75 27 30.75H22.5M22.5 30.75C22.5 30.1533 22.2629 29.581 21.841 29.159C21.419 28.7371 20.8467 28.5 20.25 28.5H15.75C15.1533 28.5 14.581 28.7371 14.159 29.159C13.7371 29.581 13.5 30.1533 13.5 30.75C13.5 31.3467 13.7371 31.919 14.159 32.341C14.581 32.7629 15.1533 33 15.75 33H20.25C20.8467 33 21.419 32.7629 21.841 32.341C22.2629 31.919 22.5 31.3467 22.5 30.75Z" stroke="#5E23DC" stroke-width="2.5"/>
</svg>
