<svg width="24" height="24" viewBox="0 0 24 24" fill="none" xmlns="http://www.w3.org/2000/svg">
<path d="M4 18C5.31224 19.7576 7.16596 21.0349 9.2756 21.6354C11.3852 22.2358 13.6338 22.126 15.6749 21.3228C17.7159 20.5196 19.4363 19.0676 20.571 17.1904C21.7057 15.3133 22.1917 13.1152 21.9542 10.9346C21.7167 8.75411 20.7689 6.71214 19.2568 5.12328C17.7446 3.53441 15.752 2.4868 13.5859 2.14181C11.4197 1.79682 9.20025 2.17359 7.26932 3.21409C5.33839 4.25458 3.80312 5.90108 2.9 7.89995M2 3.99995V7.99995H6M12 6.99995V12L15 15" stroke="white" stroke-width="2" stroke-linecap="round" stroke-linejoin="round"/>
</svg>
