<svg width="36" height="36" viewBox="0 0 36 36" fill="none" xmlns="http://www.w3.org/2000/svg">
<path d="M17.9978 4.5C16.0928 4.5 14.3978 5.7 13.7678 7.5H4.49782V10.5H7.42282L2.99782 21C2.29282 24 4.49782 25.5 8.24782 25.5C11.9978 25.5 14.3378 24 13.4978 21L9.07282 10.5H13.7528C14.2478 11.775 15.2228 12.75 16.4978 13.245V30H2.99782V33H32.9978V30H19.4978V13.23C20.7728 12.75 21.7478 11.775 22.2278 10.5H26.9228L22.4978 21C21.7928 24 23.9978 25.5 27.7478 25.5C31.4978 25.5 33.8378 24 32.9978 21L28.5728 10.5H31.4978V7.5H22.2428C21.5978 5.7 19.9028 4.5 17.9978 4.5ZM17.9978 7.5C18.3956 7.5 18.7772 7.65804 19.0585 7.93934C19.3398 8.22064 19.4978 8.60218 19.4978 9C19.4978 9.39782 19.3398 9.77936 19.0585 10.0607C18.7772 10.342 18.3956 10.5 17.9978 10.5C17.6 10.5 17.2185 10.342 16.9372 10.0607C16.6559 9.77936 16.4978 9.39782 16.4978 9C16.4978 8.60218 16.6559 8.22064 16.9372 7.93934C17.2185 7.65804 17.6 7.5 17.9978 7.5ZM8.24782 15.375L10.4978 21H5.99782L8.24782 15.375ZM27.7478 15.375L29.9978 21H25.4978L27.7478 15.375Z" fill="#8A38F5"/>
</svg>
