<svg width="36" height="36" viewBox="0 0 36 36" fill="none" xmlns="http://www.w3.org/2000/svg">
<path fill-rule="evenodd" clip-rule="evenodd" d="M19.005 3.3255L31.755 10.4505C32.1293 10.6374 32.4441 10.9249 32.664 11.2807C32.8839 11.6366 33.0003 12.0467 33 12.465V14.625C33 15.66 32.16 16.5 31.125 16.5H30V28.5H31.5C31.8978 28.5 32.2794 28.658 32.5607 28.9393C32.842 29.2206 33 29.6022 33 30C33 30.3978 32.842 30.7794 32.5607 31.0607C32.2794 31.342 31.8978 31.5 31.5 31.5H4.5C4.10218 31.5 3.72064 31.342 3.43934 31.0607C3.15804 30.7794 3 30.3978 3 30C3 29.6022 3.15804 29.2206 3.43934 28.9393C3.72064 28.658 4.10218 28.5 4.5 28.5H6V16.5H4.875C3.84 16.5 3 15.66 3 14.625V12.465C3 11.682 3.405 10.962 4.059 10.554L16.9935 3.3255C17.306 3.1692 17.6506 3.08783 18 3.08783C18.3494 3.08783 18.6925 3.1692 19.005 3.3255ZM25.5 16.5H10.5V28.5H13.5V19.5H16.5V28.5H19.5V19.5H22.5V28.5H25.5V16.5ZM18 9C17.6022 9 17.2206 9.15804 16.9393 9.43934C16.658 9.72065 16.5 10.1022 16.5 10.5C16.5 10.8978 16.658 11.2794 16.9393 11.5607C17.2206 11.842 17.6022 12 18 12C18.3978 12 18.7794 11.842 19.0607 11.5607C19.342 11.2794 19.5 10.8978 19.5 10.5C19.5 10.1022 19.342 9.72065 19.0607 9.43934C18.7794 9.15804 18.3978 9 18 9Z" fill="#FEA124"/>
</svg>
