<svg width="15" height="15" viewBox="0 0 15 15" fill="none" xmlns="http://www.w3.org/2000/svg">
<mask id="mask0_3904_1215" style="mask-type:luminance" maskUnits="userSpaceOnUse" x="0" y="0" width="15" height="15">
<path d="M7.25 13.5C8.07091 13.501 8.88393 13.3398 9.64235 13.0257C10.4008 12.7115 11.0896 12.2506 11.6694 11.6694C12.2506 11.0896 12.7115 10.4008 13.0257 9.64235C13.3398 8.88393 13.501 8.07091 13.5 7.25C13.501 6.4291 13.3398 5.61608 13.0257 4.85766C12.7115 4.09924 12.2506 3.41037 11.6694 2.83063C11.0896 2.24943 10.4008 1.78851 9.64235 1.47435C8.88393 1.1602 8.07091 0.998992 7.25 1C6.4291 0.998992 5.61608 1.1602 4.85766 1.47435C4.09924 1.78851 3.41037 2.24943 2.83063 2.83063C2.24943 3.41037 1.78851 4.09924 1.47435 4.85766C1.1602 5.61608 0.998992 6.4291 1 7.25C0.998992 8.07091 1.1602 8.88393 1.47435 9.64235C1.78851 10.4008 2.24943 11.0896 2.83063 11.6694C3.41037 12.2506 4.09924 12.7115 4.85766 13.0257C5.61608 13.3398 6.4291 13.501 7.25 13.5Z" fill="white" stroke="white" stroke-width="2" stroke-linejoin="round"/>
<path d="M4.75 7.25L6.625 9.125L10.375 5.375" stroke="black" stroke-width="2" stroke-linecap="round" stroke-linejoin="round"/>
</mask>
<g mask="url(#mask0_3904_1215)">
<path d="M-0.25 -0.25H14.75V14.75H-0.25V-0.25Z" fill="#00DA3A"/>
</g>
</svg>
