<svg width="29" height="29" viewBox="0 0 29 29" fill="none" xmlns="http://www.w3.org/2000/svg">
<path d="M20.655 23.2031L5.59687 8.145C4.33687 9.91125 3.6 12.0712 3.6 14.4C3.6 20.3625 8.4375 25.2 14.4 25.2C16.7344 25.2 18.8944 24.4631 20.655 23.2031ZM23.2031 20.655C24.4631 18.8888 25.2 16.7288 25.2 14.4C25.2 8.4375 20.3625 3.6 14.4 3.6C12.0656 3.6 9.90562 4.33687 8.145 5.59687L23.2031 20.655ZM0 14.4C0 6.44625 6.44625 0 14.4 0C22.3537 0 28.8 6.44625 28.8 14.4C28.8 22.3537 22.3537 28.8 14.4 28.8C6.44625 28.8 0 22.3537 0 14.4Z" fill="#FF0000"/>
</svg>
