<svg width="30" height="24" viewBox="0 0 30 24" fill="none" xmlns="http://www.w3.org/2000/svg">
<path d="M1.81901 0.239082C1.33151 -0.145293 0.623701 -0.0562306 0.239326 0.431269C-0.145049 0.918769 -0.0559865 1.62658 0.431513 2.01096L28.1815 23.761C28.669 24.1453 29.3768 24.0563 29.7612 23.5688C30.1456 23.0813 30.0565 22.3735 29.569 21.9891L20.6534 15H29.0018C29.555 15 30.0003 14.55 30.0003 14.0016C30.0003 11.2406 27.7596 9.00002 24.9987 9.00002H22.9971C22.2518 9.00002 21.544 9.16408 20.9065 9.45471C20.9675 9.79221 20.9956 10.1438 20.9956 10.5C20.9956 11.9156 20.5034 13.2188 19.6831 14.2453L18.5018 13.3219C19.13 12.5485 19.5003 11.5688 19.5003 10.5C19.5003 8.01564 17.4846 6.00002 15.0003 6.00002C13.5425 6.00002 12.2487 6.69377 11.4237 7.76721L9.52058 6.27658C10.13 5.61096 10.5003 4.72502 10.5003 3.75002C10.5003 1.67814 8.82214 1.93428e-05 6.75026 1.93428e-05C5.45183 1.93428e-05 4.30808 0.660957 3.63308 1.66408L1.81901 0.239082ZM5.00183 9.00002C2.24089 9.00002 0.000263483 11.2406 0.000263483 14.0016C0.000263483 14.55 0.450263 15 0.998701 15H11.03C10.0643 14.1469 9.37995 12.9938 9.11745 11.6813L5.70964 9.00002H4.99714H5.00183ZM12.2487 16.5C8.7987 16.5 6.00026 19.2985 6.00026 22.7485C6.00026 23.4375 6.55808 24 7.25183 24H22.7534C23.2456 24 23.6674 23.7188 23.8737 23.3063L15.2299 16.5H12.2487ZM24.0003 7.50002C24.9948 7.50002 25.9487 7.10493 26.6519 6.40167C27.3552 5.69841 27.7503 4.74458 27.7503 3.75002C27.7503 2.75546 27.3552 1.80163 26.6519 1.09837C25.9487 0.395107 24.9948 1.93428e-05 24.0003 1.93428e-05C23.0057 1.93428e-05 22.0519 0.395107 21.3486 1.09837C20.6454 1.80163 20.2503 2.75546 20.2503 3.75002C20.2503 4.74458 20.6454 5.69841 21.3486 6.40167C22.0519 7.10493 23.0057 7.50002 24.0003 7.50002Z" fill="#FF0000"/>
</svg>
