<svg width="30" height="33" viewBox="0 0 30 33" fill="none" xmlns="http://www.w3.org/2000/svg">
<path fill-rule="evenodd" clip-rule="evenodd" d="M16.005 0.237673L28.755 7.36267C29.1293 7.54953 29.4441 7.83702 29.664 8.19287C29.8839 8.54873 30.0003 8.95885 30 9.37717V11.5372C30 12.5722 29.16 13.4122 28.125 13.4122H27V25.4122H28.5C28.8978 25.4122 29.2794 25.5702 29.5607 25.8515C29.842 26.1328 30 26.5143 30 26.9122C30 27.31 29.842 27.6915 29.5607 27.9728C29.2794 28.2541 28.8978 28.4122 28.5 28.4122H1.5C1.10218 28.4122 0.720644 28.2541 0.43934 27.9728C0.158035 27.6915 0 27.31 0 26.9122C0 26.5143 0.158035 26.1328 0.43934 25.8515C0.720644 25.5702 1.10218 25.4122 1.5 25.4122H3V13.4122H1.875C0.84 13.4122 0 12.5722 0 11.5372V9.37717C0 8.59417 0.405 7.87417 1.059 7.46617L13.9935 0.237673C14.306 0.0813737 14.6506 0 15 0C15.3494 0 15.6925 0.0813737 16.005 0.237673ZM22.5 13.4122H7.5V25.4122H10.5V16.4122H13.5V25.4122H16.5V16.4122H19.5V25.4122H22.5V13.4122ZM15 5.91217C14.6022 5.91217 14.2206 6.07021 13.9393 6.35151C13.658 6.63282 13.5 7.01435 13.5 7.41217C13.5 7.81 13.658 8.19153 13.9393 8.47283C14.2206 8.75414 14.6022 8.91217 15 8.91217C15.3978 8.91217 15.7794 8.75414 16.0607 8.47283C16.342 8.19153 16.5 7.81 16.5 7.41217C16.5 7.01435 16.342 6.63282 16.0607 6.35151C15.7794 6.07021 15.3978 5.91217 15 5.91217Z" fill="#FF0000"/>
</svg>
