<svg width="36" height="36" viewBox="0 0 36 36" fill="none" xmlns="http://www.w3.org/2000/svg">
<path d="M24 9C24 10.5913 23.3679 12.1174 22.2426 13.2426C21.1174 14.3679 19.5913 15 18 15C16.4087 15 14.8826 14.3679 13.7574 13.2426C12.6321 12.1174 12 10.5913 12 9C12 7.4087 12.6321 5.88258 13.7574 4.75736C14.8826 3.63214 16.4087 3 18 3C19.5913 3 21.1174 3.63214 22.2426 4.75736C23.3679 5.88258 24 7.4087 24 9ZM23.517 20.2545C22.8075 20.262 22.146 20.289 21.57 20.3655C20.6055 20.496 19.5495 20.805 18.678 21.678C17.805 22.5495 17.496 23.6055 17.367 24.57C17.25 25.437 17.25 26.496 17.25 27.621V27.879C17.25 29.004 17.25 30.063 17.367 30.93C17.457 31.6065 17.637 32.328 18.0375 33H18C6 33 6 29.9775 6 26.25C6 22.5225 11.373 19.5 18 19.5C19.989 19.5 21.8655 19.7715 23.517 20.2545Z" fill="white"/>
<path fill-rule="evenodd" clip-rule="evenodd" d="M24.75 33C22.275 33 21.0375 33 20.2695 32.2305C19.5 31.4625 19.5 30.225 19.5 27.75C19.5 25.275 19.5 24.0375 20.2695 23.2695C21.0375 22.5 22.275 22.5 24.75 22.5C27.225 22.5 28.4625 22.5 29.2305 23.2695C30 24.0375 30 25.275 30 27.75C30 30.225 30 31.4625 29.2305 32.2305C28.4625 33 27.225 33 24.75 33ZM27.702 26.619C27.8661 26.4549 27.9583 26.2323 27.9583 26.0002C27.9583 25.7682 27.8661 25.5456 27.702 25.3815C27.5379 25.2174 27.3153 25.1252 27.0833 25.1252C26.8512 25.1252 26.6286 25.2174 26.4645 25.3815L23.5845 28.2615L23.0355 27.714C22.9542 27.6327 22.8578 27.5683 22.7516 27.5243C22.6455 27.4803 22.5317 27.4577 22.4167 27.4577C22.3018 27.4577 22.188 27.4803 22.0819 27.5243C21.9757 27.5683 21.8793 27.6327 21.798 27.714C21.7167 27.7953 21.6523 27.8917 21.6083 27.9979C21.5643 28.1041 21.5417 28.2178 21.5417 28.3328C21.5417 28.4477 21.5643 28.5615 21.6083 28.6676C21.6523 28.7738 21.7167 28.8702 21.798 28.9515L22.965 30.1185C23.0462 30.1998 23.1427 30.2643 23.2488 30.3083C23.355 30.3524 23.4688 30.375 23.5837 30.375C23.6987 30.375 23.8125 30.3524 23.9187 30.3083C24.0248 30.2643 24.1213 30.1998 24.2025 30.1185L27.702 26.619Z" fill="white"/>
</svg>
