<svg width="36" height="36" viewBox="0 0 36 36" fill="none" xmlns="http://www.w3.org/2000/svg">
<path d="M25.5 5.00996C27.7624 6.31624 29.6444 8.19075 30.9597 10.4479C32.275 12.7051 32.978 15.2666 32.9991 17.879C33.0202 20.4913 32.3587 23.0639 31.08 25.342C29.8014 27.6201 27.9499 29.5248 25.7089 30.8674C23.4679 32.2101 20.9151 32.9442 18.3031 32.9971C15.6912 33.0499 13.1108 32.4197 10.8173 31.1688C8.52384 29.9179 6.59681 28.0897 5.227 25.8652C3.85719 23.6407 3.09211 21.097 3.0075 18.486L3 18L3.0075 17.514C3.0915 14.9234 3.84532 12.3989 5.19546 10.1865C6.5456 7.974 8.44598 6.14914 10.7113 4.88978C12.9767 3.63043 15.5297 2.97956 18.1215 3.00062C20.7133 3.02168 23.2554 3.71396 25.5 5.00996ZM18 8.99996C17.6326 9.00001 17.278 9.13489 17.0034 9.37903C16.7289 9.62317 16.5535 9.95958 16.5105 10.3245L16.5 10.5V18L16.5135 18.1965C16.5477 18.4567 16.6496 18.7034 16.809 18.912L16.9395 19.062L21.4395 23.562L21.5805 23.685C21.8436 23.8891 22.167 23.9998 22.5 23.9998C22.833 23.9998 23.1564 23.8891 23.4195 23.685L23.5605 23.5605L23.685 23.4195C23.8891 23.1564 23.9999 22.8329 23.9999 22.5C23.9999 22.167 23.8891 21.8435 23.685 21.5805L23.5605 21.4395L19.5 17.3775V10.5L19.4895 10.3245C19.4465 9.95958 19.2711 9.62317 18.9966 9.37903C18.722 9.13489 18.3674 9.00001 18 8.99996Z" fill="white"/>
</svg>
