<svg width="50" height="50" viewBox="0 0 50 50" fill="none" xmlns="http://www.w3.org/2000/svg">
<path d="M8.33233 22.9166C8.86333 22.9172 9.37406 23.1205 9.76018 23.4851C10.1463 23.8496 10.3786 24.3478 10.4098 24.8779C10.4409 25.408 10.2684 25.9299 9.92761 26.3371C9.5868 26.7443 9.10336 27.006 8.57608 27.0687L8.33233 27.0833H6.24899C5.71799 27.0827 5.20726 26.8794 4.82114 26.5149C4.43503 26.1503 4.20267 25.6521 4.17155 25.1221C4.14043 24.592 4.3129 24.07 4.65371 23.6628C4.99453 23.2556 5.47796 22.9939 6.00524 22.9312L6.24899 22.9166H8.33233ZM24.999 4.16663C25.5093 4.16669 26.0018 4.35403 26.3831 4.69312C26.7644 5.0322 27.008 5.49944 27.0677 6.00621L27.0823 6.24996V8.33329C27.0817 8.86429 26.8784 9.37503 26.5139 9.76114C26.1494 10.1473 25.6512 10.3796 25.1211 10.4107C24.591 10.4419 24.069 10.2694 23.6618 9.92857C23.2546 9.58776 22.993 9.10433 22.9302 8.57704L22.9157 8.33329V6.24996C22.9157 5.69743 23.1352 5.16752 23.5259 4.77682C23.9166 4.38612 24.4465 4.16663 24.999 4.16663ZM43.749 22.9166C44.28 22.9172 44.7907 23.1205 45.1768 23.4851C45.563 23.8496 45.7953 24.3478 45.8264 24.8779C45.8576 25.408 45.6851 25.9299 45.3443 26.3371C45.0035 26.7443 44.52 27.006 43.9927 27.0687L43.749 27.0833H41.6657C41.1347 27.0827 40.6239 26.8794 40.2378 26.5149C39.8517 26.1503 39.6193 25.6521 39.5882 25.1221C39.5571 24.592 39.7296 24.07 40.0704 23.6628C40.4112 23.2556 40.8946 22.9939 41.4219 22.9312L41.6657 22.9166H43.749ZM10.1927 10.1937C10.5515 9.83501 11.0288 9.61953 11.5351 9.58769C12.0414 9.55585 12.5419 9.70985 12.9427 10.0208L13.1386 10.1937L14.5969 11.652C14.9706 12.027 15.1875 12.53 15.2036 13.0591C15.2198 13.5882 15.034 14.1035 14.6839 14.5005C14.3338 14.8976 13.8458 15.1464 13.3188 15.1966C12.7919 15.2468 12.2656 15.0946 11.8469 14.7708L11.6511 14.5979L10.1927 13.1395C9.80218 12.7489 9.58277 12.2191 9.58277 11.6666C9.58277 11.1142 9.80218 10.5844 10.1927 10.1937ZM36.8594 10.1937C37.2343 9.82007 37.7374 9.60314 38.2665 9.58698C38.7955 9.57083 39.3109 9.75666 39.7079 10.1067C40.1049 10.4568 40.3538 10.9449 40.404 11.4718C40.4542 11.9987 40.3019 12.525 39.9782 12.9437L39.8052 13.1395L38.3469 14.5979C37.972 14.9715 37.4689 15.1884 36.9399 15.2046C36.4108 15.2208 35.8954 15.0349 35.4984 14.6849C35.1014 14.3348 34.8525 13.8467 34.8023 13.3198C34.7521 12.7929 34.9044 12.2666 35.2282 11.8479L35.4011 11.652L36.8594 10.1937ZM29.1657 37.5C29.7182 37.5 30.2481 37.7195 30.6388 38.1102C31.0295 38.5009 31.249 39.0308 31.249 39.5833C31.249 41.2409 30.5905 42.8306 29.4184 44.0027C28.2463 45.1748 26.6566 45.8333 24.999 45.8333C23.3414 45.8333 21.7517 45.1748 20.5796 44.0027C19.4075 42.8306 18.749 41.2409 18.749 39.5833C18.7491 39.073 18.9364 38.5805 19.2755 38.1992C19.6146 37.8179 20.0818 37.5742 20.5886 37.5145L20.8323 37.5H29.1657ZM24.999 12.5C27.6225 12.5 30.1796 13.3254 32.3079 14.8594C34.4362 16.3934 36.0279 18.5582 36.8575 21.0471C37.6872 23.536 37.7127 26.2229 36.9304 28.7271C36.1482 31.2313 34.5978 33.4258 32.499 35C32.2119 35.2156 31.8738 35.3534 31.5177 35.4L31.249 35.4166H18.749C18.2982 35.4166 17.8596 35.2704 17.499 35C15.4002 33.4258 13.8498 31.2313 13.0676 28.7271C12.2853 26.2229 12.3108 23.536 13.1405 21.0471C13.9701 18.5582 15.5618 16.3934 17.6901 14.8594C19.8184 13.3254 22.3755 12.5 24.999 12.5Z" fill="#5E23DC"/>
</svg>
