<svg width="36" height="36" viewBox="0 0 36 36" fill="none" xmlns="http://www.w3.org/2000/svg">
<path fill-rule="evenodd" clip-rule="evenodd" d="M18 3V12.75C18 13.3467 18.2371 13.919 18.659 14.341C19.081 14.7629 19.6533 15 20.25 15H30V30C30 30.7956 29.6839 31.5587 29.1213 32.1213C28.5587 32.6839 27.7956 33 27 33H9C8.20435 33 7.44129 32.6839 6.87868 32.1213C6.31607 31.5587 6 30.7956 6 30V6C6 5.20435 6.31607 4.44129 6.87868 3.87868C7.44129 3.31607 8.20435 3 9 3H18ZM20.3865 20.4855L16.674 24.198L15.6135 23.1375C15.3306 22.8643 14.9517 22.7131 14.5584 22.7165C14.1651 22.7199 13.7889 22.8777 13.5108 23.1558C13.2327 23.4339 13.0749 23.8101 13.0715 24.2034C13.0681 24.5967 13.2193 24.9756 13.4925 25.2585L15.507 27.2745C15.6602 27.4278 15.8422 27.5494 16.0424 27.6324C16.2426 27.7153 16.4573 27.758 16.674 27.758C16.8907 27.758 17.1054 27.7153 17.3056 27.6324C17.5058 27.5494 17.6878 27.4278 17.841 27.2745L22.5075 22.6065C22.6508 22.4681 22.765 22.3026 22.8437 22.1196C22.9223 21.9366 22.9636 21.7398 22.9654 21.5406C22.9671 21.3414 22.9292 21.1439 22.8537 20.9596C22.7783 20.7752 22.6669 20.6077 22.5261 20.4669C22.3853 20.3261 22.2178 20.2147 22.0334 20.1393C21.8491 20.0638 21.6516 20.0259 21.4524 20.0276C21.2532 20.0294 21.0564 20.0707 20.8734 20.1493C20.6904 20.228 20.5249 20.3422 20.3865 20.4855ZM21 3.0645C21.5683 3.18503 22.0894 3.46799 22.5 3.879L29.121 10.5C29.532 10.9106 29.815 11.4317 29.9355 12H21V3.0645Z" fill="white"/>
</svg>
