<svg width="36" height="36" viewBox="0 0 36 36" fill="none" xmlns="http://www.w3.org/2000/svg">
<path d="M9.75 22.5001H9M27 13.5001H26.25M4.5 9.75006C15 12.7501 21 6.75006 31.5 9.75006V26.2501C21 23.2501 15 29.2501 4.5 26.2501V9.75006ZM17.205 14.4091L17.352 14.3791C18.3084 14.1879 19.3015 14.3845 20.1129 14.9256C20.9244 15.4667 21.4876 16.3079 21.6788 17.2643C21.8699 18.2207 21.6733 19.2138 21.1322 20.0252C20.5911 20.8367 19.7499 21.3999 18.7935 21.5911L18.648 21.6211C17.7 21.7917 16.7228 21.5837 15.9266 21.0416C15.1303 20.4995 14.5785 19.6667 14.3897 18.7221C14.2009 17.7775 14.3902 16.7966 14.9169 15.9901C15.4436 15.1836 16.2642 14.6159 17.205 14.4091Z" stroke="white" stroke-width="3" stroke-linecap="round" stroke-linejoin="round"/>
</svg>
