<svg width="36" height="36" viewBox="0 0 36 36" fill="none" xmlns="http://www.w3.org/2000/svg">
<g clip-path="url(#clip0_3939_5255)">
<path d="M10.0575 0.495C10.3737 0.178442 10.8026 0.000393867 11.25 0L24.75 0C25.1978 0 25.6252 0.17775 25.9425 0.495L35.505 10.0575C35.8223 10.3725 36 10.8022 36 11.25V24.75C35.9996 25.1974 35.8216 25.6263 35.505 25.9425L25.9425 35.505C25.6263 35.8216 25.1974 35.9996 24.75 36H11.25C10.8026 35.9996 10.3737 35.8216 10.0575 35.505L0.495 25.9425C0.178442 25.6263 0.000393867 25.1974 0 24.75L0 11.25C0 10.8022 0.17775 10.3747 0.495 10.0575L10.0575 0.495ZM11.9475 3.375L3.375 11.9475V24.0525L11.9475 32.625H24.0525L32.625 24.0525V11.9475L24.0525 3.375H11.9475ZM18 9C18.4476 9 18.8768 9.17779 19.1932 9.49426C19.5097 9.81072 19.6875 10.2399 19.6875 10.6875V18.5625C19.6875 19.0101 19.5097 19.4393 19.1932 19.7557C18.8768 20.0722 18.4476 20.25 18 20.25C17.5524 20.25 17.1232 20.0722 16.8068 19.7557C16.4903 19.4393 16.3125 19.0101 16.3125 18.5625V10.6875C16.3125 10.2399 16.4903 9.81072 16.8068 9.49426C17.1232 9.17779 17.5524 9 18 9ZM18 27C17.4033 27 16.831 26.7629 16.409 26.341C15.9871 25.919 15.75 25.3467 15.75 24.75C15.75 24.1533 15.9871 23.581 16.409 23.159C16.831 22.7371 17.4033 22.5 18 22.5C18.5967 22.5 19.169 22.7371 19.591 23.159C20.0129 23.581 20.25 24.1533 20.25 24.75C20.25 25.3467 20.0129 25.919 19.591 26.341C19.169 26.7629 18.5967 27 18 27Z" fill="white"/>
</g>
<defs>
<clipPath id="clip0_3939_5255">
<rect width="36" height="36" fill="white"/>
</clipPath>
</defs>
</svg>
