<svg width="36" height="36" viewBox="0 0 36 36" fill="none" xmlns="http://www.w3.org/2000/svg">
<path d="M34.807 17.6175C33.522 14.2547 31.2812 11.3413 28.3608 9.23625L33.7495 3.83625L32.1633 2.25L2.24952 32.1637L3.83577 33.75L9.57327 28.0238C12.1346 29.5154 15.0359 30.325 17.9995 30.375C21.6664 30.2371 25.2126 29.0277 28.1997 26.8964C31.1868 24.7651 33.4838 21.8051 34.807 18.3825C34.8964 18.1353 34.8964 17.8647 34.807 17.6175ZM17.9995 25.3125C16.4488 25.3118 14.939 24.8151 13.6908 23.895L15.7495 21.8587C16.6032 22.3265 17.5855 22.5048 18.549 22.367C19.5126 22.2291 20.4055 21.7826 21.0938 21.0943C21.7821 20.406 22.2286 19.5131 22.3665 18.5495C22.5043 17.5859 22.326 16.6036 21.8583 15.75L23.8945 13.7137C24.6871 14.8023 25.1632 16.0888 25.2702 17.431C25.3772 18.7733 25.1109 20.119 24.5008 21.3193C23.8908 22.5197 22.9606 23.528 21.8133 24.2327C20.6659 24.9374 19.346 25.3111 17.9995 25.3125ZM5.09577 24.5362L10.7208 18.9112C10.6919 18.6084 10.6807 18.3041 10.687 18C10.69 16.0615 11.4614 14.2033 12.8321 12.8326C14.2028 11.4619 16.061 10.6905 17.9995 10.6875C18.2966 10.6895 18.5933 10.7083 18.8883 10.7438L23.1408 6.5025C21.4857 5.93424 19.7494 5.6379 17.9995 5.625C14.3326 5.76289 10.7865 6.97225 7.79937 9.1036C4.81229 11.2349 2.5152 14.1949 1.19202 17.6175C1.10266 17.8647 1.10266 18.1353 1.19202 18.3825C2.05721 20.6799 3.38603 22.7746 5.09577 24.5362Z" fill="white"/>
</svg>
