<svg width="36" height="36" viewBox="0 0 36 36" fill="none" xmlns="http://www.w3.org/2000/svg">
<g clip-path="url(#clip0_2483_3180)">
<path fill-rule="evenodd" clip-rule="evenodd" d="M16.2566 1.14428C16.7315 0.706231 17.3539 0.463013 18 0.463013C18.6461 0.463013 19.2685 0.706231 19.7434 1.14428L34.7657 14.9991C35.5577 15.7346 36 16.7786 36 17.8457V32.1429C36 33.1658 35.5936 34.1469 34.8703 34.8703C34.1469 35.5936 33.1658 36 32.1429 36H3.85714C2.83416 36 1.85309 35.5936 1.12973 34.8703C0.406376 34.1469 0 33.1658 0 32.1429L0 17.8457C0 16.6783 0.457714 15.7191 1.23429 14.9991H1.23686L16.2566 1.14428ZM16.8814 13.9629C16.5404 13.9629 16.2134 14.0983 15.9723 14.3394C15.7312 14.5805 15.5957 14.9076 15.5957 15.2486V16.29H20.4043V15.2486C20.4043 14.9076 20.2688 14.5805 20.0277 14.3394C19.7866 14.0983 19.4596 13.9629 19.1186 13.9629H16.8814ZM13.0243 15.2486V16.29H12.5486C11.8666 16.29 11.2125 16.5609 10.7303 17.0432C10.2481 17.5254 9.97714 18.1794 9.97714 18.8614V26.82C9.97714 27.502 10.2481 28.156 10.7303 28.6383C11.2125 29.1205 11.8666 29.3914 12.5486 29.3914H23.4463C24.1283 29.3914 24.7823 29.1205 25.2646 28.6383C25.7468 28.156 26.0177 27.502 26.0177 26.82V18.8614C26.0177 18.1794 25.7468 17.5254 25.2646 17.0432C24.7823 16.5609 24.1283 16.29 23.4463 16.29H22.9783V15.2486C22.9783 14.2256 22.5719 13.2445 21.8486 12.5212C21.1252 11.7978 20.1441 11.3914 19.1211 11.3914H16.884C15.861 11.3914 14.8799 11.7978 14.1566 12.5212C13.4332 13.2445 13.0243 14.2256 13.0243 15.2486Z" fill="white"/>
</g>
<defs>
<clipPath id="clip0_2483_3180">
<rect width="36" height="36" fill="white"/>
</clipPath>
</defs>
</svg>
