<svg width="60" height="60" viewBox="0 0 60 60" fill="none" xmlns="http://www.w3.org/2000/svg">
<path d="M42.5 8.34998C46.2707 10.5271 49.4073 13.6513 51.5995 17.4132C53.7917 21.1752 54.9634 25.4444 54.9986 29.7983C55.0337 34.1522 53.9312 38.4399 51.8 42.2367C49.6689 46.0336 46.5831 49.208 42.8481 51.4458C39.1131 53.6835 34.8584 54.907 30.5052 54.9951C26.1521 55.0832 21.8514 54.0329 18.0289 51.9481C14.2064 49.8633 10.9947 46.8163 8.71167 43.1088C6.42866 39.4012 5.15352 35.1618 5.0125 30.81L5 30L5.0125 29.19C5.15251 24.8725 6.40887 20.6649 8.6591 16.9775C10.9093 13.29 14.0766 10.2486 17.8522 8.14968C21.6278 6.05076 25.8829 4.96597 30.2025 5.00107C34.5222 5.03617 38.759 6.18997 42.5 8.34998ZM30 15C29.3877 15.0001 28.7967 15.2249 28.3391 15.6318C27.8815 16.0387 27.5891 16.5993 27.5175 17.2075L27.5 17.5V30L27.5225 30.3275C27.5795 30.7612 27.7493 31.1724 28.015 31.52L28.2325 31.77L35.7325 39.27L35.9675 39.475C36.4059 39.8151 36.9451 39.9998 37.5 39.9998C38.0549 39.9998 38.5941 39.8151 39.0325 39.475L39.2675 39.2675L39.475 39.0325C39.8152 38.594 39.9998 38.0549 39.9998 37.5C39.9998 36.9451 39.8152 36.4059 39.475 35.9675L39.2675 35.7325L32.5 28.9625V17.5L32.4825 17.2075C32.4109 16.5993 32.1185 16.0387 31.6609 15.6318C31.2033 15.2249 30.6123 15.0001 30 15Z" fill="#8A38F5"/>
</svg>
