<svg width="29" height="30" viewBox="0 0 29 30" fill="none" xmlns="http://www.w3.org/2000/svg">
<circle cx="14.2472" cy="14.2472" r="13.7472" fill="white" stroke="#8A38F5"/>
<path d="M14.247 12.7274C17.1977 12.7274 19.5897 10.3354 19.5897 7.38469C19.5897 4.434 17.1977 2.04199 14.247 2.04199C11.2963 2.04199 8.9043 4.434 8.9043 7.38469C8.9043 10.3354 11.2963 12.7274 14.247 12.7274Z" fill="#5E23DC"/>
<path d="M27.4791 25.0869C26.9249 22.5636 25.6542 20.2539 23.8194 18.4352C23.3741 17.9883 22.8915 17.5802 22.3769 17.2153C20.0332 15.4574 17.1766 14.5187 14.2471 14.544C10.6649 14.5256 7.22081 15.9244 4.66583 18.4352C2.83106 20.2539 1.56028 22.5636 1.00608 25.0869C0.909757 25.5331 0.91496 25.9952 1.02131 26.4391C1.12766 26.883 1.33244 27.2973 1.62049 27.6514C1.91882 28.0131 2.29448 28.3032 2.71982 28.5005C3.14515 28.6977 3.60932 28.7971 4.07814 28.7911H24.416C24.8862 28.7914 25.3504 28.6859 25.7743 28.4825C26.1982 28.279 26.5709 27.9828 26.8647 27.6158C27.1476 27.2658 27.3494 26.8575 27.4557 26.4202C27.5619 25.983 27.5699 25.5276 27.4791 25.0869Z" fill="#5E23DC"/>
</svg>
