<svg width="71" height="36" viewBox="0 0 71 36" fill="none" xmlns="http://www.w3.org/2000/svg">
<path d="M34.0469 8.32117H27.0764C26.9653 8.32117 26.875 8.2309 26.875 8.11978C26.875 8.00867 26.9653 7.9184 27.0764 7.9184H34.0469C34.158 7.9184 34.2483 8.00867 34.2483 8.11978C34.2483 8.2309 34.158 8.32117 34.0469 8.32117Z" fill="#5E17EB"/>
<path d="M43.4219 8.32117H36.4514C36.3403 8.32117 36.25 8.2309 36.25 8.11978C36.25 8.00867 36.3403 7.9184 36.4514 7.9184H43.4219C43.533 7.9184 43.6233 8.00867 43.6233 8.11978C43.6233 8.2309 43.533 8.32117 43.4219 8.32117Z" fill="#5E17EB"/>
<path d="M29.1372 15.8055C28.467 15.8055 27.9219 15.2586 27.9219 14.5885C27.9219 13.9184 28.467 13.3732 29.1372 13.3732C29.809 13.3732 30.3542 13.9184 30.3542 14.5885C30.3542 15.2586 29.809 15.8055 29.1372 15.8055ZM29.1372 13.7777C28.6892 13.7777 28.3247 14.1423 28.3247 14.5902C28.3247 15.0399 28.6892 15.4045 29.1372 15.4045C29.5868 15.4045 29.9514 15.0399 29.9514 14.5902C29.9514 14.1423 29.5868 13.7777 29.1372 13.7777Z" fill="#5E17EB"/>
<path d="M27.0825 32.4166C26.9731 32.4166 26.8828 32.3264 26.8828 32.2153V12.1753C26.8828 12.0642 26.9731 11.9739 27.0825 11.9739C27.1936 11.9739 27.2839 12.0642 27.2839 12.1753V32.217C27.2839 32.3281 27.1936 32.4184 27.0825 32.4184V32.4166Z" fill="#5E17EB"/>
<path d="M26.053 32.4166C25.9418 32.4166 25.8516 32.3264 25.8516 32.2153V12.1753C25.8516 12.0642 25.9418 11.9739 26.053 11.9739C26.1641 11.9739 26.2543 12.0642 26.2543 12.1753V32.217C26.2543 32.3281 26.1641 32.4184 26.053 32.4184V32.4166Z" fill="#5E17EB"/>
<path d="M24.4905 32.4166C24.3793 32.4166 24.2891 32.3264 24.2891 32.2153V12.1753C24.2891 12.0642 24.3793 11.9739 24.4905 11.9739C24.6016 11.9739 24.6918 12.0642 24.6918 12.1753V32.217C24.6918 32.3281 24.6016 32.4184 24.4905 32.4184V32.4166Z" fill="#5E17EB"/>
<path d="M23.5451 32.4166C23.4358 32.4166 23.3438 32.3264 23.3438 32.2153V12.1753C23.3438 12.0642 23.4358 11.9739 23.5451 11.9739C23.6562 11.9739 23.7465 12.0642 23.7465 12.1753V32.217C23.7465 32.3281 23.6562 32.4184 23.5451 32.4184V32.4166Z" fill="#5E17EB"/>
<path d="M27.4852 34.4896H23.1623C23.0512 34.4896 22.9609 34.3993 22.9609 34.2882V32.2153C22.9609 32.1042 23.0512 32.0139 23.1623 32.0139H27.4852C27.5964 32.0139 27.6866 32.1042 27.6866 32.2153V34.2882C27.6866 34.3993 27.5964 34.4896 27.4852 34.4896ZM23.3637 34.0868H27.2839V32.4167H23.3637V34.0868Z" fill="#5E17EB"/>
<path d="M17.2023 34.4895H13.6936C13.5825 34.4895 13.4922 34.3993 13.4922 34.2882V32.4496C13.4922 32.3402 13.5825 32.2482 13.6936 32.2482H17.2023C17.3134 32.2482 17.4036 32.3402 17.4036 32.4496V34.2882C17.4036 34.3993 17.3134 34.4895 17.2023 34.4895ZM13.8967 34.0868H17.0026V32.651H13.8967V34.0868Z" fill="#5E17EB"/>
<path d="M22.9841 15.8056H12.4268C12.3348 15.8056 12.2514 15.7413 12.2323 15.6493C12.2098 15.559 12.2549 15.4653 12.3383 15.4253L13.8608 14.6632C13.8886 14.6493 13.9181 14.6406 13.9511 14.6406H22.9876C23.0987 14.6406 23.1889 14.7326 23.1889 14.842C23.1889 14.9531 23.0987 15.0434 22.9876 15.0434H13.9997L13.2827 15.4028H22.9876C23.0987 15.4028 23.1889 15.4931 23.1889 15.6042C23.1889 15.7135 23.0987 15.8056 22.9876 15.8056H22.9841Z" fill="#5E17EB"/>
<path d="M22.98 13.0607H16.8967C16.7856 13.0607 16.6953 12.9705 16.6953 12.8593C16.6953 12.75 16.7856 12.658 16.8967 12.658H22.98C23.0894 12.658 23.1814 12.75 23.1814 12.8593C23.1814 12.9705 23.0894 13.0607 22.98 13.0607Z" fill="#5E17EB"/>
<path d="M16.7595 14.9114H14.2092C14.0981 14.9114 14.0078 14.8211 14.0078 14.71V11.1527C14.0078 11.0416 14.0981 10.9514 14.2092 10.9514H16.7595C16.8707 10.9514 16.9609 11.0416 16.9609 11.1527V14.5885C16.9609 14.6093 16.9575 14.6302 16.9523 14.6493C16.9592 14.6684 16.9609 14.6875 16.9609 14.71C16.9609 14.8211 16.8707 14.9114 16.7595 14.9114ZM14.4106 14.5086H16.5582V11.3541H14.4106V14.5086Z" fill="#5E17EB"/>
<path d="M16.237 14.026H14.7405C14.6293 14.026 14.5391 13.9358 14.5391 13.8246V12.7882C14.5391 12.2639 14.9644 11.8368 15.4887 11.8368C16.0113 11.8368 16.4384 12.2639 16.4384 12.7882V13.8246C16.4384 13.9358 16.3481 14.026 16.237 14.026ZM14.9436 13.6233H16.0373V12.7882C16.0373 12.4861 15.7925 12.2396 15.4905 12.2396C15.1884 12.2396 14.9436 12.4861 14.9436 12.7882V13.6233Z" fill="#5E17EB"/>
<path d="M17.7003 11.3542H13.1239C13.0388 11.3542 12.9624 11.3021 12.9347 11.2222C12.9052 11.1406 12.9277 11.0521 12.992 10.9983L14.0822 10.0799C14.117 10.0503 14.1638 10.0312 14.2107 10.0312H16.7611C16.8131 10.0312 16.8635 10.0521 16.9017 10.0885L17.8409 11.0052C17.8999 11.0625 17.9173 11.151 17.8878 11.2257C17.8583 11.3021 17.7836 11.3507 17.7003 11.3507V11.3542ZM13.6742 10.9514H17.2072L16.6795 10.4358H14.2871L13.676 10.9514H13.6742Z" fill="#5E17EB"/>
<path d="M16.7031 10.3594H14.3108C14.1997 10.3594 14.1094 10.2691 14.1094 10.158V9.16495C14.1094 9.05384 14.1997 8.96356 14.3108 8.96356H16.7031C16.8142 8.96356 16.9045 9.05384 16.9045 9.16495V10.158C16.9045 10.2691 16.8142 10.3594 16.7031 10.3594ZM14.5122 9.95662H16.5035V9.3646H14.5122V9.95662Z" fill="#5E17EB"/>
<path d="M16.6806 9.36286H14.3108C14.1997 9.36286 14.1094 9.27258 14.1094 9.16147V9.04862C14.1094 8.28474 14.7309 7.66321 15.4965 7.66321C16.2604 7.66321 16.8837 8.28474 16.8837 9.04862V9.16147C16.8837 9.27258 16.7934 9.36286 16.6823 9.36286H16.6806ZM14.5156 8.96008H16.474C16.4306 8.46008 16.0069 8.06772 15.4948 8.06772C14.9809 8.06772 14.5608 8.46182 14.5139 8.96008H14.5156Z" fill="#5E17EB"/>
<path d="M15.4983 8.06771C15.3872 8.06771 15.2969 7.97569 15.2969 7.86632V6.67014C15.2969 6.55903 15.3872 6.46875 15.4983 6.46875C15.6094 6.46875 15.6997 6.55903 15.6997 6.67014V7.86632C15.6997 7.97569 15.6094 8.06771 15.4983 8.06771Z" fill="#5E17EB"/>
<path d="M26.8967 10.6684H23.4905C23.3793 10.6684 23.2891 10.5764 23.2891 10.467V5.95139C23.2891 5.84028 23.3793 5.75 23.4905 5.75H26.8967C27.0078 5.75 27.0981 5.84028 27.0981 5.95139V10.316C27.0981 10.342 27.0911 10.3681 27.0842 10.3924C27.0946 10.4167 27.0981 10.441 27.0981 10.4688C27.0981 10.5799 27.0078 10.6701 26.8967 10.6701V10.6684ZM23.6901 10.2656H26.6936V6.15278H23.6901V10.2656Z" fill="#5E17EB"/>
<path d="M26.1675 9.74649H24.2179C24.0929 9.74649 23.9922 9.6458 23.9922 9.5208V8.27774C23.9922 7.61629 24.5321 7.07635 25.1936 7.07635C25.855 7.07635 26.395 7.61629 26.395 8.27774V9.5208C26.395 9.6458 26.2943 9.74649 26.1693 9.74649H26.1675ZM24.395 9.34372H25.9905V8.27601C25.9905 7.83504 25.6328 7.4774 25.1918 7.4774C24.7509 7.4774 24.3932 7.83504 24.3932 8.27601V9.34372H24.395Z" fill="#5E17EB"/>
<path d="M28.1508 6.15276H22.0362C21.9511 6.15276 21.8747 6.09894 21.8469 6.01735C21.8192 5.93749 21.8452 5.84721 21.9112 5.79513L23.3643 4.63019C23.4008 4.60242 23.4442 4.58679 23.4893 4.58679H26.8956C26.9459 4.58679 26.9962 4.60589 27.0327 4.64061L28.2862 5.80381C28.3469 5.8611 28.366 5.94964 28.3365 6.02603C28.307 6.10242 28.2324 6.15276 28.149 6.15276H28.1508ZM22.6091 5.74999H27.6386L26.8174 4.98957H23.5605L22.6074 5.74999H22.6091Z" fill="#5E17EB"/>
<path d="M26.8194 4.8889H23.6233C23.5122 4.8889 23.4219 4.79862 23.4219 4.68751V3.42362C23.4219 3.31251 23.5122 3.22223 23.6233 3.22223H26.8194C26.9306 3.22223 27.0208 3.31251 27.0208 3.42362V4.68751C27.0208 4.79862 26.9306 4.8889 26.8194 4.8889ZM23.8247 4.48612H26.6181V3.62501H23.8247V4.48612Z" fill="#5E17EB"/>
<path d="M26.7882 3.62502H23.6233C23.5122 3.62502 23.4219 3.53301 23.4219 3.42363V3.31773C23.4219 2.35592 24.2049 1.57294 25.1667 1.57294H25.2448C26.2066 1.57294 26.9896 2.35592 26.9896 3.31773V3.42363C26.9896 3.53301 26.8993 3.62502 26.7882 3.62502ZM23.8281 3.22224H26.5833C26.533 2.5278 25.9514 1.97745 25.2448 1.97745H25.1667C24.4601 1.97745 23.8785 2.5278 23.8281 3.22224Z" fill="#5E17EB"/>
<mask id="mask0_3950_277" style="mask-type:luminance" maskUnits="userSpaceOnUse" x="24" y="0" width="2" height="3">
<path d="M24.7109 0H25.5998V2.14236H24.7109V0Z" fill="white"/>
</mask>
<g mask="url(#mask0_3950_277)">
<path d="M25.2092 1.97742C25.0981 1.97742 25.0078 1.88714 25.0078 1.77603V0.256931C25.0078 0.14582 25.0981 0.055542 25.2092 0.055542C25.3203 0.055542 25.4106 0.14582 25.4106 0.256931V1.77603C25.4106 1.88714 25.3203 1.97742 25.2092 1.97742Z" fill="#5E17EB"/>
</g>
<path d="M22.9852 16.8368H17.2092C17.0981 16.8368 17.0078 16.7465 17.0078 16.6371C17.0078 16.526 17.0981 16.4357 17.2092 16.4357H22.9852C23.0946 16.4357 23.1866 16.526 23.1866 16.6371C23.1866 16.7465 23.0946 16.8368 22.9852 16.8368Z" fill="#5E17EB"/>
<path d="M17.0373 32.651C16.9262 32.651 16.8359 32.5608 16.8359 32.4497V16.2639C16.8359 16.1528 16.9262 16.0625 17.0373 16.0625C17.1484 16.0625 17.2387 16.1528 17.2387 16.2639V32.4497C17.2387 32.5608 17.1484 32.651 17.0373 32.651Z" fill="#5E17EB"/>
<path d="M16.2326 32.651C16.1215 32.651 16.0312 32.5608 16.0312 32.4497V16.2639C16.0312 16.1528 16.1215 16.0625 16.2326 16.0625C16.3437 16.0625 16.434 16.1528 16.434 16.2639V32.4497C16.434 32.5608 16.3437 32.651 16.2326 32.651Z" fill="#5E17EB"/>
<path d="M14.8576 32.651C14.7465 32.651 14.6562 32.5608 14.6562 32.4497V16.2639C14.6562 16.1528 14.7465 16.0625 14.8576 16.0625C14.9687 16.0625 15.059 16.1528 15.059 16.2639V32.4497C15.059 32.5608 14.9687 32.651 14.8576 32.651Z" fill="#5E17EB"/>
<path d="M14.0295 32.651C13.9184 32.651 13.8281 32.5608 13.8281 32.4497V16.2639C13.8281 16.1528 13.9184 16.0625 14.0295 16.0625C14.1406 16.0625 14.2309 16.1528 14.2309 16.2639V32.4497C14.2309 32.5608 14.1406 32.651 14.0295 32.651Z" fill="#5E17EB"/>
<mask id="mask1_3950_277" style="mask-type:luminance" maskUnits="userSpaceOnUse" x="0" y="33" width="29" height="2">
<path d="M0 33.6979H28.7135V34.5868H0V33.6979Z" fill="white"/>
</mask>
<g mask="url(#mask1_3950_277)">
<path d="M28.125 34.4896H0.201389C0.0902778 34.4896 0 34.3994 0 34.2882C0 34.1771 0.0902778 34.0869 0.201389 34.0869H28.125C28.2361 34.0869 28.3264 34.1771 28.3264 34.2882C28.3264 34.3994 28.2361 34.4896 28.125 34.4896Z" fill="#5E17EB"/>
</g>
<path d="M13.822 26.8889H1.3967C1.28559 26.8889 1.19531 26.7986 1.19531 26.6875C1.19531 26.5764 1.28559 26.4861 1.3967 26.4861H13.8203C13.9314 26.4861 14.0217 26.5764 14.0217 26.6875C14.0217 26.7986 13.9314 26.8889 13.8203 26.8889H13.822Z" fill="#5E17EB"/>
<path d="M13.822 27.6945H1.3967C1.28559 27.6945 1.19531 27.6025 1.19531 27.4931C1.19531 27.382 1.28559 27.2917 1.3967 27.2917H13.8203C13.9314 27.2917 14.0217 27.382 14.0217 27.4931C14.0217 27.6025 13.9314 27.6945 13.8203 27.6945H13.822Z" fill="#5E17EB"/>
<path d="M13.822 28.4982H1.3967C1.28559 28.4982 1.19531 28.408 1.19531 28.2968C1.19531 28.1875 1.28559 28.0955 1.3967 28.0955H13.8203C13.9314 28.0955 14.0217 28.1875 14.0217 28.2968C14.0217 28.408 13.9314 28.4982 13.8203 28.4982H13.822Z" fill="#5E17EB"/>
<path d="M2.37326 26.8889C2.26215 26.8889 2.17188 26.7986 2.17188 26.6875V25.8681C2.17188 25.757 2.26215 25.6667 2.37326 25.6667C2.48437 25.6667 2.57465 25.757 2.57465 25.8681V26.6875C2.57465 26.7986 2.48437 26.8889 2.37326 26.8889Z" fill="#5E17EB"/>
<path d="M3.84983 26.8889C3.73872 26.8889 3.64844 26.7986 3.64844 26.6875V25.8681C3.64844 25.757 3.73872 25.6667 3.84983 25.6667C3.96094 25.6667 4.05122 25.757 4.05122 25.8681V26.6875C4.05122 26.7986 3.96094 26.8889 3.84983 26.8889Z" fill="#5E17EB"/>
<path d="M5.32639 26.8889C5.21528 26.8889 5.125 26.7986 5.125 26.6875V25.8681C5.125 25.757 5.21528 25.6667 5.32639 25.6667C5.4375 25.6667 5.52778 25.757 5.52778 25.8681V26.6875C5.52778 26.7986 5.4375 26.8889 5.32639 26.8889Z" fill="#5E17EB"/>
<path d="M6.80295 26.8889C6.69184 26.8889 6.60156 26.7986 6.60156 26.6875V25.8681C6.60156 25.757 6.69184 25.6667 6.80295 25.6667C6.91406 25.6667 7.00434 25.757 7.00434 25.8681V26.6875C7.00434 26.7986 6.91406 26.8889 6.80295 26.8889Z" fill="#5E17EB"/>
<path d="M8.27951 26.8889C8.1684 26.8889 8.07812 26.7986 8.07812 26.6875V25.8681C8.07812 25.757 8.1684 25.6667 8.27951 25.6667C8.39062 25.6667 8.4809 25.757 8.4809 25.8681V26.6875C8.4809 26.7986 8.39062 26.8889 8.27951 26.8889Z" fill="#5E17EB"/>
<path d="M9.75608 26.8889C9.64497 26.8889 9.55469 26.7986 9.55469 26.6875V25.8681C9.55469 25.757 9.64497 25.6667 9.75608 25.6667C9.86719 25.6667 9.95747 25.757 9.95747 25.8681V26.6875C9.95747 26.7986 9.86719 26.8889 9.75608 26.8889Z" fill="#5E17EB"/>
<path d="M11.2326 26.8889C11.1215 26.8889 11.0312 26.7986 11.0312 26.6875V25.8681C11.0312 25.757 11.1215 25.6667 11.2326 25.6667C11.3437 25.6667 11.434 25.757 11.434 25.8681V26.6875C11.434 26.7986 11.3437 26.8889 11.2326 26.8889Z" fill="#5E17EB"/>
<path d="M12.7092 26.8889C12.5981 26.8889 12.5078 26.7986 12.5078 26.6875V25.8681C12.5078 25.757 12.5981 25.6667 12.7092 25.6667C12.8203 25.6667 12.9106 25.757 12.9106 25.8681V26.6875C12.9106 26.7986 12.8203 26.8889 12.7092 26.8889Z" fill="#5E17EB"/>
<path d="M27.7561 8.32116C27.645 8.32116 27.5547 8.23088 27.5547 8.11977V7.30033C27.5547 7.18922 27.645 7.09894 27.7561 7.09894C27.8655 7.09894 27.9575 7.18922 27.9575 7.30033V8.11977C27.9575 8.23088 27.8655 8.32116 27.7561 8.32116Z" fill="#5E17EB"/>
<path d="M29.0686 8.32116C28.9575 8.32116 28.8672 8.23088 28.8672 8.11977V7.30033C28.8672 7.18922 28.9575 7.09894 29.0686 7.09894C29.1797 7.09894 29.27 7.18922 29.27 7.30033V8.11977C29.27 8.23088 29.1797 8.32116 29.0686 8.32116Z" fill="#5E17EB"/>
<path d="M30.3811 8.32116C30.27 8.32116 30.1797 8.23088 30.1797 8.11977V7.30033C30.1797 7.18922 30.27 7.09894 30.3811 7.09894C30.4922 7.09894 30.5825 7.18922 30.5825 7.30033V8.11977C30.5825 8.23088 30.4922 8.32116 30.3811 8.32116Z" fill="#5E17EB"/>
<path d="M31.7014 8.32116C31.592 8.32116 31.5 8.23088 31.5 8.11977V7.30033C31.5 7.18922 31.592 7.09894 31.7014 7.09894C31.8125 7.09894 31.9028 7.18922 31.9028 7.30033V8.11977C31.9028 8.23088 31.8125 8.32116 31.7014 8.32116Z" fill="#5E17EB"/>
<path d="M33.0139 8.32116C32.9028 8.32116 32.8125 8.23088 32.8125 8.11977V7.30033C32.8125 7.18922 32.9028 7.09894 33.0139 7.09894C33.1233 7.09894 33.2153 7.18922 33.2153 7.30033V8.11977C33.2153 8.23088 33.1233 8.32116 33.0139 8.32116Z" fill="#5E17EB"/>
<path d="M37.3655 8.32116C37.2543 8.32116 37.1641 8.23088 37.1641 8.11977V7.30033C37.1641 7.18922 37.2543 7.09894 37.3655 7.09894C37.4766 7.09894 37.5668 7.18922 37.5668 7.30033V8.11977C37.5668 8.23088 37.4766 8.32116 37.3655 8.32116Z" fill="#5E17EB"/>
<path d="M38.7326 8.32116C38.6233 8.32116 38.5312 8.23088 38.5312 8.11977V7.30033C38.5312 7.18922 38.6233 7.09894 38.7326 7.09894C38.8437 7.09894 38.934 7.18922 38.934 7.30033V8.11977C38.934 8.23088 38.8437 8.32116 38.7326 8.32116Z" fill="#5E17EB"/>
<path d="M40.092 8.32116C39.9826 8.32116 39.8906 8.23088 39.8906 8.11977V7.30033C39.8906 7.18922 39.9826 7.09894 40.092 7.09894C40.2031 7.09894 40.2934 7.18922 40.2934 7.30033V8.11977C40.2934 8.23088 40.2031 8.32116 40.092 8.32116Z" fill="#5E17EB"/>
<path d="M41.4575 8.32116C41.3481 8.32116 41.2578 8.23088 41.2578 8.11977V7.30033C41.2578 7.18922 41.3481 7.09894 41.4575 7.09894C41.5686 7.09894 41.6589 7.18922 41.6589 7.30033V8.11977C41.6589 8.23088 41.5686 8.32116 41.4575 8.32116Z" fill="#5E17EB"/>
<path d="M42.8264 8.32116C42.7153 8.32116 42.625 8.23088 42.625 8.11977V7.30033C42.625 7.18922 42.7153 7.09894 42.8264 7.09894C42.9358 7.09894 43.0278 7.18922 43.0278 7.30033V8.11977C43.0278 8.23088 42.9358 8.32116 42.8264 8.32116Z" fill="#5E17EB"/>
<path d="M22.691 24.5573H17.8924C17.6927 24.5573 17.5312 24.3958 17.5312 24.1979V19.9878C17.5312 18.4653 18.7691 17.2274 20.2917 17.2274C21.8125 17.2274 23.0503 18.4653 23.0503 19.9878V24.1979C23.0503 24.3958 22.8906 24.5573 22.691 24.5573ZM17.9323 24.1545H22.6476V19.9878C22.6476 18.6875 21.592 17.6302 20.2917 17.6302C18.9913 17.6302 17.934 18.6875 17.934 19.9878V24.1545H17.9323Z" fill="#5E17EB"/>
<path d="M22.1267 34.4635H18.2361C18.0538 34.4635 17.9062 34.3142 17.9062 34.1337V28.7621C17.9062 27.5087 18.9253 26.4861 20.1823 26.4861C21.4375 26.4861 22.4583 27.5069 22.4583 28.7621V34.1337C22.4583 34.3142 22.309 34.4635 22.1285 34.4635H22.1267ZM18.3073 34.0607H22.0538V28.7621C22.0538 27.7291 21.2153 26.8889 20.1806 26.8889C19.1458 26.8889 18.3056 27.7274 18.3056 28.7621V34.0607H18.3073Z" fill="#5E17EB"/>
<path d="M4.69184 34.4635H1.34635C1.1849 34.4635 1.05469 34.3333 1.05469 34.1719V30.8819C1.05469 29.8038 1.93142 28.9271 3.00955 28.9271C4.08594 28.9271 4.98177 29.8055 4.98177 30.8819V34.1719C4.98177 34.3333 4.84983 34.4635 4.6901 34.4635H4.69184ZM1.45747 34.0607H4.58073V30.8819C4.58073 30.026 3.88455 29.3298 3.02865 29.3298C2.17274 29.3298 1.4592 30.026 1.4592 30.8819V34.0607H1.45747Z" fill="#5E17EB"/>
<path d="M8.88715 34.4896H5.54167C5.38021 34.4896 5.25 34.3594 5.25 34.1979V30.8663C5.25 29.783 6.13021 28.9011 7.21354 28.9011C8.29688 28.9011 9.17882 29.783 9.17882 30.8663V34.1979C9.17882 34.3594 9.04688 34.4896 8.88715 34.4896ZM5.65104 34.0868H8.77604V30.8663C8.77604 30.0052 8.07465 29.3038 7.21354 29.3038C6.35243 29.3038 5.65104 30.0052 5.65104 30.8663V34.0868Z" fill="#5E17EB"/>
<path d="M13.0668 34.4636H9.72135C9.5599 34.4636 9.42969 34.3334 9.42969 34.1719V30.8629C9.42969 29.7813 10.3082 28.9011 11.3898 28.9011C12.4714 28.9011 13.3585 29.7813 13.3585 30.8629V34.1719C13.3585 34.3334 13.2283 34.4636 13.0668 34.4636ZM9.83247 34.0608H12.9557V30.8629C12.9557 30.0018 12.2578 29.3038 11.3984 29.3038C10.5391 29.3038 9.83247 30.0018 9.83247 30.8629V34.0608Z" fill="#5E17EB"/>
<path d="M23.5443 25.5677H17.0373C16.9262 25.5677 16.8359 25.4774 16.8359 25.3663C16.8359 25.2552 16.9262 25.1649 17.0373 25.1649H23.5443C23.6554 25.1649 23.7457 25.2552 23.7457 25.3663C23.7457 25.4774 23.6554 25.5677 23.5443 25.5677Z" fill="#5E17EB"/>
<path d="M42.546 34.4896H27.8655C27.7561 34.4896 27.6641 34.3993 27.6641 34.2882V22.0868C27.6641 22.0243 27.6936 21.967 27.7405 21.9288C28.237 21.5417 28.2005 21.184 27.9974 20.7674C27.7995 20.3646 27.9835 19.9583 28.0998 19.7639C27.9661 19.5035 27.9401 19.2465 28.0234 19.0052C28.1432 18.6545 28.4696 18.434 28.678 18.3229C28.5738 17.9774 28.6016 17.6805 28.7561 17.441C28.9575 17.1319 29.3238 17.0121 29.553 16.9687C29.553 16.6701 29.6432 16.4305 29.8255 16.2535C30.0981 15.9861 30.5095 15.9427 30.7509 15.9462C30.8307 15.5538 31.0078 15.2865 31.2786 15.1493C31.6102 14.9809 31.9922 15.066 32.2318 15.1545C32.3464 14.8003 32.5356 14.5764 32.7977 14.4913C33.1589 14.368 33.5373 14.5521 33.7543 14.6944C34.0564 14.3194 34.447 14.2708 34.7266 14.2708C34.9175 14.2708 35.0078 13.9496 35.0078 13.9444C35.0304 13.8559 35.1102 13.7934 35.204 13.7934C35.296 13.7934 35.3741 13.8559 35.3984 13.9444C35.3984 13.9514 35.4887 14.2708 35.6797 14.2708C35.9627 14.2708 36.3516 14.3194 36.6519 14.6944C36.8707 14.5503 37.2491 14.368 37.6085 14.4913C37.8689 14.5799 38.0582 14.8021 38.1727 15.1545C38.4123 15.066 38.7943 14.9809 39.1259 15.1493C39.3967 15.2865 39.5738 15.5538 39.6536 15.9462C39.8984 15.9444 40.3064 15.9844 40.5807 16.2535C40.7613 16.4305 40.8516 16.6701 40.8516 16.9687C41.0807 17.0121 41.447 17.1319 41.6484 17.441C41.8047 17.6805 41.8307 17.9757 41.7283 18.3229C41.9349 18.4323 42.2613 18.6528 42.3811 19.0052C42.4644 19.2465 42.4401 19.5 42.3047 19.7639C42.4227 19.9583 42.605 20.3646 42.4071 20.7674C42.2023 21.1858 42.1675 21.5417 42.6641 21.9288C42.7127 21.967 42.7405 22.0243 42.7405 22.0868V34.2882C42.7405 34.3993 42.6502 34.4896 42.5391 34.4896H42.546ZM28.0686 34.0868H42.3481V22.1823C41.5946 21.5312 41.9384 20.8281 42.0564 20.5903C42.2092 20.276 41.9245 19.901 41.921 19.8976C41.8689 19.8316 41.862 19.7378 41.9089 19.6667C42.0321 19.4687 42.0651 19.2951 42.0113 19.1371C41.8967 18.8021 41.4227 18.6215 41.4193 18.6198C41.3689 18.6007 41.3273 18.5625 41.3047 18.5121C41.2821 18.4618 41.2804 18.4062 41.3012 18.3559C41.4193 18.0573 41.4279 17.8246 41.3203 17.6615C41.1363 17.3733 40.645 17.3455 40.6398 17.3455C40.5842 17.3437 40.5321 17.316 40.4957 17.2743C40.4592 17.2326 40.4436 17.1753 40.4488 17.1198C40.4818 16.8594 40.4332 16.6667 40.3082 16.5417C40.0512 16.2899 39.5269 16.3594 39.5234 16.3594C39.4696 16.3663 39.4141 16.3524 39.3724 16.3177C39.3307 16.2865 39.3012 16.2361 39.296 16.1805C39.2543 15.8299 39.1415 15.6024 38.9575 15.5087C38.6866 15.3698 38.2821 15.5347 38.1484 15.6094C38.0929 15.6424 38.0234 15.6441 37.9644 15.618C37.9071 15.592 37.8637 15.5399 37.8498 15.4757C37.803 15.2396 37.6988 14.941 37.4887 14.8715C37.23 14.783 36.862 15.0295 36.7439 15.1319C36.697 15.1701 36.6363 15.1892 36.579 15.1788C36.52 15.1684 36.4679 15.1319 36.4366 15.0799C36.2439 14.7448 35.9991 14.6753 35.6884 14.6753C35.4783 14.6753 35.322 14.5712 35.2109 14.4358C35.1016 14.5712 34.9436 14.6753 34.7335 14.6753C34.4245 14.6753 34.1762 14.7448 33.9852 15.0799C33.9557 15.1319 33.9054 15.1684 33.8446 15.1788C33.7839 15.1892 33.7231 15.1736 33.6797 15.1319C33.5616 15.0295 33.1936 14.7847 32.9349 14.8715C32.7248 14.9427 32.6224 15.2396 32.572 15.4757C32.5599 15.5365 32.5165 15.592 32.4575 15.618C32.3984 15.6441 32.3307 15.6424 32.2752 15.6094C32.1415 15.5347 31.7352 15.3715 31.4644 15.5087C31.2821 15.6024 31.1693 15.8299 31.1276 16.1805C31.1207 16.2361 31.0929 16.2847 31.0512 16.3177C31.0078 16.3507 30.9523 16.3646 30.9002 16.3594C30.7543 16.3385 30.3273 16.3299 30.112 16.5434C29.987 16.6667 29.9401 16.8594 29.9714 17.1198C29.9783 17.1753 29.9609 17.2326 29.9245 17.2743C29.8898 17.316 29.8359 17.3437 29.7804 17.3455C29.6432 17.3507 29.2526 17.4219 29.0981 17.6632C28.9939 17.8264 29.0009 18.059 29.1207 18.3559C29.1398 18.4062 29.138 18.4618 29.1155 18.5121C29.0946 18.5625 29.0512 18.6007 29.0009 18.6198C28.8689 18.6667 28.5043 18.8559 28.4071 19.1389C28.3533 19.2951 28.388 19.4687 28.5095 19.6667C28.5547 19.7378 28.5512 19.8316 28.4974 19.8976C28.4957 19.8993 28.2109 20.276 28.3637 20.5903C28.48 20.8281 28.8238 21.5312 28.072 22.1823V34.0868H28.0686Z" fill="#5E17EB"/>
<path d="M41.27 15.8055C40.5998 15.8055 40.0547 15.2586 40.0547 14.5885C40.0547 13.9184 40.5998 13.3732 41.27 13.3732C41.9418 13.3732 42.487 13.9184 42.487 14.5885C42.487 15.2586 41.9418 15.8055 41.27 15.8055ZM41.27 13.7777C40.822 13.7777 40.4575 14.1423 40.4575 14.5902C40.4575 15.0399 40.822 15.4045 41.27 15.4045C41.7196 15.4045 42.0842 15.0399 42.0842 14.5902C42.0842 14.1423 41.7196 13.7777 41.27 13.7777Z" fill="#5E17EB"/>
<path d="M43.1154 13.0607H27.2873C27.1762 13.0607 27.0859 12.9705 27.0859 12.8593C27.0859 12.75 27.1762 12.658 27.2873 12.658H43.1154C43.2266 12.658 43.3168 12.75 43.3168 12.8593C43.3168 12.9705 43.2266 13.0607 43.1154 13.0607Z" fill="#5E17EB"/>
<path d="M43.3247 32.4166C43.2153 32.4166 43.125 32.3264 43.125 32.2153V12.1753C43.125 12.0642 43.2153 11.9739 43.3247 11.9739C43.4358 11.9739 43.526 12.0642 43.526 12.1753V32.217C43.526 32.3281 43.4358 32.4184 43.3247 32.4184V32.4166Z" fill="#5E17EB"/>
<path d="M44.3576 32.4166C44.2465 32.4166 44.1562 32.3264 44.1562 32.2153V12.1753C44.1562 12.0642 44.2465 11.9739 44.3576 11.9739C44.4687 11.9739 44.559 12.0642 44.559 12.1753V32.217C44.559 32.3281 44.4687 32.4184 44.3576 32.4184V32.4166Z" fill="#5E17EB"/>
<path d="M45.9201 32.4166C45.809 32.4166 45.7188 32.3264 45.7188 32.2153V12.1753C45.7188 12.0642 45.809 11.9739 45.9201 11.9739C46.0312 11.9739 46.1215 12.0642 46.1215 12.1753V32.217C46.1215 32.3281 46.0312 32.4184 45.9201 32.4184V32.4166Z" fill="#5E17EB"/>
<path d="M46.8655 32.4166C46.7543 32.4166 46.6641 32.3264 46.6641 32.2153V12.1753C46.6641 12.0642 46.7543 11.9739 46.8655 11.9739C46.9748 11.9739 47.0651 12.0642 47.0651 12.1753V32.217C47.0651 32.3281 46.9748 32.4184 46.8655 32.4184V32.4166Z" fill="#5E17EB"/>
<path d="M47.2509 34.4896H42.928C42.8168 34.4896 42.7266 34.3993 42.7266 34.2882V32.2153C42.7266 32.1042 42.8168 32.0139 42.928 32.0139H47.2509C47.362 32.0139 47.4523 32.1042 47.4523 32.2153V34.2882C47.4523 34.3993 47.362 34.4896 47.2509 34.4896ZM43.1293 34.0868H47.0495V32.4167H43.1293V34.0868Z" fill="#5E17EB"/>
<path d="M56.7101 34.4895H53.2014C53.0903 34.4895 53 34.3993 53 34.2882V32.4496C53 32.3402 53.0903 32.2482 53.2014 32.2482H56.7101C56.8194 32.2482 56.9115 32.3402 56.9115 32.4496V34.2882C56.9115 34.3993 56.8194 34.4895 56.7101 34.4895ZM53.4045 34.0868H56.5104V32.651H53.4045V34.0868Z" fill="#5E17EB"/>
<path d="M49.0387 11.8229H21.372C21.2818 11.8229 21.2036 11.7621 21.1793 11.6771C21.155 11.5903 21.1915 11.4965 21.2696 11.4514L23.1932 10.2882C23.2262 10.2691 23.2609 10.2587 23.2991 10.2587H47.1186C47.155 10.2587 47.1915 10.2691 47.2227 10.2882L49.1481 11.4514C49.2245 11.4965 49.2627 11.5903 49.2384 11.6771C49.214 11.7621 49.1359 11.8229 49.0439 11.8229H49.0387ZM22.0925 11.4201H48.3165L47.0578 10.6597H23.3495L22.0908 11.4201H22.0925Z" fill="#5E17EB"/>
<path d="M57.9835 15.8056H47.428C47.3168 15.8056 47.2266 15.7135 47.2266 15.6042C47.2266 15.4931 47.3168 15.4028 47.428 15.4028H57.1311L56.4158 15.0434H47.428C47.3168 15.0434 47.2266 14.9531 47.2266 14.842C47.2266 14.7326 47.3168 14.6406 47.428 14.6406H56.4627C56.4957 14.6406 56.5252 14.6493 56.5547 14.6632L58.0755 15.4253C58.1606 15.467 58.2023 15.559 58.1832 15.6493C58.1606 15.7413 58.079 15.8056 57.987 15.8056H57.9835Z" fill="#5E17EB"/>
<path d="M53.5113 13.0607H47.428C47.3186 13.0607 47.2266 12.9705 47.2266 12.8593C47.2266 12.75 47.3186 12.658 47.428 12.658H53.5113C53.6224 12.658 53.7127 12.75 53.7127 12.8593C53.7127 12.9705 53.6224 13.0607 53.5113 13.0607Z" fill="#5E17EB"/>
<path d="M56.197 14.9114H53.6467C53.5356 14.9114 53.4453 14.8211 53.4453 14.71C53.4453 14.6892 53.4488 14.6701 53.454 14.6493C53.447 14.6319 53.4453 14.6111 53.4453 14.5885V11.1527C53.4453 11.0416 53.5356 10.9514 53.6467 10.9514H56.197C56.3082 10.9514 56.3984 11.0416 56.3984 11.1527V14.71C56.3984 14.8211 56.3082 14.9114 56.197 14.9114ZM53.8481 14.5086H55.9957V11.3541H53.8481V14.5086Z" fill="#5E17EB"/>
<path d="M55.6667 14.026H54.1701C54.059 14.026 53.9688 13.9358 53.9688 13.8246V12.7882C53.9688 12.2639 54.3941 11.8368 54.9184 11.8368C55.441 11.8368 55.8681 12.2639 55.8681 12.7882V13.8246C55.8681 13.9358 55.7778 14.026 55.6667 14.026ZM54.3733 13.6233H55.467V12.7882C55.467 12.4861 55.2222 12.2396 54.9201 12.2396C54.6181 12.2396 54.3733 12.4861 54.3733 12.7882V13.6233Z" fill="#5E17EB"/>
<path d="M57.2788 11.3541H52.7024C52.6191 11.3541 52.5462 11.3038 52.5149 11.2291C52.4837 11.1528 52.5028 11.066 52.5601 11.0104L53.501 10.092C53.5392 10.0555 53.5896 10.0364 53.6417 10.0364H56.192C56.2406 10.0364 56.284 10.0521 56.3205 10.0833L57.4108 11.0017C57.475 11.0555 57.4993 11.1441 57.4681 11.2257C57.4403 11.3038 57.3639 11.3576 57.2788 11.3576V11.3541ZM53.1972 10.9514H56.7302L56.1191 10.4357H53.7267L53.199 10.9514H53.1972Z" fill="#5E17EB"/>
<path d="M56.0938 10.3594H53.6997C53.5903 10.3594 53.5 10.2691 53.5 10.158V9.16495C53.5 9.05384 53.5903 8.96356 53.6997 8.96356H56.0938C56.2049 8.96356 56.2951 9.05384 56.2951 9.16495V10.158C56.2951 10.2691 56.2049 10.3594 56.0938 10.3594ZM53.901 9.95662H55.8924V9.3646H53.901V9.95662Z" fill="#5E17EB"/>
<path d="M56.0946 9.36286H53.7248C53.6155 9.36286 53.5234 9.27258 53.5234 9.16147V9.04862C53.5234 8.28474 54.1467 7.66321 54.9106 7.66321C55.6762 7.66321 56.2977 8.28474 56.2977 9.04862V9.16147C56.2977 9.27258 56.2075 9.36286 56.0964 9.36286H56.0946ZM53.928 8.96008H55.888C55.8429 8.46008 55.421 8.06772 54.9071 8.06772C54.3932 8.06772 53.9731 8.46182 53.9262 8.96008H53.928Z" fill="#5E17EB"/>
<path d="M54.9123 8.06771C54.8012 8.06771 54.7109 7.97569 54.7109 7.86632V6.67014C54.7109 6.55903 54.8012 6.46875 54.9123 6.46875C55.0234 6.46875 55.1137 6.55903 55.1137 6.67014V7.86632C55.1137 7.97569 55.0234 8.06771 54.9123 8.06771Z" fill="#5E17EB"/>
<path d="M46.9123 10.6684H43.5061C43.395 10.6684 43.3047 10.5764 43.3047 10.467C43.3047 10.4409 43.3116 10.4149 43.3186 10.3906C43.3082 10.3663 43.3047 10.342 43.3047 10.3142V5.94962C43.3047 5.83851 43.395 5.74823 43.5061 5.74823H46.9123C47.0234 5.74823 47.1137 5.83851 47.1137 5.94962V10.4652C47.1137 10.5746 47.0234 10.6666 46.9123 10.6666V10.6684ZM43.7075 10.2656H46.7109V6.15274H43.7075V10.2656Z" fill="#5E17EB"/>
<path d="M46.191 9.74649H44.2413C44.1163 9.74649 44.0156 9.6458 44.0156 9.5208V8.27774C44.0156 7.61629 44.5556 7.07635 45.217 7.07635C45.8802 7.07635 46.4184 7.61629 46.4184 8.27774V9.5208C46.4184 9.6458 46.3177 9.74649 46.1927 9.74649H46.191ZM44.4184 9.34372H46.0139V8.27601C46.0139 7.83504 45.6563 7.4774 45.2153 7.4774C44.7743 7.4774 44.4167 7.83504 44.4167 8.27601V9.34372H44.4184Z" fill="#5E17EB"/>
<path d="M28.4384 9.8611H27.4609C27.3845 9.8611 27.3203 9.7986 27.3203 9.72048V9.1111C27.3203 8.7986 27.5755 8.5434 27.888 8.5434H28.0095C28.3238 8.5434 28.5773 8.80034 28.5773 9.1111V9.72048C28.5773 9.79687 28.5148 9.8611 28.4349 9.8611H28.4384ZM27.5217 9.65972H28.3759V9.1111C28.3759 8.90971 28.2109 8.74478 28.0095 8.74478H27.888C27.6866 8.74478 27.5217 8.90971 27.5217 9.1111V9.65972Z" fill="#5E17EB"/>
<path d="M30.0616 9.8611H29.0859C29.0095 9.8611 28.9453 9.7986 28.9453 9.72048V9.1111C28.9453 8.7986 29.2005 8.5434 29.513 8.5434H29.6328C29.947 8.5434 30.2005 8.80034 30.2005 9.1111V9.72048C30.2005 9.79687 30.138 9.8611 30.0599 9.8611H30.0616ZM29.1484 9.65972H30.0026V9.1111C30.0026 8.90971 29.8359 8.74478 29.6363 8.74478H29.5148C29.3134 8.74478 29.1484 8.90971 29.1484 9.1111V9.65972Z" fill="#5E17EB"/>
<path d="M31.6866 9.8611H30.7109C30.6345 9.8611 30.5703 9.7986 30.5703 9.72048V9.1111C30.5703 8.7986 30.8255 8.5434 31.1363 8.5434H31.2578C31.572 8.5434 31.8255 8.80034 31.8255 9.1111V9.72048C31.8255 9.79687 31.763 9.8611 31.6849 9.8611H31.6866ZM30.7734 9.65972H31.6259V9.1111C31.6259 8.90971 31.4609 8.74478 31.2595 8.74478H31.1398C30.9384 8.74478 30.7734 8.90971 30.7734 9.1111V9.65972Z" fill="#5E17EB"/>
<path d="M33.3134 9.8611H32.3377C32.2595 9.8611 32.1953 9.7986 32.1953 9.72048V9.1111C32.1953 8.7986 32.4523 8.5434 32.763 8.5434H32.8845C33.1988 8.5434 33.4523 8.80034 33.4523 9.1111V9.72048C33.4523 9.79687 33.3898 9.8611 33.3116 9.8611H33.3134ZM32.3967 9.65972H33.2509V9.1111C33.2509 8.90971 33.0859 8.74478 32.8845 8.74478H32.763C32.5616 8.74478 32.3967 8.90971 32.3967 9.1111V9.65972Z" fill="#5E17EB"/>
<path d="M42.8976 9.8611H41.9219C41.8455 9.8611 41.7812 9.7986 41.7812 9.72048V9.1111C41.7812 8.7986 42.0365 8.5434 42.349 8.5434H42.4687C42.783 8.5434 43.0365 8.80034 43.0365 9.1111V9.72048C43.0365 9.79687 42.974 9.8611 42.8958 9.8611H42.8976ZM41.9844 9.65972H42.8385V9.1111C42.8385 8.90971 42.6719 8.74478 42.4722 8.74478H42.3507C42.1493 8.74478 41.9844 8.90971 41.9844 9.1111V9.65972Z" fill="#5E17EB"/>
<path d="M41.2743 9.8611H40.2969C40.2205 9.8611 40.1562 9.7986 40.1562 9.72048V9.1111C40.1562 8.7986 40.4115 8.5434 40.724 8.5434H40.8455C41.1597 8.5434 41.4132 8.80034 41.4132 9.1111V9.72048C41.4132 9.79687 41.3507 9.8611 41.2708 9.8611H41.2743ZM40.3594 9.65972H41.2135V9.1111C41.2135 8.90971 41.0486 8.74478 40.8472 8.74478H40.7257C40.5243 8.74478 40.3594 8.90971 40.3594 9.1111V9.65972Z" fill="#5E17EB"/>
<path d="M39.6493 9.8611H38.6736C38.5972 9.8611 38.5312 9.7986 38.5312 9.72048V9.1111C38.5312 8.7986 38.7882 8.5434 39.099 8.5434H39.2205C39.5347 8.5434 39.7882 8.80034 39.7882 9.1111V9.72048C39.7882 9.79687 39.7257 9.8611 39.6476 9.8611H39.6493ZM38.7326 9.65972H39.5868V9.1111C39.5868 8.90971 39.4219 8.74478 39.2205 8.74478H39.099C38.8976 8.74478 38.7326 8.90971 38.7326 9.1111V9.65972Z" fill="#5E17EB"/>
<path d="M38.0226 9.8611H37.0469C36.9705 9.8611 36.9062 9.7986 36.9062 9.72048V9.1111C36.9062 8.7986 37.1615 8.5434 37.474 8.5434H37.5937C37.908 8.5434 38.1615 8.80034 38.1615 9.1111V9.72048C38.1615 9.79687 38.099 9.8611 38.0208 9.8611H38.0226ZM37.1094 9.65972H37.9618V9.1111C37.9618 8.90971 37.7969 8.74478 37.5955 8.74478H37.4757C37.2743 8.74478 37.1094 8.90971 37.1094 9.1111V9.65972Z" fill="#5E17EB"/>
<path d="M35.9809 9.65973H34.4219V7.79688C34.4219 7.36806 34.7726 7.0191 35.2014 7.0191C35.6302 7.0191 35.9809 7.36806 35.9809 7.79688V9.65973ZM34.6233 9.45834H35.7795V7.79688C35.7795 7.47917 35.5191 7.21876 35.2014 7.21876C34.8837 7.21876 34.6233 7.47917 34.6233 7.79688V9.45834Z" fill="#5E17EB"/>
<path d="M48.3712 6.15276H42.2566C42.1733 6.15276 42.0986 6.10242 42.0691 6.02603C42.0378 5.94964 42.0587 5.8611 42.1194 5.80381L43.3729 4.64061C43.4111 4.60589 43.4597 4.58679 43.5101 4.58679H46.9163C46.9632 4.58679 47.0066 4.60242 47.0413 4.63019L48.4944 5.79513C48.5604 5.84894 48.5865 5.93749 48.5587 6.01735C48.5309 6.09894 48.4545 6.15276 48.3694 6.15276H48.3712ZM42.7687 5.74999H47.7983L46.8451 4.98957H43.5882L42.767 5.74999H42.7687Z" fill="#5E17EB"/>
<path d="M46.7804 4.8889H43.5842C43.4731 4.8889 43.3828 4.79862 43.3828 4.68751V3.42362C43.3828 3.31251 43.4731 3.22223 43.5842 3.22223H46.7804C46.8915 3.22223 46.9818 3.31251 46.9818 3.42362V4.68751C46.9818 4.79862 46.8915 4.8889 46.7804 4.8889ZM43.7856 4.48612H46.579V3.62501H43.7856V4.48612Z" fill="#5E17EB"/>
<path d="M46.7821 3.62502H43.6155C43.5061 3.62502 43.4141 3.53301 43.4141 3.42363V3.31773C43.4141 2.35592 44.197 1.57294 45.1606 1.57294H45.2387C46.2005 1.57294 46.9835 2.35592 46.9835 3.31773V3.42363C46.9835 3.53301 46.8932 3.62502 46.7821 3.62502ZM43.822 3.22224H46.5773C46.5269 2.5278 45.9453 1.97745 45.2387 1.97745H45.1606C44.454 1.97745 43.8724 2.5278 43.822 3.22224Z" fill="#5E17EB"/>
<mask id="mask2_3950_277" style="mask-type:luminance" maskUnits="userSpaceOnUse" x="44" y="0" width="2" height="3">
<path d="M44.7109 0H45.5998V2.14236H44.7109V0Z" fill="white"/>
</mask>
<g mask="url(#mask2_3950_277)">
<path d="M45.2014 1.97742C45.0903 1.97742 45 1.88714 45 1.77603V0.256931C45 0.14582 45.0903 0.055542 45.2014 0.055542C45.3125 0.055542 45.4028 0.14582 45.4028 0.256931V1.77603C45.4028 1.88714 45.3125 1.97742 45.2014 1.97742Z" fill="#5E17EB"/>
</g>
<path d="M53.2005 16.8368H47.428C47.3168 16.8368 47.2266 16.7465 47.2266 16.6371C47.2266 16.526 47.3168 16.4357 47.428 16.4357H53.2005C53.3116 16.4357 53.4019 16.526 53.4019 16.6371C53.4019 16.7465 53.3116 16.8368 53.2005 16.8368Z" fill="#5E17EB"/>
<path d="M53.3655 32.651C53.2543 32.651 53.1641 32.5608 53.1641 32.4497V16.2639C53.1641 16.1528 53.2543 16.0625 53.3655 16.0625C53.4766 16.0625 53.5668 16.1528 53.5668 16.2639V32.4497C53.5668 32.5608 53.4766 32.651 53.3655 32.651Z" fill="#5E17EB"/>
<path d="M54.1701 32.651C54.059 32.651 53.9688 32.5608 53.9688 32.4497V16.2639C53.9688 16.1528 54.059 16.0625 54.1701 16.0625C54.2812 16.0625 54.3715 16.1528 54.3715 16.2639V32.4497C54.3715 32.5608 54.2812 32.651 54.1701 32.651Z" fill="#5E17EB"/>
<path d="M55.5451 32.651C55.434 32.651 55.3438 32.5608 55.3438 32.4497V16.2639C55.3438 16.1528 55.434 16.0625 55.5451 16.0625C55.6545 16.0625 55.7448 16.1528 55.7448 16.2639V32.4497C55.7448 32.5608 55.6545 32.651 55.5451 32.651Z" fill="#5E17EB"/>
<path d="M56.3811 32.651C56.27 32.651 56.1797 32.5608 56.1797 32.4497V16.2639C56.1797 16.1528 56.27 16.0625 56.3811 16.0625C56.4905 16.0625 56.5825 16.1528 56.5825 16.2639V32.4497C56.5825 32.5608 56.4905 32.651 56.3811 32.651Z" fill="#5E17EB"/>
<path d="M70.2109 34.4896H42.2873C42.1762 34.4896 42.0859 34.3993 42.0859 34.2882C42.0859 34.1771 42.1762 34.0868 42.2873 34.0868H70.2109C70.322 34.0868 70.4123 34.1771 70.4123 34.2882C70.4123 34.3993 70.322 34.4896 70.2109 34.4896Z" fill="#5E17EB"/>
<path d="M69.0078 26.8889H56.5842C56.4731 26.8889 56.3828 26.7986 56.3828 26.6875C56.3828 26.5764 56.4731 26.4861 56.5842 26.4861H69.0078C69.1189 26.4861 69.2092 26.5764 69.2092 26.6875C69.2092 26.7986 69.1189 26.8889 69.0078 26.8889Z" fill="#5E17EB"/>
<path d="M69.0078 27.6945H56.5842C56.4731 27.6945 56.3828 27.6025 56.3828 27.4931C56.3828 27.382 56.4731 27.2917 56.5842 27.2917H69.0078C69.1189 27.2917 69.2092 27.382 69.2092 27.4931C69.2092 27.6025 69.1189 27.6945 69.0078 27.6945Z" fill="#5E17EB"/>
<path d="M69.0078 28.4982H56.5842C56.4731 28.4982 56.3828 28.408 56.3828 28.2968C56.3828 28.1875 56.4731 28.0955 56.5842 28.0955H69.0078C69.1189 28.0955 69.2092 28.1875 69.2092 28.2968C69.2092 28.408 69.1189 28.4982 69.0078 28.4982Z" fill="#5E17EB"/>
<path d="M68.0295 26.8889C67.9184 26.8889 67.8281 26.7986 67.8281 26.6875V25.8681C67.8281 25.757 67.9184 25.6667 68.0295 25.6667C68.1389 25.6667 68.2309 25.757 68.2309 25.8681V26.6875C68.2309 26.7986 68.1389 26.8889 68.0295 26.8889Z" fill="#5E17EB"/>
<path d="M66.553 26.8889C66.4418 26.8889 66.3516 26.7986 66.3516 26.6875V25.8681C66.3516 25.757 66.4418 25.6667 66.553 25.6667C66.6641 25.6667 66.7543 25.757 66.7543 25.8681V26.6875C66.7543 26.7986 66.6641 26.8889 66.553 26.8889Z" fill="#5E17EB"/>
<path d="M65.0764 26.8889C64.9653 26.8889 64.875 26.7986 64.875 26.6875V25.8681C64.875 25.757 64.9653 25.6667 65.0764 25.6667C65.1875 25.6667 65.2778 25.757 65.2778 25.8681V26.6875C65.2778 26.7986 65.1875 26.8889 65.0764 26.8889Z" fill="#5E17EB"/>
<path d="M63.5998 26.8889C63.4887 26.8889 63.3984 26.7986 63.3984 26.6875V25.8681C63.3984 25.757 63.4887 25.6667 63.5998 25.6667C63.7109 25.6667 63.8012 25.757 63.8012 25.8681V26.6875C63.8012 26.7986 63.7109 26.8889 63.5998 26.8889Z" fill="#5E17EB"/>
<path d="M62.1233 26.8889C62.0122 26.8889 61.9219 26.7986 61.9219 26.6875V25.8681C61.9219 25.757 62.0122 25.6667 62.1233 25.6667C62.2344 25.6667 62.3247 25.757 62.3247 25.8681V26.6875C62.3247 26.7986 62.2344 26.8889 62.1233 26.8889Z" fill="#5E17EB"/>
<path d="M60.6467 26.8889C60.5356 26.8889 60.4453 26.7986 60.4453 26.6875V25.8681C60.4453 25.757 60.5356 25.6667 60.6467 25.6667C60.7578 25.6667 60.8481 25.757 60.8481 25.8681V26.6875C60.8481 26.7986 60.7578 26.8889 60.6467 26.8889Z" fill="#5E17EB"/>
<path d="M59.1701 26.8889C59.059 26.8889 58.9688 26.7986 58.9688 26.6875V25.8681C58.9688 25.757 59.059 25.6667 59.1701 25.6667C59.2812 25.6667 59.3715 25.757 59.3715 25.8681V26.6875C59.3715 26.7986 59.2812 26.8889 59.1701 26.8889Z" fill="#5E17EB"/>
<path d="M57.6936 26.8889C57.5825 26.8889 57.4922 26.7986 57.4922 26.6875V25.8681C57.4922 25.757 57.5825 25.6667 57.6936 25.6667C57.8047 25.6667 57.895 25.757 57.895 25.8681V26.6875C57.895 26.7986 57.8047 26.8889 57.6936 26.8889Z" fill="#5E17EB"/>
<path d="M52.5095 24.5573H47.7109C47.5113 24.5573 47.3516 24.3958 47.3516 24.1979V19.9878C47.3516 18.4653 48.5894 17.2274 50.1102 17.2274C51.6328 17.2274 52.8707 18.4653 52.8707 19.9878V24.1979C52.8707 24.3958 52.7092 24.5573 52.5095 24.5573ZM47.7543 24.1545H52.4696V19.9878C52.4696 18.6875 51.4123 17.6302 50.112 17.6302C48.8116 17.6302 47.7561 18.6875 47.7561 19.9878V24.1545H47.7543Z" fill="#5E17EB"/>
<path d="M52.1658 34.4635H48.2752C48.0911 34.4635 47.9453 34.3142 47.9453 34.1337V28.7621C47.9453 27.5087 48.9661 26.4861 50.2214 26.4861C51.4783 26.4861 52.4974 27.5069 52.4974 28.7621V34.1337C52.4974 34.3142 52.3498 34.4635 52.1675 34.4635H52.1658ZM48.3481 34.0607H52.0929V28.7621C52.0929 27.7291 51.2543 26.8889 50.2196 26.8889C49.1849 26.8889 48.3446 27.7274 48.3446 28.7621V34.0607H48.3481Z" fill="#5E17EB"/>
<path d="M69.059 34.4635H65.7135C65.5521 34.4635 65.4219 34.3333 65.4219 34.1719V30.8819C65.4219 29.8038 66.2986 28.9271 67.3767 28.9271C68.4531 28.9271 69.349 29.8055 69.349 30.8819V34.1719C69.349 34.3333 69.2187 34.4635 69.0573 34.4635H69.059ZM65.8247 34.0607H68.9479V30.8819C68.9479 30.026 68.2517 29.3298 67.3958 29.3298C66.5417 29.3298 65.8264 30.026 65.8264 30.8819V34.0607H65.8247Z" fill="#5E17EB"/>
<path d="M64.8637 34.4896H61.5182C61.3568 34.4896 61.2266 34.3594 61.2266 34.1979V30.8663C61.2266 29.783 62.1085 28.9011 63.1918 28.9011C64.2734 28.9011 65.1554 29.783 65.1554 30.8663V34.1979C65.1554 34.3594 65.0252 34.4896 64.8637 34.4896ZM61.6293 34.0868H64.7526V30.8663C64.7526 30.0052 64.053 29.3038 63.1918 29.3038C62.329 29.3038 61.6293 30.0052 61.6293 30.8663V34.0868Z" fill="#5E17EB"/>
<path d="M60.6918 34.4636H57.3464C57.1849 34.4636 57.0547 34.3334 57.0547 34.1719V30.8629C57.0547 29.7813 57.9349 28.9011 59.0148 28.9011C60.0964 28.9011 60.9835 29.7813 60.9835 30.8629V34.1719C60.9835 34.3334 60.8533 34.4636 60.6918 34.4636ZM57.4592 34.0608H60.5825V30.8629C60.5825 30.0018 59.8845 29.3038 59.0252 29.3038C58.1658 29.3038 57.4592 30.0018 57.4592 30.8629V34.0608Z" fill="#5E17EB"/>
<path d="M53.3724 25.5677H46.8655C46.7543 25.5677 46.6641 25.4774 46.6641 25.3663C46.6641 25.2552 46.7543 25.1649 46.8655 25.1649H53.3724C53.4835 25.1649 53.5738 25.2552 53.5738 25.3663C53.5738 25.4774 53.4835 25.5677 53.3724 25.5677Z" fill="#5E17EB"/>
<path d="M35.9366 6.57985H34.5043C34.395 6.57985 34.3047 6.48957 34.3047 6.37846V5.71006C34.3047 5.59894 34.395 5.50867 34.5043 5.50867H35.9366C36.0477 5.50867 36.138 5.59894 36.138 5.71006V6.37846C36.138 6.48957 36.0477 6.57985 35.9366 6.57985ZM34.7057 6.17707H35.7352V5.91144H34.7057V6.17707Z" fill="#5E17EB"/>
<path d="M36.3576 10.6441H34.0451C33.9358 10.6441 33.8438 10.5538 33.8438 10.4427V6.37845C33.8438 6.26734 33.9358 6.17706 34.0451 6.17706H36.3576C36.467 6.17706 36.5573 6.26734 36.5573 6.37845V10.4427C36.5573 10.5538 36.467 10.6441 36.3576 10.6441ZM34.2465 10.2413H36.1562V6.57984H34.2465V10.2413Z" fill="#5E17EB"/>
<mask id="mask3_3950_277" style="mask-type:luminance" maskUnits="userSpaceOnUse" x="0" y="35" width="71" height="1">
<path d="M0 35.4757H70.6667V36H0V35.4757Z" fill="white"/>
</mask>
<g mask="url(#mask3_3950_277)">
<path d="M70.5955 35.9913H0.201389C0.0902778 35.9913 0 35.9011 0 35.79C0 35.6788 0.0902778 35.5886 0.201389 35.5886H70.5955C70.7066 35.5886 70.7969 35.6788 70.7969 35.79C70.7969 35.9011 70.7066 35.9913 70.5955 35.9913Z" fill="#5E17EB"/>
</g>
</svg>
