<svg width="36" height="36" viewBox="0 0 36 36" fill="none" xmlns="http://www.w3.org/2000/svg">
<path d="M4.5 6.942L18.0068 3L31.5 6.942V15.0255C31.5 23.5215 26.0625 30.3142 18.0023 33C9.93975 30.315 4.5 23.52 4.5 15.0217V6.942Z" stroke="white" stroke-width="2" stroke-linejoin="round"/>
<path d="M18 17.25C20.0711 17.25 21.75 15.5711 21.75 13.5C21.75 11.4289 20.0711 9.75 18 9.75C15.9289 9.75 14.25 11.4289 14.25 13.5C14.25 15.5711 15.9289 17.25 18 17.25Z" fill="white" stroke="white" stroke-width="2" stroke-linecap="round" stroke-linejoin="round"/>
<path d="M24 23.25C24 21.6587 23.3679 20.1326 22.2426 19.0074C21.1174 17.8821 19.5913 17.25 18 17.25C16.4087 17.25 14.8826 17.8821 13.7574 19.0074C12.6321 20.1326 12 21.6587 12 23.25" stroke="white" stroke-width="2" stroke-linecap="round" stroke-linejoin="round"/>
</svg>
