<svg width="36" height="36" viewBox="0 0 36 36" fill="none" xmlns="http://www.w3.org/2000/svg">
<path d="M24.7794 24.7515C25.0419 24.5475 25.2804 24.309 25.7559 23.8335L31.6914 17.8965C31.8354 17.754 31.7694 17.5065 31.5789 17.439C30.6494 17.1168 29.8059 16.5863 29.1129 15.888C28.4146 15.195 27.8841 14.3515 27.5619 13.422C27.4944 13.2315 27.2469 13.1655 27.1044 13.3095L21.1659 19.245C20.6904 19.7205 20.4519 19.959 20.2479 20.2215C20.0049 20.5325 19.7989 20.8655 19.6299 21.2205C19.4874 21.5205 19.3809 21.8415 19.1679 22.4805L18.8919 23.3055L18.4539 24.618L18.0444 25.848C17.9934 26.0022 17.9862 26.1675 18.0236 26.3255C18.0611 26.4835 18.1417 26.628 18.2566 26.7428C18.3714 26.8577 18.5159 26.9383 18.6739 26.9758C18.8319 27.0133 18.9973 27.0061 19.1514 26.955L20.3814 26.5455L21.6939 26.1075L22.5189 25.8315C23.1579 25.6185 23.4789 25.5135 23.7789 25.3695C24.1339 25.1995 24.4684 24.9935 24.7794 24.7515ZM33.5514 16.038C34.1599 15.4293 34.5017 14.6039 34.5015 13.7432C34.5014 12.8826 34.1593 12.0572 33.5507 11.4487C32.942 10.8403 32.1165 10.4985 31.2559 10.4987C30.3952 10.4988 29.5699 10.8408 28.9614 11.4495L28.7724 11.6415C28.6812 11.7307 28.6132 11.841 28.5745 11.9626C28.5358 12.0842 28.5275 12.2134 28.5504 12.339C28.5804 12.4995 28.6329 12.7365 28.7304 13.017C28.9254 13.5795 29.2944 14.3175 29.9889 15.012C30.6834 15.7065 31.4214 16.0755 31.9839 16.2705C32.2659 16.368 32.5014 16.4205 32.6619 16.4505C32.7875 16.4721 32.9164 16.4632 33.0377 16.4245C33.1591 16.3859 33.2695 16.3187 33.3594 16.2285L33.5514 16.038Z" fill="#5E23DC"/>
<path fill-rule="evenodd" clip-rule="evenodd" d="M6.258 4.758C4.5 6.5145 4.5 9.3435 4.5 15V21C4.5 26.6565 4.5 29.4855 6.258 31.242C8.016 32.9985 10.8435 33 16.5 33H19.5C25.1565 33 27.9855 33 29.742 31.242C31.4715 29.514 31.5 26.748 31.5 21.27L27.273 25.497C26.868 25.902 26.5365 26.2335 26.163 26.526C25.7249 26.8691 25.25 27.1624 24.747 27.4005C24.2867 27.6076 23.8137 27.7855 23.331 27.933L19.863 29.0895C19.3125 29.2731 18.7217 29.2997 18.1569 29.1665C17.5921 29.0332 17.0755 28.7452 16.6652 28.3348C16.2548 27.9245 15.9668 27.4079 15.8336 26.8431C15.7003 26.2783 15.7269 25.6875 15.9105 25.137L16.3215 23.907L17.034 21.768L17.0655 21.669C17.247 21.126 17.3955 20.682 17.5995 20.253C17.8395 19.749 18.131 19.2775 18.474 18.8385C18.7665 18.4635 19.098 18.1335 19.503 17.7285L25.512 11.718L27.18 10.05L27.3705 9.8595C27.8802 9.34823 28.486 8.94282 29.153 8.66659C29.82 8.39037 30.5351 8.24879 31.257 8.25C31.0305 6.705 30.591 5.6055 29.742 4.758C27.9855 3 25.1565 3 19.5 3H16.5C10.8435 3 8.0145 3 6.258 4.758ZM10.875 13.5C10.875 13.2016 10.9935 12.9155 11.2045 12.7045C11.4155 12.4935 11.7016 12.375 12 12.375H21.75C22.0484 12.375 22.3345 12.4935 22.5455 12.7045C22.7565 12.9155 22.875 13.2016 22.875 13.5C22.875 13.7984 22.7565 14.0845 22.5455 14.2955C22.3345 14.5065 22.0484 14.625 21.75 14.625H12C11.7016 14.625 11.4155 14.5065 11.2045 14.2955C10.9935 14.0845 10.875 13.7984 10.875 13.5ZM10.875 19.5C10.875 19.2016 10.9935 18.9155 11.2045 18.7045C11.4155 18.4935 11.7016 18.375 12 18.375H15.75C16.0484 18.375 16.3345 18.4935 16.5455 18.7045C16.7565 18.9155 16.875 19.2016 16.875 19.5C16.875 19.7984 16.7565 20.0845 16.5455 20.2955C16.3345 20.5065 16.0484 20.625 15.75 20.625H12C11.7016 20.625 11.4155 20.5065 11.2045 20.2955C10.9935 20.0845 10.875 19.7984 10.875 19.5ZM10.875 25.5C10.875 25.2016 10.9935 24.9155 11.2045 24.7045C11.4155 24.4935 11.7016 24.375 12 24.375H14.25C14.5484 24.375 14.8345 24.4935 15.0455 24.7045C15.2565 24.9155 15.375 25.2016 15.375 25.5C15.375 25.7984 15.2565 26.0845 15.0455 26.2955C14.8345 26.5065 14.5484 26.625 14.25 26.625H12C11.7016 26.625 11.4155 26.5065 11.2045 26.2955C10.9935 26.0845 10.875 25.7984 10.875 25.5Z" fill="#5E23DC"/>
</svg>
