<svg width="36" height="36" viewBox="0 0 36 36" fill="none" xmlns="http://www.w3.org/2000/svg">
<path d="M22.5 9.75L13.5 4.5L4.5 9.75V30L13.5 26.25M22.5 9.75L31.5 6V15M22.5 9.75V15M13.5 26.25V5.25M13.5 26.25L15.75 27.5625M26.625 25.5H27.375M32.625 25.125C32.625 30.0045 27 33.75 27 33.75C27 33.75 21.375 30.0045 21.375 25.125C21.375 23.6332 21.9676 22.2024 23.0225 21.1475C24.0774 20.0926 25.5082 19.5 27 19.5C28.4918 19.5 29.9226 20.0926 30.9775 21.1475C32.0324 22.2024 32.625 23.6332 32.625 25.125Z" stroke="white" stroke-width="3" stroke-linecap="square"/>
</svg>
