<svg width="76" height="36" viewBox="0 0 76 36" fill="none" xmlns="http://www.w3.org/2000/svg">
<mask id="mask0_3950_278" style="mask-type:luminance" maskUnits="userSpaceOnUse" x="0" y="0" width="76" height="36">
<path d="M0 0H75.1304V36H0V0Z" fill="white"/>
</mask>
<g mask="url(#mask0_3950_278)">
<path d="M66.7083 35.1232V14.0752C66.7083 13.4583 66.2074 12.9565 65.5906 12.9565H61.8451V9.85779C61.8451 9.25 61.3668 8.74818 60.7672 8.71286C57.5408 7.77083 53.8777 7.55706 49.2129 8.06068V3.91757H50.7817V3.1413H45.8324V1.09782C45.8324 0.508149 45.3524 0.0280762 44.7627 0.0280762H30.365C29.9312 0.0280762 29.577 0.381337 29.577 0.81612V3.1413H24.1748V3.91757H25.5788V7.77808C21.9348 7.34239 18.1304 7.57699 14.2246 8.48369C13.7654 8.59058 13.4447 8.99547 13.4447 9.4692V13.0163H9.72645C9.0625 13.0163 8.52264 13.5562 8.52264 14.2201V35.1232H0V35.8995H75.1277V35.1232H66.7083ZM33.5263 30.5018V19.6223C33.5199 19.3505 34.0235 18.4158 35.125 17.2735C36.086 16.2754 37.0734 15.6005 37.5815 15.5933C37.5842 15.5933 37.587 15.5933 37.5888 15.5933C38.1178 15.5933 39.2826 16.3505 40.3053 17.3596C41.2274 18.269 41.6467 18.99 41.6458 19.2754V30.5217L33.5263 30.5018ZM40.8505 16.8071C39.9176 15.8868 38.5072 14.8179 37.587 14.8179C37.5815 14.8179 37.5761 14.8179 37.5707 14.8179C36.5118 14.8324 35.1168 16.163 34.5661 16.7346C33.7183 17.615 32.7337 18.904 32.75 19.6313V30.5L30.0797 30.4927L30.0118 26.9692L30.0861 13.317V11.3605H45.0562V30.5308L42.4221 30.5235V19.2763C42.423 18.4484 41.3234 17.2735 40.8505 16.8071ZM9.29891 21.6649H13.5045V30.4529H9.29891V21.6649ZM45.0562 3.91757V10.5842H30.2409L30.3451 3.91757H45.0562ZM61.0697 26.5833H45.8324V13.6848C51.5063 12.4511 56.4964 12.4393 61.0697 13.6458V26.5833ZM29.2382 26.5833H14.2808V13.6531C18.8442 12.3596 23.7672 12.3469 29.308 13.6223L29.2382 26.5833ZM14.2808 27.3587H29.2437L29.3034 30.4909L14.2808 30.4538V27.3587ZM45.8324 27.3587H61.0697V30.5706L45.8324 30.5326V27.3587ZM61.8451 21.6205H65.933V30.5235L61.8451 30.567V21.6205ZM65.933 14.0752V20.8451H61.8451V13.7328H65.5906C65.779 13.7328 65.933 13.8868 65.933 14.0752ZM60.5951 9.47101L60.6467 9.48641H60.7011C60.904 9.48822 61.0697 9.65489 61.0697 9.85779V12.8451C56.4737 11.6694 51.4801 11.6857 45.8324 12.8922V9.30706C52.1422 8.27717 56.7083 8.32699 60.5951 9.47101ZM48.4366 3.91757V8.15036C47.6014 8.25181 46.7346 8.3759 45.8324 8.52174V3.91757H48.4366ZM30.365 0.803438H44.7627C44.9248 0.803438 45.0562 0.935685 45.0562 1.09782V3.1413H30.3542L30.365 0.803438ZM26.3551 3.91757H29.5688L29.4955 8.61866C29.356 8.51992 29.1975 8.44293 29.0236 8.40036C28.1449 8.18568 27.2545 8.01177 26.3551 7.88043V3.91757ZM14.221 9.4692C14.221 9.3605 14.2962 9.26358 14.4004 9.24003C16.981 8.6404 19.5145 8.34058 21.9846 8.34058C24.3324 8.34058 26.6232 8.61141 28.8388 9.15398C29.1159 9.22192 29.3098 9.4692 29.3098 9.75453V12.827C23.7699 11.5743 18.8225 11.5851 14.221 12.8596V9.4692ZM9.72645 13.7926H13.4447V13.8958L13.5045 13.8777V20.8895H9.29891V14.2201C9.29891 13.9837 9.49094 13.7926 9.72645 13.7926ZM9.29891 31.2283H13.8922L61.0697 31.346V31.3514L65.933 31.2998V35.1232H9.29891V31.2283Z" fill="#5E17EB"/>
</g>
<path d="M33.1055 12.683C32.2722 12.683 31.5938 13.3605 31.5938 14.1939C31.5938 15.0272 32.2722 15.7047 33.1055 15.7047C33.9389 15.7047 34.6164 15.0272 34.6164 14.1939C34.6164 13.3605 33.9389 12.683 33.1055 12.683ZM33.1055 14.9285C32.6997 14.9285 32.37 14.5987 32.37 14.1939C32.37 13.7881 32.6997 13.4583 33.1055 13.4583C33.5104 13.4583 33.8401 13.7881 33.8401 14.1939C33.8401 14.5987 33.5104 14.9285 33.1055 14.9285Z" fill="#5E17EB"/>
<path d="M43.6875 14.183C43.6875 13.356 43.0145 12.683 42.1875 12.683C41.3605 12.683 40.6875 13.356 40.6875 14.183C40.6875 15.01 41.3605 15.683 42.1875 15.683C43.0145 15.683 43.6875 15.01 43.6875 14.183ZM42.1875 14.9067C41.788 14.9067 41.4629 14.5815 41.4629 14.183C41.4629 13.7835 41.788 13.4583 42.1875 13.4583C42.5861 13.4583 42.9112 13.7835 42.9112 14.183C42.9112 14.5815 42.5861 14.9067 42.1875 14.9067Z" fill="#5E17EB"/>
<path d="M33.0737 9.47735C33.7041 9.47735 34.2177 8.96377 34.2177 8.33333V6.35417C34.2177 5.72283 33.7041 5.21014 33.0737 5.21014C32.4424 5.21014 31.9297 5.72283 31.9297 6.35417V8.33333C31.9297 8.96377 32.4424 9.47735 33.0737 9.47735ZM32.705 6.35417C32.705 6.15127 32.8708 5.98551 33.0737 5.98551C33.2766 5.98551 33.4415 6.15127 33.4415 6.35417V8.33333C33.4415 8.53623 33.2766 8.70199 33.0737 8.70199C32.8708 8.70199 32.705 8.53623 32.705 8.33333V6.35417Z" fill="#5E17EB"/>
<path d="M36.105 9.47735C36.7363 9.47735 37.249 8.96377 37.249 8.33333V6.35417C37.249 5.72283 36.7363 5.21014 36.105 5.21014C35.4745 5.21014 34.9609 5.72283 34.9609 6.35417V8.33333C34.9609 8.96377 35.4745 9.47735 36.105 9.47735ZM35.7372 6.35417C35.7372 6.15127 35.9021 5.98551 36.105 5.98551C36.3079 5.98551 36.4736 6.15127 36.4736 6.35417V8.33333C36.4736 8.53623 36.3079 8.70199 36.105 8.70199C35.9021 8.70199 35.7372 8.53623 35.7372 8.33333V6.35417Z" fill="#5E17EB"/>
<path d="M42.1909 9.38494C42.8213 9.38494 43.3349 8.87135 43.3349 8.24092V6.26175C43.3349 5.63041 42.8213 5.11682 42.1909 5.11682C41.5596 5.11682 41.0469 5.63041 41.0469 6.26175V8.24092C41.0469 8.87135 41.5596 9.38494 42.1909 9.38494ZM41.8222 6.26175C41.8222 6.05794 41.988 5.89309 42.1909 5.89309C42.3938 5.89309 42.5587 6.05794 42.5587 6.26175V8.24092C42.5587 8.44381 42.3938 8.60867 42.1909 8.60867C41.988 8.60867 41.8222 8.44381 41.8222 8.24092V6.26175Z" fill="#5E17EB"/>
<path d="M39.2534 9.47735C39.8838 9.47735 40.3974 8.96377 40.3974 8.33333V6.35417C40.3974 5.72283 39.8838 5.21014 39.2534 5.21014C38.6221 5.21014 38.1094 5.72283 38.1094 6.35417V8.33333C38.1094 8.96377 38.6221 9.47735 39.2534 9.47735ZM38.8847 6.35417C38.8847 6.15127 39.0505 5.98551 39.2534 5.98551C39.4563 5.98551 39.6212 6.15127 39.6212 6.35417V8.33333C39.6212 8.53623 39.4563 8.70199 39.2534 8.70199C39.0505 8.70199 38.8847 8.53623 38.8847 8.33333V6.35417Z" fill="#5E17EB"/>
<path d="M18.0736 15.6259C17.3526 15.6259 16.7656 16.212 16.7656 16.933V20.0172C16.7656 20.7382 17.3526 21.3243 18.0736 21.3243C18.7937 21.3243 19.3807 20.7382 19.3807 20.0172V16.933C19.3807 16.212 18.7937 15.6259 18.0736 15.6259ZM18.6044 20.0172C18.6044 20.3098 18.3662 20.548 18.0736 20.548C17.7801 20.548 17.5419 20.3098 17.5419 20.0172V16.933C17.5419 16.6404 17.7801 16.4022 18.0736 16.4022C18.3662 16.4022 18.6044 16.6404 18.6044 16.933V20.0172Z" fill="#5E17EB"/>
<path d="M20.4609 16.8587V19.9429C20.4609 20.664 21.047 21.25 21.768 21.25C22.489 21.25 23.0751 20.664 23.0751 19.9429V16.8587C23.0751 16.1377 22.489 15.5516 21.768 15.5516C21.047 15.5516 20.4609 16.1377 20.4609 16.8587ZM21.2372 16.8587C21.2372 16.5661 21.4754 16.3279 21.768 16.3279C22.0606 16.3279 22.2997 16.5661 22.2997 16.8587V19.9429C22.2997 20.2355 22.0606 20.4737 21.768 20.4737C21.4754 20.4737 21.2372 20.2355 21.2372 19.9429V16.8587Z" fill="#5E17EB"/>
<path d="M25.2914 21.25C26.0125 21.25 26.5994 20.664 26.5994 19.9429V16.8587C26.5994 16.1377 26.0125 15.5516 25.2914 15.5516C24.5713 15.5516 23.9844 16.1377 23.9844 16.8587V19.9429C23.9844 20.664 24.5713 21.25 25.2914 21.25ZM24.7606 16.8587C24.7606 16.5661 24.9989 16.3279 25.2914 16.3279C25.5849 16.3279 25.8231 16.5661 25.8231 16.8587V19.9429C25.8231 20.2355 25.5849 20.4737 25.2914 20.4737C24.9989 20.4737 24.7606 20.2355 24.7606 19.9429V16.8587Z" fill="#5E17EB"/>
<path d="M49.8461 15.5516C49.1251 15.5516 48.5391 16.1377 48.5391 16.8587V19.9429C48.5391 20.664 49.1251 21.25 49.8461 21.25C50.5671 21.25 51.1532 20.664 51.1532 19.9429V16.8587C51.1532 16.1377 50.5671 15.5516 49.8461 15.5516ZM50.3778 19.9429C50.3778 20.2355 50.1396 20.4737 49.8461 20.4737C49.5536 20.4737 49.3153 20.2355 49.3153 19.9429V16.8587C49.3153 16.5661 49.5536 16.3279 49.8461 16.3279C50.1396 16.3279 50.3778 16.5661 50.3778 16.8587V19.9429Z" fill="#5E17EB"/>
<path d="M52.1406 16.8587V19.9429C52.1406 20.664 52.7267 21.25 53.4477 21.25C54.1687 21.25 54.7548 20.664 54.7548 19.9429V16.8587C54.7548 16.1377 54.1687 15.5516 53.4477 15.5516C52.7267 15.5516 52.1406 16.1377 52.1406 16.8587ZM53.9785 16.8587V19.9429C53.9785 20.2355 53.7403 20.4737 53.4477 20.4737C53.1542 20.4737 52.916 20.2355 52.916 19.9429V16.8587C52.916 16.5661 53.1542 16.3279 53.4477 16.3279C53.7403 16.3279 53.9785 16.5661 53.9785 16.8587Z" fill="#5E17EB"/>
<path d="M57.2446 21.25C57.9656 21.25 58.5525 20.664 58.5525 19.9429V16.8587C58.5525 16.1377 57.9656 15.5516 57.2446 15.5516C56.5245 15.5516 55.9375 16.1377 55.9375 16.8587V19.9429C55.9375 20.664 56.5245 21.25 57.2446 21.25ZM56.7138 16.8587C56.7138 16.5661 56.952 16.3279 57.2446 16.3279C57.538 16.3279 57.7763 16.5661 57.7763 16.8587V19.9429C57.7763 20.2355 57.538 20.4737 57.2446 20.4737C56.952 20.4737 56.7138 20.2355 56.7138 19.9429V16.8587Z" fill="#5E17EB"/>
</svg>
