<svg width="40" height="40" viewBox="0 0 40 40" fill="none" xmlns="http://www.w3.org/2000/svg">
<path d="M16.9235 24.6216L16.9085 24.5866C16.6832 24.525 16.4598 24.4566 16.2385 24.3816L16.2219 24.3749C13.9195 23.5872 11.921 22.0992 10.5062 20.1193C9.09147 18.1394 8.33121 15.7667 8.33187 13.3333C8.33113 10.3468 9.47571 7.47374 11.5299 5.30588C13.584 3.13803 16.3913 1.84047 19.3735 1.68047C22.3557 1.52046 25.2857 2.5102 27.56 4.44581C29.8343 6.38143 31.2797 9.11552 31.5985 12.0849C31.6719 12.7716 31.1052 13.3333 30.4152 13.3333C29.7252 13.3333 29.1735 12.7699 29.0819 12.0866C28.8602 10.4737 28.213 8.94896 27.2069 7.66902C26.2008 6.38908 24.872 5.40013 23.3571 4.80382C21.8422 4.20751 20.1958 4.02534 18.5872 4.27603C16.9785 4.52672 15.4657 5.20124 14.204 6.23025C12.9424 7.25927 11.9776 8.60566 11.4086 10.1311C10.8397 11.6565 10.6872 13.3059 10.9668 14.9097C11.2465 16.5136 11.9481 18.014 12.9997 19.2569C14.0513 20.4998 15.4148 21.4402 16.9502 21.9816C17.2595 21.2825 17.7997 20.7109 18.4803 20.3627C19.1609 20.0145 19.9405 19.9108 20.6884 20.0691C21.4364 20.2273 22.1072 20.6378 22.5884 21.2318C23.0697 21.8258 23.3322 22.5671 23.3319 23.3316C23.3326 24.1021 23.0665 24.849 22.5787 25.4453C22.0909 26.0417 21.4116 26.4507 20.6563 26.6027C19.9011 26.7548 19.1164 26.6405 18.4359 26.2793C17.7553 25.9181 17.2209 25.3323 16.9235 24.6216ZM15.2152 26.6716C13.2501 25.9658 11.4653 24.8344 9.98854 23.3583C9.07544 23.4645 8.23317 23.9024 7.62172 24.5888C7.01027 25.2753 6.67225 26.1624 6.67188 27.0816V28.6149C6.67188 29.5683 6.96854 30.4983 7.52187 31.2749C10.0919 34.8816 14.2985 36.6666 19.9985 36.6666C25.6985 36.6666 29.9069 34.8799 32.4819 31.2749C33.0378 30.4975 33.3367 29.5657 33.3369 28.6099V27.0799C33.3369 26.086 32.9422 25.1326 32.2397 24.4295C31.5372 23.7263 30.5842 23.3308 29.5902 23.3299H25.8319C25.8321 24.5714 25.4363 25.7805 24.7021 26.7815C23.9678 27.7824 22.9333 28.5231 21.7491 28.8956C20.5649 29.2682 19.2927 29.2532 18.1176 28.8529C16.9425 28.4526 15.9258 27.6896 15.2152 26.6716ZM26.6652 13.3333C26.6652 12.359 26.4517 11.3965 26.0396 10.5137C25.6276 9.63083 25.027 8.84901 24.2802 8.22328C23.587 7.64339 22.7831 7.21052 21.9174 6.95095C21.0517 6.69138 20.1423 6.61055 19.2444 6.71336C18.3464 6.81617 17.4788 7.10048 16.6942 7.549C15.9096 7.99753 15.2243 8.60091 14.6801 9.32248C14.1359 10.044 13.7441 10.8687 13.5285 11.7464C13.3129 12.6241 13.278 13.5365 13.426 14.428C13.5739 15.3196 13.9016 16.1718 14.3891 16.9328C14.8766 17.6939 15.5138 18.3478 16.2619 18.8549C17.3104 17.9798 18.6328 17.5002 19.9985 17.4999C21.4202 17.4999 22.7235 18.0083 23.7369 18.8549C24.639 18.2439 25.3777 17.4211 25.8882 16.4585C26.3987 15.4959 26.6655 14.4229 26.6652 13.3333Z" fill="#5E23DC"/>
</svg>
