<svg width="136" height="111" viewBox="0 0 136 111" fill="none" xmlns="http://www.w3.org/2000/svg">
<path fill-rule="evenodd" clip-rule="evenodd" d="M96.9792 0C87.513 4.49219 75.026 9.6276 61.0365 10.901C59.5443 11.0339 58.4219 12.2318 58.4583 13.6536C58.5234 16.2344 58.5911 18.9505 58.6719 21.7031C63.5495 22.3177 66.9714 26.3073 68.5234 30.7552C68.4036 27.4688 68.3229 24.1667 68.25 21.112C68.2188 20.0469 69.0547 19.151 70.1693 19.0547C80.6198 18.099 89.9453 14.2656 97.0156 10.9141H97.1354C104.229 14.2734 113.591 18.1146 124.083 19.0625C125.193 19.1589 126.026 20.0469 126.013 21.0964C125.841 31.612 125.982 43.3698 123.5 50.8516C119.688 62.3672 110.133 71.4766 98.0052 75.2057C97.5703 75.3385 97.1562 75.3464 96.7135 75.2135C95.974 74.9974 95.25 74.763 94.526 74.5026C95.4714 78.0312 96.1875 82.1771 95.5156 85.7734C95.862 85.8828 96.2188 85.9948 96.5729 86.099C97.1641 86.2682 97.7188 86.2604 98.3099 86.0833C114.544 81.0885 127.328 68.8854 132.435 53.4792C135.758 43.4609 135.576 27.7188 135.802 13.638C135.826 12.224 134.703 11.0469 133.216 10.9141C119.169 9.64844 106.63 4.50521 97.1354 0H96.9792ZM4.4401 64.7057H17.5052C19.9505 64.7057 21.9453 66.7031 21.9453 69.1536V105.487C21.9453 107.93 19.9505 109.935 17.5052 109.935H4.4401C1.99479 109.935 0 107.935 0 105.487V69.1536C0 66.7031 1.99479 64.7057 4.4401 64.7057ZM88.8568 73.474C91.1927 80.8151 91.4505 86.2474 88.4062 88.0755C90.1224 94.7708 87.026 97.4583 85.5547 98.8203C85.3698 99.0859 84.4089 99.7891 84.6536 101.216C85.5339 106.484 81.987 110 78.5729 110.089L45.0156 111.016C42.7708 111.081 40.8255 110.747 38.6979 110.016L30.6224 107.247C28.0365 106.359 26.3724 104.029 26.3724 101.292V67.3333C26.3724 65.0599 28.0286 63.7214 29.4401 61.9297L36.5026 52.9922C38.4557 50.513 40.4714 48.6615 43.1016 46.9219L51.0391 41.6693L54.0547 31.6797C53.6484 23.1901 65.4635 25.5964 64.612 40.0104C64.2448 46.25 60.4375 55.4766 57.474 58.4141C55.9453 59.9479 56.5729 62.5677 60.8307 62.0938L63.9323 61.7526L81.1875 60.4193C92.9505 59.5104 91.2005 70.8333 88.8568 73.474ZM88.6432 37.0885L94.1797 42.9479L106.984 30.3906C108.034 29.362 109.734 29.3776 110.76 30.4349L114.492 34.2552C115.526 35.3047 115.505 37.0078 114.456 38.0365L97.7474 54.4036L95.8125 56.3073C95.2786 56.8307 94.6302 57.0833 93.8828 57.0677C93.1354 57.0547 92.5 56.7656 91.9922 56.2161L90.1354 54.2266L80.8698 44.3698C79.8646 43.2969 79.9245 41.5938 80.9948 40.5885L84.8672 36.9635C85.401 36.4583 86.0417 36.2161 86.7812 36.2448C87.513 36.2682 88.1328 36.5547 88.6432 37.0885Z" fill="white"/>
</svg>
