<svg width="100" height="122" viewBox="0 0 100 122" fill="none" xmlns="http://www.w3.org/2000/svg">
<mask id="mask0_2473_2696" style="mask-type:luminance" maskUnits="userSpaceOnUse" x="0" y="0" width="100" height="122">
<path d="M0 0H100V121.26H0V0Z" fill="white"/>
</mask>
<g mask="url(#mask0_2473_2696)">
<path fill-rule="evenodd" clip-rule="evenodd" d="M48.7739 65.6948C28.8182 53.892 19.5704 36.3395 21.0344 13.0291C21.0919 12.0612 21.666 11.2697 22.5682 10.9089L49.1102 0.262526C49.7213 0.0205644 50.3282 0.0205644 50.9393 0.262526L77.4854 10.9089C78.3835 11.2697 78.9577 12.0612 79.0192 13.0291C80.4792 36.3395 71.2313 53.892 51.2756 65.6948C50.4841 66.1623 49.5654 66.1623 48.7739 65.6948ZM57.2877 115.424L57.2836 115.432V115.445L57.2672 115.494L57.2631 115.51V115.514L57.2426 115.584L57.2385 115.588L57.1975 115.723L57.1893 115.744V115.748L57.1811 115.769L57.1647 115.818L57.1565 115.838L57.136 115.896L57.1319 115.908L57.1155 115.953L57.1073 115.974V115.978L57.0991 115.998L57.0827 116.047L57.0786 116.052L57.0704 116.068L57.0622 116.093L57.054 116.113L57.0458 116.138L57.0376 116.158L57.0253 116.183L57.0171 116.203V116.207L57.0089 116.228L56.9966 116.253L56.9883 116.273L56.9842 116.277L56.9678 116.318L56.9596 116.343L56.9514 116.355L56.9473 116.363L56.9391 116.388L56.9268 116.408L56.9186 116.429V116.433L56.9063 116.453L56.894 116.478L56.8858 116.499L56.8735 116.523L56.8653 116.544L56.853 116.568L56.8448 116.581L56.8407 116.589L56.8284 116.609L56.8202 116.634L56.8079 116.654L56.7956 116.679L56.7833 116.7L56.771 116.724L56.7628 116.745L56.7505 116.765L56.7382 116.79L56.73 116.802L56.7259 116.81L56.7136 116.831L56.7013 116.855L56.689 116.876L55.7416 118.566L57.2262 119.517C57.624 119.775 58.0997 119.845 58.5385 119.751C58.9774 119.656 59.3793 119.398 59.6335 119L59.6376 118.992C59.8919 118.594 59.9616 118.123 59.8673 117.684C59.7976 117.368 59.6417 117.069 59.4121 116.835C59.2972 116.757 59.1906 116.675 59.0963 116.581C59.0635 116.56 59.0348 116.54 59.0061 116.519L57.2877 115.424ZM95.2101 91.5109L95.4603 91.757L99.9551 89.3906C99.4219 84.293 98.167 79.5809 96.1862 75.2543C94.2423 71.0056 91.593 67.1014 88.2383 63.5499L83.2392 66.4371C86.8645 69.357 89.6737 72.8798 91.6668 77.0137C93.7051 81.2296 94.8862 86.0606 95.2101 91.5109ZM63.2753 84.6744C63.1768 84.5965 63.0661 84.5309 62.9472 84.4694C60.1216 83.0627 57.1442 82.5009 54.0192 82.7798C50.9967 83.0545 47.8758 84.1167 44.6647 85.9745L44.5909 86.0155C43.5574 86.6306 42.4993 87.0161 41.4249 87.172C40.416 87.3155 39.3702 87.2663 38.2835 87.0202C37.8775 86.7906 37.5248 86.5568 37.2336 86.319C37.2008 86.2862 37.168 86.2533 37.1311 86.2246C36.6266 85.794 36.3191 85.3593 36.2001 84.9205C36.1837 84.859 36.1673 84.7934 36.1591 84.7237V84.7113L36.155 84.7031V84.6826L36.1509 84.6662V84.6621C36.1345 84.4735 36.1427 84.2766 36.1755 84.0716L45.9032 78.2112L51.132 75.0616L51.1444 75.0534L53.9782 73.3432C55.7703 72.4 57.6035 71.8915 59.4736 71.8217C61.3765 71.752 63.3573 72.1211 65.4119 72.9331C65.5718 73.0029 65.7441 73.0521 65.9245 73.0808C69.2013 73.5893 72.2073 73.5073 74.9427 72.8388C77.1778 72.2934 79.2242 71.3583 81.0738 70.0419C83.9897 72.4943 86.2699 75.4225 87.9103 78.8222C89.6286 82.3779 90.658 86.4625 91.0066 91.0803L80.2044 95.6694L75.6727 92.7248L63.2753 84.6744ZM66.2895 91.597L61.0197 88.1726C58.8994 87.1351 56.689 86.7168 54.3801 86.9259C51.9851 87.1392 49.4424 88.025 46.7521 89.5834L46.7152 89.6039C45.2101 90.4979 43.6435 91.0598 42.0154 91.2976C40.3955 91.5314 38.7346 91.4371 37.0367 91.0106L37.0408 91.0065C36.8768 90.9655 36.7169 90.9039 36.5651 90.8219C35.7859 90.4077 35.1051 89.9566 34.5269 89.4727C34.49 89.444 34.4531 89.4194 34.4203 89.3865C33.2597 88.3941 32.5092 87.2622 32.1647 85.9991C32.1401 85.9007 32.1155 85.8022 32.095 85.7079V85.6956L32.0827 85.6464L32.0786 85.6177L32.0704 85.589L32.0622 85.5275L32.0499 85.47V85.4659C31.8858 84.5432 31.9514 83.5877 32.2426 82.5911V82.5788L32.259 82.5255L32.2672 82.4968L32.2795 82.464L32.2959 82.4148L32.3 82.3984L32.3205 82.3368V82.3286L32.341 82.2712L32.3779 82.1605L32.3862 82.1441L32.4067 82.0785L32.4231 82.0334L32.4313 82.0129L32.4518 81.9513L32.4559 81.9472L32.46 81.9267H32.4641L32.4887 81.8652V81.8611L32.4969 81.8447V81.8406L32.5379 81.7586L32.5502 81.7381L32.5584 81.7176L32.5707 81.6971L32.5912 81.6602L32.5953 81.6561L32.6035 81.6397L32.6076 81.6356L32.6158 81.6192L32.6404 81.5781H32.6445L32.6527 81.5617L32.6568 81.5576L32.6814 81.5207L32.6937 81.5002L32.706 81.4838L32.7224 81.4633L32.7511 81.4264L32.7634 81.41V81.4059L32.7799 81.3895L32.7922 81.3731H32.7963L32.8086 81.3526L32.8414 81.3198L32.8537 81.2993H32.8578L32.8701 81.2829L32.9193 81.2337H32.9234L32.989 81.168L33.0259 81.1352L33.0423 81.1188L33.0792 81.0901H33.0833L33.0997 81.0737L33.1202 81.0573L33.1366 81.045L33.1571 81.0286L33.1982 80.9999L33.2187 80.9876L33.2392 80.9712H33.2433L33.2802 80.9466L33.3212 80.922L45.977 73.294C44.2177 72.3836 42.4173 71.8915 40.5759 71.8217C38.6731 71.752 36.6923 72.1211 34.6376 72.9331C34.4777 73.0029 34.3054 73.0521 34.125 73.0808C30.8483 73.5893 27.8422 73.5073 25.1068 72.8388C22.8717 72.2934 20.8253 71.3583 18.9757 70.0419C16.0599 72.4943 13.7838 75.4225 12.1393 78.8222C10.4127 82.3984 9.37926 86.5158 9.03887 91.1664L14.2021 93.7378L18.3852 95.817L18.3811 95.8211C18.5656 95.9113 18.742 96.0343 18.8978 96.182L21.8875 99.0527L22.679 97.6461L22.7036 97.605L22.72 97.5722L22.7282 97.5599L22.7528 97.5189L22.761 97.5025L22.7774 97.4738L22.8061 97.4328V97.4287L22.8307 97.3877L22.8512 97.359L22.8594 97.3467L22.884 97.3057L22.8963 97.2893L22.9127 97.2647L22.9373 97.2237L22.9414 97.2196L22.966 97.1826L22.9865 97.1498L22.9947 97.1416L23.0235 97.1006L23.0358 97.0801L23.0522 97.0596L23.0809 97.0186V97.0145L23.1096 96.9817L23.167 96.8997L23.1793 96.8833L23.1957 96.8628C23.2367 96.8094 23.2777 96.7602 23.3187 96.711L23.3351 96.6905L23.3474 96.6741C24.1841 95.6653 25.2831 94.9599 26.4888 94.5949L26.534 94.5785L26.6201 94.5539C26.7021 94.5334 26.78 94.5129 26.862 94.4924L26.9112 94.48L26.9236 94.476L26.9564 94.4678L27.0015 94.4595H27.0056L27.0507 94.4472L27.0999 94.439L27.1942 94.4185L27.2311 94.4144L27.2434 94.4103L27.2926 94.4021L27.3091 94.398L27.3378 94.3939L27.387 94.3857L27.4362 94.3816L27.4649 94.3775L27.4813 94.3734L27.5305 94.3652H27.5387L27.5797 94.3611L27.6166 94.357L27.6289 94.3529L27.6781 94.3488L27.6945 94.3447C28.9987 94.2053 30.352 94.4472 31.5782 95.128L31.5946 95.1403C33.0956 95.981 34.1373 97.3303 34.6253 98.8559C36.1755 98.4786 37.8652 98.6549 39.362 99.4874L39.3784 99.4997C40.8589 100.328 41.8965 101.657 42.3927 103.158C43.783 102.838 45.2922 102.998 46.6414 103.712C46.7275 103.753 46.8095 103.798 46.8916 103.851C48.2367 104.647 49.1717 105.889 49.6147 107.284C51.1156 106.964 52.7397 107.165 54.1791 107.973C55.0322 108.448 55.7375 109.092 56.2748 109.838L61.2534 113.017C61.2904 113.041 61.3314 113.062 61.3683 113.087L61.3765 113.095C61.5774 113.222 61.7702 113.361 61.9506 113.513L63.3737 114.428C63.4229 114.456 63.4721 114.485 63.5172 114.514V114.518C63.9109 114.76 64.3702 114.821 64.8008 114.731C65.211 114.641 65.5883 114.407 65.8466 114.05C65.8671 114.017 65.8876 113.981 65.9081 113.948H65.9122C66.1542 113.558 66.2198 113.095 66.1255 112.668C66.0312 112.229 65.7728 111.827 65.375 111.573L63.8166 110.573L61.5446 109.121C61.5036 109.092 61.4626 109.067 61.4216 109.035C60.4824 108.436 59.4285 107.767 58.3745 107.099C58.1489 106.955 58.6452 107.271 55.6637 105.368C54.6959 104.753 54.4088 103.465 55.028 102.498C55.6432 101.53 56.9309 101.243 57.9029 101.862C59.0799 102.612 58.5755 102.284 60.6137 103.576C62.049 104.487 63.4803 105.397 65.5472 106.73L65.7605 106.869L66.0722 107.066L68.2088 108.432L68.2867 108.485C68.8117 108.789 69.4268 108.867 70.001 108.739C70.5997 108.612 71.1411 108.26 71.4897 107.718L71.4938 107.714C71.8382 107.169 71.9326 106.521 71.7972 105.918C71.6701 105.323 71.3133 104.782 70.7638 104.429L70.7597 104.425L67.8438 102.563C67.8069 102.539 67.7741 102.518 67.7372 102.489L67.7331 102.485L66.876 101.94C66.7694 101.87 66.6709 101.805 66.5889 101.747L66.4331 101.632L63.5623 99.7991C62.5904 99.1758 62.3115 97.888 62.9349 96.9202C63.5541 95.9523 64.846 95.6694 65.8138 96.2927L68.7461 98.1669C68.783 98.1874 68.8199 98.212 68.8527 98.2366L68.8568 98.2407L69.7139 98.7903C69.8944 98.9051 69.9887 98.9625 70.0051 98.9748L70.001 98.9789C70.0625 99.024 70.1199 99.065 70.1691 99.1019L72.9004 100.849C72.9865 100.894 73.0727 100.952 73.1547 101.013L73.208 101.05L74.1225 101.636C74.6721 101.985 75.32 102.075 75.927 101.944C76.5175 101.813 77.063 101.46 77.4157 100.91L77.4649 100.833C77.6617 100.5 77.7643 100.135 77.7807 99.7704C77.793 99.512 77.7643 99.2537 77.6987 99.0076L66.2977 91.6011L66.2895 91.597ZM24.2128 103.445V103.441L26.3207 99.6843L26.3371 99.6597V99.6556L26.3494 99.6392V99.6351L26.3576 99.6228L26.3658 99.6064L26.3822 99.5818L26.3863 99.5777L26.3945 99.5612L26.3986 99.5572L26.415 99.5325L26.4232 99.5161L26.4314 99.5079L26.4355 99.4997L26.4437 99.4874L26.4478 99.4833L26.4642 99.4587H26.4683V99.4546L26.4847 99.4341V99.43L26.5175 99.389L26.5216 99.3849L26.5381 99.3644L26.5422 99.3603L26.575 99.3193V99.3152C26.8169 99.0322 27.1163 98.8149 27.4485 98.6713H27.4526L27.5141 98.6467L27.5305 98.6385L27.5797 98.6221L27.5838 98.618L27.5961 98.6139L27.6125 98.6098L27.633 98.6016H27.6371L27.6494 98.5975L27.6658 98.5934L27.6822 98.5852L27.6945 98.5811H27.6987L27.7151 98.577L27.7192 98.5729L27.7315 98.5688H27.7479V98.5647L27.7684 98.5606H27.7725L27.7848 98.5565L27.8176 98.5483L27.8258 98.5442H27.834L27.8545 98.5401L27.8709 98.536L27.8791 98.5319H27.8873L27.9037 98.5278H27.9078L27.9242 98.5237H27.9324L27.9406 98.5196H27.957L27.9611 98.5155H27.9734L27.9898 98.5114H27.9939L28.0103 98.5073H28.0267L28.0431 98.5032H28.0472L28.0636 98.4991H28.08L28.0965 98.495H28.117L28.1252 98.4909H28.1498C28.5968 98.4417 29.0602 98.5196 29.4826 98.7369C29.5277 98.7656 29.5769 98.7944 29.6302 98.819C30.1552 99.1429 30.5161 99.6433 30.6719 100.201C30.8319 100.763 30.7867 101.382 30.4997 101.936C30.4669 101.989 30.4341 102.051 30.4053 102.108L28.8141 104.946L28.81 104.95C28.7608 105.02 28.7239 105.077 28.6952 105.122C28.6747 105.155 28.6542 105.188 28.6378 105.221C28.5968 105.29 28.5558 105.352 28.523 105.418L27.3706 107.468C27.0548 107.882 26.6119 108.169 26.1279 108.309C25.5661 108.465 24.9427 108.42 24.3932 108.137C24.344 108.108 24.2948 108.079 24.2456 108.055C23.7206 107.731 23.3597 107.23 23.1998 106.672C23.044 106.111 23.0891 105.491 23.372 104.938C23.409 104.884 23.4418 104.823 23.4705 104.765L24.2128 103.445ZM32.3862 107.103H32.3903L32.3944 107.091L32.3985 107.087V107.083L32.4026 107.078V107.074H32.4067V107.07L32.4108 107.066L34.1045 104.044C34.4244 103.478 34.9493 103.092 35.5317 102.924C36.0976 102.768 36.7169 102.813 37.2664 103.096C37.3156 103.125 37.3648 103.154 37.414 103.178C37.9431 103.502 38.2999 104.003 38.4598 104.56C38.6156 105.122 38.5705 105.742 38.2876 106.295C38.2507 106.348 38.2219 106.406 38.1891 106.467L36.6512 109.215L36.643 109.223V109.227L36.6389 109.232L35.3389 111.549L35.2815 111.647V111.651L35.2774 111.655L35.2405 111.713C35.1872 111.782 35.138 111.856 35.0928 111.938L33.3991 114.957C33.0792 115.527 32.5584 115.912 31.9719 116.076C31.4101 116.236 30.7867 116.191 30.2372 115.904C30.188 115.875 30.1388 115.847 30.0896 115.822C29.5605 115.502 29.2037 114.998 29.0438 114.44C28.8798 113.853 28.9372 113.205 29.257 112.64L30.9057 109.699C31.0082 109.547 31.1066 109.391 31.1968 109.227L32.3862 107.103ZM4.8394 91.5109L4.58923 91.757L0.0944824 89.3906C0.627619 84.293 1.88664 79.5809 3.86335 75.2543C5.80724 71.0056 8.45652 67.1014 11.8112 63.5499L16.8104 66.4371C13.1891 69.3529 10.3799 72.8798 8.3827 77.0137C6.34858 81.2296 5.16748 86.0606 4.8394 91.5109ZM40.2807 111.27L40.3012 111.237L40.334 111.188L40.3709 111.126C40.416 111.061 40.4652 110.991 40.5062 110.917L42.04 108.178L42.0482 108.169C42.3107 107.702 42.7454 107.382 43.2293 107.243C43.6927 107.115 44.2013 107.148 44.6524 107.378C44.7016 107.407 44.7467 107.435 44.7959 107.46C45.2265 107.726 45.5218 108.137 45.653 108.6C45.7884 109.084 45.7433 109.621 45.4808 110.093L45.2634 110.474V110.478L42.8356 114.801L42.8151 114.838V114.842L42.7864 114.887L42.7372 114.961C42.6921 115.022 42.6511 115.088 42.6101 115.158L41.1255 117.803C41.0927 117.86 41.0599 117.913 41.0312 117.971C40.7646 118.406 40.3504 118.697 39.8911 118.828C39.4236 118.959 38.915 118.922 38.4598 118.689C38.4147 118.664 38.3696 118.635 38.3204 118.611C37.8898 118.344 37.5945 117.934 37.4632 117.475C37.3279 116.987 37.373 116.449 37.6396 115.978L38.9806 113.587L40.2807 111.27ZM48.9052 112.516L48.9175 112.492C49.2374 111.938 49.7541 111.561 50.3323 111.401C50.9188 111.233 51.5668 111.29 52.1368 111.61C52.7069 111.926 53.0924 112.451 53.2564 113.033C53.2851 113.123 53.3015 113.218 53.3179 113.312V113.32L53.3261 113.398C53.3589 113.648 53.3507 113.903 53.3015 114.149L53.2769 114.259L53.2728 114.268V114.28L53.2523 114.346V114.358L53.2482 114.366L53.2318 114.411L53.2277 114.423V114.432L53.2195 114.456L53.2154 114.464L53.2113 114.477L53.2072 114.481V114.489L53.2031 114.497L53.1949 114.522L53.1867 114.538V114.542L53.1826 114.551L53.1785 114.563V114.567L53.1703 114.583L53.1621 114.608L53.158 114.616L53.1539 114.62L53.1457 114.637L53.1375 114.661L53.1293 114.678V114.682L53.1211 114.69L53.117 114.702L53.1129 114.711L53.1088 114.723L53.1047 114.731L53.1006 114.735L53.0965 114.743L53.0924 114.756H53.0883L53.0842 114.764L53.0801 114.776L53.0759 114.784L53.0677 114.797L53.0636 114.805V114.813L53.0595 114.817L53.0513 114.829L53.0472 114.838L51.2961 117.954L51.2797 117.991L50.1396 120.021C49.8197 120.587 49.2948 120.973 48.7124 121.141C48.126 121.305 47.478 121.248 46.9121 120.932L46.9039 120.928C46.3379 120.612 45.9483 120.087 45.7843 119.505C45.6202 118.918 45.6777 118.27 45.9934 117.704V117.7L46.461 116.868L46.4692 116.859V116.855L46.4733 116.851V116.847L46.4774 116.843V116.839L48.9052 112.516ZM47.1048 34.6867L42.8192 29.421C41.4536 27.7355 38.9273 27.4771 37.2459 28.8427C35.5604 30.2084 35.2979 32.7305 36.6676 34.412L44.1316 43.586C45.4931 45.2592 47.9988 45.5299 49.6844 44.1807L49.709 44.1643C49.9591 43.9715 50.1888 43.7542 50.3857 43.5122L63.3819 27.5304C64.7516 25.849 64.4892 23.3309 62.8077 21.9612C61.1222 20.5955 58.6001 20.858 57.2303 22.5394L47.3468 34.6867C47.3099 34.7319 47.2853 34.7442 47.2238 34.7442C47.1663 34.7442 47.1417 34.7319 47.1048 34.6867Z" fill="white"/>
</g>
</svg>
