<svg width="138" height="58" viewBox="0 0 138 58" fill="none" xmlns="http://www.w3.org/2000/svg">
<g clip-path="url(#clip0_109_187)">
<path d="M105.096 31.4454C104.702 31.6383 104.327 31.8828 103.987 32.2062C103.259 32.9018 102.697 33.937 102.498 35.4722L102.085 34.9695L99.129 31.3937L97.9905 30.0134L96.9634 28.7717L78.4353 6.34175L59.9941 27.1767L57.6981 29.7743L54.5109 33.3745C54.3886 31.6519 53.3724 30.1792 51.916 29.4157L55.0679 25.8562L56.8857 23.7993L76.7805 1.31233C77.2261 0.815092 77.8647 0.521641 78.5304 0.546095C79.1988 0.559681 79.8264 0.858566 80.253 1.3721L99.1263 24.2232L100.183 25.5057L100.852 26.31L102.083 27.799L105.093 31.4481L105.096 31.4454Z" fill="#0BB501"/>
<path d="M92.1951 30.5461V45.8925C92.1951 46.6533 91.581 47.2673 90.8202 47.2673H81.9542V34.9805C81.9542 34.774 81.7885 34.6055 81.5792 34.6055H75.4412C75.2347 34.6055 75.0663 34.7712 75.0663 34.9805V47.2673H64.9667C64.2059 47.2673 63.5918 46.6533 63.5918 45.8925V30.5705C63.5918 30.239 63.7168 29.9157 63.9369 29.6603L64.9667 28.4974L77.3188 14.5367C77.8758 13.9063 78.8675 13.9226 79.4028 14.5748L90.9045 28.4974L91.8718 29.6684C92.0755 29.9184 92.1869 30.2255 92.1869 30.5434L92.1951 30.5461Z" fill="#0BB501"/>
<path d="M137.58 23.1663L129.189 44.7566C128.532 46.4494 126.904 47.5634 125.086 47.5634H123.554C121.739 47.5634 120.109 46.4494 119.451 44.7566L111.061 23.1663H119.386L124.342 38.7572L129.298 23.1663H137.574H137.58Z" fill="#0BB501"/>
<path d="M15.0697 23.006V31.1384C15.0697 31.1384 7.64921 29.1114 7.61932 36.714C7.58943 44.3165 7.61932 47.2646 7.61932 47.2646H0.016772V36.9232C0.016772 36.9232 -1.10812 23.0033 15.067 23.0033L15.0697 23.006Z" fill="#0BB501"/>
<path d="M109.867 23.006V31.1411C109.867 31.1411 107.229 30.421 105.093 31.4481C104.699 31.6383 104.324 31.8856 103.985 32.2089C103.256 32.9018 102.694 33.9397 102.496 35.4722C102.444 35.8526 102.417 36.2683 102.414 36.7167C102.414 36.9748 102.411 37.2248 102.411 37.4747C102.387 44.5148 102.414 47.2673 102.414 47.2673H94.8115V36.9259C94.8115 36.9259 94.5343 33.4751 96.2488 30.0135C96.4553 29.5978 96.689 29.182 96.958 28.769C97.5177 27.9077 98.2269 27.0681 99.1154 26.31C99.4442 26.0302 99.8001 25.7584 100.183 25.503C102.39 24.0195 105.498 23.006 109.867 23.006Z" fill="#0BB501"/>
<path d="M27.6356 42.5558C23.8207 41.9716 22.7692 38.4937 22.7692 38.4937C37.7977 33.5485 35.2273 23.6364 35.2273 23.6364C34.0127 23.0169 25.7771 21.0225 20.6879 25.2178C15.5987 29.413 15.4574 36.1841 16.6964 40.0099C20.6879 52.0739 35.0996 46.6152 35.0996 46.6152V40.9364C34.3768 41.488 31.4559 43.1373 27.6356 42.5558ZM25.0244 28.3642C26.6737 27.0056 29.3392 27.6523 29.7332 27.8507C29.7332 27.8507 30.7739 31.8612 23.7311 33.1545C23.3316 31.9155 23.3751 29.7228 25.0244 28.3642Z" fill="#0BB501"/>
<path d="M59.994 27.1767C59.1816 25.8616 58.1246 24.715 56.8856 23.7993C54.864 22.2995 52.3615 21.4137 49.6553 21.4137C43.308 21.4137 38.0966 26.2801 37.5477 32.486C37.5124 32.8447 37.4961 33.2061 37.4961 33.5756V55.9947C37.4961 55.9947 42.2429 56.2012 43.6232 50.8376V44.129C45.4002 45.1479 47.4598 45.7294 49.658 45.7294C56.372 45.7294 61.8172 40.2869 61.8172 33.5729C61.8172 31.2253 61.1542 29.0353 59.9967 27.1767H59.994ZM49.6553 38.5969C46.9653 38.5969 44.7862 36.4177 44.7862 33.7278C44.7862 31.0378 46.9653 28.8587 49.6553 28.8587C50.4731 28.8587 51.2421 29.0597 51.9187 29.4157C53.3723 30.1792 54.3885 31.6546 54.5135 33.3745C54.5244 33.4914 54.5271 33.6082 54.5271 33.7278C54.5271 36.4177 52.348 38.5969 49.658 38.5969H49.6553Z" fill="#0BB501"/>
<path d="M78.0284 24.8944H76.1562V26.7665H78.0284V24.8944Z" fill="black"/>
<path d="M78.0284 27.3235H76.1562V29.1956H78.0284V27.3235Z" fill="black"/>
<path d="M80.3838 24.8944H78.5117V26.7665H80.3838V24.8944Z" fill="black"/>
<path d="M80.3838 27.3235H78.5117V29.1956H80.3838V27.3235Z" fill="black"/>
<path d="M49.6167 51.0496V50.5149H53.35V51.0496H51.7848V55.4927H51.182V51.0496H49.6167ZM53.8149 55.4927V51.7593H54.369V52.3232H54.4079C54.476 52.1385 54.5991 51.9886 54.7774 51.8736C54.9556 51.7585 55.1566 51.701 55.3802 51.701C55.4223 51.701 55.475 51.7018 55.5382 51.7034C55.6013 51.705 55.6491 51.7075 55.6816 51.7107V52.2941C55.6621 52.2892 55.6175 52.2819 55.5479 52.2722C55.4798 52.2608 55.4077 52.2552 55.3316 52.2552C55.1501 52.2552 54.988 52.2932 54.8454 52.3694C54.7045 52.4439 54.5927 52.5476 54.51 52.6805C54.429 52.8118 54.3885 52.9616 54.3885 53.1302V55.4927H53.8149ZM58.7143 53.9663V51.7593H59.2879V55.4927H58.7143V54.8607H58.6754C58.5879 55.0503 58.4518 55.2115 58.2671 55.3444C58.0823 55.4757 57.849 55.5413 57.5671 55.5413C57.3337 55.5413 57.1263 55.4902 56.9448 55.3882C56.7634 55.2845 56.6208 55.1289 56.5171 54.9215C56.4134 54.7125 56.3615 54.4492 56.3615 54.1316V51.7593H56.9351V54.0927C56.9351 54.3649 57.0113 54.582 57.1636 54.7441C57.3175 54.9061 57.5136 54.9871 57.7518 54.9871C57.8944 54.9871 58.0394 54.9507 58.1869 54.8777C58.3359 54.8048 58.4607 54.693 58.5612 54.5423C58.6632 54.3916 58.7143 54.1996 58.7143 53.9663ZM61.9621 51.7593V52.2454H60.0274V51.7593H61.9621ZM60.5913 50.8649H61.1649V54.4232C61.1649 54.5853 61.1884 54.7068 61.2354 54.7878C61.284 54.8672 61.3456 54.9207 61.4201 54.9482C61.4963 54.9742 61.5765 54.9871 61.6607 54.9871C61.7239 54.9871 61.7758 54.9839 61.8163 54.9774C61.8568 54.9693 61.8892 54.9628 61.9135 54.958L62.0302 55.4732C61.9913 55.4878 61.937 55.5024 61.8673 55.517C61.7977 55.5332 61.7094 55.5413 61.6024 55.5413C61.4404 55.5413 61.2816 55.5064 61.126 55.4368C60.9721 55.3671 60.8441 55.261 60.742 55.1184C60.6415 54.9758 60.5913 54.7959 60.5913 54.5788V50.8649ZM63.4788 53.2468V55.4927H62.9052V50.5149H63.4788V52.3427H63.5274C63.6149 52.1498 63.7462 51.9967 63.9212 51.8833C64.0978 51.7682 64.3327 51.7107 64.626 51.7107C64.8804 51.7107 65.1032 51.7618 65.2944 51.8638C65.4856 51.9643 65.6339 52.1191 65.7392 52.3281C65.8462 52.5355 65.8996 52.7996 65.8996 53.1204V55.4927H65.326V53.1593C65.326 52.8628 65.2491 52.6335 65.0951 52.4715C64.9428 52.3078 64.7314 52.226 64.4607 52.226C64.2728 52.226 64.1043 52.2657 63.9552 52.3451C63.8077 52.4245 63.6911 52.5404 63.6052 52.6927C63.5209 52.845 63.4788 53.0297 63.4788 53.2468ZM67.3671 55.5316C67.2472 55.5316 67.1443 55.4886 67.0584 55.4027C66.9725 55.3169 66.9296 55.214 66.9296 55.0941C66.9296 54.9742 66.9725 54.8713 67.0584 54.7854C67.1443 54.6995 67.2472 54.6566 67.3671 54.6566C67.487 54.6566 67.5899 54.6995 67.6758 54.7854C67.7617 54.8713 67.8046 54.9742 67.8046 55.0941C67.8046 55.1735 67.7843 55.2464 67.7438 55.3128C67.7049 55.3792 67.6523 55.4327 67.5858 55.4732C67.521 55.5121 67.4481 55.5316 67.3671 55.5316ZM68.4056 51.0496V50.5149H72.1389V51.0496H70.5736V55.4927H69.9708V51.0496H68.4056ZM72.6037 55.4927V51.7593H73.1579V52.3232H73.1968C73.2649 52.1385 73.388 51.9886 73.5662 51.8736C73.7445 51.7585 73.9454 51.701 74.169 51.701C74.2112 51.701 74.2638 51.7018 74.327 51.7034C74.3902 51.705 74.438 51.7075 74.4704 51.7107V52.2941C74.451 52.2892 74.4064 52.2819 74.3367 52.2722C74.2687 52.2608 74.1966 52.2552 74.1204 52.2552C73.9389 52.2552 73.7769 52.2932 73.6343 52.3694C73.4933 52.4439 73.3815 52.5476 73.2989 52.6805C73.2179 52.8118 73.1774 52.9616 73.1774 53.1302V55.4927H72.6037ZM77.5032 53.9663V51.7593H78.0768V55.4927H77.5032V54.8607H77.4643C77.3768 55.0503 77.2407 55.2115 77.0559 55.3444C76.8712 55.4757 76.6379 55.5413 76.3559 55.5413C76.1226 55.5413 75.9152 55.4902 75.7337 55.3882C75.5522 55.2845 75.4096 55.1289 75.3059 54.9215C75.2022 54.7125 75.1504 54.4492 75.1504 54.1316V51.7593H75.724V54.0927C75.724 54.3649 75.8001 54.582 75.9525 54.7441C76.1064 54.9061 76.3025 54.9871 76.5407 54.9871C76.6832 54.9871 76.8283 54.9507 76.9757 54.8777C77.1248 54.8048 77.2496 54.693 77.35 54.5423C77.4521 54.3916 77.5032 54.1996 77.5032 53.9663ZM81.7718 52.5954L81.2566 52.7413C81.2241 52.6554 81.1763 52.5719 81.1131 52.4909C81.0516 52.4083 80.9673 52.3402 80.8604 52.2868C80.7534 52.2333 80.6165 52.2066 80.4496 52.2066C80.2211 52.2066 80.0307 52.2592 79.8784 52.3645C79.7277 52.4682 79.6524 52.6003 79.6524 52.7607C79.6524 52.9033 79.7042 53.0159 79.8079 53.0986C79.9116 53.1812 80.0737 53.2501 80.294 53.3052L80.8482 53.4413C81.182 53.5223 81.4307 53.6463 81.5944 53.8132C81.7581 53.9784 81.8399 54.1915 81.8399 54.4524C81.8399 54.6663 81.7783 54.8575 81.6552 55.026C81.5336 55.1945 81.3635 55.3274 81.1447 55.4246C80.926 55.5218 80.6716 55.5705 80.3815 55.5705C80.0008 55.5705 79.6856 55.4878 79.4361 55.3225C79.1865 55.1573 79.0285 54.9158 78.9621 54.5982L79.5065 54.4621C79.5584 54.663 79.6564 54.8137 79.8006 54.9142C79.9465 55.0147 80.1369 55.0649 80.3718 55.0649C80.6392 55.0649 80.8515 55.0082 81.0086 54.8948C81.1674 54.7797 81.2468 54.642 81.2468 54.4816C81.2468 54.3519 81.2015 54.2434 81.1107 54.1559C81.02 54.0667 80.8806 54.0003 80.6927 53.9566L80.0704 53.8107C79.7285 53.7297 79.4774 53.6041 79.317 53.434C79.1582 53.2622 79.0788 53.0475 79.0788 52.7899C79.0788 52.5792 79.1379 52.3929 79.2562 52.2309C79.3761 52.0688 79.539 51.9416 79.7447 51.8493C79.9522 51.7569 80.1871 51.7107 80.4496 51.7107C80.8191 51.7107 81.1091 51.7917 81.3197 51.9538C81.532 52.1158 81.6827 52.3297 81.7718 52.5954ZM84.327 51.7593V52.2454H82.3922V51.7593H84.327ZM82.9561 50.8649H83.5297V54.4232C83.5297 54.5853 83.5532 54.7068 83.6002 54.7878C83.6488 54.8672 83.7104 54.9207 83.7849 54.9482C83.8611 54.9742 83.9413 54.9871 84.0256 54.9871C84.0888 54.9871 84.1406 54.9839 84.1811 54.9774C84.2216 54.9693 84.254 54.9628 84.2784 54.958L84.395 55.4732C84.3561 55.4878 84.3018 55.5024 84.2322 55.517C84.1625 55.5332 84.0742 55.5413 83.9672 55.5413C83.8052 55.5413 83.6464 55.5064 83.4908 55.4368C83.3369 55.3671 83.2089 55.261 83.1068 55.1184C83.0064 54.9758 82.9561 54.7959 82.9561 54.5788V50.8649ZM85.6079 55.5316C85.488 55.5316 85.3851 55.4886 85.2992 55.4027C85.2133 55.3169 85.1704 55.214 85.1704 55.0941C85.1704 54.9742 85.2133 54.8713 85.2992 54.7854C85.3851 54.6995 85.488 54.6566 85.6079 54.6566C85.7278 54.6566 85.8307 54.6995 85.9166 54.7854C86.0024 54.8713 86.0454 54.9742 86.0454 55.0941C86.0454 55.1735 86.0251 55.2464 85.9846 55.3128C85.9457 55.3792 85.8931 55.4327 85.8266 55.4732C85.7618 55.5121 85.6889 55.5316 85.6079 55.5316ZM86.6463 51.0496V50.5149H90.3797V51.0496H88.8144V55.4927H88.2116V51.0496H86.6463ZM90.8445 55.4927V51.7593H91.3987V52.3232H91.4376C91.5056 52.1385 91.6288 51.9886 91.807 51.8736C91.9853 51.7585 92.1862 51.701 92.4098 51.701C92.4519 51.701 92.5046 51.7018 92.5678 51.7034C92.631 51.705 92.6788 51.7075 92.7112 51.7107V52.2941C92.6917 52.2892 92.6472 52.2819 92.5775 52.2722C92.5095 52.2608 92.4373 52.2552 92.3612 52.2552C92.1797 52.2552 92.0177 52.2932 91.8751 52.3694C91.7341 52.4439 91.6223 52.5476 91.5397 52.6805C91.4586 52.8118 91.4181 52.9616 91.4181 53.1302V55.4927H90.8445ZM94.4898 55.5802C94.2532 55.5802 94.0385 55.5356 93.8457 55.4465C93.6528 55.3558 93.4997 55.2253 93.3863 55.0552C93.2729 54.8834 93.2161 54.676 93.2161 54.433C93.2161 54.2191 93.2583 54.0457 93.3425 53.9128C93.4268 53.7783 93.5394 53.673 93.6804 53.5968C93.8213 53.5207 93.9769 53.464 94.147 53.4267C94.3188 53.3878 94.4914 53.357 94.6648 53.3343C94.8916 53.3052 95.0755 53.2833 95.2165 53.2687C95.3591 53.2525 95.4628 53.2258 95.5276 53.1885C95.594 53.1512 95.6273 53.0864 95.6273 52.9941V52.9746C95.6273 52.7348 95.5616 52.5485 95.4304 52.4156C95.3008 52.2827 95.1039 52.2163 94.8398 52.2163C94.5659 52.2163 94.3512 52.2762 94.1957 52.3961C94.0401 52.516 93.9307 52.6441 93.8675 52.7802L93.3231 52.5857C93.4203 52.3589 93.5499 52.1822 93.712 52.0559C93.8756 51.9278 94.0539 51.8387 94.2467 51.7885C94.4411 51.7366 94.6323 51.7107 94.8203 51.7107C94.9402 51.7107 95.078 51.7253 95.2335 51.7545C95.3907 51.782 95.5422 51.8395 95.688 51.927C95.8355 52.0145 95.9578 52.1466 96.055 52.3232C96.1523 52.4998 96.2009 52.7364 96.2009 53.0329V55.4927H95.6273V54.9871H95.5981C95.5592 55.0681 95.4944 55.1548 95.4036 55.2472C95.3129 55.3396 95.1922 55.4181 95.0415 55.483C94.8908 55.5478 94.7069 55.5802 94.4898 55.5802ZM94.5773 55.0649C94.8041 55.0649 94.9953 55.0203 95.1509 54.9312C95.308 54.8421 95.4263 54.727 95.5057 54.5861C95.5867 54.4451 95.6273 54.2968 95.6273 54.1413V53.6163C95.603 53.6454 95.5495 53.6722 95.4668 53.6965C95.3858 53.7192 95.2918 53.7394 95.1849 53.7573C95.0796 53.7735 94.9767 53.788 94.8762 53.801C94.7774 53.8123 94.6972 53.8221 94.6356 53.8302C94.4865 53.8496 94.3472 53.8812 94.2175 53.925C94.0895 53.9671 93.9858 54.0311 93.9064 54.117C93.8286 54.2012 93.7898 54.3163 93.7898 54.4621C93.7898 54.6614 93.8635 54.8121 94.0109 54.9142C94.16 55.0147 94.3488 55.0649 94.5773 55.0649ZM97.8215 53.2468V55.4927H97.2478V51.7593H97.802V52.3427H97.8506C97.9381 52.1531 98.071 52.0008 98.2492 51.8857C98.4275 51.7691 98.6576 51.7107 98.9395 51.7107C99.1923 51.7107 99.4135 51.7626 99.6031 51.8663C99.7926 51.9684 99.9401 52.1239 100.045 52.3329C100.151 52.5404 100.203 52.8029 100.203 53.1204V55.4927H99.6298V53.1593C99.6298 52.866 99.5536 52.6376 99.4013 52.4739C99.249 52.3086 99.04 52.226 98.7742 52.226C98.5911 52.226 98.4275 52.2657 98.2833 52.3451C98.1407 52.4245 98.028 52.5404 97.9454 52.6927C97.8628 52.845 97.8215 53.0297 97.8215 53.2468ZM103.896 52.5954L103.381 52.7413C103.348 52.6554 103.301 52.5719 103.237 52.4909C103.176 52.4083 103.092 52.3402 102.985 52.2868C102.878 52.2333 102.741 52.2066 102.574 52.2066C102.345 52.2066 102.155 52.2592 102.003 52.3645C101.852 52.4682 101.777 52.6003 101.777 52.7607C101.777 52.9033 101.828 53.0159 101.932 53.0986C102.036 53.1812 102.198 53.2501 102.418 53.3052L102.972 53.4413C103.306 53.5223 103.555 53.6463 103.719 53.8132C103.882 53.9784 103.964 54.1915 103.964 54.4524C103.964 54.6663 103.903 54.8575 103.779 55.026C103.658 55.1945 103.488 55.3274 103.269 55.4246C103.05 55.5218 102.796 55.5705 102.506 55.5705C102.125 55.5705 101.81 55.4878 101.56 55.3225C101.311 55.1573 101.153 54.9158 101.086 54.5982L101.631 54.4621C101.683 54.663 101.781 54.8137 101.925 54.9142C102.071 55.0147 102.261 55.0649 102.496 55.0649C102.763 55.0649 102.976 55.0082 103.133 54.8948C103.292 54.7797 103.371 54.642 103.371 54.4816C103.371 54.3519 103.326 54.2434 103.235 54.1559C103.144 54.0667 103.005 54.0003 102.817 53.9566L102.195 53.8107C101.853 53.7297 101.602 53.6041 101.441 53.434C101.282 53.2622 101.203 53.0475 101.203 52.7899C101.203 52.5792 101.262 52.3929 101.38 52.2309C101.5 52.0688 101.663 51.9416 101.869 51.8493C102.076 51.7569 102.311 51.7107 102.574 51.7107C102.943 51.7107 103.233 51.7917 103.444 51.9538C103.656 52.1158 103.807 52.3297 103.896 52.5954ZM104.828 56.8927V51.7593H105.382V52.3524H105.45C105.492 52.2876 105.55 52.2049 105.625 52.1045C105.701 52.0024 105.809 51.9116 105.95 51.8322C106.093 51.7512 106.286 51.7107 106.529 51.7107C106.843 51.7107 107.12 51.7893 107.36 51.9465C107.6 52.1037 107.787 52.3265 107.922 52.6149C108.056 52.9033 108.123 53.2436 108.123 53.6357C108.123 54.0311 108.056 54.3738 107.922 54.6639C107.787 54.9523 107.601 55.1759 107.363 55.3347C107.124 55.4919 106.85 55.5705 106.539 55.5705C106.299 55.5705 106.107 55.5308 105.963 55.4514C105.818 55.3703 105.707 55.2788 105.63 55.1767C105.552 55.073 105.492 54.9871 105.45 54.9191H105.401V56.8927H104.828ZM105.391 53.626C105.391 53.9079 105.433 54.1567 105.515 54.3722C105.598 54.5861 105.719 54.7538 105.878 54.8753C106.036 54.9952 106.231 55.0552 106.461 55.0552C106.701 55.0552 106.901 54.992 107.061 54.8656C107.223 54.7376 107.345 54.5658 107.426 54.3503C107.508 54.1332 107.55 53.8917 107.55 53.626C107.55 53.3635 107.509 53.1269 107.428 52.9163C107.349 52.704 107.228 52.5363 107.066 52.4132C106.906 52.2884 106.704 52.226 106.461 52.226C106.228 52.226 106.031 52.2851 105.873 52.4034C105.714 52.5201 105.594 52.6838 105.513 52.8944C105.432 53.1034 105.391 53.3473 105.391 53.626ZM110.097 55.5802C109.86 55.5802 109.646 55.5356 109.453 55.4465C109.26 55.3558 109.107 55.2253 108.994 55.0552C108.88 54.8834 108.823 54.676 108.823 54.433C108.823 54.2191 108.866 54.0457 108.95 53.9128C109.034 53.7783 109.147 53.673 109.288 53.5968C109.429 53.5207 109.584 53.464 109.754 53.4267C109.926 53.3878 110.099 53.357 110.272 53.3343C110.499 53.3052 110.683 53.2833 110.824 53.2687C110.966 53.2525 111.07 53.2258 111.135 53.1885C111.201 53.1512 111.235 53.0864 111.235 52.9941V52.9746C111.235 52.7348 111.169 52.5485 111.038 52.4156C110.908 52.2827 110.711 52.2163 110.447 52.2163C110.173 52.2163 109.958 52.2762 109.803 52.3961C109.647 52.516 109.538 52.6441 109.475 52.7802L108.93 52.5857C109.028 52.3589 109.157 52.1822 109.319 52.0559C109.483 51.9278 109.661 51.8387 109.854 51.7885C110.048 51.7366 110.24 51.7107 110.428 51.7107C110.547 51.7107 110.685 51.7253 110.841 51.7545C110.998 51.782 111.149 51.8395 111.295 51.927C111.443 52.0145 111.565 52.1466 111.662 52.3232C111.76 52.4998 111.808 52.7364 111.808 53.0329V55.4927H111.235V54.9871H111.205C111.166 55.0681 111.102 55.1548 111.011 55.2472C110.92 55.3396 110.799 55.4181 110.649 55.483C110.498 55.5478 110.314 55.5802 110.097 55.5802ZM110.185 55.0649C110.411 55.0649 110.603 55.0203 110.758 54.9312C110.915 54.8421 111.034 54.727 111.113 54.5861C111.194 54.4451 111.235 54.2968 111.235 54.1413V53.6163C111.21 53.6454 111.157 53.6722 111.074 53.6965C110.993 53.7192 110.899 53.7394 110.792 53.7573C110.687 53.7735 110.584 53.788 110.483 53.801C110.385 53.8123 110.304 53.8221 110.243 53.8302C110.094 53.8496 109.954 53.8812 109.825 53.925C109.697 53.9671 109.593 54.0311 109.514 54.117C109.436 54.2012 109.397 54.3163 109.397 54.4621C109.397 54.6614 109.471 54.8121 109.618 54.9142C109.767 55.0147 109.956 55.0649 110.185 55.0649ZM112.855 55.4927V51.7593H113.409V52.3232H113.448C113.516 52.1385 113.639 51.9886 113.818 51.8736C113.996 51.7585 114.197 51.701 114.42 51.701C114.463 51.701 114.515 51.7018 114.578 51.7034C114.642 51.705 114.689 51.7075 114.722 51.7107V52.2941C114.702 52.2892 114.658 52.2819 114.588 52.2722C114.52 52.2608 114.448 52.2552 114.372 52.2552C114.19 52.2552 114.028 52.2932 113.886 52.3694C113.745 52.4439 113.633 52.5476 113.55 52.6805C113.469 52.8118 113.429 52.9616 113.429 53.1302V55.4927H112.855ZM116.853 55.5705C116.494 55.5705 116.183 55.4911 115.922 55.3323C115.663 55.1718 115.463 54.9482 115.322 54.6614C115.183 54.373 115.113 54.0376 115.113 53.6552C115.113 53.2728 115.183 52.9357 115.322 52.6441C115.463 52.3508 115.659 52.1223 115.91 51.9586C116.163 51.7934 116.458 51.7107 116.795 51.7107C116.989 51.7107 117.181 51.7431 117.371 51.8079C117.561 51.8728 117.733 51.9781 117.889 52.1239C118.044 52.2681 118.168 52.4593 118.261 52.6975C118.353 52.9357 118.399 53.229 118.399 53.5774V53.8204H115.521V53.3246H117.816C117.816 53.114 117.774 52.926 117.689 52.7607C117.607 52.5954 117.489 52.465 117.335 52.3694C117.182 52.2738 117.002 52.226 116.795 52.226C116.567 52.226 116.369 52.2827 116.202 52.3961C116.037 52.5079 115.91 52.6538 115.82 52.8336C115.731 53.0135 115.687 53.2063 115.687 53.4121V53.7427C115.687 54.0246 115.735 54.2636 115.833 54.4597C115.931 54.6541 116.068 54.8024 116.243 54.9045C116.418 55.0049 116.622 55.0552 116.853 55.0552C117.004 55.0552 117.14 55.0341 117.262 54.992C117.385 54.9482 117.491 54.8834 117.58 54.7975C117.669 54.71 117.738 54.6015 117.787 54.4718L118.341 54.6274C118.283 54.8154 118.185 54.9806 118.047 55.1232C117.909 55.2642 117.739 55.3744 117.536 55.4538C117.334 55.5316 117.106 55.5705 116.853 55.5705ZM119.845 53.2468V55.4927H119.272V51.7593H119.826V52.3427H119.875C119.962 52.1531 120.095 52.0008 120.273 51.8857C120.451 51.7691 120.682 51.7107 120.963 51.7107C121.216 51.7107 121.437 51.7626 121.627 51.8663C121.817 51.9684 121.964 52.1239 122.069 52.3329C122.175 52.5404 122.227 52.8029 122.227 53.1204V55.4927H121.654V53.1593C121.654 52.866 121.578 52.6376 121.425 52.4739C121.273 52.3086 121.064 52.226 120.798 52.226C120.615 52.226 120.451 52.2657 120.307 52.3451C120.165 52.4245 120.052 52.5404 119.969 52.6927C119.887 52.845 119.845 53.0297 119.845 53.2468ZM124.792 55.5705C124.442 55.5705 124.141 55.4878 123.888 55.3225C123.635 55.1573 123.441 54.9296 123.305 54.6395C123.169 54.3495 123.101 54.0181 123.101 53.6454C123.101 53.2663 123.17 52.9317 123.31 52.6416C123.451 52.35 123.647 52.1223 123.898 51.9586C124.151 51.7934 124.445 51.7107 124.782 51.7107C125.045 51.7107 125.282 51.7593 125.492 51.8566C125.703 51.9538 125.875 52.0899 126.01 52.2649C126.144 52.4399 126.228 52.6441 126.26 52.8774H125.687C125.643 52.7072 125.546 52.5566 125.395 52.4253C125.246 52.2924 125.045 52.226 124.792 52.226C124.569 52.226 124.373 52.2843 124.204 52.401C124.037 52.516 123.907 52.6789 123.813 52.8895C123.72 53.0986 123.674 53.3441 123.674 53.626C123.674 53.9144 123.72 54.1656 123.81 54.3795C123.903 54.5934 124.032 54.7595 124.199 54.8777C124.368 54.996 124.565 55.0552 124.792 55.0552C124.941 55.0552 125.077 55.0292 125.198 54.9774C125.32 54.9255 125.423 54.851 125.507 54.7538C125.591 54.6566 125.651 54.5399 125.687 54.4038H126.26C126.228 54.6242 126.148 54.8227 126.02 54.9993C125.893 55.1743 125.726 55.3136 125.517 55.4173C125.309 55.5194 125.068 55.5705 124.792 55.5705ZM127.468 56.8927C127.371 56.8927 127.284 56.8846 127.208 56.8684C127.132 56.8538 127.079 56.8392 127.05 56.8246L127.196 56.3191C127.335 56.3547 127.459 56.3677 127.565 56.358C127.672 56.3482 127.767 56.3004 127.85 56.2146C127.934 56.1303 128.011 55.9934 128.081 55.8038L128.188 55.5121L126.807 51.7593H127.429L128.46 54.7343H128.499L129.529 51.7593H130.152L128.567 56.0371C128.496 56.2299 128.407 56.3896 128.302 56.5159C128.197 56.644 128.074 56.7387 127.935 56.8003C127.797 56.8619 127.642 56.8927 127.468 56.8927Z" fill="white"/>
</g>
<defs>
<clipPath id="clip0_109_187">
<rect width="137.579" height="58" fill="white"/>
</clipPath>
</defs>
</svg>
