<svg width="135" height="28" viewBox="0 0 135 28" fill="none" xmlns="http://www.w3.org/2000/svg">
<rect width="134.897" height="28" rx="6" fill="#5E23DC" fill-opacity="0.28"/>
<g clip-path="url(#clip0_7_456)">
<path d="M22.3596 14.0001L21.0484 12.5062L21.2311 10.5286L19.2912 10.088L18.2755 8.37915L16.4485 9.16371L14.6214 8.37915L13.6058 10.088L11.6659 10.5233L11.8486 12.5008L10.5374 14.0001L11.8486 15.4939L11.6659 17.4768L13.6058 17.9175L14.6214 19.6263L16.4485 18.8364L18.2755 19.621L19.2912 17.9121L21.2311 17.4715L21.0484 15.4939L22.3596 14.0001ZM15.3737 16.6869L13.2242 14.5374L13.9819 13.7797L15.3737 15.1662L18.915 11.6249L19.6727 12.3879L15.3737 16.6869Z" fill="#5E23DC"/>
</g>
<path d="M27.7577 18.5V9.77273H31.0304C31.7009 9.77273 32.2634 9.8892 32.7179 10.1222C33.1753 10.3551 33.5205 10.6818 33.7534 11.1023C33.9892 11.5199 34.1071 12.0071 34.1071 12.5639C34.1071 13.1236 33.9878 13.6094 33.7492 14.0213C33.5134 14.4304 33.1654 14.7472 32.7052 14.9716C32.2449 15.1932 31.6796 15.304 31.0091 15.304H28.6782V13.9915H30.7961C31.1881 13.9915 31.5091 13.9375 31.7591 13.8295C32.0091 13.7187 32.1938 13.5582 32.3131 13.348C32.4353 13.1349 32.4963 12.8736 32.4963 12.5639C32.4963 12.2543 32.4353 11.9901 32.3131 11.7713C32.1909 11.5497 32.0049 11.3821 31.7549 11.2685C31.5049 11.152 31.1824 11.0938 30.7875 11.0938H29.3387V18.5H27.7577ZM32.2662 14.5455L34.4267 18.5H32.6625L30.5404 14.5455H32.2662ZM35.5624 18.5V9.77273H41.2385V11.098H37.1434V13.4673H40.9445V14.7926H37.1434V17.1747H41.2726V18.5H35.5624ZM42.8515 18.5V9.77273H46.1242C46.7946 9.77273 47.3571 9.89773 47.8117 10.1477C48.2691 10.3977 48.6142 10.7415 48.8472 11.179C49.083 11.6136 49.2009 12.108 49.2009 12.6619C49.2009 13.2216 49.083 13.7187 48.8472 14.1534C48.6114 14.5881 48.2634 14.9304 47.8032 15.1804C47.3429 15.4276 46.7762 15.5511 46.1029 15.5511H43.9338V14.2514H45.8898C46.2819 14.2514 46.6029 14.1832 46.8529 14.0469C47.1029 13.9105 47.2875 13.723 47.4069 13.4844C47.529 13.2457 47.5901 12.9716 47.5901 12.6619C47.5901 12.3523 47.529 12.0795 47.4069 11.8438C47.2875 11.608 47.1015 11.4247 46.8486 11.294C46.5986 11.1605 46.2762 11.0938 45.8813 11.0938H44.4324V18.5H42.8515ZM50.7222 18.5H49.0347L52.1071 9.77273H54.0588L57.1355 18.5H55.448L53.1171 11.5625H53.0489L50.7222 18.5ZM50.7776 15.0781H55.3799V16.348H50.7776V15.0781ZM58.2851 18.5V9.77273H61.5578C62.2282 9.77273 62.7907 9.8892 63.2453 10.1222C63.7027 10.3551 64.0478 10.6818 64.2808 11.1023C64.5166 11.5199 64.6345 12.0071 64.6345 12.5639C64.6345 13.1236 64.5152 13.6094 64.2765 14.0213C64.0407 14.4304 63.6927 14.7472 63.2325 14.9716C62.7723 15.1932 62.2069 15.304 61.5365 15.304H59.2055V13.9915H61.3234C61.7154 13.9915 62.0365 13.9375 62.2865 13.8295C62.5365 13.7187 62.7211 13.5582 62.8404 13.348C62.9626 13.1349 63.0237 12.8736 63.0237 12.5639C63.0237 12.2543 62.9626 11.9901 62.8404 11.7713C62.7183 11.5497 62.5322 11.3821 62.2822 11.2685C62.0322 11.152 61.7098 11.0938 61.3149 11.0938H59.866V18.5H58.2851ZM62.7936 14.5455L64.9541 18.5H63.1899L61.0677 14.5455H62.7936ZM67.0347 9.77273L69.306 16.642H69.3955L71.6625 9.77273H73.4012L70.3245 18.5H68.3728L65.3003 9.77273H67.0347ZM78.648 18.5H76.9605L80.0329 9.77273H81.9846L85.0613 18.5H83.3738L81.0429 11.5625H80.9747L78.648 18.5ZM78.7034 15.0781H83.3056V16.348H78.7034V15.0781ZM91.2105 13.6847L89.8042 13.8381C89.7645 13.696 89.6949 13.5625 89.5954 13.4375C89.4988 13.3125 89.3681 13.2116 89.2034 13.1349C89.0386 13.0582 88.8369 13.0199 88.5983 13.0199C88.2772 13.0199 88.0074 13.0895 87.7886 13.2287C87.5727 13.3679 87.4662 13.5483 87.469 13.7699C87.4662 13.9602 87.5358 14.1151 87.6778 14.2344C87.8227 14.3537 88.0613 14.4517 88.3937 14.5284L89.5102 14.767C90.1295 14.9006 90.5897 15.1122 90.8909 15.402C91.1949 15.6918 91.3483 16.071 91.3511 16.5398C91.3483 16.9517 91.2275 17.3153 90.9889 17.6307C90.7531 17.9432 90.425 18.1875 90.0045 18.3636C89.5841 18.5398 89.1011 18.6278 88.5556 18.6278C87.7545 18.6278 87.1096 18.4602 86.621 18.125C86.1324 17.7869 85.8412 17.3168 85.7474 16.7145L87.2517 16.5696C87.3199 16.8651 87.4647 17.0881 87.6863 17.2386C87.9079 17.3892 88.1963 17.4645 88.5514 17.4645C88.9179 17.4645 89.2119 17.3892 89.4335 17.2386C89.6579 17.0881 89.7701 16.902 89.7701 16.6804C89.7701 16.4929 89.6977 16.3381 89.5528 16.2159C89.4108 16.0937 89.1892 16 88.888 15.9347L87.7716 15.7003C87.1437 15.5696 86.6792 15.3494 86.3781 15.0398C86.077 14.7273 85.9278 14.3324 85.9306 13.8551C85.9278 13.4517 86.0372 13.1023 86.2588 12.8068C86.4832 12.5085 86.7943 12.2784 87.192 12.1165C87.5926 11.9517 88.0542 11.8693 88.577 11.8693C89.344 11.8693 89.9477 12.0327 90.388 12.3594C90.8312 12.6861 91.1054 13.1278 91.2105 13.6847ZM97.7964 13.6847L96.3902 13.8381C96.3504 13.696 96.2808 13.5625 96.1814 13.4375C96.0848 13.3125 95.9541 13.2116 95.7893 13.1349C95.6245 13.0582 95.4228 13.0199 95.1842 13.0199C94.8632 13.0199 94.5933 13.0895 94.3745 13.2287C94.1586 13.3679 94.0521 13.5483 94.0549 13.7699C94.0521 13.9602 94.1217 14.1151 94.2637 14.2344C94.4086 14.3537 94.6473 14.4517 94.9797 14.5284L96.0961 14.767C96.7154 14.9006 97.1757 15.1122 97.4768 15.402C97.7808 15.6918 97.9342 16.071 97.937 16.5398C97.9342 16.9517 97.8135 17.3153 97.5748 17.6307C97.339 17.9432 97.0109 18.1875 96.5904 18.3636C96.17 18.5398 95.687 18.6278 95.1416 18.6278C94.3404 18.6278 93.6956 18.4602 93.2069 18.125C92.7183 17.7869 92.4271 17.3168 92.3333 16.7145L93.8376 16.5696C93.9058 16.8651 94.0507 17.0881 94.2723 17.2386C94.4939 17.3892 94.7822 17.4645 95.1373 17.4645C95.5038 17.4645 95.7978 17.3892 96.0194 17.2386C96.2439 17.0881 96.3561 16.902 96.3561 16.6804C96.3561 16.4929 96.2836 16.3381 96.1387 16.2159C95.9967 16.0937 95.7751 16 95.474 15.9347L94.3575 15.7003C93.7297 15.5696 93.2652 15.3494 92.964 15.0398C92.6629 14.7273 92.5137 14.3324 92.5166 13.8551C92.5137 13.4517 92.6231 13.1023 92.8447 12.8068C93.0691 12.5085 93.3802 12.2784 93.7779 12.1165C94.1785 11.9517 94.6402 11.8693 95.1629 11.8693C95.9299 11.8693 96.5336 12.0327 96.974 12.3594C97.4172 12.6861 97.6913 13.1278 97.7964 13.6847ZM103.381 15.7472V11.9545H104.924V18.5H103.428V17.3366H103.36C103.212 17.7031 102.969 18.0028 102.631 18.2358C102.296 18.4687 101.882 18.5852 101.391 18.5852C100.962 18.5852 100.583 18.4901 100.253 18.2997C99.9264 18.1065 99.6707 17.8267 99.486 17.4602C99.3014 17.0909 99.2091 16.6449 99.2091 16.1222V11.9545H100.752V15.8835C100.752 16.2983 100.865 16.6278 101.093 16.8722C101.32 17.1165 101.618 17.2386 101.987 17.2386C102.215 17.2386 102.435 17.1832 102.648 17.0724C102.861 16.9616 103.036 16.7969 103.172 16.5781C103.311 16.3565 103.381 16.0795 103.381 15.7472ZM106.51 18.5V11.9545H108.006V13.0455H108.074C108.193 12.6676 108.398 12.3764 108.687 12.1719C108.98 11.9645 109.314 11.8608 109.689 11.8608C109.774 11.8608 109.869 11.8651 109.974 11.8736C110.082 11.8793 110.172 11.8892 110.243 11.9034V13.3224C110.177 13.2997 110.074 13.2798 109.932 13.2628C109.793 13.2429 109.658 13.233 109.527 13.233C109.246 13.233 108.993 13.294 108.768 13.4162C108.547 13.5355 108.372 13.7017 108.244 13.9148C108.116 14.1278 108.052 14.3736 108.052 14.652V18.5H106.51ZM113.896 18.6278C113.24 18.6278 112.673 18.4915 112.196 18.2188C111.721 17.9432 111.356 17.554 111.1 17.0511C110.845 16.5455 110.717 15.9503 110.717 15.2656C110.717 14.5923 110.845 14.0014 111.1 13.4929C111.359 12.9815 111.72 12.5838 112.183 12.2997C112.646 12.0128 113.19 11.8693 113.815 11.8693C114.218 11.8693 114.599 11.9347 114.957 12.0653C115.318 12.1932 115.636 12.392 115.911 12.6619C116.19 12.9318 116.409 13.2756 116.568 13.6932C116.727 14.108 116.806 14.6023 116.806 15.1761V15.6491H111.441V14.6094H115.328C115.325 14.3139 115.261 14.0511 115.136 13.821C115.011 13.5881 114.836 13.4048 114.612 13.2713C114.39 13.1378 114.132 13.071 113.836 13.071C113.521 13.071 113.244 13.1477 113.005 13.3011C112.767 13.4517 112.581 13.6506 112.447 13.8977C112.316 14.142 112.25 14.4105 112.247 14.7031V15.6108C112.247 15.9915 112.316 16.3182 112.456 16.5909C112.595 16.8608 112.789 17.0682 113.039 17.2131C113.289 17.3551 113.582 17.4261 113.917 17.4261C114.142 17.4261 114.345 17.3949 114.527 17.3324C114.708 17.267 114.866 17.1719 115 17.0469C115.133 16.9219 115.234 16.767 115.302 16.5824L116.742 16.7443C116.652 17.125 116.478 17.4574 116.223 17.7415C115.97 18.0227 115.646 18.2415 115.251 18.3977C114.856 18.5511 114.404 18.6278 113.896 18.6278ZM120.54 18.6151C120.026 18.6151 119.566 18.483 119.16 18.2188C118.753 17.9545 118.432 17.571 118.197 17.0682C117.961 16.5653 117.843 15.9545 117.843 15.2358C117.843 14.5085 117.962 13.8949 118.201 13.3949C118.442 12.892 118.768 12.5128 119.177 12.2571C119.586 11.9986 120.042 11.8693 120.545 11.8693C120.928 11.8693 121.244 11.9347 121.491 12.0653C121.738 12.1932 121.934 12.348 122.079 12.5298C122.224 12.7088 122.336 12.8778 122.415 13.0369H122.479V9.77273H124.026V18.5H122.509V17.4688H122.415C122.336 17.6278 122.221 17.7969 122.07 17.9759C121.92 18.152 121.721 18.3026 121.474 18.4276C121.226 18.5526 120.915 18.6151 120.54 18.6151ZM120.971 17.3494C121.297 17.3494 121.576 17.2614 121.806 17.0852C122.036 16.9062 122.211 16.6577 122.33 16.3395C122.449 16.0213 122.509 15.6506 122.509 15.2273C122.509 14.804 122.449 14.4361 122.33 14.1236C122.214 13.8111 122.04 13.5682 121.81 13.3949C121.583 13.2216 121.303 13.1349 120.971 13.1349C120.627 13.1349 120.34 13.2244 120.11 13.4034C119.88 13.5824 119.707 13.8295 119.59 14.1449C119.474 14.4602 119.415 14.821 119.415 15.2273C119.415 15.6364 119.474 16.0014 119.59 16.3224C119.709 16.6406 119.884 16.892 120.114 17.0767C120.347 17.2585 120.633 17.3494 120.971 17.3494Z" fill="#5E23DC"/>
<defs>
<clipPath id="clip0_7_456">
<rect width="12.8969" height="12.8969" fill="white" transform="translate(10 7.55151)"/>
</clipPath>
</defs>
</svg>
