<svg width="912" height="434" viewBox="0 0 912 434" fill="none" xmlns="http://www.w3.org/2000/svg">
<g opacity="0.19">
<path d="M67.6603 432.508C67.9525 431.614 68.1154 430.659 68.1154 429.665C68.1154 424.606 64.0009 420.503 58.9285 420.503C57.0366 420.503 55.2787 421.076 53.813 422.055C51.9259 418.057 47.8545 415.291 43.1318 415.291C38.4091 415.291 34.3377 418.057 32.4506 422.055C30.9897 421.076 29.2318 420.503 27.3351 420.503C22.2627 420.503 18.1482 424.606 18.1482 429.665C18.1482 430.659 18.3063 431.614 18.6033 432.508H67.6651H67.6603Z" fill="#5E23DC" fill-opacity="0.28"/>
<path d="M505.376 184.744H504.418V142.399H440.129V183.659H439.171V141.443H505.376V184.744Z" fill="#D1D2DC"/>
<path d="M486.734 139.757H485.776V97.4118H458.522V139.212H457.564V96.4563H486.734V139.757Z" fill="#D1D2DC"/>
<path d="M476.465 94.9229H475.507V66.1498H468.791V94.555H467.833V65.1944H476.465V94.9229Z" fill="#D1D2DC"/>
<path d="M455.5 295.326H454.542V187.123H425.267V215.647H424.309V186.167H455.5V295.326Z" fill="#D1D2DC"/>
<path d="M489.253 296.41H488.296V186.167H519.482V280.388H518.524V187.123H489.253V296.41Z" fill="#D1D2DC"/>
<path d="M503.891 298.641H441.106V299.597H503.891V298.641Z" fill="#D1D2DC"/>
<path d="M459.083 178.356H453.55V151.958H459.083V178.356ZM454.508 177.401H458.125V152.913H454.508V177.401Z" fill="#D1D2DC"/>
<path d="M475.042 271.507H474.084V152.913H470.468V271.507H469.51V151.958H475.042V271.507Z" fill="#D1D2DC"/>
<path d="M491.002 178.356H485.47V151.958H491.002V178.356ZM486.427 177.401H490.044V152.913H486.427V177.401Z" fill="#D1D2DC"/>
<path d="M495.638 317.263H452.41V318.218H495.638V317.263Z" fill="#D1D2DC"/>
<path d="M495.638 327.601H452.41V328.556H495.638V327.601Z" fill="#D1D2DC"/>
<path d="M495.638 337.943H452.41V338.899H495.638V337.943Z" fill="#D1D2DC"/>
<path d="M495.638 348.281H452.41V349.237H495.638V348.281Z" fill="#D1D2DC"/>
<path d="M462.76 312.763H461.803V356.183H462.76V312.763Z" fill="#D1D2DC"/>
<path d="M476.022 312.763H475.066V356.183H476.022V312.763Z" fill="#D1D2DC"/>
<path d="M489.29 312.763H488.334V356.183H489.29V312.763Z" fill="#D1D2DC"/>
<path d="M590.883 270.776H589.925V138.897L667.783 181.156V210.364H666.825V181.72L590.883 140.502V270.776Z" fill="#D1D2DC"/>
<path d="M705.13 358.199H704.172V191.957L628.229 233.17V279.867H627.271V232.606L627.52 232.468L705.13 190.352V358.199Z" fill="#D1D2DC"/>
<path d="M726.645 274.674H725.687V191.632H704.651V190.677H726.645V274.674Z" fill="#D1D2DC"/>
<path d="M603.35 163.891H602.393V228.942H603.35V163.891Z" fill="#D1D2DC"/>
<path d="M612.009 168.21H611.053V224.084H612.009V168.21Z" fill="#D1D2DC"/>
<path d="M620.669 172.528H619.713V220.305H620.669V172.528Z" fill="#D1D2DC"/>
<path d="M629.329 176.847H628.373V217.606H629.329V176.847Z" fill="#D1D2DC"/>
<path d="M637.989 181.166H637.033V215.447H637.989V181.166Z" fill="#D1D2DC"/>
<path d="M646.649 185.484H645.693V213.287H646.649V185.484Z" fill="#D1D2DC"/>
<path d="M655.309 189.803H654.353V211.128H655.309V189.803Z" fill="#D1D2DC"/>
<path d="M691.991 248.562H639.543V249.518H691.991V248.562Z" fill="#D1D2DC"/>
<path d="M691.991 262.019H639.543V262.975H691.991V262.019Z" fill="#D1D2DC"/>
<path d="M691.991 275.472H639.543V276.427H691.991V275.472Z" fill="#D1D2DC"/>
<path d="M691.991 288.929H639.543V289.885H691.991V288.929Z" fill="#D1D2DC"/>
<path d="M691.991 302.382H639.543V303.337H691.991V302.382Z" fill="#D1D2DC"/>
<path d="M691.991 315.839H639.543V316.795H691.991V315.839Z" fill="#D1D2DC"/>
<path d="M691.991 329.297H639.543V330.252H691.991V329.297Z" fill="#D1D2DC"/>
<path d="M691.991 342.749H639.543V343.705H691.991V342.749Z" fill="#D1D2DC"/>
<path d="M648.335 249.04H647.379V262.206H648.335V249.04Z" fill="#D1D2DC"/>
<path d="M660.444 249.04H659.488V262.206H660.444V249.04Z" fill="#D1D2DC"/>
<path d="M672.552 249.04H671.596V262.206H672.552V249.04Z" fill="#D1D2DC"/>
<path d="M684.661 249.04H683.705V262.206H684.661V249.04Z" fill="#D1D2DC"/>
<path d="M822.547 427.043H808.656V427.998H822.547V427.043Z" fill="#D1D2DC"/>
<path d="M804.173 378.655H738.648V379.61H804.173V378.655Z" fill="#D1D2DC"/>
<path d="M745.41 299.578H744.454V304.985H745.41V299.578Z" fill="#16161E"/>
<path d="M750.109 299.578H749.153V304.985H750.109V299.578Z" fill="#16161E"/>
<path d="M754.808 299.578H753.851V304.985H754.808V299.578Z" fill="#16161E"/>
<path d="M759.506 299.578H758.55V304.985H759.506V299.578Z" fill="#16161E"/>
<path d="M764.205 299.578H763.249V304.985H764.205V299.578Z" fill="#16161E"/>
<path d="M768.904 299.578H767.948V304.985H768.904V299.578Z" fill="#16161E"/>
<path d="M773.598 299.578H772.642V304.985H773.598V299.578Z" fill="#16161E"/>
<path d="M778.297 299.578H777.34V304.985H778.297V299.578Z" fill="#16161E"/>
<path d="M782.996 299.578H782.039V304.985H782.996V299.578Z" fill="#16161E"/>
<path d="M787.694 299.578H786.738V304.985H787.694V299.578Z" fill="#16161E"/>
<path d="M792.393 299.578H791.437V304.985H792.393V299.578Z" fill="#16161E"/>
<path d="M797.092 299.578H796.136V304.985H797.092V299.578Z" fill="#16161E"/>
<path d="M800.264 298.837H741.278V299.793H800.264V298.837Z" fill="#16161E"/>
<path d="M792.457 432.498H791.499V428.113H750.566V432.498H749.608V427.157H792.457V432.498Z" fill="#D1D2DC"/>
<path d="M786.973 427.731H786.015V423.34H756.045V427.731H755.087V422.385H786.973V427.731Z" fill="#D1D2DC"/>
<path d="M791.911 395.112H750.154V396.068H791.911V395.112Z" fill="#16161E"/>
<path d="M784.142 401.795C782.403 401.795 780.789 400.969 779.774 399.603C778.753 400.974 777.144 401.795 775.405 401.795C773.667 401.795 772.053 400.969 771.037 399.603C770.017 400.974 768.408 401.795 766.669 401.795C764.93 401.795 763.316 400.969 762.301 399.603C761.28 400.974 759.671 401.795 757.932 401.795C754.934 401.795 752.496 399.364 752.496 396.373H753.454C753.454 398.838 755.461 400.84 757.932 400.84C759.58 400.84 761.094 399.937 761.879 398.485C761.96 398.332 762.123 398.236 762.301 398.236C762.478 398.236 762.641 398.332 762.722 398.489C763.503 399.942 765.016 400.84 766.669 400.84C768.321 400.84 769.83 399.937 770.616 398.485C770.697 398.332 770.86 398.236 771.037 398.236C771.214 398.236 771.377 398.332 771.459 398.489C772.239 399.942 773.753 400.84 775.405 400.84C777.058 400.84 778.567 399.937 779.352 398.485C779.434 398.332 779.596 398.236 779.774 398.236C779.951 398.236 780.114 398.332 780.195 398.489C780.976 399.942 782.49 400.84 784.142 400.84C786.441 400.84 788.4 399.053 788.601 396.774L789.555 396.86C789.305 399.626 786.93 401.795 784.137 401.795H784.142Z" fill="#16161E"/>
<path d="M762.203 402.125H761.247V422.605H762.203V402.125Z" fill="#16161E"/>
<path d="M781.343 402.125H780.387V422.605H781.343V402.125Z" fill="#16161E"/>
<path d="M771.601 402.125H770.644V422.605H771.601V402.125Z" fill="#16161E"/>
<path d="M738.409 387.464H730.578V390.325H738.409V387.464Z" fill="#CECFD8"/>
<path d="M820.885 410.628H813.053V413.49H820.885V410.628Z" fill="#CECFD8"/>
<path d="M757.789 317.081H751.04V325.203H757.789V317.081Z" fill="#CECFD8"/>
<path d="M774.146 317.081H767.397V325.203H774.146V317.081Z" fill="#CECFD8"/>
<path d="M790.508 317.081H783.759V325.203H790.508V317.081Z" fill="#CECFD8"/>
<path d="M757.789 335.98H751.04V344.101H757.789V335.98Z" fill="#CECFD8"/>
<path d="M774.146 335.98H767.397V344.101H774.146V335.98Z" fill="#5E23DC" fill-opacity="0.28"/>
<path d="M790.508 335.98H783.759V344.101H790.508V335.98Z" fill="#CECFD8"/>
<path d="M757.789 354.879H751.04V363H757.789V354.879Z" fill="#CECFD8"/>
<path d="M774.146 354.879H767.397V363H774.146V354.879Z" fill="#CECFD8"/>
<path d="M790.508 354.879H783.759V363H790.508V354.879Z" fill="#CECFD8"/>
<path d="M829.856 301.794H828.898V292.264L814.663 277.306L802.439 290.406C802.348 290.501 802.219 290.558 802.089 290.558H792.505C792.242 290.558 792.026 290.343 792.026 290.081C792.026 278.515 782.595 269.109 770.999 269.109C759.403 269.109 749.972 278.515 749.972 290.081C749.972 290.343 749.756 290.558 749.493 290.558H739.908C739.774 290.558 739.65 290.501 739.559 290.406L727.335 277.306L713.1 292.264V301.794H712.142V292.073C712.142 291.949 712.19 291.834 712.271 291.743L726.99 276.279C727.081 276.184 727.206 276.117 727.34 276.131C727.474 276.131 727.598 276.189 727.69 276.284L740.119 289.603H749.018C749.272 277.732 759.034 268.153 770.999 268.153C782.964 268.153 792.725 277.732 792.979 289.603H801.879L814.308 276.284C814.399 276.189 814.524 276.15 814.658 276.131C814.787 276.131 814.917 276.184 815.008 276.279L829.727 291.743C829.813 291.834 829.856 291.949 829.856 292.073V301.794Z" fill="#16161E"/>
<path d="M754.249 290.444H753.291C753.291 290.377 753.291 290.31 753.291 290.243V290.076C753.291 280.335 761.237 272.41 771.004 272.41C780.77 272.41 788.716 280.335 788.716 290.076H787.758C787.758 280.861 780.243 273.365 771.004 273.365C761.764 273.365 754.249 280.861 754.249 290.076V290.214C754.249 290.272 754.249 290.358 754.249 290.444Z" fill="#D1D2DC"/>
<path d="M770.994 284.912C769.016 284.912 767.416 286.512 767.416 288.48V292.918H774.577V288.48C774.577 286.507 772.972 284.912 770.999 284.912H770.994Z" fill="#CECFD8"/>
<path d="M739.127 414.101H738.169V379.132C738.169 379.056 738.189 378.984 738.222 378.913L741.503 372.506V367.046H742.461V372.621C742.461 372.697 742.442 372.769 742.408 372.841L739.127 379.247V414.101Z" fill="#16161E"/>
<path d="M742.46 347.975H741.503V361.963H742.46V347.975Z" fill="#16161E"/>
<path d="M742.46 329.287H741.503V343.533H742.46V329.287Z" fill="#16161E"/>
<path d="M742.46 304.785H741.503V324.863H742.46V304.785Z" fill="#16161E"/>
<path d="M804.652 431.767H803.694V378.984L800.073 371.532C800.039 371.465 800.025 371.398 800.025 371.322V367.051H800.983V371.212L804.604 378.664C804.638 378.731 804.652 378.798 804.652 378.874V431.767Z" fill="#16161E"/>
<path d="M800.981 348.286H800.025V362.785H800.981V348.286Z" fill="#16161E"/>
<path d="M800.981 329.402H800.025V343.872H800.981V329.402Z" fill="#16161E"/>
<path d="M800.981 304.785H800.025V325.207H800.981V304.785Z" fill="#16161E"/>
<path d="M753.985 276.131H727.325V277.087H753.985V276.131Z" fill="#16161E"/>
<path d="M814.658 276.131H789.085V277.087H814.658V276.131Z" fill="#16161E"/>
<path d="M829.353 423.794L829.291 391.266C829.046 391.166 828.706 391.004 828.218 390.736C828.064 390.65 827.969 390.492 827.969 390.316V385.51C827.969 385.347 828.05 385.199 828.184 385.109L829.281 384.397L829.363 305.521H712.769L712.583 386.976H711.625L711.811 305.043C711.811 304.78 712.027 304.565 712.29 304.565H829.841C829.971 304.565 830.091 304.618 830.182 304.704C830.273 304.79 830.32 304.914 830.32 305.043L830.239 384.655C830.239 384.817 830.158 384.965 830.024 385.056L828.927 385.768V390.029C829.238 390.191 829.564 390.349 829.727 390.411C829.741 390.411 829.755 390.411 829.77 390.411C830.033 390.411 830.249 390.626 830.249 390.889L830.311 423.799H829.353V423.794Z" fill="#16161E"/>
<path d="M742.586 301.441H709.996V302.396H742.586V301.441Z" fill="#16161E"/>
<path d="M832.725 301.441H799.656V302.396H832.725V301.441Z" fill="#16161E"/>
<path d="M817.139 291.375C817.139 292.742 816.028 293.85 814.658 293.85C813.288 293.85 812.177 292.742 812.177 291.375C812.177 290.009 813.288 288.901 814.658 288.901C816.028 288.901 817.139 290.009 817.139 291.375Z" fill="#CECFD8"/>
<path d="M729.807 291.375C729.807 292.742 728.695 293.85 727.325 293.85C725.956 293.85 724.844 292.742 724.844 291.375C724.844 290.009 725.956 288.901 727.325 288.901C728.695 288.901 729.807 290.009 729.807 291.375Z" fill="#CECFD8"/>
<path d="M791.911 391.677H750.154V392.633H791.911V391.677Z" fill="#16161E"/>
<path d="M799.776 384.497H794.421V385.453H799.776V384.497Z" fill="#D1D2DC"/>
<path d="M797.576 385.199H796.619V386.976H797.576V385.199Z" fill="#D1D2DC"/>
<path d="M722.435 395.623H717.085V396.579H722.435V395.623Z" fill="#D1D2DC"/>
<path d="M720.24 396.321H719.283V398.103H720.24V396.321Z" fill="#D1D2DC"/>
<path d="M821.488 367.81H816.138V368.766H821.488V367.81Z" fill="#D1D2DC"/>
<path d="M819.288 366.286H818.332V368.064H819.288V366.286Z" fill="#D1D2DC"/>
<path d="M797.098 371.537H746.236V372.492H797.098V371.537Z" fill="#D1D2DC"/>
<path d="M819.505 356.56H812.761C812.498 356.56 812.282 356.345 812.282 356.082V349.356C812.282 349.093 812.498 348.878 812.761 348.878H819.505C819.769 348.878 819.984 349.093 819.984 349.356V356.082C819.984 356.345 819.769 356.56 819.505 356.56ZM813.24 355.605H819.026V349.834H813.24V355.605Z" fill="#16161E"/>
<path d="M819.505 343.103H812.761C812.498 343.103 812.282 342.888 812.282 342.625V335.899C812.282 335.636 812.498 335.421 812.761 335.421H819.505C819.769 335.421 819.984 335.636 819.984 335.899V342.625C819.984 342.888 819.769 343.103 819.505 343.103ZM813.24 342.147H819.026V336.376H813.24V342.147Z" fill="#16161E"/>
<path d="M730.032 320.922H723.288C723.024 320.922 722.809 320.707 722.809 320.445V313.718C722.809 313.455 723.024 313.241 723.288 313.241H730.032C730.295 313.241 730.511 313.455 730.511 313.718V320.445C730.511 320.707 730.295 320.922 730.032 320.922ZM723.767 319.967H729.553V314.196H723.767V319.967Z" fill="#16161E"/>
<path d="M802.899 330.147H739.094C738.831 330.147 738.615 329.932 738.615 329.669V325.566C738.615 325.303 738.831 325.088 739.094 325.088H802.899C803.162 325.088 803.378 325.303 803.378 325.566V329.669C803.378 329.932 803.162 330.147 802.899 330.147ZM739.573 329.192H802.42V326.043H739.573V329.192Z" fill="#16161E"/>
<path d="M802.899 348.453H739.094C738.831 348.453 738.615 348.238 738.615 347.975V343.872C738.615 343.609 738.831 343.394 739.094 343.394H802.899C803.162 343.394 803.378 343.609 803.378 343.872V347.975C803.378 348.238 803.162 348.453 802.899 348.453ZM739.573 347.498H802.42V344.35H739.573V347.498Z" fill="#16161E"/>
<path d="M802.899 367.366H739.094C738.831 367.366 738.615 367.151 738.615 366.888V362.785C738.615 362.522 738.831 362.307 739.094 362.307H802.899C803.162 362.307 803.378 362.522 803.378 362.785V366.888C803.378 367.151 803.162 367.366 802.899 367.366ZM739.573 366.411H802.42V363.262H739.573V366.411Z" fill="#16161E"/>
<path d="M398.903 136.069C395.541 136.069 392.193 136.059 388.864 136.054L370.615 136.011C361.031 135.988 351.13 135.964 341.421 135.175L341.134 135.152L341.019 134.884C340.612 133.924 340.727 132.94 341.349 132.027C342.341 130.575 344.496 129.567 346.47 129.62C347.279 129.643 348.103 129.749 348.903 129.849C350.833 130.092 352.658 130.327 354.205 129.481C355.039 129.027 355.68 128.311 356.361 127.546C356.701 127.169 357.05 126.772 357.433 126.414C360.844 123.166 366.615 122.922 370.299 125.86C370.447 125.979 370.596 126.104 370.744 126.228C371.535 126.887 372.277 127.508 373.115 127.436C373.767 127.379 374.351 126.887 374.883 126.361C375.869 125.382 376.832 124.26 377.766 123.17C380.597 119.874 383.519 116.463 387.839 116.052C392.768 115.584 397.15 119.115 401.193 126.834C402.213 123.261 405.082 120.29 408.679 119.224C412.722 118.025 417.311 119.334 420.098 122.487L420.213 122.616C420.529 122.974 420.831 123.318 421.195 123.424C422.009 123.662 422.819 122.669 423.351 121.794C425.942 117.538 429.118 112.813 434.027 110.611C436.858 109.34 440.383 109.297 443.228 110.501C445.46 111.442 447.031 113.019 447.774 115.054L446.873 115.379C446.054 113.129 444.239 111.963 442.855 111.38C440.244 110.281 437.011 110.32 434.42 111.485C429.759 113.578 426.684 118.164 424.165 122.296C423.135 123.982 422.043 124.675 420.917 124.346C420.28 124.159 419.859 123.677 419.485 123.252L419.375 123.127C416.865 120.294 412.578 119.072 408.943 120.146C405.312 121.221 402.39 124.589 401.84 128.33L401.615 129.854L400.934 128.473C396.921 120.314 392.662 116.563 387.916 117.017C383.983 117.39 381.311 120.505 378.48 123.806C377.536 124.904 376.559 126.046 375.544 127.054C374.916 127.675 374.145 128.32 373.187 128.406C371.951 128.516 370.974 127.699 370.112 126.978C369.968 126.858 369.825 126.739 369.681 126.624C366.419 124.016 361.102 124.245 358.075 127.121C357.726 127.455 357.386 127.833 357.06 128.201C356.356 128.989 355.623 129.806 354.646 130.336C352.826 131.33 350.761 131.067 348.764 130.814C347.988 130.714 347.183 130.613 346.426 130.589C344.779 130.546 342.935 131.397 342.125 132.581C341.747 133.136 341.637 133.699 341.79 134.263C351.365 135.027 361.136 135.051 370.586 135.07L388.845 135.113C408.133 135.161 428.078 135.209 447.707 133.661L447.783 134.612C431.508 135.892 415.026 136.083 398.884 136.083L398.903 136.069Z" fill="#D1D2DC"/>
<path d="M142.084 64.8696C139.608 64.8696 137.16 64.5113 135.048 63.6992C130.388 61.9125 125.909 62.3138 121.579 62.7007C118.241 62.9969 115.084 63.2835 111.937 62.6052L112.138 61.6689C115.142 62.3138 118.226 62.0415 121.493 61.7453C125.933 61.3488 130.527 60.9379 135.393 62.8058C141.668 65.2135 150.95 63.446 154.753 60.3217C156.09 59.2229 156.66 58.0621 156.449 56.8678C155.898 53.7578 152.176 51.8613 149.188 52.1049C146.079 52.3581 143.267 54.9665 142.793 58.0477L141.845 57.9283C142.06 55.7212 141.275 53.3804 139.689 51.5125C138.104 49.6447 135.925 48.4886 133.707 48.3357C131.484 48.1828 129.166 49.0284 127.341 50.6574C126.225 51.6511 125.382 52.8597 124.875 54.1543C124.745 55.0429 124.558 55.9314 124.305 56.82L123.198 60.7039L123.366 56.6719C123.404 55.7404 123.6 54.8088 123.941 53.9155C124.429 50.3421 123.845 46.8643 122.24 44.0936C120.013 40.2575 115.669 37.9167 111.674 38.4087C107.435 38.9294 103.986 43.3865 102.578 47.3038L101.678 46.9838C103.182 42.7989 106.918 38.0313 111.559 37.458C115.918 36.923 120.66 39.4501 123.074 43.6111C124.443 45.9758 125.119 48.8134 125.066 51.7896C125.531 51.1256 126.082 50.4998 126.704 49.9408C128.726 48.1398 131.302 47.2083 133.779 47.3803C136.255 47.5523 138.674 48.8325 140.427 50.8915C141.577 52.2482 142.348 53.839 142.669 55.4681C143.933 53.0986 146.39 51.374 149.116 51.1495C152.593 50.8676 156.751 53.0269 157.402 56.6958C157.675 58.234 156.971 59.7389 155.371 61.0574C152.66 63.2883 147.305 64.8648 142.099 64.8648L142.084 64.8696Z" fill="#D1D2DC"/>
<path d="M872.614 246.498C869.199 246.498 865.267 246.264 860.999 246.006C853.819 245.576 845.681 245.089 837.438 245.557C827.015 246.15 819.438 244.373 815.525 240.412C813.35 238.215 812.368 235.43 812.603 232.148C812.809 229.305 814.825 226.754 817.867 225.484C820.889 224.222 824.103 224.585 826.254 226.42C827.523 227.499 828.405 228.914 829.257 230.28C829.683 230.958 830.124 231.66 830.598 232.305C831.891 234.044 834.052 235.707 836.202 235.162C837.328 234.875 838.267 234.02 839.177 233.194L839.388 233.003C843.718 229.081 850.246 226.525 854.351 230.175C854.787 230.562 855.165 230.996 855.529 231.422C856.027 231.995 856.497 232.539 857.076 232.941C859.648 234.713 862.676 233.103 865.88 231.402C867.173 230.715 868.509 230.007 869.822 229.53C874.502 227.843 883.482 229.573 885.82 235.325L885.944 235.635H885.935C886.993 238.391 887.046 240.56 886.102 242.266C885.063 244.143 882.812 245.376 879.219 246.025C877.347 246.365 875.115 246.494 872.605 246.494L872.614 246.498ZM844.561 244.416C850.347 244.416 855.941 244.75 861.052 245.056C868.399 245.495 874.741 245.873 879.057 245.094C882.352 244.497 884.383 243.427 885.274 241.812C886.093 240.326 885.978 238.272 884.934 235.697L884.824 235.43C882.577 230.533 874.434 228.89 870.152 230.433C868.907 230.882 867.599 231.579 866.335 232.248C863.02 234.011 859.586 235.831 856.535 233.729C855.85 233.256 855.318 232.64 854.806 232.047C854.447 231.627 854.102 231.235 853.714 230.891C850.05 227.633 844.053 230.07 840.034 233.71L839.823 233.901C838.827 234.809 837.793 235.745 836.437 236.089C833.822 236.748 831.307 234.866 829.827 232.879C829.329 232.205 828.879 231.484 828.443 230.791C827.59 229.429 826.786 228.14 825.626 227.151C823.749 225.55 820.918 225.249 818.231 226.372C815.525 227.499 813.729 229.74 813.551 232.224C813.336 235.224 814.227 237.756 816.2 239.748C819.912 243.508 827.231 245.189 837.376 244.611C839.785 244.473 842.185 244.416 844.556 244.416H844.561Z" fill="#D1D2DC"/>
<path d="M837.879 212.819C829.856 212.819 823.327 206.308 823.327 198.306C823.327 190.304 829.856 183.793 837.879 183.793C845.902 183.793 852.43 190.304 852.43 198.306C852.43 206.308 845.902 212.819 837.879 212.819ZM837.879 184.748C830.383 184.748 824.285 190.83 824.285 198.306C824.285 205.782 830.383 211.864 837.879 211.864C845.375 211.864 851.472 205.782 851.472 198.306C851.472 190.83 845.375 184.748 837.879 184.748Z" fill="#D1D2DC"/>
<path d="M878.477 207.87L875.742 205.147L876.422 204.469L878.477 206.523L881.179 203.829L881.859 204.507L878.477 207.87Z" fill="#D1D2DC"/>
<path d="M786.896 225.383L784.156 222.66L784.837 221.982L786.896 224.036L789.593 221.342L790.273 222.02L786.896 225.383Z" fill="#D1D2DC"/>
<path d="M749.311 151.055L746.576 148.332L747.256 147.653L749.311 149.708L752.012 147.013L752.692 147.692L749.311 151.055Z" fill="#D1D2DC"/>
<path d="M700.33 392.962C703.039 392.962 705.235 390.772 705.235 388.07C705.235 385.369 703.039 383.179 700.33 383.179C697.621 383.179 695.425 385.369 695.425 388.07C695.425 390.772 697.621 392.962 700.33 392.962Z" fill="#5E23DC" fill-opacity="0.28"/>
<path d="M714.886 397.787C712.884 397.787 711.064 396.674 710.121 394.974C709.177 396.674 707.357 397.787 705.355 397.787C702.6 397.787 700.273 395.733 699.952 393.005L700.905 392.891C701.173 395.136 703.084 396.832 705.359 396.832C707.342 396.832 709.115 395.504 709.665 393.603C709.723 393.397 709.915 393.259 710.125 393.259C710.336 393.259 710.528 393.397 710.585 393.603C711.136 395.504 712.908 396.832 714.891 396.832C717.2 396.832 719.121 395.103 719.35 392.814L720.304 392.91C720.021 395.69 717.693 397.787 714.891 397.787H714.886Z" fill="#16161E"/>
<path d="M720.505 392.962C723.214 392.962 725.409 390.772 725.409 388.071C725.409 385.369 723.214 383.179 720.505 383.179C717.796 383.179 715.6 385.369 715.6 388.071C715.6 390.772 717.796 392.962 720.505 392.962Z" fill="#5E23DC" fill-opacity="0.28"/>
<path d="M710.598 390.392H709.641V432.995H710.598V390.392Z" fill="#16161E"/>
<path d="M712.003 393.077H708.636V394.032H712.003V393.077Z" fill="#16161E"/>
<path d="M4.94288 392.242C4.6507 392.242 4.35852 392.218 4.06634 392.17C2.64856 391.941 1.40321 391.172 0.56021 390.006C-0.278005 388.84 -0.613291 387.422 -0.383381 386.008C-0.153471 384.593 0.617693 383.351 1.7864 382.511C2.95511 381.675 4.37768 381.335 5.79546 381.569C8.72682 382.047 10.7194 384.808 10.2452 387.732C10.0153 389.146 9.24411 390.388 8.0754 391.229C7.15097 391.893 6.0589 392.242 4.94288 392.242ZM4.92371 382.453C4.00407 382.453 3.10839 382.74 2.34681 383.285C1.38885 383.972 0.756596 384.995 0.565004 386.156C0.373412 387.321 0.651218 388.487 1.34095 389.442C2.03068 390.398 3.05569 391.028 4.21961 391.219C5.38353 391.411 6.55704 391.133 7.515 390.446C8.47295 389.758 9.10521 388.735 9.2968 387.574C9.68956 385.172 8.04666 382.898 5.64218 382.511C5.40269 382.472 5.15842 382.453 4.91893 382.453H4.92371Z" fill="#16161E"/>
<path d="M19.4847 396.564C17.4826 396.564 15.6625 395.451 14.7189 393.751C13.7753 395.451 11.9551 396.564 9.95301 396.564C7.19409 396.564 4.87104 394.51 4.55013 391.782L5.5033 391.668C5.77153 393.913 7.68266 395.609 9.95781 395.609C11.9408 395.609 13.713 394.281 14.2638 392.38C14.3213 392.174 14.5129 392.036 14.7237 392.036C14.9344 392.036 15.126 392.174 15.1835 392.38C15.7343 394.281 17.5065 395.609 19.4895 395.609C21.7982 395.609 23.7189 393.88 23.9488 391.591L24.902 391.687C24.6194 394.467 22.2915 396.564 19.4847 396.564Z" fill="#16161E"/>
<path d="M25.1127 392.236C24.8349 392.236 24.5523 392.217 24.2697 392.169C22.8471 391.945 21.6018 391.185 20.754 390.024C19.9062 388.863 19.5661 387.445 19.7865 386.031C20.2463 383.107 23.01 381.1 25.9414 381.559C28.8727 382.018 30.8844 384.774 30.4198 387.698C30.0031 390.34 27.7088 392.231 25.1031 392.231L25.1127 392.236ZM25.0983 382.452C24.1691 382.452 23.2686 382.744 22.5023 383.298C21.5443 383.991 20.9169 385.018 20.7348 386.179C20.5528 387.344 20.8306 388.51 21.5299 389.465C22.2245 390.421 23.2543 391.047 24.4182 391.228C25.5869 391.414 26.7556 391.133 27.7136 390.435C28.6715 389.742 29.299 388.715 29.481 387.554C29.8594 385.152 28.2069 382.887 25.7977 382.51C25.563 382.472 25.333 382.452 25.0983 382.452Z" fill="#16161E"/>
<path d="M15.201 389.169H14.2447V432.584H15.201V389.169Z" fill="#16161E"/>
<path d="M16.6061 391.854H13.234V392.809H16.6061V391.854Z" fill="#16161E"/>
<path d="M260.186 427.186H240.802V428.141H260.186V427.186Z" fill="#D1D2DC"/>
<path d="M228.502 427.186H165.559V428.141H228.502V427.186Z" fill="#D1D2DC"/>
<path d="M158.834 427.186H125.181V428.141H158.834V427.186Z" fill="#D1D2DC"/>
<path d="M151.587 338.703H142.927V330.066H151.587V338.703ZM143.885 337.748H150.629V331.021H143.885V337.748Z" fill="#16161E"/>
<path d="M157.311 312.887C159.438 312.887 161.162 311.167 161.162 309.046C161.162 306.925 159.438 305.205 157.311 305.205C155.184 305.205 153.46 306.925 153.46 309.046C153.46 311.167 155.184 312.887 157.311 312.887Z" fill="#D1D2DC"/>
<path d="M171.206 330.544H163.504V338.225H171.206V330.544Z" fill="#5E23DC" fill-opacity="0.28"/>
<path d="M151.587 358.748H142.927V350.111H151.587V358.748ZM143.885 357.793H150.629V351.066H143.885V357.793Z" fill="#16161E"/>
<path d="M171.206 350.589H163.504V358.27H171.206V350.589Z" fill="#5E23DC" fill-opacity="0.28"/>
<path d="M151.587 378.793H142.927V370.156H151.587V378.793ZM143.885 377.838H150.629V371.111H143.885V377.838Z" fill="#16161E"/>
<path d="M171.685 378.793H163.025V370.156H171.685V378.793ZM163.983 377.838H170.727V371.112H163.983V377.838Z" fill="#16161E"/>
<path d="M171.685 397.797H163.025V389.16H171.685V397.797ZM163.983 396.841H170.727V390.115H163.983V396.841Z" fill="#16161E"/>
<path d="M212.734 382.753H204.074V374.116H212.734V382.753ZM205.032 381.798H211.776V375.072H205.032V381.798Z" fill="#D1D2DC"/>
<path d="M252.93 382.753H244.27V374.116H252.93V382.753ZM245.228 381.798H251.972V375.072H245.228V381.798Z" fill="#D1D2DC"/>
<path d="M212.255 334.504H204.553V342.186H212.255V334.504Z" fill="#CECFD8"/>
<path d="M232.353 334.504H224.651V342.186H232.353V334.504Z" fill="#CECFD8"/>
<path d="M252.451 334.504H244.749V342.186H252.451V334.504Z" fill="#CECFD8"/>
<path d="M212.255 354.549H204.553V362.231H212.255V354.549Z" fill="#CECFD8"/>
<path d="M232.353 354.549H224.651V362.231H232.353V354.549Z" fill="#CECFD8"/>
<path d="M252.451 354.549H244.749V362.231H252.451V354.549Z" fill="#CECFD8"/>
<path d="M212.734 402.646H204.074V394.008H212.734V402.646ZM205.032 401.69H211.776V394.964H205.032V401.69Z" fill="#D1D2DC"/>
<path d="M252.93 402.646H244.27V394.008H252.93V402.646ZM245.228 401.69H251.972V394.964H245.228V401.69Z" fill="#D1D2DC"/>
<path d="M212.255 354.549H204.553V362.231H212.255V354.549Z" fill="#D1D2DC"/>
<path d="M212.255 354.549H204.553V362.231H212.255V354.549Z" fill="#CECFD8"/>
<path d="M179.172 320.574H178.554V319.618H179.172V320.574ZM173.764 320.574H171.369V319.618H173.764V320.574ZM166.579 320.574H164.184V319.618H166.579V320.574ZM159.395 320.574H157V319.618H159.395V320.574ZM152.21 320.574H149.815V319.618H152.21V320.574ZM145.025 320.574H142.63V319.618H145.025V320.574ZM137.84 320.574H135.446V319.618H137.84V320.574Z" fill="#16161E"/>
<path d="M173.068 288.33L172.414 289.028L198.824 313.625L199.477 312.927L173.068 288.33Z" fill="#D1D2DC"/>
<path d="M186.172 288.369L185.519 289.067L211.928 313.664L212.582 312.966L186.172 288.369Z" fill="#D1D2DC"/>
<path d="M199.297 288.325L198.643 289.023L225.053 313.62L225.707 312.922L199.297 288.325Z" fill="#D1D2DC"/>
<path d="M212.407 288.364L211.753 289.062L238.163 313.659L238.816 312.961L212.407 288.364Z" fill="#D1D2DC"/>
<path d="M225.531 288.329L224.877 289.028L251.287 313.625L251.941 312.926L225.531 288.329Z" fill="#D1D2DC"/>
<path d="M138.046 405.909H129.54V406.864H138.046V405.909Z" fill="#D1D2DC"/>
<path d="M133.518 403.415H132.562V406.209H133.518V403.415Z" fill="#D1D2DC"/>
<path d="M185.839 386.527H182.165V387.483H185.839V386.527Z" fill="#D1D2DC"/>
<path d="M200.338 416.557H193.718V417.512H200.338V416.557Z" fill="#D1D2DC"/>
<path d="M197.52 415.114H196.563V417.035H197.52V415.114Z" fill="#D1D2DC"/>
<path d="M268.415 418.683H267.457V318.62H269.076V316.231H267.438L236.209 286.78H157.479V285.824H236.592L267.821 315.276H270.034V319.575H268.415V418.683Z" fill="#16161E"/>
<path d="M120.995 432.904H120.037V427.186H124.702V346.767L125.559 346.098V342.668L124.702 341.999V319.575H122.829V315.276H125.31L157.483 285.647L188.9 315.276H270.034V319.575H189.494V341.799L188.406 342.467V345.921L189.494 346.59V427.186H195.275V431.772H194.317V428.142H188.536V347.125L187.448 346.456V341.932L188.536 341.264V318.62H269.076V316.231H188.517L157.474 286.956L125.684 316.231H123.787V318.62H125.66V341.531L126.517 342.2V346.566L125.66 347.235V428.142H120.995V432.904Z" fill="#16161E"/>
<path d="M264.765 413.041H257.298V415.773H264.765V413.041Z" fill="#CECFD8"/>
<path d="M260.186 408.909H252.719V411.641H260.186V408.909Z" fill="#CECFD8"/>
<path d="M609.602 82.2347C605.895 82.2347 603.409 80.1709 600.999 78.1741C598.403 76.0243 595.726 73.8029 591.357 73.8029C589.245 73.8029 587.143 74.8587 585.112 75.881C582.702 77.0944 580.207 78.346 577.735 77.7489C575.934 77.3142 574.469 75.6469 572.922 73.8889C570.531 71.1707 567.811 68.0894 563.15 68.5241C555.515 69.2407 551.291 77.4145 551.248 77.5005C551.147 77.6964 550.927 77.8014 550.711 77.7489C550.496 77.6963 550.342 77.5053 550.342 77.2855C550.342 75.7902 544.839 63.3887 537.185 61.3583C533.933 60.4985 530.522 61.5017 528.06 64.0527C524.631 67.6069 523.663 73.2536 525.479 79.1629L524.564 79.4448C522.648 73.1962 523.697 67.1961 527.371 63.3887C530.077 60.5892 533.837 59.4857 537.429 60.4364C544.552 62.3281 549.71 72.2838 550.989 76.0339C552.445 73.6883 556.526 68.1945 563.059 67.583C568.223 67.1005 571.221 70.521 573.64 73.2679C575.149 74.9829 576.452 76.4638 577.96 76.8317C580.087 77.3476 582.319 76.225 584.681 75.0402C586.812 73.9654 589.02 72.8571 591.357 72.8571C596.071 72.8571 598.887 75.1931 601.612 77.4527C604.089 79.5069 606.436 81.4464 610.023 81.284L610.066 82.2395C609.908 82.249 609.755 82.249 609.602 82.249V82.2347Z" fill="#D1D2DC"/>
<path d="M549.782 86.6584C543.986 86.6584 537.659 86.3096 531.442 85.9657C524.128 85.5596 516.565 85.144 509.998 85.2921L509.974 84.3366C516.579 84.1838 524.161 84.6042 531.495 85.0102C543.809 85.6934 556.55 86.3956 564.592 84.351L564.827 85.2777C560.751 86.3144 555.53 86.6584 549.782 86.6584Z" fill="#D1D2DC"/>
<path d="M700.33 117.595C710.321 117.595 718.421 109.517 718.421 99.552C718.421 89.5869 710.321 81.5085 700.33 81.5085C690.339 81.5085 682.239 89.5869 682.239 99.552C682.239 109.517 690.339 117.595 700.33 117.595Z" fill="#5E23DC" fill-opacity="0.28"/>
<path d="M703.19 133.804H697.471L695.737 125.688H704.919L703.185 133.804H703.19ZM698.247 132.849H702.414L703.736 126.643H696.92L698.242 132.849H698.247Z" fill="#16161E"/>
<path d="M710.413 112.451L703.909 125.966L704.773 126.38L711.277 112.865L710.413 112.451Z" fill="#16161E"/>
<path d="M690.254 112.396L689.39 112.809L695.892 126.325L696.756 125.912L690.254 112.396Z" fill="#16161E"/>
<path d="M696.57 112.64L695.626 112.795L697.867 126.307L698.81 126.152L696.57 112.64Z" fill="#16161E"/>
<path d="M703.944 112.583L701.704 126.095L702.647 126.251L704.888 112.739L703.944 112.583Z" fill="#16161E"/>
<path d="M364.451 423.727H363.493V410.313H353.539V423.727H352.581V409.358H364.451V423.727Z" fill="#D1D2DC"/>
<path d="M358.993 409.835H358.037V423.727H358.993V409.835Z" fill="#D1D2DC"/>
<path d="M397.586 303.261H319.446V304.216H397.586V303.261Z" fill="#16161E"/>
<path d="M398.064 236.161H397.107V303.739H398.064V236.161Z" fill="#D1D2DC"/>
<path d="M320.244 236.161H319.288V303.739H320.244V236.161Z" fill="#D1D2DC"/>
<path d="M319.923 321.118H318.967V411.058H319.923V321.118Z" fill="#D1D2DC"/>
<path d="M397.135 321.118H396.178V361.247H397.135V321.118Z" fill="#D1D2DC"/>
<path d="M393.276 244.43H388.361V247.129H393.276V244.43Z" fill="#CECFD8"/>
<path d="M393.122 419.681H389.999V422.27H393.122V419.681Z" fill="#CECFD8"/>
<path d="M385.243 415.764H378.159V418.353H385.243V415.764Z" fill="#CECFD8"/>
<path d="M326.199 273.924H321.591V274.88H326.199V273.924Z" fill="#D1D2DC"/>
<path d="M324.373 271.359H323.416V274.225H324.373V271.359Z" fill="#D1D2DC"/>
<path d="M410.231 432.904H409.273V429.192H404.292V321.596H397.107V303.261H400.963V236.638H397.107V226.563H403.387V223.673H313.645V226.563H319.925V236.638H316.069V303.261H319.925V321.596H312.74V414.202H311.782V320.64H318.967V304.216H315.111V235.683H318.967V227.519H312.687V222.717H404.345V227.519H398.065V235.683H401.921V304.216H398.065V320.64H405.25V428.237H410.231V432.904Z" fill="#16161E"/>
<path d="M397.586 226.563H319.446V227.519H397.586V226.563Z" fill="#16161E"/>
<path d="M338.212 293.229H337.254V280.345H331.315V292.823H330.357V279.389H338.212V293.229Z" fill="#16161E"/>
<path d="M353.424 293.229H352.467V280.345H346.527V292.469H345.569V279.389H353.424V293.229Z" fill="#16161E"/>
<path d="M368.637 293.229H367.679V280.345H361.74V292.469H360.782V279.389H368.637V293.229Z" fill="#16161E"/>
<path d="M383.844 293.229H382.886V280.345H376.947V292.469H375.989V279.389H383.844V293.229Z" fill="#16161E"/>
<path d="M338.212 271.684H330.357V263.849H338.212V271.684ZM331.315 270.728H337.254V264.805H331.315V270.728Z" fill="#D1D2DC"/>
<path d="M353.424 271.684H345.569V263.849H353.424V271.684ZM346.527 270.728H352.467V264.805H346.527V270.728Z" fill="#D1D2DC"/>
<path d="M368.637 271.684H360.782V263.849H368.637V271.684ZM361.74 270.728H367.679V264.805H361.74V270.728Z" fill="#D1D2DC"/>
<path d="M383.365 264.327H376.468V271.206H383.365V264.327Z" fill="#5E23DC" fill-opacity="0.28"/>
<path d="M338.212 256.397H330.357V248.562H338.212V256.397ZM331.315 255.441H337.254V249.518H331.315V255.441Z" fill="#D1D2DC"/>
<path d="M353.424 256.397H345.569V248.562H353.424V256.397ZM346.527 255.441H352.467V249.518H346.527V255.441Z" fill="#D1D2DC"/>
<path d="M368.637 256.397H360.782V248.562H368.637V256.397ZM361.74 255.441H367.679V249.518H361.74V255.441Z" fill="#D1D2DC"/>
<path d="M383.365 249.04H376.468V255.919H383.365V249.04Z" fill="#5E23DC" fill-opacity="0.28"/>
<path d="M337.733 332.125H330.836V345.563H337.733V332.125Z" fill="#D1D2DC"/>
<path d="M352.945 332.125H346.048V345.563H352.945V332.125Z" fill="#D1D2DC"/>
<path d="M368.158 332.125H361.261V345.563H368.158V332.125Z" fill="#D1D2DC"/>
<path d="M383.365 332.125H376.468V345.563H383.365V332.125Z" fill="#D1D2DC"/>
<path d="M337.733 286.073H330.836V287.028H337.733V286.073Z" fill="#16161E"/>
<path d="M397.586 292.751H319.446V293.707H397.586V292.751Z" fill="#16161E"/>
<path d="M319.896 223.358L318.995 223.028L321.611 215.924H394.497L397.107 223.033L396.207 223.358L393.826 216.88H322.281L319.896 223.358Z" fill="#16161E"/>
<path d="M431.278 223.358L428.897 216.88H394.162V215.924H429.568L432.178 223.033L431.278 223.358Z" fill="#16161E"/>
<path d="M339.802 216.402H338.844V209.083H335.669V216.402H334.711V208.128H339.802V216.402Z" fill="#16161E"/>
<path d="M400.623 216.402H399.665V210.708H373.173V216.402H372.215V209.752H400.623V216.402Z" fill="#16161E"/>
<path d="M394.989 205.682H394.032V210.23H394.989V205.682Z" fill="#16161E"/>
<path d="M419.853 210.23H418.896V216.402H419.853V210.23Z" fill="#16161E"/>
<path d="M394.717 235.726H322.32V236.681H394.717V235.726Z" fill="#16161E"/>
<path d="M383.365 354.191H330.836V355.146H383.365V354.191Z" fill="#D1D2DC"/>
<path d="M378.274 366.368H330.836V367.323H378.274V366.368Z" fill="#D1D2DC"/>
<path d="M358.516 378.545H330.836V379.5H358.516V378.545Z" fill="#D1D2DC"/>
<path d="M358.516 390.354H330.836V391.309H358.516V390.354Z" fill="#D1D2DC"/>
<path d="M358.516 402.536H330.836V403.491H358.516V402.536Z" fill="#D1D2DC"/>
<path d="M404.771 428.161H337.733V429.116H404.771V428.161Z" fill="#16161E"/>
<path d="M425.77 235.683H401.442V236.638H425.77V235.683Z" fill="#16161E"/>
<path d="M429.065 226.563H403.866V227.519H429.065V226.563Z" fill="#16161E"/>
<path d="M343.538 216.402H342.58V209.083H339.323V208.128H343.538V216.402Z" fill="#16161E"/>
<path d="M404.072 216.402H403.114V210.708H400.144V209.752H404.072V216.402Z" fill="#16161E"/>
<path d="M429.065 303.261H401.442V304.216H429.065V303.261Z" fill="#16161E"/>
<path d="M429.065 320.64H404.771V321.596H429.065V320.64Z" fill="#16161E"/>
<path d="M397.586 320.64H319.446V321.596H397.586V320.64Z" fill="#16161E"/>
<path d="M332.043 310.527H327.679V314.879H332.043V310.527Z" fill="#D1D2DC"/>
<path d="M343.098 310.527H338.734V314.879H343.098V310.527Z" fill="#D1D2DC"/>
<path d="M354.157 310.527H349.794V314.879H354.157V310.527Z" fill="#D1D2DC"/>
<path d="M365.212 310.527H360.849V314.879H365.212V310.527Z" fill="#D1D2DC"/>
<path d="M376.267 310.527H371.903V314.879H376.267V310.527Z" fill="#D1D2DC"/>
<path d="M387.327 310.527H382.963V314.879H387.327V310.527Z" fill="#D1D2DC"/>
<path d="M411.212 350.842H410.255V382.987H411.212V350.842Z" fill="#D1D2DC"/>
<path d="M371.238 423.25H345.794V424.205H371.238V423.25Z" fill="#D1D2DC"/>
<path d="M436.733 390.187H435.775V321.596H428.586V303.261H432.446V292.058H431.249V281.037H432.446V236.638H428.586V226.563H434.87V223.673H403.952V222.717H435.828V227.519H429.544V235.683H433.404V281.993H432.207V291.103H433.404V304.216H429.544V320.64H436.733V390.187Z" fill="#16161E"/>
<path d="M441.71 433.382H413.019V432.427H440.752V429.192H435.775V415.377H436.733V428.237H441.71V433.382Z" fill="#16161E"/>
<path d="M506.117 395.298H505.16V432.904H506.117V395.298Z" fill="#16161E"/>
<path d="M614.869 395.298H613.913V432.904H614.869V395.298Z" fill="#16161E"/>
<path d="M610.282 369.86H609.324V286.78H512.508V369.86H511.55V285.824H610.282V369.86Z" fill="#16161E"/>
<path d="M619.598 389.848H534.388V388.892H618.923L614.861 377.293H505.18L501.496 388.892H524.19V389.848H500.84C500.687 389.848 500.543 389.776 500.452 389.652C500.361 389.527 500.337 389.37 500.38 389.226L504.365 376.672C504.427 376.471 504.614 376.338 504.82 376.338H615.191C615.393 376.338 615.575 376.467 615.642 376.658L620.039 389.212C620.091 389.36 620.068 389.518 619.977 389.647C619.885 389.771 619.742 389.848 619.584 389.848H619.598Z" fill="#16161E"/>
<path d="M612.945 394.835C610.612 394.835 608.433 393.703 607.087 391.835C605.736 393.703 603.557 394.835 601.229 394.835C598.901 394.835 596.717 393.703 595.371 391.835C594.021 393.703 591.841 394.835 589.513 394.835C587.186 394.835 585.001 393.703 583.655 391.835C582.305 393.703 580.125 394.835 577.798 394.835C575.47 394.835 573.286 393.703 571.94 391.835C570.589 393.703 568.41 394.835 566.082 394.835C563.754 394.835 561.57 393.703 560.224 391.835C558.873 393.703 556.694 394.835 554.366 394.835C552.038 394.835 549.854 393.703 548.508 391.835C547.157 393.703 544.978 394.835 542.65 394.835C540.322 394.835 538.138 393.703 536.792 391.835C536.577 392.131 536.342 392.413 536.083 392.676L535.398 392.007C535.777 391.62 536.107 391.185 536.375 390.717C536.462 390.569 536.62 390.473 536.792 390.473C536.965 390.473 537.123 390.564 537.209 390.717C538.32 392.671 540.404 393.879 542.65 393.879C544.896 393.879 546.98 392.666 548.091 390.717C548.177 390.569 548.336 390.478 548.508 390.478C548.68 390.478 548.838 390.569 548.925 390.722C550.036 392.676 552.119 393.884 554.366 393.884C556.612 393.884 558.696 392.671 559.807 390.722C559.893 390.574 560.051 390.483 560.224 390.483C560.396 390.483 560.554 390.574 560.64 390.726C561.752 392.68 563.835 393.889 566.082 393.889C568.328 393.889 570.412 392.676 571.523 390.726C571.609 390.578 571.767 390.488 571.94 390.488C572.112 390.488 572.27 390.578 572.356 390.731C573.468 392.685 575.551 393.894 577.798 393.894C580.044 393.894 582.128 392.68 583.239 390.731C583.325 390.583 583.483 390.492 583.655 390.492C583.828 390.492 583.986 390.583 584.072 390.736C585.183 392.69 587.267 393.899 589.513 393.899C591.76 393.899 593.843 392.685 594.955 390.736C595.041 390.588 595.199 390.497 595.371 390.497C595.544 390.497 595.702 390.588 595.788 390.741C596.899 392.695 598.983 393.903 601.229 393.903C603.476 393.903 605.559 392.69 606.67 390.741C606.757 390.593 606.915 390.502 607.087 390.502C607.26 390.502 607.418 390.593 607.504 390.746C608.615 392.699 610.699 393.908 612.945 393.908C615.795 393.908 618.286 391.992 618.999 389.246L619.929 389.484C619.105 392.652 616.231 394.864 612.945 394.864V394.835Z" fill="#16161E"/>
<path d="M519.223 394.835C516.89 394.835 514.711 393.703 513.365 391.835C512.014 393.703 509.835 394.835 507.507 394.835C504.092 394.835 501.118 392.418 500.437 389.088L501.376 388.897C501.97 391.782 504.547 393.879 507.507 393.879C509.749 393.879 511.832 392.666 512.948 390.717C513.035 390.569 513.193 390.478 513.365 390.478C513.538 390.478 513.696 390.569 513.782 390.722C514.893 392.676 516.977 393.884 519.223 393.884C520.21 393.884 521.153 393.665 522.02 393.23L522.451 394.085C521.465 394.582 520.349 394.844 519.223 394.844V394.835Z" fill="#16161E"/>
<path d="M560.789 422.652H516.828V422.175C516.828 410.456 526.384 400.926 538.133 400.926H539.484C551.233 400.926 560.789 410.456 560.789 422.175V422.652ZM517.791 421.697H559.826C559.572 410.729 550.544 401.881 539.484 401.881H538.133C527.074 401.881 518.05 410.729 517.791 421.697Z" fill="#D1D2DC"/>
<path d="M599.304 431.036H598.346V411.225H583.339V431.036H582.381V410.27H599.304V431.036Z" fill="#D1D2DC"/>
<path d="M587.706 410.748H586.75V431.036H587.706V410.748Z" fill="#D1D2DC"/>
<path d="M599.304 407.924H582.381V403.558H599.304V407.924ZM583.339 406.969H598.346V404.513H583.339V406.969Z" fill="#D1D2DC"/>
<path d="M617.352 374.24H502.052V369.382H617.352V374.24ZM503.01 373.285H616.394V370.337H503.01V373.285Z" fill="#16161E"/>
<path d="M633.343 373.758H632.387V432.904H633.343V373.758Z" fill="#16161E"/>
<path d="M626.893 369.86H625.935V286.78H614.358V285.824H626.893V369.86Z" fill="#16161E"/>
<path d="M635.826 374.236H616.6V373.28H634.868V370.337H620.336V369.382H635.826V374.236Z" fill="#16161E"/>
<path d="M615.678 373.758H614.722V376.815H615.678V373.758Z" fill="#16161E"/>
<path d="M505.298 373.758H504.341V376.815H505.298V373.758Z" fill="#16161E"/>
<path d="M612.509 286.78H609.803V285.824H611.551V282.523H509.711V285.824H512.029V286.78H508.753V281.568H612.509V286.78Z" fill="#16161E"/>
<path d="M629.12 286.78H626.414V285.824H628.162V282.523H612.03V281.568H629.12V286.78Z" fill="#16161E"/>
<path d="M574.038 413.332H566.154V405.469H574.038V413.332ZM567.112 412.377H573.08V406.424H567.112V412.377Z" fill="#D1D2DC"/>
<path d="M580.997 355.285H580.039V350.054C580.039 347.445 577.913 345.324 575.297 345.324C572.682 345.324 570.555 347.445 570.555 350.054V355.285H569.597V350.054C569.597 346.92 572.155 344.369 575.297 344.369C578.439 344.369 580.997 346.92 580.997 350.054V355.285Z" fill="#16161E"/>
<path d="M584.973 361.863H565.622V362.818H584.973V361.863Z" fill="#16161E"/>
<path d="M559.05 356.808H558.092V350.054C558.092 347.445 555.966 345.324 553.35 345.324C550.735 345.324 548.609 347.445 548.609 350.054V356.608H547.651V350.054C547.651 346.92 550.208 344.369 553.35 344.369C556.493 344.369 559.05 346.92 559.05 350.054V356.808Z" fill="#16161E"/>
<path d="M563.026 361.863H543.675V362.818H563.026V361.863Z" fill="#16161E"/>
<path d="M526.662 355.671H525.704V350.054C525.704 346.92 528.261 344.369 531.404 344.369C534.546 344.369 537.103 346.92 537.103 350.054V355.409H536.145V350.054C536.145 347.445 534.019 345.324 531.404 345.324C528.788 345.324 526.662 347.445 526.662 350.054V355.671Z" fill="#16161E"/>
<path d="M541.074 361.863H521.728V362.818H541.074V361.863Z" fill="#16161E"/>
<path d="M600.875 362.818H590.869V334.48H600.875V362.818ZM591.827 361.863H599.917V335.435H591.827V361.863Z" fill="#16161E"/>
<path d="M600.396 342.854H591.348V343.81H600.396V342.854Z" fill="#16161E"/>
<path d="M600.396 347.173H591.348V348.128H600.396V347.173Z" fill="#16161E"/>
<path d="M607.135 282.509L562.782 272.4L518.553 282.509L518.342 281.582L562.782 271.421L607.346 281.582L607.135 282.509Z" fill="#16161E"/>
<path d="M621.538 282.509L577.127 272.386H562.782V271.43L577.285 271.445L621.749 281.582L621.538 282.509Z" fill="#16161E"/>
<path d="M626.414 289.068H512.029V290.023H626.414V289.068Z" fill="#16161E"/>
<path d="M551.267 323.339H522.796V299.081H551.267V323.339ZM523.754 322.384H550.309V300.036H523.754V322.384Z" fill="#D1D2DC"/>
<path d="M569.138 314H560.248V322.867H569.138V314Z" fill="#5E23DC" fill-opacity="0.28"/>
<path d="M584.944 314H576.054V322.867H584.944V314Z" fill="#D1D2DC"/>
<path d="M600.755 314H591.865V322.867H600.755V314Z" fill="#D1D2DC"/>
<path d="M583.32 333.386H523.275V334.341H583.32V333.386Z" fill="#D1D2DC"/>
<path d="M600.75 304.904H560.248V305.86H600.75V304.904Z" fill="#D1D2DC"/>
<path d="M563.361 425.275H514.151V421.697H517.302V422.652H515.109V424.32H562.403V422.652H560.305V421.697H563.361V425.275Z" fill="#D1D2DC"/>
<path d="M525.45 360.019C524.803 360.019 523.884 359.899 523.151 359.34C521.915 358.39 521.762 356.593 521.752 356.517L521.719 356.087L522.14 356.006C522.217 355.991 523.999 355.671 525.234 356.622C526.47 357.573 526.623 359.374 526.633 359.45L526.666 359.88L526.245 359.961C526.216 359.966 525.895 360.023 525.445 360.023L525.45 360.019ZM522.787 356.899C522.897 357.386 523.16 358.136 523.735 358.581C524.305 359.02 525.1 359.078 525.603 359.058C525.493 358.571 525.229 357.821 524.655 357.382C524.08 356.942 523.285 356.885 522.787 356.904V356.899Z" fill="#16161E"/>
<path d="M535.59 360.32L535.537 359.894C535.528 359.818 535.322 358.027 536.347 356.851C537.376 355.676 539.187 355.643 539.264 355.643H539.695L539.747 356.063C539.757 356.14 539.963 357.931 538.938 359.106C537.908 360.281 536.098 360.315 536.021 360.315H535.59V360.32ZM538.804 356.646C538.31 356.727 537.544 356.933 537.065 357.482C536.591 358.022 536.486 358.815 536.471 359.312C536.965 359.23 537.731 359.025 538.21 358.48C538.684 357.941 538.789 357.148 538.804 356.651V356.646Z" fill="#16161E"/>
<path d="M529.957 361.566C528.836 361.566 527.921 360.654 527.921 359.536C527.921 358.418 528.836 357.506 529.957 357.506C531.078 357.506 531.993 358.418 531.993 359.536C531.993 360.654 531.078 361.566 529.957 361.566ZM529.957 358.461C529.363 358.461 528.879 358.944 528.879 359.536C528.879 360.129 529.363 360.611 529.957 360.611C530.551 360.611 531.035 360.129 531.035 359.536C531.035 358.944 530.551 358.461 529.957 358.461Z" fill="#16161E"/>
<path d="M533.267 358.824C532.386 358.824 531.667 358.108 531.667 357.229C531.667 356.35 532.386 355.633 533.267 355.633C534.148 355.633 534.867 356.35 534.867 357.229C534.867 358.108 534.148 358.824 533.267 358.824ZM533.267 356.589C532.912 356.589 532.625 356.875 532.625 357.229C532.625 357.582 532.912 357.869 533.267 357.869C533.621 357.869 533.909 357.582 533.909 357.229C533.909 356.875 533.621 356.589 533.267 356.589Z" fill="#16161E"/>
<path d="M570.522 360.253C569.866 360.253 568.941 360.133 568.204 359.57C566.953 358.609 566.795 356.794 566.791 356.713L566.757 356.288L567.179 356.207C567.255 356.192 569.056 355.867 570.306 356.828C571.556 357.788 571.71 359.603 571.719 359.684L571.753 360.11L571.331 360.191C571.298 360.195 570.977 360.253 570.522 360.253ZM567.825 357.1C567.94 357.592 568.199 358.356 568.788 358.805C569.372 359.254 570.182 359.312 570.69 359.288C570.575 358.796 570.316 358.031 569.727 357.578C569.147 357.133 568.333 357.076 567.825 357.095V357.1Z" fill="#16161E"/>
<path d="M579.565 360.563L579.512 360.138C579.503 360.062 579.292 358.246 580.331 357.062C581.371 355.872 583.2 355.839 583.277 355.839H583.703L583.756 356.259C583.766 356.336 583.976 358.151 582.937 359.336C581.898 360.525 580.068 360.559 579.991 360.559H579.565V360.563ZM582.817 356.842C582.319 356.923 581.534 357.133 581.05 357.692C580.561 358.246 580.456 359.054 580.446 359.555C580.944 359.474 581.73 359.264 582.214 358.705C582.698 358.156 582.803 357.348 582.817 356.842Z" fill="#16161E"/>
<path d="M573.357 360.353L573.305 359.928C573.295 359.866 573.132 358.414 573.966 357.458C574.804 356.503 576.27 356.474 576.332 356.474H576.758L576.811 356.894C576.82 356.957 576.983 358.409 576.15 359.364C575.312 360.324 573.846 360.348 573.784 360.348H573.357V360.353ZM575.867 357.487C575.498 357.558 575.005 357.721 574.689 358.084C574.373 358.447 574.277 358.958 574.253 359.331C574.622 359.259 575.115 359.097 575.431 358.734C575.747 358.371 575.843 357.859 575.867 357.487Z" fill="#16161E"/>
<path d="M551.315 360.554C550.117 360.554 549.14 359.579 549.14 358.385C549.14 357.191 550.117 356.216 551.315 356.216C552.512 356.216 553.489 357.191 553.489 358.385C553.489 359.579 552.512 360.554 551.315 360.554ZM551.315 357.172C550.644 357.172 550.098 357.716 550.098 358.385C550.098 359.054 550.644 359.598 551.315 359.598C551.985 359.598 552.531 359.054 552.531 358.385C552.531 357.716 551.985 357.172 551.315 357.172Z" fill="#16161E"/>
<path d="M555.626 357.238C554.687 357.238 553.92 356.474 553.92 355.538C553.92 354.601 554.687 353.837 555.626 353.837C556.564 353.837 557.331 354.601 557.331 355.538C557.331 356.474 556.564 357.238 555.626 357.238ZM555.626 354.792C555.214 354.792 554.878 355.127 554.878 355.538C554.878 355.949 555.214 356.283 555.626 356.283C556.037 356.283 556.373 355.949 556.373 355.538C556.373 355.127 556.037 354.792 555.626 354.792Z" fill="#16161E"/>
<path d="M546.396 361.07H545.438C545.438 359.164 546.994 357.611 548.905 357.611C549.087 357.611 549.27 357.625 549.466 357.654L549.322 358.6C549.174 358.576 549.04 358.566 548.905 358.566C547.521 358.566 546.396 359.689 546.396 361.07Z" fill="#16161E"/>
<path d="M561.848 361.065H560.89C560.89 359.684 559.764 358.562 558.38 358.562C557.637 358.562 556.938 358.887 556.464 359.45L556.095 359.885L555.726 359.45C555.252 358.887 554.553 358.562 553.81 358.562C553.652 358.562 553.509 358.576 553.374 358.6L553.192 357.664C553.389 357.625 553.59 357.606 553.81 357.606C554.658 357.606 555.468 357.912 556.095 358.461C556.722 357.912 557.532 357.606 558.38 357.606C560.291 357.606 561.848 359.159 561.848 361.065Z" fill="#16161E"/>
<path d="M865.923 433.091C861.885 425.514 853.891 420.35 844.685 420.35C835.479 420.35 827.49 425.509 823.447 433.091H865.923Z" fill="#5E23DC" fill-opacity="0.28"/>
<path d="M387.327 407.738C393.152 407.738 397.874 397.585 397.874 385.061C397.874 372.536 393.152 362.383 387.327 362.383C381.502 362.383 376.779 372.536 376.779 385.061C376.779 397.585 381.502 407.738 387.327 407.738Z" fill="#5E23DC" fill-opacity="0.28"/>
<path d="M387.579 395.523H386.622V432.589H387.579V395.523Z" fill="#16161E"/>
<path d="M373.633 411.536C368.239 411.536 364.015 402.698 364.015 391.414C364.015 380.131 368.239 371.293 373.633 371.293C379.026 371.293 383.25 380.131 383.25 391.414C383.25 402.698 379.026 411.536 373.633 411.536ZM373.633 372.248C368.857 372.248 364.973 380.847 364.973 391.414C364.973 401.982 368.857 410.581 373.633 410.581C378.408 410.581 382.292 401.982 382.292 391.414C382.292 380.847 378.408 372.248 373.633 372.248Z" fill="#16161E"/>
<path d="M373.914 400.477H372.957V432.589H373.914V400.477Z" fill="#16161E"/>
<path d="M911.517 432.427H-40.5699V433.382H911.517V432.427Z" fill="#16161E"/>
<path d="M690.712 392.862H636.846C636.631 392.862 636.444 392.719 636.386 392.513C636.329 392.308 636.415 392.088 636.597 391.978L663.976 375.435C664.134 375.339 664.325 375.344 664.479 375.435L690.966 391.978C691.148 392.093 691.23 392.313 691.172 392.513C691.115 392.714 690.928 392.857 690.712 392.857V392.862ZM638.561 391.906H689.045L664.22 376.4L638.561 391.906Z" fill="#16161E"/>
<path d="M663.796 375.611L655.276 392.154L656.128 392.591L664.649 376.048L663.796 375.611Z" fill="#16161E"/>
<path d="M672.454 392.604L663.937 376.06C663.904 375.994 663.885 375.917 663.885 375.841V373.758H664.843V375.726L673.306 392.169L672.454 392.604Z" fill="#16161E"/>
<path d="M684.677 398.752C682.574 398.752 680.639 397.73 679.451 396.039C678.268 397.73 676.328 398.752 674.226 398.752C672.123 398.752 670.183 397.73 669 396.039C667.812 397.73 665.877 398.752 663.774 398.752C661.672 398.752 659.732 397.73 658.549 396.039C657.361 397.73 655.426 398.752 653.323 398.752C651.22 398.752 649.285 397.73 648.097 396.039C646.914 397.73 644.974 398.752 642.872 398.752C639.351 398.752 636.487 395.895 636.487 392.384H637.445C637.445 395.37 639.878 397.797 642.872 397.797C644.893 397.797 646.732 396.688 647.671 394.902C647.839 394.587 648.351 394.587 648.519 394.902C649.462 396.688 651.302 397.797 653.323 397.797C655.344 397.797 657.184 396.688 658.127 394.902C658.209 394.744 658.371 394.644 658.549 394.644C658.726 394.644 658.889 394.744 658.97 394.902C659.914 396.688 661.753 397.797 663.774 397.797C665.796 397.797 667.635 396.688 668.579 394.902C668.66 394.744 668.823 394.644 669 394.644C669.177 394.644 669.34 394.744 669.421 394.902C670.365 396.688 672.204 397.797 674.226 397.797C676.247 397.797 678.086 396.688 679.025 394.902C679.188 394.587 679.705 394.587 679.873 394.902C680.816 396.688 682.656 397.797 684.677 397.797C687.671 397.797 690.104 395.37 690.104 392.384H691.062C691.062 395.895 688.198 398.752 684.677 398.752Z" fill="#16161E"/>
<path d="M497.636 394.047H443.774C443.559 394.047 443.372 393.903 443.314 393.698C443.257 393.492 443.343 393.273 443.525 393.163L470.899 376.624C471.057 376.529 471.249 376.533 471.402 376.624L497.889 393.163C498.071 393.277 498.153 393.497 498.095 393.698C498.038 393.899 497.851 394.042 497.636 394.042V394.047ZM445.489 393.091H495.969L471.143 377.589L445.489 393.091Z" fill="#16161E"/>
<path d="M470.718 376.807L462.2 393.345L463.052 393.782L471.57 377.244L470.718 376.807Z" fill="#16161E"/>
<path d="M479.377 393.789L470.865 377.25C470.832 377.183 470.813 377.107 470.813 377.03V374.981H471.771V376.916L480.229 393.349L479.377 393.784V393.789Z" fill="#16161E"/>
<path d="M491.6 399.937C489.497 399.937 487.562 398.915 486.375 397.223C485.187 398.915 483.252 399.937 481.149 399.937C479.046 399.937 477.111 398.915 475.923 397.223C474.735 398.915 472.8 399.937 470.698 399.937C468.595 399.937 466.66 398.915 465.472 397.223C464.284 398.915 462.349 399.937 460.246 399.937C458.143 399.937 456.208 398.915 455.021 397.223C453.833 398.915 451.898 399.937 449.795 399.937C446.274 399.937 443.41 397.08 443.41 393.569H444.368C444.368 396.555 446.801 398.981 449.795 398.981C451.816 398.981 453.655 397.873 454.599 396.082C454.68 395.924 454.843 395.824 455.021 395.824C455.198 395.824 455.361 395.924 455.442 396.082C456.386 397.868 458.225 398.981 460.246 398.981C462.268 398.981 464.107 397.873 465.046 396.082C465.208 395.766 465.726 395.766 465.893 396.082C466.837 397.868 468.676 398.981 470.698 398.981C472.719 398.981 474.558 397.873 475.502 396.082C475.665 395.766 476.182 395.766 476.35 396.082C477.293 397.868 479.132 398.981 481.154 398.981C483.175 398.981 485.014 397.873 485.958 396.082C486.039 395.924 486.202 395.824 486.379 395.824C486.557 395.824 486.719 395.924 486.801 396.082C487.744 397.868 489.584 398.981 491.605 398.981C494.599 398.981 497.032 396.555 497.032 393.569H497.99C497.99 397.08 495.125 399.937 491.605 399.937H491.6Z" fill="#16161E"/>
<path d="M64.1016 241.377H57.9228V235.215H64.1016V241.377ZM58.8807 240.422H63.1437V236.17H58.8807V240.422Z" fill="#D1D2DC"/>
<path d="M78.5044 241.377H72.3208V235.215H78.5044V241.377ZM73.2788 240.422H77.5465V236.17H73.2788V240.422Z" fill="#D1D2DC"/>
<path d="M92.9026 241.377H86.7238V235.215H92.9026V241.377ZM87.6817 240.422H91.9446V236.17H87.6817V240.422Z" fill="#D1D2DC"/>
<path d="M107.306 241.377H101.122V235.215H107.306V241.377ZM102.08 240.422H106.348V236.17H102.08V240.422Z" fill="#D1D2DC"/>
<path d="M889.556 404.972C889.556 410.819 884.804 415.558 878.942 415.558C873.079 415.558 868.327 410.819 868.327 404.972C868.327 400.396 874.832 390.182 877.658 385.964C878.271 385.051 879.612 385.051 880.225 385.964C883.051 390.182 889.556 400.396 889.556 404.972Z" fill="#5E23DC" fill-opacity="0.28"/>
<path d="M879.419 404.757H878.463V432.685H879.419V404.757Z" fill="#16161E"/>
<path d="M881.308 407.031L878.693 409.639L879.37 410.314L881.985 407.706L881.308 407.031Z" fill="#16161E"/>
<path d="M895.165 418.726C892.061 418.726 889.158 417.202 887.396 414.651L888.186 414.111C889.771 416.404 892.382 417.775 895.17 417.775C899.84 417.775 903.638 413.987 903.638 409.329C903.638 405.598 898.192 397.066 895.854 393.574C895.543 393.11 894.796 393.11 894.485 393.574C893.613 394.873 891.912 397.472 890.313 400.3L889.479 399.832C891.093 396.98 892.813 394.357 893.689 393.048C894.02 392.556 894.576 392.26 895.17 392.26C895.763 392.26 896.319 392.556 896.65 393.048C899.619 397.482 904.596 405.488 904.596 409.338C904.596 414.522 900.366 418.74 895.17 418.74L895.165 418.726Z" fill="#16161E"/>
<path d="M895.642 409.143H894.686V432.685H895.642V409.143Z" fill="#16161E"/>
<path d="M539.973 404.791C539.973 410.638 535.221 415.377 529.358 415.377C523.496 415.377 518.744 410.638 518.744 404.791C518.744 400.214 525.249 390 528.075 385.782C528.688 384.87 530.034 384.87 530.642 385.782C533.468 390 539.973 400.214 539.973 404.791Z" fill="#5E23DC" fill-opacity="0.28"/>
<path d="M529.836 404.571H528.879V432.503H529.836V404.571Z" fill="#16161E"/>
<path d="M531.736 406.844L529.114 409.458L529.792 410.134L532.413 407.519L531.736 406.844Z" fill="#16161E"/>
<path d="M157.876 404.791C157.876 410.638 153.125 415.377 147.262 415.377C141.399 415.377 136.648 410.638 136.648 404.791C136.648 400.214 143.152 390 145.978 385.782C146.592 384.87 147.933 384.87 148.546 385.782C151.372 390 157.876 400.214 157.876 404.791Z" fill="#5E23DC" fill-opacity="0.28"/>
<path d="M147.739 404.571H146.783V432.503H147.739V404.571Z" fill="#16161E"/>
<path d="M149.633 406.839L147.018 409.453L147.696 410.128L150.311 407.514L149.633 406.839Z" fill="#16161E"/>
<path d="M-18.6565 404.972C-18.6565 410.819 -13.905 415.558 -8.0423 415.558C-2.17959 415.558 2.57188 410.819 2.57188 404.972C2.57188 400.396 -3.93266 390.182 -6.75864 385.964C-7.37174 385.051 -8.71767 385.051 -9.32597 385.964C-12.152 390.182 -18.6565 400.396 -18.6565 404.972Z" fill="#5E23DC" fill-opacity="0.28"/>
<path d="M80.6886 419.82C86.4766 419.82 91.1687 415.14 91.1687 409.367C91.1687 403.594 86.4766 398.915 80.6886 398.915C74.9006 398.915 70.2085 403.594 70.2085 409.367C70.2085 415.14 74.9006 419.82 80.6886 419.82Z" fill="#5E23DC" fill-opacity="0.28"/>
<path d="M81.0127 410.194H80.0564V433.048H81.0127V410.194Z" fill="#16161E"/>
<path d="M426.153 416.566C433.457 416.566 439.377 410.661 439.377 403.376C439.377 396.092 433.457 390.187 426.153 390.187C418.849 390.187 412.928 396.092 412.928 403.376C412.928 410.661 418.849 416.566 426.153 416.566Z" fill="#5E23DC" fill-opacity="0.28"/>
<path d="M426.439 404.418H425.482V432.235H426.439V404.418Z" fill="#16161E"/>
<path d="M237.665 383.021L232.353 373.17L227.041 383.021L226.198 382.572L232.353 371.154L238.508 382.572L237.665 383.021Z" fill="#16161E"/>
<path d="M240.38 396.507L232.353 381.631L224.33 396.507L223.487 396.058L232.353 379.615L241.223 396.058L240.38 396.507Z" fill="#16161E"/>
<path d="M241.736 407.48L232.353 390.091L222.974 407.48L222.131 407.031L232.353 388.075L242.579 407.031L241.736 407.48Z" fill="#16161E"/>
<path d="M232.83 372.506H231.874V432.976H232.83V372.506Z" fill="#16161E"/>
<path d="M845.308 383.021L844.465 382.572L850.619 371.154L856.774 382.572L855.931 383.021L850.619 373.17L845.308 383.021Z" fill="#16161E"/>
<path d="M858.642 396.507L850.619 381.631L842.596 396.507L841.753 396.058L850.619 379.615L859.485 396.058L858.642 396.507Z" fill="#16161E"/>
<path d="M860.003 407.48L850.619 390.091L841.241 407.48L840.398 407.031L850.619 388.075L860.846 407.031L860.003 407.48Z" fill="#16161E"/>
<path d="M851.097 372.506H850.14V432.976H851.097V372.506Z" fill="#16161E"/>
<path d="M482.543 432.995H481.585V423.794C481.585 423.532 481.801 423.317 482.064 423.317H489.081V414.202H490.039V423.794C490.039 424.057 489.823 424.272 489.56 424.272H482.543V432.995Z" fill="#16161E"/>
<path d="M462.761 432.995H461.803V424.272H454.781C454.518 424.272 454.302 424.057 454.302 423.794V414.202H455.26V423.317H462.282C462.546 423.317 462.761 423.532 462.761 423.794V432.995Z" fill="#16161E"/>
<path d="M486.946 425.759L486.036 426.052L488.301 433.053L489.211 432.76L486.946 425.759Z" fill="#16161E"/>
<path d="M457.408 425.744L455.147 432.746L456.058 433.038L458.318 426.037L457.408 425.744Z" fill="#16161E"/>
<path d="M278.186 382.218H277.228V242.896H247.963V242.419C247.963 232.229 239.652 223.94 229.436 223.94C219.219 223.94 210.909 232.229 210.909 242.419V242.896H181.643V283.827H180.685V241.941H209.956C210.209 231.445 218.85 222.985 229.436 222.985C240.021 222.985 248.662 231.445 248.916 241.941H278.186V382.218Z" fill="#D1D2DC"/>
<path d="M181.155 242.896H175.622V236.514H207.805V237.469H176.58V241.941H181.155V242.896Z" fill="#D1D2DC"/>
<path d="M282.813 242.896H277.281V241.941H281.855V237.469H250.631V236.514H282.813V242.896Z" fill="#D1D2DC"/>
<path d="M181.632 201.172H180.676V236.992H181.632V201.172Z" fill="#D1D2DC"/>
<path d="M278.185 201.172H277.228V236.992H278.185V201.172Z" fill="#D1D2DC"/>
<path d="M282.813 201.655H175.622V195.272H282.813V201.655ZM176.58 200.699H281.855V196.228H176.58V200.699Z" fill="#D1D2DC"/>
<path d="M181.634 195.75H180.676V179.312L183.976 176.02V86.7108H196.908V77.8443H208.284V86.7108H220.033V87.6662H207.326V78.7998H197.866V87.6662H184.934V176.412L181.634 179.704V195.75Z" fill="#D1D2DC"/>
<path d="M278.186 195.75H277.228V179.704L273.928 176.412V87.6662H260.996V78.7998H232.741V87.6662H220.033V86.7108H231.783V77.8443H261.954V86.7108H274.886V176.02L278.186 179.312V195.75Z" fill="#D1D2DC"/>
<path d="M301.339 242.419H300.382V393.062H301.339V242.419Z" fill="#D1D2DC"/>
<path d="M305.967 242.896H282.334V241.941H305.009V237.469H273.784V236.514H305.967V242.896Z" fill="#D1D2DC"/>
<path d="M301.339 201.172H300.382V236.992H301.339V201.172Z" fill="#D1D2DC"/>
<path d="M305.967 201.65H282.799V200.695H305.009V196.228H283.249V195.272H305.967V201.65Z" fill="#D1D2DC"/>
<path d="M301.34 195.75H300.382V179.704L297.082 176.412V87.6662H284.15V78.7998H263.41V77.8443H285.108V86.7108H298.04V176.02L301.34 179.312V195.75Z" fill="#D1D2DC"/>
<path d="M300.861 93.0597H179.612V94.0151H300.861V93.0597Z" fill="#D1D2DC"/>
<path d="M193.68 227.433H189.642V212.341C189.642 211.228 190.547 210.33 191.659 210.33C192.77 210.33 193.675 211.233 193.675 212.341V227.433H193.68Z" fill="#D1D2DC"/>
<path d="M207.819 227.433H203.782V212.341C203.782 211.228 204.687 210.33 205.798 210.33C206.909 210.33 207.815 211.233 207.815 212.341V227.433H207.819Z" fill="#D1D2DC"/>
<path d="M223.501 215.576H219.463V211.138C219.463 210.024 220.369 209.126 221.48 209.126C222.591 209.126 223.496 210.029 223.496 211.138V215.576H223.501Z" fill="#D1D2DC"/>
<path d="M239.188 215.576H235.15V211.138C235.15 210.024 236.055 209.126 237.166 209.126C238.278 209.126 239.183 210.029 239.183 211.138V215.576H239.188Z" fill="#D1D2DC"/>
<path d="M255.645 227.433H251.608V212.341C251.608 211.228 252.513 210.33 253.624 210.33C254.735 210.33 255.641 211.233 255.641 212.341V227.433H255.645Z" fill="#D1D2DC"/>
<path d="M269.785 227.433H265.747V212.341C265.747 211.228 266.652 210.33 267.764 210.33C268.875 210.33 269.78 211.233 269.78 212.341V227.433H269.785Z" fill="#D1D2DC"/>
<path d="M199.107 110.348H193.258V104.515H199.107V110.348ZM194.216 109.393H198.149V105.471H194.216V109.393Z" fill="#D1D2DC"/>
<path d="M212.542 110.348H206.694V104.515H212.542V110.348ZM207.652 109.393H211.584V105.471H207.652V109.393Z" fill="#D1D2DC"/>
<path d="M225.977 110.348H220.129V104.515H225.977V110.348ZM221.087 109.393H225.02V105.471H221.087V109.393Z" fill="#D1D2DC"/>
<path d="M239.413 110.348H233.564V104.515H239.413V110.348ZM234.522 109.393H238.455V105.471H234.522V109.393Z" fill="#D1D2DC"/>
<path d="M252.853 110.348H247.005V104.515H252.853V110.348ZM247.963 109.393H251.895V105.471H247.963V109.393Z" fill="#D1D2DC"/>
<path d="M266.288 110.348H260.44V104.515H266.288V110.348ZM261.398 109.393H265.33V105.471H261.398V109.393Z" fill="#D1D2DC"/>
<path d="M199.107 125.769H193.258V119.936H199.107V125.769ZM194.216 124.814H198.149V120.892H194.216V124.814Z" fill="#D1D2DC"/>
<path d="M225.977 125.769H220.129V119.936H225.977V125.769ZM221.087 124.814H225.02V120.892H221.087V124.814Z" fill="#D1D2DC"/>
<path d="M239.413 125.769H233.564V119.936H239.413V125.769ZM234.522 124.814H238.455V120.892H234.522V124.814Z" fill="#D1D2DC"/>
<path d="M252.853 125.769H247.005V119.936H252.853V125.769ZM247.963 124.814H251.895V120.892H247.963V124.814Z" fill="#D1D2DC"/>
<path d="M266.288 125.769H260.44V119.936H266.288V125.769ZM261.398 124.814H265.33V120.892H261.398V124.814Z" fill="#D1D2DC"/>
<path d="M199.107 141.185H193.258V135.352H199.107V141.185ZM194.216 140.23H198.149V136.308H194.216V140.23Z" fill="#D1D2DC"/>
<path d="M225.977 141.185H220.129V135.352H225.977V141.185ZM221.087 140.23H225.02V136.308H221.087V140.23Z" fill="#D1D2DC"/>
<path d="M239.413 141.185H233.564V135.352H239.413V141.185ZM234.522 140.23H238.455V136.308H234.522V140.23Z" fill="#D1D2DC"/>
<path d="M252.853 141.185H247.005V135.352H252.853V141.185ZM247.963 140.23H251.895V136.308H247.963V140.23Z" fill="#D1D2DC"/>
<path d="M266.288 141.185H260.44V135.352H266.288V141.185ZM261.398 140.23H265.33V136.308H261.398V140.23Z" fill="#D1D2DC"/>
<path d="M195.371 274.803H190.322V255.322H195.371V274.803ZM191.28 273.848H194.413V256.277H191.28V273.848Z" fill="#D1D2DC"/>
<path d="M209.481 274.803H204.433V255.322H209.481V274.803ZM205.391 273.848H208.523V256.277H205.391V273.848Z" fill="#D1D2DC"/>
<path d="M223.592 274.803H218.544V255.322H223.592V274.803ZM219.502 273.848H222.634V256.277H219.502V273.848Z" fill="#D1D2DC"/>
<path d="M237.708 274.803H232.659V255.322H237.708V274.803ZM233.617 273.848H236.75V256.277H233.617V273.848Z" fill="#D1D2DC"/>
<path d="M251.818 274.803H246.77V255.322H251.818V274.803ZM247.728 273.848H250.86V256.277H247.728V273.848Z" fill="#D1D2DC"/>
<path d="M265.934 274.803H260.886V255.322H265.934V274.803ZM261.843 273.848H264.976V256.277H261.843V273.848Z" fill="#D1D2DC"/>
<path d="M229.714 241.086C228.071 241.086 226.734 239.753 226.734 238.114C226.734 236.476 228.071 235.143 229.714 235.143C231.356 235.143 232.693 236.476 232.693 238.114C232.693 239.753 231.356 241.086 229.714 241.086ZM229.714 236.098C228.598 236.098 227.692 237.001 227.692 238.114C227.692 239.227 228.598 240.13 229.714 240.13C230.83 240.13 231.735 239.227 231.735 238.114C231.735 237.001 230.83 236.098 229.714 236.098Z" fill="#D1D2DC"/>
<path d="M284.629 86.7108H274.407V87.6663H284.629V86.7108Z" fill="#D1D2DC"/>
<path d="M212.542 87.1885H211.584V78.7998H207.805V77.8443H212.542V87.1885Z" fill="#D1D2DC"/>
<path d="M95.5658 194.322H61.6924V193.366H94.6078V139.633H0.785321V193.366H34.4193V194.322H-0.172638V138.677H95.5658V194.322Z" fill="#D1D2DC"/>
<path d="M21.4341 74.4716L20.5528 74.0895L47.7349 11.0305L74.4093 74.0942L73.528 74.4669L47.7253 13.4669L21.4341 74.4716Z" fill="#D1D2DC"/>
<path d="M100.538 139.666H95.0868V138.711H99.5797V134.134H-3.63088V138.677H0.306336V139.633H-4.58884V133.179H100.538V139.666Z" fill="#D1D2DC"/>
<path d="M95.5658 133.427H94.6078V83.768H0.785321V133.427H-0.172638V82.8126H95.5658V133.427Z" fill="#D1D2DC"/>
<path d="M0.783711 77.1612H-0.172638V83.2903H0.783711V77.1612Z" fill="#D1D2DC"/>
<path d="M10.2627 77.1612H9.30637V83.2903H10.2627V77.1612Z" fill="#D1D2DC"/>
<path d="M19.7417 77.1612H18.7854V83.2903H19.7417V77.1612Z" fill="#D1D2DC"/>
<path d="M29.2207 77.1612H28.2644V83.2903H29.2207V77.1612Z" fill="#D1D2DC"/>
<path d="M38.695 77.1612H37.7386V83.2903H38.695V77.1612Z" fill="#D1D2DC"/>
<path d="M48.174 77.1612H47.2176V83.2903H48.174V77.1612Z" fill="#D1D2DC"/>
<path d="M57.653 77.1612H56.6966V83.2903H57.653V77.1612Z" fill="#D1D2DC"/>
<path d="M67.132 77.1612H66.1756V83.2903H67.132V77.1612Z" fill="#D1D2DC"/>
<path d="M76.611 77.1612H75.6546V83.2903H76.611V77.1612Z" fill="#D1D2DC"/>
<path d="M86.0852 77.1612H85.1289V83.2903H86.0852V77.1612Z" fill="#D1D2DC"/>
<path d="M95.5642 77.1612H94.6078V83.2903H95.5642V77.1612Z" fill="#D1D2DC"/>
<path d="M13.2436 92.2237H9.35426V96.1028H13.2436V92.2237Z" fill="#D1D2DC"/>
<path d="M49.9047 203.924H45.0574V199.089H49.9047V203.924ZM46.0154 202.969H48.9467V200.045H46.0154V202.969Z" fill="#D1D2DC"/>
<path d="M24.8828 92.2237H20.9935V96.1028H24.8828V92.2237Z" fill="#D1D2DC"/>
<path d="M36.522 92.2237H32.6327V96.1028H36.522V92.2237Z" fill="#D1D2DC"/>
<path d="M48.1612 92.2237H44.2719V96.1028H48.1612V92.2237Z" fill="#D1D2DC"/>
<path d="M59.8004 92.2237H55.9111V96.1028H59.8004V92.2237Z" fill="#D1D2DC"/>
<path d="M71.4396 92.2237H67.5503V96.1028H71.4396V92.2237Z" fill="#D1D2DC"/>
<path d="M83.0788 92.2237H79.1895V96.1028H83.0788V92.2237Z" fill="#D1D2DC"/>
<path d="M24.3511 185.966H12.7646V146.875H24.3511V185.966ZM13.7226 185.011H23.3932V147.83H13.7226V185.011Z" fill="#D1D2DC"/>
<path d="M83.5578 185.966H71.9713V146.875H83.5578V185.966ZM72.9292 185.011H82.5998V147.83H72.9292V185.011Z" fill="#D1D2DC"/>
<path d="M63.819 185.489H62.8611V147.83H33.4565V185.489H32.4986V146.875H63.819V185.489Z" fill="#D1D2DC"/>
<path d="M-4.85706 380.623H-5.81502V199.276L-0.033731 193.505L0.646419 194.183L-4.85706 199.667V380.623Z" fill="#D1D2DC"/>
<path d="M101.845 206.475H100.887V199.667L95.379 194.183L96.0592 193.505L101.845 199.276V206.475Z" fill="#D1D2DC"/>
<path d="M30.0462 303.223H29.0882V201.33L47.3661 183.095L48.0462 183.774L30.0462 201.722V303.223Z" fill="#D1D2DC"/>
<path d="M48.0215 183.113L47.3443 183.789L57.5135 193.928L58.1908 193.252L48.0215 183.113Z" fill="#D1D2DC"/>
<path d="M48.2075 0H47.2511V12.2487H48.2075V0Z" fill="#D1D2DC"/>
<path d="M47.2711 12.1624L35.6235 71.8708L36.5638 72.0532L48.2114 12.3449L47.2711 12.1624Z" fill="#D1D2DC"/>
<path d="M48.1984 12.2597L47.2569 12.4362L58.514 72.1413L59.4554 71.9647L48.1984 12.2597Z" fill="#D1D2DC"/>
<path d="M472.626 51.1255H471.67V65.6721H472.626V51.1255Z" fill="#D1D2DC"/>
<path d="M721.204 419.738C722.502 421.033 722.061 423.57 722.061 423.57C722.061 423.57 719.518 424.009 718.22 422.715C716.922 421.42 717.363 418.883 717.363 418.883C717.363 418.883 719.906 418.444 721.204 419.738Z" fill="#5E23DC" fill-opacity="0.28"/>
<path d="M731.449 418.3C732.297 417.455 733.959 417.742 733.959 417.742C733.959 417.742 734.247 419.399 733.399 420.245C732.551 421.09 730.889 420.804 730.889 420.804C730.889 420.804 730.602 419.146 731.449 418.3Z" fill="#5E23DC" fill-opacity="0.28"/>
<path d="M739.889 420.474C740.737 419.629 742.399 419.915 742.399 419.915C742.399 419.915 742.686 421.573 741.839 422.418C740.991 423.264 739.329 422.977 739.329 422.977C739.329 422.977 739.041 421.32 739.889 420.474Z" fill="#5E23DC" fill-opacity="0.28"/>
<path d="M743.845 432.976L742.897 432.828L743.893 426.474H716.381L717.372 432.828L716.424 432.976L715.346 426.073C715.327 425.934 715.365 425.796 715.456 425.691C715.547 425.586 715.681 425.524 715.82 425.524H744.454C744.593 425.524 744.727 425.586 744.818 425.691C744.909 425.796 744.947 425.939 744.928 426.073L743.845 432.976Z" fill="#16161E"/>
<path d="M723.335 417.834L722.694 419.008L723.534 419.465L724.175 418.291L723.335 417.834Z" fill="#16161E"/>
<path d="M726.283 418.83L725.685 419.575L726.432 420.171L727.03 419.426L726.283 418.83Z" fill="#16161E"/>
<path d="M735.839 419.585L735.154 420.564L735.939 421.11L736.623 420.131L735.839 419.585Z" fill="#16161E"/>
<path d="M725.587 420.966H724.413V421.922H725.587V420.966Z" fill="#16161E"/>
<path d="M735.55 422.127H734.007V423.082H735.55V422.127Z" fill="#16161E"/>
<path d="M728.185 421.129L727.248 421.316L728.206 426.094L729.143 425.907L728.185 421.129Z" fill="#16161E"/>
<path d="M732.114 422.175H731.157V426.001H732.114V422.175Z" fill="#16161E"/>
<path d="M737.905 422.597L736.959 422.735L737.457 426.133L738.403 425.996L737.905 422.597Z" fill="#16161E"/>
<path d="M732.221 430.855L729.95 429.226L727.68 430.855L725.409 429.226L723.417 430.654L722.861 429.88L725.409 428.051L727.68 429.68L729.95 428.051L732.221 429.68L734.491 428.051L737.039 429.88L736.483 430.654L734.491 429.226L732.221 430.855Z" fill="#D1D2DC"/>
<path d="M310.513 419.738C311.811 421.033 311.37 423.57 311.37 423.57C311.37 423.57 308.827 424.009 307.529 422.715C306.231 421.42 306.671 418.883 306.671 418.883C306.671 418.883 309.215 418.444 310.513 419.738Z" fill="#5E23DC" fill-opacity="0.28"/>
<path d="M320.763 418.3C321.611 417.455 323.273 417.742 323.273 417.742C323.273 417.742 323.56 419.399 322.712 420.245C321.865 421.09 320.202 420.804 320.202 420.804C320.202 420.804 319.915 419.146 320.763 418.3Z" fill="#5E23DC" fill-opacity="0.28"/>
<path d="M329.203 420.474C330.05 419.629 331.712 419.915 331.712 419.915C331.712 419.915 332 421.573 331.152 422.418C330.304 423.264 328.642 422.977 328.642 422.977C328.642 422.977 328.355 421.32 329.203 420.474Z" fill="#5E23DC" fill-opacity="0.28"/>
<path d="M305.737 432.976L304.655 426.073C304.631 425.934 304.674 425.796 304.765 425.691C304.856 425.586 304.99 425.524 305.129 425.524H333.767C333.906 425.524 334.04 425.586 334.131 425.691C334.222 425.796 334.261 425.939 334.241 426.073L333.159 432.976L332.211 432.828L333.207 426.474H305.689L306.686 432.828L305.737 432.976Z" fill="#16161E"/>
<path d="M312.66 417.848L312.022 419.024L312.864 419.478L313.501 418.301L312.66 417.848Z" fill="#16161E"/>
<path d="M315.62 418.877L315.021 419.622L315.768 420.219L316.367 419.474L315.62 418.877Z" fill="#16161E"/>
<path d="M325.153 419.568L324.462 420.548L325.245 421.097L325.936 420.117L325.153 419.568Z" fill="#16161E"/>
<path d="M314.895 420.966H313.727V421.922H314.895V420.966Z" fill="#16161E"/>
<path d="M324.858 422.127H323.321V423.082H324.858V422.127Z" fill="#16161E"/>
<path d="M317.499 421.132L316.561 421.319L317.519 426.096L318.457 425.909L317.499 421.132Z" fill="#16161E"/>
<path d="M321.422 422.175H320.466V426.001H321.422V422.175Z" fill="#16161E"/>
<path d="M327.223 422.551L326.277 422.689L326.775 426.087L327.721 425.949L327.223 422.551Z" fill="#16161E"/>
<path d="M321.534 430.855L319.264 429.226L316.989 430.855L314.718 429.226L312.726 430.654L312.17 429.88L314.718 428.051L316.989 429.68L319.264 428.051L321.534 429.68L323.804 428.051L326.353 429.88L325.797 430.654L323.804 429.226L321.534 430.855Z" fill="#D1D2DC"/>
<path d="M89.7701 421.567L88.8695 421.888L89.502 423.651L90.4026 423.329L89.7701 421.567Z" fill="#16161E"/>
<path d="M92.7531 421.298L91.4915 421.953L91.9341 422.801L93.1957 422.145L92.7531 421.298Z" fill="#16161E"/>
<path d="M100.518 423.66H99.1342V424.616H100.518V423.66Z" fill="#16161E"/>
<path d="M104.294 422.356L103.665 423.241L104.446 423.792L105.074 422.908L104.294 422.356Z" fill="#16161E"/>
<path d="M109.909 424.631L109.31 425.375L110.568 426.382L111.167 425.637L109.909 424.631Z" fill="#16161E"/>
<path d="M112.498 422.126L111.617 423.233L112.367 423.826L113.248 422.719L112.498 422.126Z" fill="#16161E"/>
<path d="M92.1846 424.942L91.2377 425.076L91.8653 429.479L92.8121 429.345L92.1846 424.942Z" fill="#16161E"/>
<path d="M101.812 424.96L101.177 429.864L102.126 429.986L102.76 425.082L101.812 424.96Z" fill="#16161E"/>
<path d="M90.8144 429.269C91.5807 430.301 90.9964 432.03 90.9964 432.03C90.9964 432.03 89.1715 432.083 88.4051 431.046C87.6387 430.014 88.2231 428.285 88.2231 428.285C88.2231 428.285 90.048 428.232 90.8144 429.269Z" fill="#5E23DC" fill-opacity="0.28"/>
<path d="M97.75 427.272C97.3955 428.509 95.6664 429.102 95.6664 429.102C95.6664 429.102 94.5121 427.688 94.8617 426.455C95.2162 425.218 96.9453 424.625 96.9453 424.625C96.9453 424.625 98.0996 426.039 97.75 427.272Z" fill="#5E23DC" fill-opacity="0.28"/>
<path d="M114.241 431.184C113.417 431.934 111.87 431.586 111.87 431.586C111.87 431.586 111.664 430.019 112.488 429.269C113.312 428.519 114.859 428.868 114.859 428.868C114.859 428.868 115.065 430.434 114.241 431.184Z" fill="#5E23DC" fill-opacity="0.28"/>
<path d="M109.207 429.178C108.728 430.86 106.376 431.667 106.376 431.667C106.376 431.667 104.805 429.747 105.284 428.065C105.763 426.383 108.115 425.576 108.115 425.576C108.115 425.576 109.686 427.497 109.207 429.178Z" fill="#5E23DC" fill-opacity="0.28"/>
<path d="M855.615 334.8C855.184 337.318 856.382 339.935 858.772 341.192C861.162 342.448 864.002 341.956 865.842 340.179L855.615 334.8Z" fill="#5E23DC" fill-opacity="0.28"/>
<path d="M9.27284 351.334C8.84176 353.851 10.0392 356.469 12.4293 357.726C14.8194 358.982 17.6598 358.49 19.4991 356.713L9.27284 351.334Z" fill="#5E23DC" fill-opacity="0.28"/>
<path d="M900.548 368.842C898.915 366.874 896.142 366.076 893.632 367.065C891.122 368.054 889.642 370.524 889.795 373.075L900.548 368.842Z" fill="#5E23DC" fill-opacity="0.28"/>
<path d="M457.794 368.842C456.161 366.874 453.387 366.076 450.878 367.065C448.368 368.054 446.888 370.524 447.041 373.075L457.794 368.842Z" fill="#5E23DC" fill-opacity="0.28"/>
<path d="M848.134 358.471C847.406 356.947 845.763 355.987 843.99 356.211C842.218 356.436 840.868 357.783 840.551 359.441L848.134 358.471Z" fill="#D1D2DC"/>
<path d="M655.948 409.009C655.9 409.009 655.852 409.009 655.804 409.009L655.866 408.053C656.738 408.111 657.744 407.308 658.06 406.993L658.735 407.671C658.678 407.729 657.37 409.014 655.948 409.014V409.009Z" fill="#16161E"/>
<path d="M661.935 418.267C660.963 418.267 659.162 418.133 658.352 417.598C656.231 416.189 656.465 412.711 656.48 412.563L657.433 412.635C657.433 412.663 657.232 415.702 658.884 416.8C659.507 417.211 661.461 417.359 662.318 417.297L662.385 418.253C662.275 418.262 662.122 418.267 661.94 418.267H661.935Z" fill="#16161E"/>
<path d="M658.118 431.863L657.179 431.672C657.189 431.629 658.056 427.363 659.114 424.081C658.333 423.794 656.671 423.192 655.651 422.872L655.56 422.844C654.463 422.5 652.806 421.979 652.15 420.603C651.752 419.767 651.795 418.75 652.269 417.574C652.629 416.686 653.002 415.659 653.362 414.665C653.898 413.179 654.458 411.641 655.004 410.48L655.871 410.886C655.34 412.009 654.794 413.523 654.262 414.99C653.898 415.993 653.524 417.03 653.156 417.933C652.782 418.85 652.734 419.614 653.012 420.197C653.486 421.195 654.846 421.625 655.843 421.936L655.938 421.965C657.327 422.404 659.775 423.312 659.88 423.35L660.316 423.512L660.168 423.952C659.066 427.22 658.127 431.82 658.118 431.868V431.863Z" fill="#16161E"/>
<path d="M659.718 431.968L658.851 431.567C660.584 427.845 662.203 423.422 661.839 422.762C661.375 421.988 660.12 421.243 658.98 420.603C658.74 420.469 658.52 420.355 658.314 420.245C657.289 419.71 656.475 419.285 656.475 418.095H657.433C657.433 418.683 657.73 418.864 658.76 419.399C658.97 419.509 659.2 419.628 659.449 419.767C660.757 420.498 662.079 421.291 662.663 422.27C663.487 423.656 660.618 430.043 659.722 431.963L659.718 431.968Z" fill="#16161E"/>
<path d="M653.266 413.757C652.657 413.308 652.293 412.683 652.246 411.985C652.202 411.354 652.399 410.361 653.587 409.214C654.267 408.555 654.636 408.006 654.961 407.523C655.421 406.84 655.819 406.248 656.805 405.923L656.877 405.899H657.356C658.477 405.899 659.358 407.055 659.358 408.536C659.358 410.017 658.477 411.173 657.356 411.173C656.705 411.173 656.116 410.781 655.737 410.098L656.576 409.635C656.781 410.003 657.064 410.213 657.351 410.213C657.917 410.213 658.396 409.444 658.396 408.531C658.396 407.619 657.917 406.85 657.351 406.85H657.031C656.408 407.074 656.173 407.428 655.752 408.049C655.416 408.546 655 409.167 654.248 409.897C653.515 410.604 653.151 411.302 653.194 411.918C653.232 412.444 653.558 412.792 653.826 412.988L653.261 413.757H653.266Z" fill="#16161E"/>
<path d="M655.387 424.272C655.234 424.263 651.599 424.062 650.277 422.108C649.309 420.675 649.486 419.079 649.668 417.388C649.86 415.659 650.056 413.867 649.151 411.904L650.023 411.507C651.038 413.71 650.818 415.721 650.622 417.493C650.449 419.07 650.301 420.431 651.072 421.573C652.126 423.13 655.402 423.317 655.435 423.317L655.387 424.272Z" fill="#16161E"/>
<path d="M650.775 433.32L650.301 432.489C650.301 432.489 652.801 430.879 652.72 423.622L653.678 423.613C653.769 431.528 650.9 433.253 650.775 433.32Z" fill="#16161E"/>
<path d="M674.935 418.267C674.815 418.267 674.71 418.267 674.628 418.257L674.695 417.302C675.61 417.369 678.311 417.077 678.905 416.667C679.72 416.108 680.5 413.815 680.797 412.496L681.731 412.706C681.645 413.093 680.831 416.504 679.447 417.45C678.628 418.014 676.055 418.262 674.935 418.262V418.267Z" fill="#16161E"/>
<path d="M675.351 431.911L674.465 431.543L677.708 423.775L677.899 423.704C677.942 423.689 682.148 422.084 683.46 421.41C684.528 420.861 684.873 419.695 684.524 417.847C684.049 415.339 682.847 411.35 682.838 411.307L683.752 411.03C683.8 411.197 684.983 415.109 685.467 417.665C685.903 419.949 685.376 421.492 683.906 422.251C682.699 422.877 679.298 424.191 678.441 424.516L675.356 431.901L675.351 431.911Z" fill="#16161E"/>
<path d="M673.555 431.829L672.621 431.614C672.813 430.788 674.499 423.508 675.404 422.261C676.242 421.105 680.017 419.103 681.104 418.539L681.219 416.404L682.177 416.456L682.033 419.136L681.789 419.261C680.457 419.939 676.855 421.898 676.185 422.82C675.586 423.641 674.288 428.653 673.56 431.825L673.555 431.829Z" fill="#16161E"/>
<path d="M680.678 411.163C679.557 411.163 678.676 410.007 678.676 408.526C678.676 406.654 679.619 405.994 680.409 405.775C680.429 405.77 680.443 405.765 680.462 405.765L680.778 405.713C683.614 405.483 684.16 407.394 684.337 408.025C684.581 408.909 684.452 409.702 683.973 410.203C683.552 410.647 682.91 410.805 682.172 410.643C681.281 410.38 681.3 409.606 681.315 409.095C681.32 408.889 681.324 408.674 681.296 408.479L679.638 408.431C679.638 408.464 679.638 408.502 679.638 408.536C679.638 409.448 680.117 410.217 680.682 410.217C680.802 410.217 680.922 410.179 681.032 410.112L681.525 410.929C681.262 411.087 680.97 411.168 680.678 411.168V411.163ZM679.801 407.471L681.669 407.523C681.856 407.528 682.024 407.643 682.1 407.819C682.292 408.283 682.282 408.741 682.273 409.114C682.258 409.668 682.292 409.678 682.412 409.716C682.656 409.768 683.044 409.792 683.279 409.544C683.513 409.295 683.566 408.823 683.413 408.283C683.154 407.356 682.665 406.515 680.893 406.663L680.644 406.706C680.352 406.792 680.002 406.969 679.796 407.475L679.801 407.471Z" fill="#16161E"/>
<path d="M681.894 424.272L681.846 423.317C681.88 423.317 685.156 423.13 686.21 421.573C686.981 420.431 686.833 419.07 686.66 417.493C686.464 415.721 686.243 413.71 687.259 411.507L688.131 411.904C687.225 413.867 687.422 415.654 687.613 417.388C687.8 419.079 687.973 420.675 687.005 422.108C685.683 424.062 682.048 424.263 681.894 424.272Z" fill="#16161E"/>
<path d="M686.502 433.32C686.382 433.248 683.509 431.528 683.604 423.613L684.562 423.622C684.476 430.879 686.962 432.479 686.986 432.493L686.507 433.32H686.502Z" fill="#16161E"/>
<path d="M676.592 418.792H661.011V419.748H676.592V418.792Z" fill="#16161E"/>
<path d="M667.844 408.894H666.888V409.869H667.844V408.894Z" fill="#16161E"/>
<path d="M669.203 407.094L668.386 407.592L668.756 408.195L669.572 407.697L669.203 407.094Z" fill="#16161E"/>
<path d="M669.202 409.124L668.809 409.611L669.554 410.209L669.948 409.722L669.202 409.124Z" fill="#16161E"/>
<path d="M668.94 410.458L667.993 410.591L668.356 413.155L669.303 413.021L668.94 410.458Z" fill="#16161E"/>
<path d="M667.841 417.842L666.892 417.737L667.443 412.735H670.269L670.82 417.636L669.872 417.741L669.417 413.69H668.305L667.841 417.842Z" fill="#16161E"/>
<path d="M478.639 410.375L477.731 410.675L478.583 413.242L479.491 412.942L478.639 410.375Z" fill="#16161E"/>
<path d="M478.045 417.842L477.097 417.737L477.648 412.735H480.474L481.029 417.636L480.081 417.741L479.621 413.69H478.51L478.045 417.842Z" fill="#16161E"/>
<path d="M670.236 420.966H667.309V421.922H670.236V420.966Z" fill="#16161E"/>
<path d="M669.276 421.444H668.32V431.724H669.276V421.444Z" fill="#16161E"/>
<path d="M664.841 398.274H663.885V415.912H664.841V398.274Z" fill="#16161E"/>
<path d="M483.645 418.792H458.939V419.748H483.645V418.792Z" fill="#16161E"/>
<path d="M472.724 420.966H469.797V421.922H472.724V420.966Z" fill="#16161E"/>
<path d="M471.769 421.444H470.813V431.724H471.769V421.444Z" fill="#16161E"/>
<path d="M471.769 399.459H470.813V417.097H471.769V399.459Z" fill="#16161E"/>
<path d="M288.868 404.514C288.503 404.514 288.135 404.437 287.823 404.193C287.387 403.854 287.148 403.257 287.071 402.326L287.038 401.117L287.996 401.088L288.029 402.273C288.077 402.88 288.211 403.281 288.412 403.443C288.575 403.572 288.858 403.592 289.351 403.515L289.505 404.456C289.299 404.49 289.083 404.514 288.868 404.514Z" fill="#16161E"/>
<path d="M286.318 422.544L283.355 432.334L284.27 432.61L287.234 422.82L286.318 422.544Z" fill="#16161E"/>
<path d="M293.75 423.246L292.881 423.647L296.891 432.298L297.76 431.897L293.75 423.246Z" fill="#16161E"/>
<path d="M290.635 404.924C290.558 404.924 290.482 404.905 290.415 404.872C290.295 404.81 290.209 404.7 290.17 404.571L289.38 401.628L287.478 401.494C287.229 401.475 287.033 401.27 287.033 401.017C287.033 400.161 287.742 398.728 289.648 398.523C292.872 398.179 293.547 403.262 293.576 403.482C293.605 403.701 293.475 403.912 293.265 403.988L290.793 404.896C290.74 404.915 290.683 404.924 290.625 404.924H290.635ZM290.237 401.117L290.961 403.816L292.565 403.228C292.364 402.177 291.636 399.259 289.754 399.474C288.733 399.583 288.283 400.152 288.096 400.582L289.792 400.701C290.022 400.716 290.209 400.897 290.233 401.122L290.237 401.117Z" fill="#16161E"/>
<path d="M284.734 414.613L284.226 413.8L288.216 411.307L288.7 408.541C288.935 407.423 289.284 406.582 289.739 406.028L290.482 406.635C290.237 406.936 289.888 407.542 289.639 408.722L289.121 411.684C289.097 411.818 289.021 411.933 288.906 412.009L284.734 414.617V414.613Z" fill="#16161E"/>
<path d="M293.849 422.992H285.017C284.863 422.992 284.724 422.92 284.633 422.801C284.542 422.681 284.514 422.524 284.557 422.38L287.143 413.748L288.063 414.02L285.658 422.036H293.269L291.449 412.453C291.444 412.425 291.44 412.396 291.44 412.362C291.44 411.34 291.488 410.428 291.531 409.625C291.622 407.977 291.689 406.678 291.301 405.383L292.22 405.106C292.656 406.558 292.584 407.934 292.489 409.673C292.445 410.452 292.398 411.335 292.398 412.315L294.314 422.423C294.342 422.562 294.304 422.705 294.213 422.815C294.122 422.925 293.988 422.987 293.844 422.987L293.849 422.992Z" fill="#16161E"/>
<path d="M287.34 410.561C286.841 409.916 286.497 408.995 286.482 408.956C286.444 408.851 286.444 408.737 286.482 408.631C286.765 407.819 288.02 406.506 288.159 406.357L288.848 407.017C288.417 407.466 287.704 408.297 287.45 408.794C287.56 409.061 287.799 409.592 288.096 409.969L287.34 410.552V410.561Z" fill="#16161E"/>
<path d="M266.509 431.815L265.551 431.763L265.642 430.038C265.642 429.947 265.675 429.861 265.733 429.785L267.285 427.621L266.193 425.118L265.316 424.406C264.828 424.415 263.568 424.411 262.955 424.205C262.15 423.938 262.006 423.049 262.045 422.567C262.064 422.356 262.217 422.184 262.423 422.141L263.831 421.84L264.162 421.229C264.219 421.129 264.31 421.047 264.416 421.009L265.532 420.598C265.762 420.512 266.02 420.617 266.13 420.837L266.997 422.61L266.135 423.03L265.46 421.645L264.919 421.845L264.569 422.49C264.502 422.614 264.387 422.7 264.248 422.729L263.031 422.992C263.065 423.13 263.127 423.264 263.256 423.307C263.683 423.45 264.837 423.474 265.469 423.455C265.584 423.455 265.699 423.489 265.785 423.565L266.887 424.463C266.945 424.511 266.993 424.573 267.021 424.645L268.267 427.501C268.334 427.654 268.314 427.831 268.219 427.97L266.59 430.239L266.509 431.825V431.815Z" fill="#16161E"/>
<path d="M279.044 429.484C278.732 429.068 278.526 428.462 278.306 427.817C277.98 426.866 277.612 425.791 276.874 425.232L269.062 423.785C268.98 423.77 268.908 423.737 268.846 423.684L267.17 422.309L267.778 421.573L269.359 422.872L277.156 424.315C277.224 424.329 277.286 424.353 277.338 424.391C278.387 425.108 278.842 426.441 279.211 427.511C279.408 428.079 279.59 428.619 279.815 428.915L279.048 429.489L279.044 429.484Z" fill="#16161E"/>
<path d="M278.948 432.9H277.99V430.841C276.203 429.871 275.288 427.907 274.982 427.138C274.402 427.143 273.842 427.329 273.162 427.549C272.142 427.884 270.872 428.299 268.952 428.299V427.344C270.719 427.344 271.859 426.971 272.865 426.641C273.732 426.36 274.479 426.116 275.37 426.197C275.561 426.216 275.724 426.345 275.782 426.527C275.791 426.555 276.654 429.178 278.675 430.114C278.842 430.191 278.953 430.363 278.953 430.549V432.904L278.948 432.9Z" fill="#16161E"/>
<path d="M270.177 429.73L269.235 429.895L269.757 432.859L270.699 432.694L270.177 429.73Z" fill="#16161E"/>
<path d="M275.167 429.745L274.578 432.06L275.505 432.295L276.094 429.98L275.167 429.745Z" fill="#16161E"/>
<path d="M277.065 425.256L277.056 424.301C277.156 424.301 278.019 424.219 277.985 422.676L278.943 422.657C278.962 423.555 278.742 424.243 278.287 424.707C277.765 425.242 277.133 425.256 277.065 425.256Z" fill="#16161E"/>
<path d="M266.83 425.237L266.341 424.415L268.904 422.906C268.937 422.887 268.975 422.868 269.014 422.858C269.09 422.834 276.903 420.546 283.474 414.412L284.13 415.109C277.698 421.114 270.101 423.527 269.34 423.756L266.83 425.237Z" fill="#16161E"/>
<path d="M291.923 411.88H289.835V412.835H291.923V411.88Z" fill="#16161E"/>
<path d="M480.549 407.87L478.397 412.392L479.261 412.801L481.413 408.279L480.549 407.87Z" fill="#16161E"/>
<path d="M478.16 407.956L477.528 408.674L479.496 410.398L480.128 409.68L478.16 407.956Z" fill="#16161E"/>
<path d="M67.7418 227.251L61.2037 213.65L54.656 227.05L53.7939 226.63L60.7774 212.342C60.8588 212.179 61.0265 212.074 61.2085 212.074C61.3905 212.074 61.5581 212.179 61.6396 212.346L68.6039 226.84L67.7418 227.256V227.251Z" fill="#16161E"/>
<path d="M82.4368 223.969L77.1776 213.029H61.0983V212.074H77.7812L83.299 223.558L82.4368 223.969Z" fill="#16161E"/>
<path d="M94.8807 227.251L88.3427 213.65L81.795 227.05L80.9328 226.63L87.9164 212.342C87.9978 212.179 88.1654 212.074 88.3475 212.074C88.5295 212.074 88.6971 212.179 88.7785 212.346L95.7429 226.84L94.8807 227.256V227.251Z" fill="#16161E"/>
<path d="M109.576 223.969L104.317 213.029H88.2373V212.074H104.92L110.438 223.558L109.576 223.969Z" fill="#16161E"/>
<path d="M122.02 227.251L115.482 213.646L108.929 227.046L108.067 226.625L115.055 212.337C115.137 212.174 115.304 212.069 115.486 212.069C115.668 212.069 115.836 212.174 115.918 212.342L122.882 226.836L122.02 227.251Z" fill="#16161E"/>
<path d="M138.291 227.251L131.456 213.029H115.376V212.074H132.059L139.153 226.84L138.291 227.251Z" fill="#16161E"/>
<path d="M69.0494 265.698H53.3532V272.133H69.0494V265.698Z" fill="#CECFD8"/>
<path d="M93.7839 265.698H78.0877V272.133H93.7839V265.698Z" fill="#5E23DC" fill-opacity="0.28"/>
<path d="M118.518 265.698H102.822V272.133H118.518V265.698Z" fill="#5E23DC" fill-opacity="0.28"/>
<path d="M69.0494 280.612H53.3532V287.047H69.0494V280.612Z" fill="#CECFD8"/>
<path d="M93.7839 280.612H78.0877V287.047H93.7839V280.612Z" fill="#CECFD8"/>
<path d="M118.518 280.612H102.822V287.047H118.518V280.612Z" fill="#CECFD8"/>
<path d="M69.0494 295.527H53.3532V301.962H69.0494V295.527Z" fill="#D1D2DC"/>
<path d="M93.7839 295.527H78.0877V301.962H93.7839V295.527Z" fill="#D1D2DC"/>
<path d="M118.518 295.527H102.822V301.962H118.518V295.527Z" fill="#D1D2DC"/>
<path d="M53.8322 323.937H52.8742V309.963H69.5236V323.301H68.5656V310.919H53.8322V323.937Z" fill="#D1D2DC"/>
<path d="M94.2628 323.937H93.3049V310.919H78.5667V323.937H77.6087V309.963H94.2628V323.937Z" fill="#D1D2DC"/>
<path d="M118.997 323.937H118.039V310.919H103.301V323.937H102.343V309.963H118.997V323.937Z" fill="#D1D2DC"/>
<path d="M153.934 286.302H152.976V251.71H133.793V250.755H153.934V286.302Z" fill="#16161E"/>
<path d="M47.7396 251.233H46.7816V226.353H120.995V245.108H120.037V227.308H47.7396V251.233Z" fill="#16161E"/>
<path d="M147.741 249.451H146.783V227.308H117.283V226.353H147.741V249.451Z" fill="#16161E"/>
<path d="M41.6693 382.238H40.7129V410.877H41.6693V382.238Z" fill="#16161E"/>
<path d="M41.6693 331.776H40.7129V374.475H41.6693V331.776Z" fill="#16161E"/>
<path d="M41.6661 325.637H40.7081V250.755H51.672C52.5773 247.182 55.8295 244.631 59.5608 244.631C63.292 244.631 66.5443 247.182 67.4496 250.755H78.811C79.7162 247.182 82.9685 244.631 86.6998 244.631C90.431 244.631 93.6833 247.182 94.5886 250.755H105.95C106.855 247.182 110.107 244.631 113.839 244.631C117.57 244.631 120.822 247.182 121.728 250.755H131.154V305.382H130.196V251.71H120.952L120.875 251.328C120.204 248.003 117.244 245.586 113.839 245.586C110.433 245.586 107.473 247.998 106.803 251.328L106.726 251.71H93.8126L93.736 251.328C93.0654 248.003 90.1053 245.586 86.6998 245.586C83.2942 245.586 80.3341 247.998 79.6636 251.328L79.5869 251.71H66.6736L66.597 251.328C65.9264 248.003 62.9663 245.586 59.5608 245.586C56.1552 245.586 53.1951 247.998 52.5246 251.328L52.4479 251.71H41.6661V325.637Z" fill="#16161E"/>
<path d="M122.451 332.254H35.7507V325.16H122.451V326.115H36.7087V331.298H122.451V332.254Z" fill="#16161E"/>
<path d="M70.1175 212.552H69.1596V200.876H67.622V212.552H66.6641V199.921H70.1175V212.552Z" fill="#16161E"/>
<path d="M101.093 212.552H100.135V209.805H93.8318V212.552H92.8738V208.849H101.093V212.552Z" fill="#16161E"/>
<path d="M75.3384 363.138H59.1249V345.974C59.1249 341.383 62.8658 337.652 67.4688 337.652C72.0718 337.652 75.8126 341.388 75.8126 345.974V362.661H75.3384V363.138ZM60.0829 362.183H74.8546V345.974C74.8546 341.913 71.5401 338.607 67.4688 338.607C63.3974 338.607 60.0829 341.913 60.0829 345.974V362.183Z" fill="#D1D2DC"/>
<path d="M81.1676 368.422H54.7998V362.183H59.6039V363.138H55.7577V367.466H80.2096V363.138H75.3384V362.183H81.1676V368.422Z" fill="#D1D2DC"/>
<path d="M111.324 363.138H95.1107V345.974C95.1107 341.383 98.8515 337.652 103.454 337.652C108.057 337.652 111.798 341.388 111.798 345.974V362.661H111.324V363.138ZM96.0686 362.183H110.84V345.974C110.84 341.913 107.526 338.607 103.454 338.607C99.3832 338.607 96.0686 341.913 96.0686 345.974V362.183Z" fill="#D1D2DC"/>
<path d="M117.153 368.422H90.7855V362.183H95.5897V363.138H91.7434V367.466H116.195V363.138H111.324V362.183H117.153V368.422Z" fill="#D1D2DC"/>
<path d="M120.516 382.753H31.8949L37.2404 373.997H120.516V374.952H37.7768L33.6001 381.798H120.516V382.753Z" fill="#16161E"/>
<path d="M111.324 350.421H95.5897V351.377H111.324V350.421Z" fill="#D1D2DC"/>
<path d="M103.932 350.393H102.976V362.79H103.932V350.393Z" fill="#D1D2DC"/>
<path d="M75.3384 350.421H59.6039V351.377H75.3384V350.421Z" fill="#D1D2DC"/>
<path d="M67.9461 350.393H66.9898V362.79H67.9461V350.393Z" fill="#D1D2DC"/>
<path d="M115.855 419.791H114.897V390.115H51.3894V412.855H50.4314V389.16H115.855V419.791Z" fill="#D1D2DC"/>
<path d="M78.1308 360.879L78.0782 360.454C78.0686 360.377 77.8578 358.562 78.8972 357.377C79.9366 356.187 81.7663 356.154 81.8429 356.154H82.2692L82.3219 356.574C82.3315 356.651 82.5422 358.466 81.5029 359.651C80.4635 360.84 78.6338 360.874 78.5571 360.874H78.1308V360.879ZM81.3879 357.157C80.8898 357.238 80.1042 357.449 79.6205 358.008C79.1367 358.557 79.0313 359.364 79.0169 359.871C79.5151 359.789 80.3006 359.579 80.7844 359.02C81.2682 358.471 81.3735 357.664 81.3879 357.157Z" fill="#D1D2DC"/>
<path d="M78.2985 357.272L78.0063 356.957C77.968 356.914 77.0627 355.915 77.1777 354.75C77.2926 353.579 78.3751 352.777 78.4182 352.743L78.7631 352.49L79.0553 352.805C79.0936 352.848 79.9989 353.847 79.8839 355.012C79.7689 356.183 78.6865 356.985 78.6433 357.019L78.2985 357.272ZM78.6338 353.842C78.4182 354.086 78.1739 354.439 78.1308 354.836C78.0877 355.232 78.2602 355.629 78.4278 355.91C78.6433 355.667 78.8876 355.313 78.9307 354.917C78.9691 354.516 78.8014 354.124 78.6338 353.842Z" fill="#D1D2DC"/>
<path d="M113.393 360.32C113.25 360.32 113.159 360.31 113.144 360.31L112.718 360.267V359.837C112.713 359.78 112.704 358.433 113.571 357.64C114.438 356.847 115.779 356.966 115.836 356.971L116.262 357.014V357.444C116.267 357.501 116.277 358.848 115.41 359.641C114.758 360.243 113.829 360.32 113.389 360.32H113.393ZM115.261 357.936C114.936 357.969 114.519 358.074 114.222 358.342C113.925 358.614 113.791 359.02 113.724 359.34C114.05 359.307 114.466 359.202 114.763 358.934C115.06 358.662 115.194 358.256 115.257 357.936H115.261Z" fill="#D1D2DC"/>
<path d="M93.0606 360.879H92.6343C92.5577 360.874 90.728 360.84 89.6886 359.651C88.6492 358.466 88.86 356.651 88.8696 356.574L88.9222 356.149H89.3485C89.4252 356.154 91.2549 356.187 92.2943 357.377C93.3337 358.562 93.1229 360.377 93.1133 360.454L93.0606 360.879ZM89.8036 357.157C89.8179 357.664 89.9185 358.466 90.4071 359.02C90.8956 359.579 91.6764 359.79 92.1745 359.871C92.1602 359.364 92.0596 358.562 91.571 358.008C91.0824 357.449 90.3017 357.238 89.7988 357.157H89.8036Z" fill="#D1D2DC"/>
<path d="M689.831 226.831H683.729V232.917H689.831V226.831Z" fill="#CECFD8"/>
</g>
</svg>
