<svg width="37" height="38" viewBox="0 0 37 38" fill="none" xmlns="http://www.w3.org/2000/svg">
<path fill-rule="evenodd" clip-rule="evenodd" d="M27.1457 33.2499L23.3316 12.3657L6.16666 13.9681V28.1832C6.16666 29.9566 6.16666 30.8432 6.50274 31.5209C6.79834 32.1167 7.27002 32.6011 7.85016 32.9047C8.50999 33.2499 9.37332 33.2499 11.1 33.2499H27.1457ZM20.8125 23.7974C20.8125 27.2142 17.5133 29.6146 16.0749 30.4996C15.8761 30.6222 15.6486 30.6869 15.4167 30.6869C15.1848 30.6869 14.9572 30.6222 14.7584 30.4996C13.32 29.6146 10.0208 27.2142 10.0208 23.7958C10.0208 20.4439 12.6355 18.2082 15.4167 18.2082C18.2949 18.2082 20.8125 20.4439 20.8125 23.7974Z" fill="#5E23DC"/>
<path d="M6.50274 6.479C6.16666 7.15667 6.16666 8.04333 6.16666 9.81667V10.7888L33.9012 8.1985C33.8719 7.42583 33.7933 6.90967 33.5806 6.479C33.285 5.88318 32.8133 5.39876 32.2332 5.09517C31.5733 4.75 30.71 4.75 28.9833 4.75H11.1C9.37332 4.75 8.50999 4.75 7.85016 5.09517C7.27002 5.39876 6.79834 5.88318 6.50274 6.479ZM33.9167 11.3778L26.4164 12.0777L30.2799 33.2421C31.1925 33.2215 31.7645 33.1502 32.2332 32.9048C32.8133 32.6012 33.285 32.1168 33.5806 31.521C33.9167 30.8433 33.9167 29.9567 33.9167 28.1833V11.3778Z" fill="#5E23DC" fill-opacity="0.28"/>
<path d="M15.4167 25.3334C16.2681 25.3334 16.9583 24.6245 16.9583 23.7501C16.9583 22.8756 16.2681 22.1667 15.4167 22.1667C14.5652 22.1667 13.875 22.8756 13.875 23.7501C13.875 24.6245 14.5652 25.3334 15.4167 25.3334Z" fill="#5E23DC"/>
</svg>
