<svg width="25" height="25" viewBox="0 0 25 25" fill="none" xmlns="http://www.w3.org/2000/svg">
<path d="M12.4981 5.20836C14.1741 5.20836 15.7481 5.84795 16.9294 7.01045C18.1023 8.16357 18.7481 9.69691 18.7481 11.3229C18.7481 12.949 18.1023 14.4792 16.9304 15.6344L12.4981 19.9927L8.06685 15.6323C6.89498 14.4792 6.24914 12.949 6.24914 11.3209C6.24914 9.69274 6.89498 8.16253 8.06685 7.00732C9.24956 5.84777 10.8418 5.20137 12.4981 5.20836ZM12.4981 3.12503C10.2945 3.11897 8.17725 3.98165 6.60539 5.52607C5.83261 6.28092 5.21854 7.18264 4.79929 8.17824C4.38004 9.17383 4.16406 10.2432 4.16406 11.3235C4.16406 12.4037 4.38004 13.4731 4.79929 14.4687C5.21854 15.4643 5.83261 16.366 6.60539 17.1209L12.4981 22.9157L18.3908 17.1188C19.1633 16.364 19.7771 15.4624 20.1961 14.467C20.6152 13.4716 20.8311 12.4024 20.8311 11.3224C20.8311 10.2424 20.6152 9.17329 20.1961 8.17788C19.7771 7.18248 19.1633 6.28088 18.3908 5.52607C16.819 3.98165 14.7017 3.11897 12.4981 3.12503ZM12.4981 8.85316C13.1939 8.85316 13.8481 9.12399 14.3398 9.61461C14.5818 9.85646 14.7738 10.1436 14.9048 10.4597C15.0358 10.7758 15.1033 11.1146 15.1033 11.4568C15.1033 11.799 15.0358 12.1378 14.9048 12.4539C14.7738 12.77 14.5818 13.0571 14.3398 13.299C13.8471 13.7907 13.1939 14.0604 12.4981 14.0604C11.8023 14.0604 11.1491 13.7896 10.6564 13.299C10.4144 13.0571 10.2224 12.77 10.0914 12.4539C9.96036 12.1378 9.89293 11.799 9.89293 11.4568C9.89293 11.1146 9.96036 10.7758 10.0914 10.4597C10.2224 10.1436 10.4144 9.85646 10.6564 9.61461C11.1451 9.12665 11.8075 8.85275 12.4981 8.85316ZM12.4981 7.81149C11.8982 7.81112 11.3074 7.95876 10.7782 8.24132C10.249 8.52388 9.79765 8.93263 9.4642 9.43135C9.13075 9.93007 8.92548 10.5033 8.86659 11.1004C8.8077 11.6974 8.89701 12.2997 9.12659 12.854C9.35618 13.4083 9.71896 13.8973 10.1828 14.2778C10.6466 14.6583 11.1971 14.9185 11.7855 15.0354C12.374 15.1522 12.9822 15.1221 13.5562 14.9477C14.1302 14.7733 14.6523 14.4599 15.0762 14.0354C15.7596 13.3513 16.1434 12.4238 16.1434 11.4568C16.1434 10.4898 15.7596 9.56234 15.0762 8.87816C14.3923 8.19483 13.4649 7.81114 12.4981 7.81149Z" fill="#868686"/>
</svg>
