<svg width="24" height="24" viewBox="0 0 24 24" fill="none" xmlns="http://www.w3.org/2000/svg">
<path d="M13 6C14.1046 6 15 5.10457 15 4C15 2.89543 14.1046 2 13 2C11.8954 2 11 2.89543 11 4C11 5.10457 11.8954 6 13 6Z" fill="#5E23DC"/>
<path d="M13.9746 12.2699C14.2196 12.6379 14.5856 12.9169 15.0056 13.0569L17.6806 13.9489L18.3136 12.0529L15.6386 11.1609L13.9756 8.66595C13.7826 8.37661 13.5176 8.14257 13.2066 7.98695L11.7726 7.26995C11.3457 7.05762 10.857 7.00478 10.3946 7.12095L7.20156 7.91795C6.92125 7.98765 6.65937 8.11724 6.43392 8.29781C6.20847 8.47837 6.02481 8.70563 5.89556 8.96395L4.10156 12.5529L5.89056 13.4479L7.68456 9.85895L9.90756 9.30295L8.10356 17.6489L4.42956 20.176L5.56256 21.8239L9.23756 19.2959C9.65856 19.0059 9.95056 18.5709 10.0576 18.0709L10.5746 15.6829L13.0916 17.5709L14.0166 22.1959L15.9776 21.8029L15.0526 17.176C14.9554 16.694 14.6842 16.2646 14.2906 15.9699L12.1196 14.3419L12.7666 10.4569L13.9746 12.2699Z" fill="#5E23DC"/>
</svg>
