<svg width="24" height="24" viewBox="0 0 24 24" fill="none" xmlns="http://www.w3.org/2000/svg">
<path d="M6.5 8.11C5.61 8.11 4.89 7.39 4.89 6.5C4.89 6.073 5.05962 5.66349 5.36156 5.36156C5.66349 5.05962 6.073 4.89 6.5 4.89C7.39 4.89 8.11 5.61 8.11 6.5C8.11 6.927 7.94038 7.33651 7.63844 7.63844C7.33651 7.94038 6.927 8.11 6.5 8.11ZM6.5 2C4 2 2 4 2 6.5C2 9.87 6.5 14.86 6.5 14.86C6.5 14.86 11 9.87 11 6.5C11 4 9 2 6.5 2ZM17.5 8.11C17.073 8.11 16.6635 7.94038 16.3616 7.63844C16.0596 7.33651 15.89 6.927 15.89 6.5C15.89 6.28857 15.9316 6.07921 16.0126 5.88388C16.0935 5.68855 16.2121 5.51106 16.3616 5.36156C16.5111 5.21206 16.6885 5.09346 16.8839 5.01255C17.0792 4.93164 17.2886 4.89 17.5 4.89C17.7114 4.89 17.9208 4.93164 18.1161 5.01255C18.3115 5.09346 18.4889 5.21206 18.6384 5.36156C18.7879 5.51106 18.9065 5.68855 18.9874 5.88388C19.0684 6.07921 19.11 6.28857 19.11 6.5C19.11 6.927 18.9404 7.33651 18.6384 7.63844C18.3365 7.94038 17.927 8.11 17.5 8.11ZM17.5 2C15 2 13 4 13 6.5C13 9.87 17.5 14.86 17.5 14.86C17.5 14.86 22 9.87 22 6.5C22 4 20 2 17.5 2ZM17.5 16C16.23 16 15.1 16.8 14.68 18H9.32C9.05502 17.2516 8.50416 16.6387 7.78813 16.2957C7.0721 15.9527 6.24929 15.9075 5.5 16.17C5.12758 16.3005 4.78453 16.5031 4.49047 16.7663C4.19641 17.0294 3.95709 17.3479 3.78621 17.7036C3.61532 18.0593 3.51622 18.4452 3.49456 18.8393C3.47291 19.2333 3.52913 19.6277 3.66 20C3.92857 20.7504 4.48314 21.364 5.20261 21.7069C5.92209 22.0498 6.748 22.094 7.5 21.83C8.35 21.53 9 20.85 9.32 20H14.69C15.24 21.56 16.96 22.38 18.5 21.83C18.8736 21.7008 19.2179 21.4992 19.5133 21.2365C19.8086 20.9739 20.0492 20.6554 20.2211 20.2995C20.393 19.9436 20.4929 19.5573 20.515 19.1626C20.5371 18.768 20.481 18.3729 20.35 18C19.92 16.8 18.78 16 17.5 16ZM17.5 20.5C17.1022 20.5 16.7206 20.342 16.4393 20.0607C16.158 19.7794 16 19.3978 16 19C16 18.6022 16.158 18.2206 16.4393 17.9393C16.7206 17.658 17.1022 17.5 17.5 17.5C17.8978 17.5 18.2794 17.658 18.5607 17.9393C18.842 18.2206 19 18.6022 19 19C19 19.3978 18.842 19.7794 18.5607 20.0607C18.2794 20.342 17.8978 20.5 17.5 20.5Z" fill="#5E23DC"/>
</svg>
